<?xml version="1.0" encoding="UTF-8" standalone="no"?>
<!-- Created with Inkscape (http://www.inkscape.org/) -->

<svg
   xmlns:dc="http://purl.org/dc/elements/1.1/"
   xmlns:cc="http://creativecommons.org/ns#"
   xmlns:rdf="http://www.w3.org/1999/02/22-rdf-syntax-ns#"
   xmlns:svg="http://www.w3.org/2000/svg"
   xmlns="http://www.w3.org/2000/svg"
   xmlns:sodipodi="http://sodipodi.sourceforge.net/DTD/sodipodi-0.dtd"
   xmlns:inkscape="http://www.inkscape.org/namespaces/inkscape"
   version="1.1"
   id="svg7357"
   xml:space="preserve"
   width="50.666668"
   height="81.333336"
   viewBox="0 0 50.666668 81.333336"
   sodipodi:docname="Amnesty.svg"
   inkscape:version="0.92.2 (5c3e80d, 2017-08-06)"><metadata
     id="metadata7363"><rdf:RDF><cc:Work
         rdf:about=""><dc:format>image/svg+xml</dc:format><dc:type
           rdf:resource="http://purl.org/dc/dcmitype/StillImage" /><dc:title></dc:title></cc:Work></rdf:RDF></metadata><defs
     id="defs7361" /><sodipodi:namedview
     pagecolor="#ffffff"
     bordercolor="#666666"
     borderopacity="1"
     objecttolerance="10"
     gridtolerance="10"
     guidetolerance="10"
     inkscape:pageopacity="0"
     inkscape:pageshadow="2"
     inkscape:window-width="1920"
     inkscape:window-height="1025"
     id="namedview7359"
     showgrid="false"
     inkscape:zoom="10.377049"
     inkscape:cx="25.333334"
     inkscape:cy="40.666668"
     inkscape:window-x="0"
     inkscape:window-y="27"
     inkscape:window-maximized="1"
     inkscape:current-layer="g7365" /><g
     id="g7365"
     inkscape:groupmode="layer"
     inkscape:label="ink_ext_XXXXXX"
     transform="matrix(1.3333333,0,0,-1.3333333,0,81.333333)"><g
       id="g7367"
       transform="scale(0.1)"><path
         d="m 275.813,561.199 c 33.839,-76.32 -56.161,-99.363 -72.723,-161.281 l 2.883,-7.922 c 26.64,-6.48 61.199,10.082 79.199,-13.68 6.48,-15.839 -12.961,-36 8.641,-46.078 7.917,-2.879 12.957,10.801 20.16,3.598 l -7.203,-12.957 46.8,-28.801 c 5.043,0 12.961,7.918 14.403,-0.719 -4.321,-4.32 -1.442,-7.203 0,-12.961 2.879,-2.16 10.8,-2.16 8.64,-9.359 -14.402,-2.16 -10.082,-20.883 -16.562,-30.242 -16.559,-15.84 -38.16,-18 -55.438,-28.801 2.879,-2.16 1.438,-5.758 2.157,-7.918 -8.637,4.32 -20.157,4.32 -23.758,-6.48 l -4.321,-2.16 -5.761,15.839 c -4.317,-1.441 -7.2,-2.879 -10.078,-6.48 0.718,-27.359 -0.719,-57.598 2.16,-82.801 -4.321,0 0,-8.637 0.718,-11.519 2.883,-3.598 7.922,-4.321 12.243,-1.438 0.718,0 0.718,2.16 0.718,4.32 2.161,-1.441 2.161,0 2.879,0.719 l 4.321,-10.801 c 18,5.762 33.121,3.602 48.242,15.121 l -6.481,15.118 c 5.039,0.722 22.321,-13.68 23.039,2.882 7.2,-1.441 10.079,-12.242 20.161,-7.199 2.16,0.719 5.761,0 5.761,-2.16 -0.722,-10.801 -19.441,-10.801 -12.961,-23.762 -12.961,15.121 -18.722,-22.32 -26.64,0.719 -15.84,-8.6405 -45.36,-3.598 -46.082,-25.9179 -17.278,15.1211 -12.957,-20.8789 -25.918,-7.9218 L 262.133,2.47656 c -48.961,5.03907 -94.32,18.00004 -141.121,25.92184 -7.922,15.1172 3.601,43.1993 -15.84,51.8399 -5.039,-1.4414 -9.3595,-5.7617 -14.4025,-5.7617 5.7618,20.8789 -28.0781,18 -41.039,29.5194 -10.0782,15.84 -28.0782,-3.598 -32.3985,18 -2.8789,-0.719 -5.039,0 -6.4804,2.16 12.9609,13.68 -7.19926,36.723 9.3593,51.84 8.6407,20.883 51.8399,9.359 39.6016,38.883 7.918,4.32 18.7188,-13.68 28.0781,-0.723 2.1602,-8.64 15.8394,-12.957 23.7614,-5.758 7.2,30.961 5.039,62.641 2.161,95.04 -3.602,1.441 -7.2,0.718 -7.922,5.761 v 2.879 c -17.2777,2.16 -33.1215,-8.64 -49.6801,-13.68 4.3204,-25.199 -19.4414,0 -23.039,-19.441 -5.0391,12.242 -16.5586,-2.16 -25.9219,4.32 -1.4375,7.922 9.3633,11.52 13.6797,15.121 0.7226,5.04 -6.4766,6.481 -3.5977,11.52 8.6407,1.437 19.4375,-5.762 21.5977,7.199 18,-18 38.1601,9.36 59.043,9.36 -1.4414,18 18.7183,2.882 18.0003,19.441 0,14.398 -7.922,39.598 10.797,45.359 15.843,0 33.121,0.719 50.402,0.719 -26.641,18 -58.32,41.043 -59.039,79.922 -1.442,65.52 65.519,79.199 108,112.32 7.918,5.758 6.48,15.84 10.797,23.758 23.043,-5.758 23.043,-33.84 38.883,-46.797"
         style="fill:#231f20;fill-opacity:1;fill-rule:evenodd;stroke:none"
         id="path7369"
         inkscape:connector-curvature="0" /><path
         d="m 187.973,407.836 c -14.403,11.523 -24.481,28.082 -25.203,48.242 -0.719,54.719 58.32,68.399 82.082,113.039 8.64,-61.918 -56.161,-100.078 -56.879,-161.281"
         style="fill:#ffffff;fill-opacity:1;fill-rule:evenodd;stroke:none"
         id="path7371"
         inkscape:connector-curvature="0" /><path
         d="m 231.891,355.996 c 5.039,-41.758 0.722,-87.84 2.879,-131.758 -12.239,-5.761 -25.918,-5.761 -38.879,-5.761 -4.321,3.601 2.882,9.359 -5.039,12.961 -5.039,-7.2 -15.84,-10.083 -23.039,-5.04 -4.321,-5.043 -7.2,-15.121 -18,-14.402 l -5.043,5.043 c 5.761,48.238 -5.04,95.039 5.043,141.117 25.199,2.883 51.839,-0.718 82.078,-2.16"
         style="fill:#ffffff;fill-opacity:1;fill-rule:evenodd;stroke:none"
         id="path7373"
         inkscape:connector-curvature="0" /><path
         d="m 324.051,299.117 c 5.762,-5.039 10.801,-7.918 16.562,-12.961 -0.722,-4.32 -7.922,-4.32 -5.761,-10.078 2.878,-2.16 4.32,-3.601 7.918,-2.879 2.882,-9.363 -16.559,-14.402 -2.879,-20.16 l 10.082,4.32 c -4.321,-17.281 -25.922,-20.882 -41.043,-25.203 h -5.039 c 0,4.321 0,8.641 -5.039,8.641 -7.922,-0.719 -12.239,-15.84 -20.161,-3.598 -12.961,3.598 -2.878,-22.32 -12.961,-5.761 10.801,8.64 5.04,23.761 2.161,36 15.121,10.8 -2.879,34.558 17.281,38.878 13.68,-17.277 22.32,8.641 38.879,-7.199"
         style="fill:#ffffff;fill-opacity:1;fill-rule:evenodd;stroke:none"
         id="path7375"
         inkscape:connector-curvature="0" /><path
         d="m 234.77,38.4766 c -30.957,0 -56.879,7.9218 -87.118,15.1211 l -3.601,7.1992 2.879,134.6411 h 13.683 c -2.883,-3.602 -3.601,-8.641 -0.722,-12.239 10.8,-2.883 20.879,23.039 33.839,7.199 0,12.961 15.122,10.801 23.04,13.68 l 18,-2.16 V 38.4766"
         style="fill:#ffffff;fill-opacity:1;fill-rule:evenodd;stroke:none"
         id="path7377"
         inkscape:connector-curvature="0" /><path
         d="m 111.652,191.117 c 5.039,-26.64 2.879,-58.32 2.161,-84.961 -8.641,-5.039 -12.961,22.321 -21.6021,7.203 0,-2.882 3.6016,-7.921 -1.4414,-10.082 -13.6797,8.641 -28.0781,7.2 -41.7578,16.559 l -2.1601,19.441 h -7.1993 c 2.1602,2.879 1.4375,7.922 2.1602,12.961 -7.1992,8.641 -7.9219,-5.039 -15.1211,-5.039 -5.7617,20.16 10.0781,26.637 22.3203,33.84 13.6797,12.238 18,-12.242 30.961,1.438 5.7578,0 12.2382,-4.321 15.8398,-1.438 -2.1602,9.359 9.3595,10.797 15.8395,10.078"
         style="fill:#ffffff;fill-opacity:1;fill-rule:evenodd;stroke:none"
         id="path7379"
         inkscape:connector-curvature="0" /></g></g></svg>