<?xml version="1.0" encoding="UTF-8" standalone="no"?>
<!-- Created with Inkscape (http://www.inkscape.org/) -->

<svg
   xmlns:dc="http://purl.org/dc/elements/1.1/"
   xmlns:cc="http://creativecommons.org/ns#"
   xmlns:rdf="http://www.w3.org/1999/02/22-rdf-syntax-ns#"
   xmlns:svg="http://www.w3.org/2000/svg"
   xmlns="http://www.w3.org/2000/svg"
   xmlns:sodipodi="http://sodipodi.sourceforge.net/DTD/sodipodi-0.dtd"
   xmlns:inkscape="http://www.inkscape.org/namespaces/inkscape"
   width="23.056999mm"
   height="15.405mm"
   viewBox="0 0 23.056999 15.405"
   version="1.1"
   id="svg112"
   inkscape:version="0.92.2 (5c3e80d, 2017-08-06)"
   sodipodi:docname="folkehelsen.svg">
  <defs
     id="defs106">
    <clipPath
       id="clip1">
      <path
         id="path114"
         d="M 0,0 H 65.359375 V 43.671875 H 0 Z m 0,0"
         inkscape:connector-curvature="0" />
    </clipPath>
  </defs>
  <sodipodi:namedview
     id="base"
     pagecolor="#ffffff"
     bordercolor="#666666"
     borderopacity="1.0"
     inkscape:pageopacity="0.0"
     inkscape:pageshadow="2"
     inkscape:zoom="3.959798"
     inkscape:cx="44.860256"
     inkscape:cy="67.259341"
     inkscape:document-units="mm"
     inkscape:current-layer="layer1"
     showgrid="false"
     inkscape:window-width="1920"
     inkscape:window-height="1025"
     inkscape:window-x="0"
     inkscape:window-y="27"
     inkscape:window-maximized="1" />
  <metadata
     id="metadata109">
    <rdf:RDF>
      <cc:Work
         rdf:about="">
        <dc:format>image/svg+xml</dc:format>
        <dc:type
           rdf:resource="http://purl.org/dc/dcmitype/StillImage" />
        <dc:title></dc:title>
      </cc:Work>
    </rdf:RDF>
  </metadata>
  <g
     inkscape:label="Layer 1"
     inkscape:groupmode="layer"
     id="layer1"
     transform="translate(0,-281.595)">
    <g
       id="surface27660"
       transform="matrix(0.35277778,0,0,0.35277778,-1.6800407e-4,281.59358)">
      <g
         id="g121"
         clip-path="url(#clip1)"
         style="clip-rule:nonzero">
        <path
           id="path119"
           d="M 0,43.671875 H 65.359375 V 0.00390625 H 0 V 43.671875"
           style="fill:#d91445;fill-opacity:1;fill-rule:nonzero;stroke:none"
           inkscape:connector-curvature="0" />
      </g>
      <path
         id="path123"
         d="m 42.671875,25.535156 c 0,-2.425781 -1.234375,-4.316406 -3.382813,-5.179687 -2.097656,-0.839844 -5.320312,-0.523438 -6.609374,1.726562 -1.289063,-2.25 -4.511719,-2.566406 -6.609376,-1.726562 -2.152343,0.863281 -3.382812,2.753906 -3.382812,5.179687 0,5.460938 8.433594,12.816406 9.941406,13.179688 h 0.101563 c 1.507812,-0.363282 9.941406,-7.71875 9.941406,-13.179688"
         style="fill:#ffffff;fill-opacity:1;fill-rule:nonzero;stroke:none"
         inkscape:connector-curvature="0" />
      <path
         id="path125"
         d="m 36.613281,28.363281 -0.339843,-0.628906 h -2.949219 v -1.40625 h 1.835937 l 0.335938,-0.625 -0.335938,-0.652344 h -1.835937 v -1.875 L 32.6875,22.886719 32.046875,23.175781 v 1.875 h -1.839844 l -0.335937,0.652344 0.335937,0.625 h 1.839844 v 1.40625 H 29.09375 l -0.339844,0.628906 0.339844,0.648438 h 2.953125 v 6.949219 l 0.640625,0.320312 0.636719,-0.320312 v -6.949219 h 2.949219 l 0.339843,-0.648438"
         style="fill:#d91445;fill-opacity:1;fill-rule:evenodd;stroke:none"
         inkscape:connector-curvature="0" />
      <path
         id="path127"
         d="M 7.253906,9.546875 5.914062,7.289062 C 5.792969,7.078125 5.703125,6.867188 5.703125,6.867188 H 5.691406 c 0,0 0.023438,0.21875 0.023438,0.4375 V 9.546875 H 4.917969 V 5.519531 h 0.835937 l 1.234375,2.066407 c 0.125,0.207031 0.207031,0.386718 0.207031,0.386718 h 0.011719 c 0,0 -0.023437,-0.191406 -0.023437,-0.402344 V 5.519531 H 7.984375 V 9.546875 H 7.253906"
         style="fill:#ffffff;fill-opacity:1;fill-rule:nonzero;stroke:none"
         inkscape:connector-curvature="0" />
      <path
         id="path129"
         d="m 10.613281,7.890625 c -0.550781,0.054687 -0.90625,0.183594 -0.90625,0.6875 0,0.367187 0.210938,0.523437 0.574219,0.523437 0.132812,0 0.25,-0.019531 0.332031,-0.0625 z m -0.378906,1.714844 c -0.914063,0 -1.382813,-0.339844 -1.382813,-0.992188 0,-0.816406 0.816407,-1.054687 1.761719,-1.144531 V 7.324219 c 0,-0.328125 -0.222656,-0.421875 -0.554687,-0.421875 C 9.753906,6.902344 9.445312,7 9.238281,7.09375 L 9.039062,6.574219 c 0.222657,-0.09375 0.632813,-0.238281 1.1875,-0.238281 0.714844,0 1.242188,0.296874 1.242188,1.152343 v 1.882813 c -0.261719,0.140625 -0.691406,0.234375 -1.234375,0.234375"
         style="fill:#ffffff;fill-opacity:1;fill-rule:nonzero;stroke:none"
         inkscape:connector-curvature="0" />
      <path
         id="path131"
         d="m 13.183594,9.601562 c -0.386719,0 -0.730469,-0.101562 -0.921875,-0.230468 l 0.234375,-0.578125 c 0.113281,0.09375 0.332031,0.183593 0.558594,0.183593 0.234374,0 0.394531,-0.148437 0.394531,-0.347656 0,-0.210937 -0.113281,-0.328125 -0.40625,-0.445312 -0.578125,-0.226563 -0.707031,-0.550782 -0.707031,-0.878906 0,-0.535157 0.421874,-0.972657 1.054687,-0.972657 0.390625,0 0.660156,0.078125 0.90625,0.230469 L 14.074219,7.082031 C 13.980469,7.007812 13.800781,6.917969 13.59375,6.917969 c -0.238281,0 -0.363281,0.148437 -0.363281,0.328125 0,0.210937 0.160156,0.328125 0.40625,0.433594 0.609375,0.257812 0.75,0.558593 0.75,0.925781 0,0.550781 -0.453125,0.996093 -1.203125,0.996093"
         style="fill:#ffffff;fill-opacity:1;fill-rule:nonzero;stroke:none"
         inkscape:connector-curvature="0" />
      <path
         id="path133"
         d="m 15.714844,5.914062 c -0.269532,0 -0.488282,-0.1875 -0.488282,-0.429687 0,-0.234375 0.21875,-0.425781 0.488282,-0.425781 0.269531,0 0.484375,0.191406 0.484375,0.433594 0,0.234374 -0.214844,0.421874 -0.484375,0.421874 m -0.980469,4.953126 v -0.605469 c 0.34375,-0.109375 0.523437,-0.320313 0.523437,-0.953125 V 6.394531 h 0.914063 v 2.800781 c 0,1.027344 -0.609375,1.632813 -1.4375,1.671876"
         style="fill:#ffffff;fill-opacity:1;fill-rule:nonzero;stroke:none"
         inkscape:connector-curvature="0" />
      <path
         id="path135"
         d="m 18.449219,6.902344 c -0.40625,0 -0.484375,0.492187 -0.484375,1.054687 0,0.566407 0.08594,1.027344 0.484375,1.027344 0.402343,0 0.484375,-0.460937 0.484375,-1.027344 0,-0.5625 -0.08203,-1.054687 -0.484375,-1.054687 m 0,2.703125 c -0.914063,0 -1.394531,-0.695313 -1.394531,-1.636719 0,-0.945312 0.480468,-1.632812 1.386718,-1.632812 0.921875,0 1.402344,0.6875 1.402344,1.632812 0,0.941406 -0.480469,1.636719 -1.394531,1.636719"
         style="fill:#ffffff;fill-opacity:1;fill-rule:nonzero;stroke:none"
         inkscape:connector-curvature="0" />
      <path
         id="path137"
         d="M 22.476562,9.546875 V 7.339844 c 0,-0.222656 -0.101562,-0.4375 -0.46875,-0.4375 -0.179687,0 -0.28125,0.027344 -0.386718,0.0625 V 9.546875 H 20.707031 V 6.570312 c 0.316407,-0.140624 0.761719,-0.234374 1.324219,-0.234374 1,0 1.359375,0.425781 1.359375,1 v 2.210937 h -0.914063"
         style="fill:#ffffff;fill-opacity:1;fill-rule:nonzero;stroke:none"
         inkscape:connector-curvature="0" />
      <path
         id="path139"
         d="m 25.984375,7.890625 c -0.550781,0.054687 -0.90625,0.183594 -0.90625,0.6875 0,0.367187 0.207031,0.523437 0.570313,0.523437 0.136718,0 0.253906,-0.019531 0.335937,-0.0625 z m -0.382813,1.714844 c -0.910156,0 -1.378906,-0.339844 -1.378906,-0.992188 0,-0.816406 0.8125,-1.054687 1.761719,-1.144531 V 7.324219 c 0,-0.328125 -0.222656,-0.421875 -0.554687,-0.421875 C 25.121094,6.902344 24.8125,7 24.609375,7.09375 L 24.410156,6.574219 c 0.222656,-0.09375 0.628906,-0.238281 1.1875,-0.238281 0.714844,0 1.242188,0.296874 1.242188,1.152343 v 1.882813 c -0.265625,0.140625 -0.691406,0.234375 -1.238282,0.234375"
         style="fill:#ffffff;fill-opacity:1;fill-rule:nonzero;stroke:none"
         inkscape:connector-curvature="0" />
      <path
         id="path141"
         d="m 27.835938,4.953125 h 0.910156 v 4.59375 h -0.910156 v -4.59375"
         style="fill:#ffffff;fill-opacity:1;fill-rule:nonzero;stroke:none"
         inkscape:connector-curvature="0" />
      <path
         id="path143"
         d="m 30.84375,6.984375 v 2.5625 h -0.914062 v -2.5625 h -0.34375 V 6.394531 h 0.34375 V 6.070312 c 0,-0.789062 0.542968,-1.207031 1.398437,-1.109374 V 5.539062 C 31.023438,5.527344 30.84375,5.632812 30.84375,5.996094 v 0.398437 h 0.484375 V 6.984375 H 30.84375"
         style="fill:#ffffff;fill-opacity:1;fill-rule:nonzero;stroke:none"
         inkscape:connector-curvature="0" />
      <path
         id="path145"
         d="m 33.316406,6.902344 c -0.40625,0 -0.488281,0.492187 -0.488281,1.054687 0,0.566407 0.08984,1.027344 0.488281,1.027344 0.402344,0 0.484375,-0.460937 0.484375,-1.027344 0,-0.5625 -0.08203,-1.054687 -0.484375,-1.054687 m 0,2.703125 c -0.914062,0 -1.394531,-0.695313 -1.394531,-1.636719 0,-0.945312 0.480469,-1.632812 1.386719,-1.632812 0.917968,0 1.398437,0.6875 1.398437,1.632812 0,0.941406 -0.480469,1.636719 -1.390625,1.636719"
         style="fill:#ffffff;fill-opacity:1;fill-rule:nonzero;stroke:none"
         inkscape:connector-curvature="0" />
      <path
         id="path147"
         d="M 37.097656,6.988281 C 36.875,6.894531 36.640625,6.902344 36.488281,6.972656 V 9.546875 H 35.574219 V 6.570312 c 0.351562,-0.171874 0.84375,-0.265624 1.691406,-0.222656 l -0.167969,0.640625"
         style="fill:#ffffff;fill-opacity:1;fill-rule:nonzero;stroke:none"
         inkscape:connector-curvature="0" />
      <path
         id="path149"
         d="m 39.15625,6.871094 c -0.375,0 -0.605469,0.324218 -0.578125,0.972656 l 1.101563,-0.164062 c 0,-0.5625 -0.1875,-0.808594 -0.523438,-0.808594 m -0.519531,1.417968 c 0.0625,0.460938 0.300781,0.691407 0.761719,0.691407 0.367187,0 0.648437,-0.082031 0.820312,-0.167969 l 0.203125,0.566406 C 40.175781,9.5 39.824219,9.605469 39.292969,9.605469 c -0.96875,0 -1.523438,-0.636719 -1.523438,-1.644531 0,-0.988282 0.515625,-1.625 1.421875,-1.625 0.914063,0 1.378906,0.617187 1.335938,1.683593 l -1.890625,0.269531"
         style="fill:#ffffff;fill-opacity:1;fill-rule:nonzero;stroke:none"
         inkscape:connector-curvature="0" />
      <path
         id="path151"
         d="M 43.164062,9.546875 V 7.339844 c 0,-0.222656 -0.101562,-0.4375 -0.46875,-0.4375 -0.183593,0 -0.28125,0.027344 -0.386718,0.0625 V 9.546875 H 41.394531 V 6.570312 c 0.316407,-0.140624 0.761719,-0.234374 1.324219,-0.234374 1,0 1.355469,0.425781 1.355469,1 v 2.210937 h -0.910157"
         style="fill:#ffffff;fill-opacity:1;fill-rule:nonzero;stroke:none"
         inkscape:connector-curvature="0" />
      <path
         id="path153"
         d="m 45.070312,6.390625 h 0.914063 v 3.15625 h -0.914063 z m 0.457032,-0.476563 c -0.269532,0 -0.484375,-0.1875 -0.484375,-0.429687 0,-0.234375 0.214843,-0.425781 0.484375,-0.425781 0.269531,0 0.488281,0.191406 0.488281,0.425781 0,0.242187 -0.21875,0.429687 -0.488281,0.429687"
         style="fill:#ffffff;fill-opacity:1;fill-rule:nonzero;stroke:none"
         inkscape:connector-curvature="0" />
      <path
         id="path155"
         d="M 48.75,9.546875 V 7.339844 c 0,-0.222656 -0.101562,-0.4375 -0.46875,-0.4375 -0.183594,0 -0.28125,0.027344 -0.386719,0.0625 V 9.546875 H 46.980469 V 6.570312 c 0.316406,-0.140624 0.761719,-0.234374 1.324219,-0.234374 1,0 1.355468,0.425781 1.355468,1 V 9.546875 H 48.75"
         style="fill:#ffffff;fill-opacity:1;fill-rule:nonzero;stroke:none"
         inkscape:connector-curvature="0" />
      <path
         id="path157"
         d="m 52.378906,6.914062 c -0.07031,-0.035156 -0.164062,-0.050781 -0.289062,-0.050781 -0.46875,0 -0.660156,0.378907 -0.660156,1.132813 0,0.714844 0.1875,1.054687 0.644531,1.054687 0.125,0 0.226562,-0.03125 0.304687,-0.074219 z M 51.886719,10.875 c -0.488281,0 -0.925781,-0.08984 -1.175781,-0.230469 l 0.230468,-0.59375 c 0.195313,0.105469 0.484375,0.1875 0.78125,0.1875 0.480469,0 0.65625,-0.226562 0.65625,-0.589843 V 9.472656 c -0.105468,0.058594 -0.289062,0.097656 -0.550781,0.097656 -0.753906,0 -1.300781,-0.578124 -1.300781,-1.519531 0,-1.054687 0.539062,-1.714843 1.621094,-1.714843 0.488281,0 0.898437,0.097656 1.117187,0.234374 v 3 c 0,0.898438 -0.570313,1.304688 -1.378906,1.304688"
         style="fill:#ffffff;fill-opacity:1;fill-rule:nonzero;stroke:none"
         inkscape:connector-curvature="0" />
      <path
         id="path159"
         d="m 55.523438,6.871094 c -0.375,0 -0.609376,0.324218 -0.582032,0.972656 l 1.101563,-0.164062 c 0,-0.5625 -0.1875,-0.808594 -0.519531,-0.808594 M 55,8.289062 c 0.06641,0.460938 0.300781,0.691407 0.761719,0.691407 0.371093,0 0.648437,-0.082031 0.820312,-0.167969 l 0.203125,0.566406 C 56.539062,9.5 56.191406,9.605469 55.65625,9.605469 c -0.964844,0 -1.519531,-0.636719 -1.519531,-1.644531 0,-0.988282 0.511719,-1.625 1.421875,-1.625 0.910156,0 1.375,0.617187 1.332031,1.683593 L 55,8.289062"
         style="fill:#ffffff;fill-opacity:1;fill-rule:nonzero;stroke:none"
         inkscape:connector-curvature="0" />
      <path
         id="path161"
         d="M 59.527344,9.546875 V 7.339844 c 0,-0.222656 -0.09766,-0.4375 -0.46875,-0.4375 -0.179688,0 -0.28125,0.027344 -0.386719,0.0625 V 9.546875 H 57.761719 V 6.570312 c 0.3125,-0.140624 0.757812,-0.234374 1.320312,-0.234374 1,0 1.359375,0.425781 1.359375,1 v 2.210937 h -0.914062"
         style="fill:#ffffff;fill-opacity:1;fill-rule:nonzero;stroke:none"
         inkscape:connector-curvature="0" />
      <path
         id="path163"
         d="m 13.121094,13.945312 v 2.5625 h -0.910156 v -2.5625 h -0.347657 v -0.589843 h 0.347657 V 13.03125 c 0,-0.789062 0.542968,-1.207031 1.398437,-1.113281 V 12.5 c -0.304687,-0.01172 -0.488281,0.09375 -0.488281,0.453125 v 0.402344 h 0.488281 v 0.589843 h -0.488281"
         style="fill:#ffffff;fill-opacity:1;fill-rule:nonzero;stroke:none"
         inkscape:connector-curvature="0" />
      <path
         id="path165"
         d="m 15.5,13.863281 c -0.402344,0 -0.484375,0.492188 -0.484375,1.054688 0,0.566406 0.08594,1.027343 0.484375,1.027343 0.40625,0 0.484375,-0.460937 0.484375,-1.027343 0,-0.5625 -0.07813,-1.054688 -0.484375,-1.054688 m 0,2.703125 c -0.914062,0 -1.394531,-0.695312 -1.394531,-1.640625 0,-0.941406 0.480469,-1.632812 1.390625,-1.632812 0.917968,0 1.398437,0.691406 1.398437,1.632812 0,0.945313 -0.480469,1.640625 -1.394531,1.640625"
         style="fill:#ffffff;fill-opacity:1;fill-rule:nonzero;stroke:none"
         inkscape:connector-curvature="0" />
      <path
         id="path167"
         d="m 19.1875,13.949219 c -0.21875,-0.09375 -0.457031,-0.08594 -0.605469,-0.01563 v 2.574218 H 17.667969 V 13.53125 c 0.351562,-0.171875 0.84375,-0.265625 1.691406,-0.226562 L 19.1875,13.949219"
         style="fill:#ffffff;fill-opacity:1;fill-rule:nonzero;stroke:none"
         inkscape:connector-curvature="0" />
      <path
         id="path169"
         d="m 22.824219,13.945312 v 2.5625 h -0.914063 v -2.5625 h -0.34375 v -0.589843 h 0.34375 V 13.03125 c 0,-0.789062 0.546875,-1.207031 1.402344,-1.113281 V 12.5 c -0.304688,-0.01172 -0.488281,0.09375 -0.488281,0.453125 v 0.402344 H 23.3125 v 0.589843 h -0.488281"
         style="fill:#ffffff;fill-opacity:1;fill-rule:nonzero;stroke:none"
         inkscape:connector-curvature="0" />
      <path
         id="path171"
         d="m 25.269531,13.863281 c -0.402343,0 -0.484375,0.492188 -0.484375,1.054688 0,0.566406 0.08594,1.027343 0.484375,1.027343 0.40625,0 0.488281,-0.460937 0.488281,-1.027343 0,-0.5625 -0.08203,-1.054688 -0.488281,-1.054688 m 0,2.703125 c -0.914062,0 -1.390625,-0.695312 -1.390625,-1.640625 0,-0.941406 0.476563,-1.632812 1.386719,-1.632812 0.917969,0 1.398437,0.691406 1.398437,1.632812 0,0.945313 -0.480468,1.640625 -1.394531,1.640625"
         style="fill:#ffffff;fill-opacity:1;fill-rule:nonzero;stroke:none"
         inkscape:connector-curvature="0" />
      <path
         id="path173"
         d="m 27.386719,11.914062 h 0.914062 v 4.59375 h -0.914062 v -4.59375"
         style="fill:#ffffff;fill-opacity:1;fill-rule:nonzero;stroke:none"
         inkscape:connector-curvature="0" />
      <path
         id="path175"
         d="m 31.058594,16.507812 -0.910156,-1.589843 h -0.01172 v 1.589843 h -0.90625 v -4.59375 h 0.90625 v 2.832032 h 0.01172 l 0.886718,-1.394532 h 0.914063 l -0.992188,1.417969 1.125,1.738281 h -1.023437"
         style="fill:#ffffff;fill-opacity:1;fill-rule:nonzero;stroke:none"
         inkscape:connector-curvature="0" />
      <path
         id="path177"
         d="m 33.738281,13.832031 c -0.375,0 -0.609375,0.324219 -0.578125,0.972657 l 1.097656,-0.164063 c 0,-0.5625 -0.183593,-0.808594 -0.519531,-0.808594 M 33.21875,15.25 c 0.0625,0.460938 0.296875,0.691406 0.761719,0.691406 0.367187,0 0.648437,-0.08203 0.816406,-0.171875 l 0.207031,0.570313 c -0.246094,0.121094 -0.597656,0.226562 -1.128906,0.226562 -0.96875,0 -1.523438,-0.636718 -1.523438,-1.644531 0,-0.988281 0.515626,-1.625 1.421876,-1.625 0.914062,0 1.375,0.617187 1.335937,1.683594 L 33.21875,15.25"
         style="fill:#ffffff;fill-opacity:1;fill-rule:nonzero;stroke:none"
         inkscape:connector-curvature="0" />
      <path
         id="path179"
         d="M 37.648438,16.507812 V 14.3125 c 0,-0.246094 -0.109376,-0.445312 -0.46875,-0.445312 -0.144532,0 -0.261719,0.02344 -0.382813,0.08984 v 2.550781 h -0.914063 v -4.59375 h 0.914063 v 1.542969 c 0.207031,-0.09375 0.433594,-0.144531 0.675781,-0.144531 0.792969,0 1.089844,0.457031 1.089844,0.984375 v 2.210937 h -0.914062"
         style="fill:#ffffff;fill-opacity:1;fill-rule:nonzero;stroke:none"
         inkscape:connector-curvature="0" />
      <path
         id="path181"
         d="m 40.722656,13.832031 c -0.375,0 -0.605468,0.324219 -0.578125,0.972657 l 1.097657,-0.164063 c 0,-0.5625 -0.183594,-0.808594 -0.519532,-0.808594 M 40.203125,15.25 c 0.0625,0.460938 0.296875,0.691406 0.761719,0.691406 0.367187,0 0.648437,-0.08203 0.820312,-0.171875 l 0.203125,0.570313 c -0.246093,0.121094 -0.597656,0.226562 -1.128906,0.226562 -0.96875,0 -1.523437,-0.636718 -1.523437,-1.644531 0,-0.988281 0.515624,-1.625 1.421874,-1.625 0.914063,0 1.375,0.617187 1.335938,1.683594 L 40.203125,15.25"
         style="fill:#ffffff;fill-opacity:1;fill-rule:nonzero;stroke:none"
         inkscape:connector-curvature="0" />
      <path
         id="path183"
         d="m 42.886719,11.914062 h 0.910156 v 4.59375 h -0.910156 v -4.59375"
         style="fill:#ffffff;fill-opacity:1;fill-rule:nonzero;stroke:none"
         inkscape:connector-curvature="0" />
      <path
         id="path185"
         d="m 45.488281,16.5625 c -0.386719,0 -0.734375,-0.101562 -0.925781,-0.230469 l 0.234375,-0.578125 c 0.117187,0.09375 0.332031,0.179688 0.5625,0.179688 0.234375,0 0.390625,-0.144532 0.390625,-0.34375 0,-0.210938 -0.109375,-0.328125 -0.402344,-0.445313 -0.582031,-0.226562 -0.707031,-0.550781 -0.707031,-0.878906 0,-0.539063 0.417969,-0.972656 1.050781,-0.972656 0.394532,0 0.660156,0.07813 0.90625,0.230469 l -0.21875,0.519531 c -0.09375,-0.07422 -0.277344,-0.164063 -0.484375,-0.164063 -0.238281,0 -0.359375,0.148438 -0.359375,0.328125 0,0.210938 0.15625,0.328125 0.402344,0.433594 0.609375,0.257813 0.75,0.558594 0.75,0.925781 0,0.550782 -0.449219,0.996094 -1.199219,0.996094"
         style="fill:#ffffff;fill-opacity:1;fill-rule:nonzero;stroke:none"
         inkscape:connector-curvature="0" />
      <path
         id="path187"
         d="m 48.667969,13.832031 c -0.375,0 -0.605469,0.324219 -0.578125,0.972657 l 1.101562,-0.164063 c 0,-0.5625 -0.1875,-0.808594 -0.523437,-0.808594 M 48.148438,15.25 c 0.0625,0.460938 0.296874,0.691406 0.761718,0.691406 0.367188,0 0.648438,-0.08203 0.820313,-0.171875 l 0.203125,0.570313 c -0.246094,0.121094 -0.597656,0.226562 -1.128906,0.226562 -0.96875,0 -1.523438,-0.636718 -1.523438,-1.644531 0,-0.988281 0.515625,-1.625 1.421875,-1.625 0.914063,0 1.375,0.617187 1.335937,1.683594 L 48.148438,15.25"
         style="fill:#ffffff;fill-opacity:1;fill-rule:nonzero;stroke:none"
         inkscape:connector-curvature="0" />
      <path
         id="path189"
         d="m 52.578125,16.507812 v -2.207031 c 0,-0.222656 -0.09766,-0.4375 -0.464844,-0.4375 -0.183593,0 -0.28125,0.02734 -0.386719,0.0625 v 2.582031 H 50.8125 V 13.53125 c 0.316406,-0.140625 0.761719,-0.238281 1.324219,-0.238281 1,0 1.355469,0.429687 1.355469,1.003906 v 2.210937 h -0.914063"
         style="fill:#ffffff;fill-opacity:1;fill-rule:nonzero;stroke:none"
         inkscape:connector-curvature="0" />
    </g>
  </g>
</svg>
