<?xml version="1.0" encoding="UTF-8" standalone="no"?>
<!-- Created with Inkscape (http://www.inkscape.org/) -->

<svg
   xmlns:dc="http://purl.org/dc/elements/1.1/"
   xmlns:cc="http://creativecommons.org/ns#"
   xmlns:rdf="http://www.w3.org/1999/02/22-rdf-syntax-ns#"
   xmlns:svg="http://www.w3.org/2000/svg"
   xmlns="http://www.w3.org/2000/svg"
   xmlns:sodipodi="http://sodipodi.sourceforge.net/DTD/sodipodi-0.dtd"
   xmlns:inkscape="http://www.inkscape.org/namespaces/inkscape"
   width="2.026mm"
   height="4.3660002mm"
   viewBox="0 0 2.026 4.3660002"
   version="1.1"
   id="svg2551"
   inkscape:version="0.92.2 (5c3e80d, 2017-08-06)"
   sodipodi:docname="kros.svg">
  <defs
     id="defs2545" />
  <sodipodi:namedview
     id="base"
     pagecolor="#ffffff"
     bordercolor="#666666"
     borderopacity="1.0"
     inkscape:pageopacity="0.0"
     inkscape:pageshadow="2"
     inkscape:zoom="31.678384"
     inkscape:cx="-4.5665351"
     inkscape:cy="8.7351739"
     inkscape:document-units="mm"
     inkscape:current-layer="g424"
     showgrid="false"
     inkscape:window-width="1920"
     inkscape:window-height="1025"
     inkscape:window-x="0"
     inkscape:window-y="27"
     inkscape:window-maximized="1"
     inkscape:snap-text-baseline="true" />
  <metadata
     id="metadata2548">
    <rdf:RDF>
      <cc:Work
         rdf:about="">
        <dc:format>image/svg+xml</dc:format>
        <dc:type
           rdf:resource="http://purl.org/dc/dcmitype/StillImage" />
        <dc:title></dc:title>
      </cc:Work>
    </rdf:RDF>
  </metadata>
  <g
     inkscape:label="Layer 1"
     inkscape:groupmode="layer"
     id="layer1"
     transform="translate(0,-292.634)">
    <g
       transform="matrix(-0.3527778,0,0,-0.3527778,57.550411,661.65051)"
       style="fill:#211e1e;fill-opacity:1"
       id="g424">
      <g
         id="use422"
         transform="matrix(0.75000002,0,0,-0.75000002,156.5022,1035.8932)"
         style="fill:#000000;fill-opacity:1;fill-rule:nonzero">
        <path
           inkscape:connector-curvature="0"
           id="path2530"
           d="m 5.234375,2.984375 0.03125,-2.46875 C 5.265625,-1.9375 5.6875,-4.28125 6.0625,-5.0625 5.21875,-5.921875 5.21875,-7.84375 5.21875,-8.765625 c 1.71875,0.125 1.875,0.6875 2.796875,0.6875 0.359375,0 0.828125,-0.1875 0.828125,-0.875 0,-0.625 -0.46875,-0.859375 -0.828125,-0.859375 -0.921875,0 -1.078125,0.65625 -2.796875,0.6875 -0.015625,-2.421875 0.71875,-2.5 0.71875,-3.453125 0,-0.5 -0.4375,-0.9375 -0.921875,-0.9375 -0.515625,0 -0.9375,0.4375 -0.9375,0.9375 0,0.953125 0.734375,1.03125 0.71875,3.453125 C 3.078125,-9.15625 2.921875,-9.8125 2,-9.8125 c -0.359375,0 -0.8125,0.234375 -0.8125,0.859375 0,0.6875 0.453125,0.875 0.8125,0.875 0.921875,0 1.078125,-0.5625 2.796875,-0.6875 0,0.921875 0,2.84375 -0.84375,3.703125 0.34375,0.78125 0.8125,3.125 0.84375,5.578125 L 4.8125,2.984375 Z m 0,0"
           style="stroke:none;fill:#000000;fill-opacity:1;fill-rule:nonzero" />
      </g>
    </g>
  </g>
</svg>
