<?xml version="1.0" standalone="no"?>
<!DOCTYPE svg PUBLIC "-//W3C//DTD SVG 1.1//EN" "http://www.w3.org/Graphics/SVG/1.1/DTD/svg11.dtd" >
<svg xmlns="http://www.w3.org/2000/svg" xmlns:xlink="http://www.w3.org/1999/xlink" version="1.1">
<metadata>
Created by FontForge 20170731 at Wed Mar 23 19:16:35 2011
 By Aleksey,,,
(c) 1985, 1987, 1988, 1991, 1992, 1997, 1998, 1999, 2002 Adobe Systems Incorporated. All rights reserved.
</metadata>
<defs>
<font id="NewCenturySchlbkLTStd-Bd" horiz-adv-x="574" >
  <font-face 
    font-family="NewCenturySchlbk LT Std"
    font-weight="700"
    font-stretch="normal"
    units-per-em="1000"
    panose-1="2 4 8 4 6 7 5 2 3 4"
    ascent="737"
    descent="-263"
    x-height="475"
    cap-height="722"
    bbox="-165 -250 1000 988"
    underline-thickness="50"
    underline-position="-200"
    unicode-range="U+0020-FB02"
  />
<missing-glyph horiz-adv-x="500" 
d="M0 0v700h500v-700h-500zM250 395l170 255h-340zM280 350l170 -255v510zM80 50h340l-170 255zM50 605v-510l170 255z" />
    <glyph glyph-name="f_i" unicode="fi" horiz-adv-x="685" 
d="M590 485v-393q0 -29 9 -36t50 -7h17v-49h-306v49h17q41 0 50 7t9 36v271q0 31 -10.5 41.5t-41.5 10.5h-131v-323q0 -29 9 -36t50 -7h11v-49h-300v49h17q41 0 50 7t9 36v323h-88v60h88q0 142 75 202t212 60q98 0 146 -31.5t48 -76.5q0 -36 -22.5 -57.5t-58.5 -21.5
q-31 0 -55 18t-24 49q0 16 7.5 30.5t7.5 19.5q0 9 -13 15t-34 6q-78 0 -106.5 -49.5t-28.5 -163.5h193q27 0 144 10z" />
    <glyph glyph-name="f_l" unicode="fl" horiz-adv-x="685" 
d="M23 0v49h17q41 0 50 7t9 36v323h-88v60h88q0 142 75 202t212 60q57 0 100 -15l104 15v-645q0 -29 9 -36t50 -7h17v-49h-306v49h17q41 0 50 7t9 36v323h-183v-323q0 -29 9 -36t50 -7h11v-49h-300zM253 475h183v87q-36 15 -36 56q0 20 12.5 36t12.5 17q0 17 -37 17
q-78 0 -106.5 -49.5t-28.5 -163.5z" />
    <glyph glyph-name=".notdef" horiz-adv-x="500" 
d="M0 0v700h500v-700h-500zM250 395l170 255h-340zM280 350l170 -255v510zM80 50h340l-170 255zM50 605v-510l170 255z" />
    <glyph glyph-name=".null" horiz-adv-x="0" 
 />
    <glyph glyph-name="nonmarkingreturn" horiz-adv-x="333" 
 />
    <glyph glyph-name="space" unicode=" " horiz-adv-x="287" 
 />
    <glyph glyph-name="exclam" unicode="!" horiz-adv-x="296" 
d="M176 227h-56q-2 105 -18.5 185t-32.5 133t-16 95q0 43 25.5 70t69.5 27t69.5 -27t25.5 -70q0 -42 -16 -95t-32.5 -133t-18.5 -185zM53 80q0 39 28 67t67 28t67 -28t28 -67t-28 -67t-67 -28t-67 28t-28 67z" />
    <glyph glyph-name="quotedbl" unicode="&#x22;" horiz-adv-x="333" 
d="M299 378h-68l-26 200q-8 64 -8 85q0 34 17 54t51 20t51 -20t17 -54q0 -21 -8 -85zM102 378h-68l-26 200q-8 64 -8 85q0 34 17 54t51 20t51 -20t17 -54q0 -21 -8 -85z" />
    <glyph glyph-name="numbersign" unicode="#" 
d="M243 404l-16 -118h104l16 118h-104zM64 404v88h97l28 198h94l-28 -198h104l28 198h94l-28 -198h85v-88h-97l-16 -118h85v-88h-97l-28 -198h-94l28 198h-104l-28 -198h-94l28 198h-85v88h97l16 118h-85z" />
    <glyph glyph-name="dollar" unicode="$" 
d="M262 -141v126q-41 2 -80 12t-75.5 29t-59 52.5t-22.5 76.5q0 37 24 63.5t61 26.5q33 0 56.5 -19t23.5 -52q0 -27 -10.5 -45.5t-21 -27.5t-10.5 -14q0 -21 33.5 -35t80.5 -18v248q-112 35 -164.5 84.5t-52.5 125.5q0 92 63 147.5t154 65.5v105h54v-105q37 -1 72.5 -9
t71 -24t57 -46t21.5 -70q0 -37 -24.5 -61t-62.5 -24q-34 0 -53.5 24t-19.5 53q0 23 11.5 40.5t11.5 26.5q0 34 -85 41v-218q129 -42 181 -92.5t52 -138.5q0 -102 -68.5 -158.5t-164.5 -63.5v-126h-54zM316 266v-232q48 7 80.5 35.5t32.5 75.5q0 88 -113 121zM262 452v204
q-45 -6 -71 -33.5t-26 -73.5q0 -70 97 -97z" />
    <glyph glyph-name="percent" unicode="%" horiz-adv-x="833" 
d="M456 132q0 94 75.5 178.5t167.5 84.5q52 0 86 -36.5t34 -105.5q0 -31 -14 -72.5t-39 -82.5t-68 -69.5t-94 -28.5q-72 0 -110 38.5t-38 93.5zM570 91q0 -24 16 -38.5t46 -14.5q48 0 101.5 72.5t53.5 154.5q0 38 -17.5 62t-44.5 24q-32 0 -69.5 -51.5t-61.5 -113t-24 -95.5
zM237 -15h-49l363 624l-2 2q-55 -38 -109 -38q-28 0 -66 10q3 -30 3 -36q0 -52 -24.5 -108.5t-78.5 -101t-124 -44.5q-53 0 -94.5 37t-41.5 102q0 87 78.5 172.5t165.5 85.5q67 0 104 -61q11 -18 71 -18q50 0 96.5 27t77.5 67h49zM128 385q0 -54 50 -54q66 0 116.5 76
t50.5 153q0 25 -9 40q-35 18 -55 46q-33 0 -70 -51.5t-60 -113t-23 -96.5z" />
    <glyph glyph-name="ampersand" unicode="&#x26;" horiz-adv-x="852" 
d="M199 257q0 -33 16.5 -76t57.5 -81.5t95 -38.5q47 0 70 25q-49 58 -101.5 138t-78.5 136q-59 -40 -59 -103zM335 602q0 -19 16.5 -60t41.5 -81q95 39 95 132q0 40 -21 67.5t-58 27.5q-34 0 -54 -23t-20 -63zM794 407v-49q-55 -4 -78 -20.5t-52 -70.5q-38 -72 -69 -108
q53 -74 99 -74q34 0 52.5 25t23.5 62l48 -11q-18 -85 -61 -130.5t-124 -45.5q-38 0 -81.5 18t-75.5 49q-87 -67 -216 -67q-111 0 -168.5 58.5t-57.5 138.5q0 139 204 223q-39 72 -39 141q0 87 59 139t154 52q84 0 134 -39.5t50 -103.5q0 -113 -177 -176q49 -84 143 -217
q50 65 50 105q0 52 -76 52h-14v49h272z" />
    <glyph glyph-name="quotesingle" unicode="'" horiz-adv-x="241" 
d="M155 378h-68l-26 200q-8 64 -8 85q0 34 17 54t51 20t51 -20t17 -54q0 -21 -8 -85z" />
    <glyph glyph-name="parenleft" unicode="(" horiz-adv-x="389" 
d="M345 -79v-38q-125 66 -196.5 178.5t-71.5 252.5t71.5 252.5t196.5 178.5v-38q-140 -95 -140 -393t140 -393z" />
    <glyph glyph-name="parenright" unicode=")" horiz-adv-x="389" 
d="M44 -117v38q140 95 140 393t-140 393v38q125 -66 196.5 -178.5t71.5 -252.5t-71.5 -252.5t-196.5 -178.5z" />
    <glyph glyph-name="asterisk" unicode="*" horiz-adv-x="500" 
d="M223 515v9q-44 25 -93 25q-76 0 -76 53q0 19 12.5 33t32.5 14q24 0 41 -13.5t38 -48.5q22 -35 56 -48l4 3q2 6 2 21q0 21 -20 60.5t-20 58.5q0 25 14 40t36 15t36 -15t14 -40q0 -19 -20 -58.5t-20 -60.5q0 -15 2 -21l4 -3q34 13 56 48q21 35 38 48.5t41 13.5
q20 0 32.5 -14t12.5 -33q0 -53 -76 -53q-49 0 -93 -25v-9q44 -25 93 -25q76 0 76 -53q0 -19 -12.5 -33t-32.5 -14q-24 0 -41 13.5t-38 48.5q-22 35 -56 48l-4 -3q-2 -6 -2 -21q0 -21 20 -60.5t20 -58.5q0 -25 -14 -40t-36 -15t-36 15t-14 40q0 19 20 58.5t20 60.5
q0 15 -2 21l-4 3q-34 -13 -56 -48q-21 -35 -38 -48.5t-41 -13.5q-20 0 -32.5 14t-12.5 33q0 53 76 53q49 0 93 25z" />
    <glyph glyph-name="plus" unicode="+" horiz-adv-x="606" 
d="M50 199v108h199v199h108v-199h199v-108h-199v-199h-108v199h-199z" />
    <glyph glyph-name="comma" unicode="," horiz-adv-x="278" 
d="M68 -184l-28 40q42 26 73 63.5t31 63.5q0 10 -9 10q-2 0 -9.5 -1t-10.5 -1q-31 0 -53 28t-22 58q0 43 28.5 70.5t65.5 27.5q48 0 76 -35t28 -85q0 -132 -170 -239z" />
    <glyph glyph-name="hyphen" unicode="-" horiz-adv-x="333" 
d="M42 174v128h249v-128h-249z" />
    <glyph glyph-name="period" unicode="." horiz-adv-x="278" 
d="M44 80q0 39 28 67t67 28t67 -28t28 -67t-28 -67t-67 -28t-67 28t-28 67z" />
    <glyph glyph-name="slash" unicode="/" horiz-adv-x="278" 
d="M70 -15h-112l250 752h112z" />
    <glyph glyph-name="zero" unicode="0" 
d="M199 379v-89q0 -69 4.5 -117t11 -75t19 -41.5t24 -18.5t29.5 -4t29.5 4t24 18.5t19 41.5t11 75t4.5 117v89q0 112 -11 174t-29 82.5t-48 20.5t-48 -20.5t-29 -82.5t-11 -174zM27 345q0 88 24.5 159.5t64 113.5t84 64.5t87.5 22.5t87.5 -22.5t84 -64.5t64 -113.5
t24.5 -159.5t-24.5 -159.5t-64 -113.5t-84 -64.5t-87.5 -22.5t-87.5 22.5t-84 64.5t-64 113.5t-24.5 159.5z" />
    <glyph glyph-name="one" unicode="1" 
d="M88 0v54h66q39 0 49.5 10t10.5 40v428q0 30 -10.5 40t-49.5 10h-71v54q87 2 145.5 17t106.5 52h33v-601q0 -30 10.5 -40t49.5 -10h63v-54h-403z" />
    <glyph glyph-name="two" unicode="2" 
d="M19 0v38q72 103 231 270q112 117 112 220q0 57 -29 90t-87 33q-45 0 -76 -21.5t-31 -42.5q0 -15 13.5 -24t29.5 -14t29.5 -25t13.5 -55q0 -34 -25.5 -56.5t-62.5 -22.5q-44 0 -71 33t-27 90q0 76 69.5 134t168.5 58q61 0 115.5 -19t94.5 -64t40 -108q0 -53 -32.5 -110.5
t-100.5 -100.5q-135 -87 -227 -159v-2h243q27 0 38.5 10t16.5 39l14 71h52l-22 -262h-490z" />
    <glyph glyph-name="three" unicode="3" 
d="M23 155q0 39 25 64.5t64 25.5q36 0 62.5 -21.5t26.5 -56.5q0 -40 -24 -59t-24 -31q0 -17 27 -30t70 -13q49 0 79 43t30 112q0 147 -89 147q-12 0 -36 -3t-37 -3q-35 0 -35 33q0 35 39 35q9 0 34.5 -6.5t41.5 -6.5q32 0 53.5 34.5t21.5 113.5q0 61 -28.5 92t-75.5 31
q-32 0 -53.5 -12.5t-21.5 -27.5q0 -9 11.5 -19.5t23.5 -26.5t12 -39q0 -37 -22 -59t-60 -22q-39 0 -64.5 26.5t-25.5 66.5q0 63 61 112.5t165 49.5q112 0 175 -49t63 -124q0 -131 -172 -168v-2q191 -14 191 -178q0 -35 -13.5 -68t-42.5 -63.5t-83.5 -49t-127.5 -18.5
q-98 0 -169.5 43t-71.5 127z" />
    <glyph glyph-name="four" unicode="4" 
d="M291 176h-272v77l364 452h69q-7 -82 -7 -141v-320h102v-68h-102v-72q0 -30 10.5 -40t49.5 -10h27v-54h-337v54h36q39 0 49.5 10t10.5 40v72zM289 501l-205 -257h207v257h-2z" />
    <glyph glyph-name="five" unicode="5" 
d="M158 553l-14 -132q61 36 143 36q105 0 176 -62.5t71 -159.5q0 -115 -73.5 -182.5t-201.5 -67.5q-94 0 -160.5 45t-66.5 129q0 41 26.5 68t67.5 27q35 0 59.5 -23t24.5 -58q0 -31 -16 -48.5t-32 -25t-16 -13.5q0 -18 27 -32.5t57 -14.5q73 0 102.5 54.5t29.5 150.5
q0 72 -33 112.5t-87 40.5q-48 0 -108 -39q2 -10 2 -14q0 -44 -40 -44q-36 0 -36 38q0 27 25 40q16 124 27 327q49 -7 101 -11q49 -4 117 -4q77 0 129 8q11 1 20.5 3t14.5 3t7 1q5 0 8 -6t1 -19.5t-9 -30.5q-22 -49 -73 -81t-125 -32q-72 0 -145 17z" />
    <glyph glyph-name="six" unicode="6" 
d="M27 298q0 187 87 297t225 110q88 0 138.5 -38t50.5 -96q0 -45 -25 -69.5t-69 -24.5q-39 0 -61.5 23.5t-22.5 56.5q0 26 12.5 46t12.5 27q0 26 -41 26q-68 0 -101 -80.5t-34 -221.5l2 -2q50 72 150 72q86 0 141 -60.5t55 -141.5q0 -98 -67 -167.5t-182 -69.5
q-128 0 -199.5 88t-71.5 225zM205 195q0 -82 23.5 -121.5t61.5 -39.5t61.5 39.5t23.5 121.5q0 161 -85 161t-85 -161z" />
    <glyph glyph-name="seven" unicode="7" 
d="M45 409l35 296q17 -1 56.5 -4.5t61.5 -5.5q67 -5 119 -5q134 0 230 15v-39l-70 -154q-56 -124 -76.5 -208.5t-20.5 -189.5q0 -70 -25 -99.5t-73 -29.5q-92 0 -92 104q0 81 109 246l142 216q-34 -3 -114 -3q-20 0 -70 1.5t-83 1.5q-32 0 -42.5 -14.5t-23.5 -80.5l-11 -53z
" />
    <glyph glyph-name="eight" unicode="8" 
d="M288 656q-50 0 -86.5 -27t-36.5 -81q0 -45 38 -74.5t137 -49.5q29 16 45 49.5t16 69.5q0 50 -31 81.5t-82 31.5zM279 -15q-119 0 -185.5 46t-66.5 131q0 58 36 99.5t89 58.5l2 2q-115 55 -115 174q0 99 72 154t173 55q104 0 164.5 -43.5t60.5 -112.5q0 -53 -28.5 -92
t-72.5 -56v-2q65 -27 102 -71t38 -122q-1 -98 -75.5 -159.5t-193.5 -61.5zM313 263l-93 31q-29 -18 -47 -52.5t-18 -78.5q0 -59 35.5 -94t94.5 -35q60 0 101 31.5t41 89.5q0 45 -28.5 68.5t-85.5 39.5z" />
    <glyph glyph-name="nine" unicode="9" 
d="M46 119q0 45 25 69.5t69 24.5q39 0 61.5 -23.5t22.5 -56.5q0 -26 -12.5 -46t-12.5 -27q0 -26 41 -26q68 0 101 80.5t34 221.5l-2 2q-50 -72 -150 -72q-86 0 -141 60.5t-55 141.5q0 98 67 167.5t182 69.5q128 0 199.5 -88t71.5 -225q0 -187 -87 -297t-225 -110
q-88 0 -138.5 38t-50.5 96zM199 495q0 -161 85 -161t85 161q0 82 -23.5 121.5t-61.5 39.5t-61.5 -39.5t-23.5 -121.5z" />
    <glyph glyph-name="colon" unicode=":" horiz-adv-x="278" 
d="M44 390q0 39 28 67t67 28t67 -28t28 -67t-28 -67t-67 -28t-67 28t-28 67zM44 80q0 39 28 67t67 28t67 -28t28 -67t-28 -67t-67 -28t-67 28t-28 67z" />
    <glyph glyph-name="semicolon" unicode=";" horiz-adv-x="278" 
d="M68 -184l-28 40q42 26 73 63.5t31 63.5q0 10 -9 10q-2 0 -9.5 -1t-10.5 -1q-31 0 -53 28t-22 58q0 43 28.5 70.5t65.5 27.5q48 0 76 -35t28 -85q0 -132 -170 -239zM44 390q0 39 28 67t67 28t67 -28t28 -67t-28 -67t-67 -28t-67 28t-28 67z" />
    <glyph glyph-name="less" unicode="&#x3c;" horiz-adv-x="606" 
d="M50 206v94l506 215v-108l-386 -154l386 -154v-108z" />
    <glyph glyph-name="equal" unicode="=" horiz-adv-x="606" 
d="M50 295v108h506v-108h-506zM50 103v108h506v-108h-506z" />
    <glyph glyph-name="greater" unicode="&#x3e;" horiz-adv-x="606" 
d="M50 -9v108l386 154l-386 154v108l506 -215v-94z" />
    <glyph glyph-name="question" unicode="?" horiz-adv-x="500" 
d="M255 227h-54v44q0 47 26 95.5t52 99t26 99.5q0 118 -100 118q-25 0 -41 -8t-16 -19q0 -9 8.5 -16t18 -13t18 -21t8.5 -37q0 -31 -23 -55t-61 -24q-40 0 -67 25.5t-27 70.5q0 60 58.5 105.5t162.5 45.5q120 0 176.5 -52t56.5 -119q0 -90 -76 -146l-76 -57q-44 -34 -56 -59
t-14 -77zM133 80q0 39 28 67t67 28t67 -28t28 -67t-28 -67t-67 -28t-67 28t-28 67z" />
    <glyph glyph-name="at" unicode="@" horiz-adv-x="747" 
d="M297 306q0 -41 17.5 -64.5t40.5 -23.5q41 0 81 56t40 140q0 72 -52 72q-44 0 -85.5 -55t-41.5 -125zM614 105l12 -61q-102 -59 -252 -59q-156 0 -266 110t-110 266q0 157 111.5 266.5t272.5 109.5q152 0 260 -90t108 -235q0 -107 -56.5 -188.5t-149.5 -81.5q-42 0 -68 21
t-35 55h-2q-19 -34 -55 -55t-76 -21q-54 0 -86.5 39.5t-32.5 104.5q0 96 59 182t149 86q74 0 99 -54h2l10 39h92l-69 -263q-6 -24 -6 -46q0 -15 10 -24.5t30 -9.5q43 0 76 62.5t33 141.5q0 116 -80 192.5t-198 76.5q-116 0 -200 -85.5t-84 -239.5q0 -120 84.5 -205.5
t200.5 -85.5q131 0 217 52z" />
    <glyph glyph-name="A" unicode="A" horiz-adv-x="759" 
d="M-19 0v54q81 7 132 127l237 556h75l255 -613q18 -43 35 -56t63 -14v-54h-350v54h31q43 0 43 29q0 14 -9 37l-39 102h-253q-30 -69 -30 -100q0 -68 100 -68v-54h-290zM226 282h202l-99 249z" />
    <glyph glyph-name="B" unicode="B" horiz-adv-x="778" 
d="M301 396h66q159 0 159 147q0 125 -138 125q-58 0 -72.5 -13.5t-14.5 -72.5v-186zM19 0v54h44q39 0 49.5 10t10.5 40v514q0 30 -10.5 40t-49.5 10h-44v54h423q121 0 191.5 -46t70.5 -129q0 -70 -49.5 -110.5t-158.5 -57.5v-2q43 -4 83 -15.5t77.5 -32.5t60 -56t22.5 -81
q0 -83 -65 -137.5t-205 -54.5h-450zM301 342v-238q0 -30 12 -40t58 -10q89 0 133.5 33.5t44.5 108.5q0 68 -36 107t-98 39h-114z" />
    <glyph glyph-name="C" unicode="C" horiz-adv-x="778" 
d="M708 450l-51 -5q-29 107 -85 175t-141 68q-104 0 -149 -83t-45 -253q0 -307 202 -307q88 0 147.5 59.5t77.5 158.5l59 -14q-29 -135 -108 -199.5t-217 -64.5q-166 0 -262.5 102t-96.5 274q0 160 109 268t269 108q109 0 183 -56l57 54h42z" />
    <glyph glyph-name="D" unicode="D" horiz-adv-x="833" 
d="M301 608v-500q0 -33 15 -43.5t65 -10.5q49 0 84.5 12.5t67 44t47.5 93.5t16 153q0 95 -16 158.5t-47.5 95.5t-68 44.5t-87.5 12.5q-49 0 -62.5 -13t-13.5 -47zM19 0v54h44q39 0 49.5 10t10.5 40v514q0 30 -10.5 40t-49.5 10h-44v54h412q178 0 270.5 -97.5t92.5 -255.5
q0 -179 -97 -274t-266 -95h-412z" />
    <glyph glyph-name="E" unicode="E" horiz-adv-x="759" 
d="M19 0v54h44q39 0 49.5 10t10.5 40v514q0 30 -10.5 40t-49.5 10h-44v54h671l7 -262h-50q-17 58 -35.5 94.5t-47 63.5t-69.5 38.5t-101 11.5q-57 0 -75 -14t-18 -57v-195h19q60 0 95.5 38.5t43.5 105.5h52l4 -351h-56q-2 69 -42 111t-104 42h-12v-229q0 -30 6.5 -42
t29 -17.5t75.5 -5.5q104 0 158.5 51t87.5 165l50 -4l-11 -266h-678z" />
    <glyph glyph-name="F" unicode="F" horiz-adv-x="722" 
d="M421 0h-402v54h44q39 0 49.5 10t10.5 40v514q0 30 -10.5 40t-49.5 10h-44v54h671l7 -262h-50q-17 58 -35.5 94.5t-47 63.5t-69.5 38.5t-101 11.5q-57 0 -75 -14t-18 -57v-195h19q60 0 95.5 38.5t43.5 105.5h52l4 -351h-56q-2 69 -42 111t-104 42h-12v-244q0 -30 10.5 -40
t49.5 -10h60v-54z" />
    <glyph glyph-name="G" unicode="G" horiz-adv-x="833" 
d="M728 449l-50 -3l-24 66q-65 176 -214 176q-203 0 -203 -345q0 -309 175 -309q84 0 118 49.5t34 146.5q0 31 -7.5 40.5t-32.5 9.5h-64v54h358v-54h-29q-39 0 -49.5 -10t-10.5 -40v-245h-49l-51 99q-93 -99 -231 -99q-166 0 -262.5 102t-96.5 274q0 160 109 268t269 108
q123 0 201 -54l58 50h43z" />
    <glyph glyph-name="H" unicode="H" horiz-adv-x="870" 
d="M19 0v54h44q39 0 49.5 10t10.5 40v514q0 30 -10.5 40t-49.5 10h-44v54h386v-54h-44q-39 0 -49.5 -10t-10.5 -40v-216h268v216q0 30 -10.5 40t-49.5 10h-44v54h386v-54h-44q-39 0 -49.5 -10t-10.5 -40v-514q0 -30 10.5 -40t49.5 -10h44v-54h-386v54h44q39 0 49.5 10
t10.5 40v238h-268v-238q0 -30 10.5 -40t49.5 -10h44v-54h-386z" />
    <glyph glyph-name="I" unicode="I" horiz-adv-x="444" 
d="M29 0v54h44q39 0 49.5 10t10.5 40v514q0 30 -10.5 40t-49.5 10h-44v54h386v-54h-44q-39 0 -49.5 -10t-10.5 -40v-514q0 -30 10.5 -40t49.5 -10h44v-54h-386z" />
    <glyph glyph-name="J" unicode="J" horiz-adv-x="648" 
d="M256 668v54h386v-54h-44q-39 0 -49.5 -10t-10.5 -40v-376q0 -114 -75 -185.5t-218 -71.5q-112 0 -175.5 54.5t-63.5 147.5q0 56 32.5 99.5t87.5 43.5q49 0 76 -29t27 -72q0 -40 -21.5 -68.5t-56.5 -28.5q-9 0 -23 3.5t-22 3.5q-18 0 -18 -20q0 -27 33.5 -50.5t76.5 -23.5
q84 0 123 47t39 140v386q0 30 -10.5 40t-49.5 10h-44z" />
    <glyph glyph-name="K" unicode="K" horiz-adv-x="815" 
d="M19 0v54h44q39 0 49.5 10t10.5 40v514q0 30 -10.5 40t-49.5 10h-44v54h380v-54h-38q-39 0 -49.5 -10t-10.5 -40v-279l211 224q47 50 47 74q0 31 -79 31h-21v54h337v-54q-93 0 -220 -132l-69 -72l233 -368q17 -26 29.5 -33t52.5 -9v-54h-363v54h18q40 0 53 5.5t13 17.5
q0 10 -12 31l-142 233l-88 -91v-146q0 -30 10.5 -40t49.5 -10h38v-54h-380z" />
    <glyph glyph-name="L" unicode="L" horiz-adv-x="722" 
d="M19 0v54h44q39 0 49.5 10t10.5 40v514q0 30 -10.5 40t-49.5 10h-44v54h392v-54h-50q-39 0 -49.5 -10t-10.5 -40v-496q0 -45 17.5 -56.5t95.5 -11.5q104 0 159 54.5t78 162.5h52l-12 -271h-672z" />
    <glyph glyph-name="M" unicode="M" horiz-adv-x="981" 
d="M10 0v54q55 0 81 27.5t26 98.5v438q0 30 -10.5 40t-49.5 10h-41v54h321l155 -438h2l148 438h329v-54h-47q-39 0 -49.5 -10t-10.5 -40v-514q0 -30 10.5 -40t49.5 -10h47v-54h-389v54h44q39 0 49.5 10t10.5 40v550h-2l-221 -654h-50l-226 646h-2v-453q0 -70 21.5 -104.5
t75.5 -34.5h14v-54h-286z" />
    <glyph glyph-name="N" unicode="N" horiz-adv-x="833" 
d="M5 668v54h258l387 -460v281q0 72 -21 97t-89 28v54h288v-54q-68 -3 -89 -28t-21 -97v-553h-65l-468 563h-2v-374q0 -72 21 -97t89 -28v-54h-288v54q68 3 89 28t21 97v435q-37 54 -110 54z" />
    <glyph glyph-name="O" unicode="O" horiz-adv-x="833" 
d="M237 361q0 -327 180 -327q179 0 179 327t-179 327q-180 0 -180 -327zM39 361q0 160 109 268t269 108q159 0 268 -108t109 -268t-109 -268t-268 -108q-160 0 -269 108t-109 268z" />
    <glyph glyph-name="P" unicode="P" horiz-adv-x="759" 
d="M128 104v514q0 30 -10.5 40t-49.5 10h-44v54h434q136 0 206.5 -53.5t70.5 -154.5q0 -206 -326 -206q-35 0 -103 2v-206q0 -30 10.5 -40t49.5 -10h50v-54h-392v54h44q39 0 49.5 10t10.5 40zM306 617v-255h57q98 0 140 34.5t42 120.5q0 82 -35.5 116.5t-119.5 34.5
q-50 0 -67 -9.5t-17 -41.5z" />
    <glyph glyph-name="Q" unicode="Q" horiz-adv-x="833" 
d="M299 132q0 -39 28 -66t82 -27q47 0 68 14q4 16 4 47q0 72 -25 103t-62 31q-46 0 -70.5 -28t-24.5 -74zM39 361q0 160 109 268t269 108q159 0 268 -108t109 -268q0 -95 -49.5 -183t-124.5 -135q21 -73 45.5 -108.5t45.5 -35.5q19 0 31 22.5t12 57.5h54q-6 -82 -50 -125
t-121 -43q-76 0 -118.5 42.5t-42.5 115.5q0 15 1 22q-8 -2 -32 -4t-33 -2q-165 0 -269 111t-104 265zM237 361q0 -109 21 -186h2q7 52 49 82.5t96 30.5q59 0 102.5 -32t60.5 -89q11 23 19.5 87.5t8.5 106.5q0 327 -179 327q-180 0 -180 -327z" />
    <glyph glyph-name="R" unicode="R" horiz-adv-x="815" 
d="M301 601v-199h39q95 0 145 31t50 111q0 69 -34.5 96.5t-106.5 27.5q-63 0 -78 -11t-15 -56zM19 0v54h44q39 0 49.5 10t10.5 40v514q0 30 -10.5 40t-49.5 10h-44v54h452q134 0 194 -52t60 -134q0 -76 -60.5 -122t-154.5 -52v-2q77 -19 111 -63.5t54 -139.5
q11 -56 19.5 -73t25.5 -17q20 0 31 21.5t15 74.5h49q0 -91 -46 -134.5t-122 -43.5q-72 0 -116 40.5t-45 126.5q-1 83 -13.5 124.5t-39 56.5t-80.5 15h-52v-244q0 -30 10.5 -40t49.5 -10h50v-54h-392z" />
    <glyph glyph-name="S" unicode="S" horiz-adv-x="667" 
d="M59 -10l-8 285h49q34 -96 105 -166t164 -70q59 0 102 28.5t43 84.5q0 44 -25.5 68.5t-82.5 35.5l-102 20q-129 25 -191 88t-62 145q0 110 76 169t189 59q96 0 175 -55l54 49h43l13 -264h-50q-31 90 -96 153t-152 63q-54 0 -96 -26.5t-42 -76.5q0 -77 111 -100l124 -26
q122 -26 178 -84t56 -152q0 -97 -70 -165t-191 -68q-123 0 -207 67l-63 -62h-44z" />
    <glyph glyph-name="T" unicode="T" horiz-adv-x="722" 
d="M156 0v54h56q39 0 49.5 10t10.5 40v533q0 21 -7 28.5t-31 7.5q-38 0 -69 -21.5t-51 -56.5t-32 -71.5t-17 -73.5h-49l16 272h658l16 -272h-49q-5 37 -17 73.5t-32 71.5t-51 56.5t-69 21.5q-24 0 -31 -7.5t-7 -28.5v-533q0 -30 10.5 -40t49.5 -10h56v-54h-410z" />
    <glyph glyph-name="U" unicode="U" horiz-adv-x="833" 
d="M14 668v54h386v-54h-44q-39 0 -49.5 -10t-10.5 -40v-396q0 -161 175 -161q80 0 129.5 47.5t49.5 140.5v292q0 73 -21.5 99t-89.5 28v54h286v-54q-62 0 -86 -33t-24 -102v-284q0 -60 -16.5 -106.5t-43.5 -76t-65 -48t-78.5 -26t-86.5 -7.5q-307 0 -307 237v396
q0 30 -10.5 40t-49.5 10h-44z" />
    <glyph glyph-name="V" unicode="V" horiz-adv-x="759" 
d="M-19 668v54h361v-54h-50q-34 0 -34 -21q0 -10 8 -34l164 -415l143 371q7 20 7 36q0 28 -25.5 45.5t-57.5 17.5h-16v54h297v-54q-89 -6 -143 -136l-223 -542h-82l-244 602q-20 50 -37 62t-68 14z" />
    <glyph glyph-name="W" unicode="W" horiz-adv-x="981" 
d="M7 668v54h307v-54h-23q-37 0 -37 -26q0 -8 7 -31l120 -368h2l82 259l-36 109q-12 38 -23 46.5t-44 10.5v54h296v-54h-13q-28 0 -37.5 -5t-9.5 -20q0 -13 7 -34l108 -359h2l90 301q10 31 10 61q0 52 -91 56v54h250v-54q-37 -5 -61 -32.5t-42 -86.5l-177 -559h-71l-126 412
h-2l-133 -412h-73l-202 609q-15 48 -28 58.5t-52 10.5z" />
    <glyph glyph-name="X" unicode="X" horiz-adv-x="722" 
d="M-12 0v54q76 6 120 60l171 210l-214 305q-17 23 -30.5 29.5t-46.5 9.5v54h353v-54h-14q-33 -1 -44.5 -6.5t-11.5 -17.5t14 -30l106 -151q108 124 108 154q0 51 -99 51v54h309v-54q-41 -2 -72 -20t-71 -68l-138 -173l202 -288q27 -39 47 -51.5t57 -13.5v-54h-359v54h22
q49 0 49 21q0 11 -18 37l-112 161q-76 -96 -93 -121.5t-17 -47.5q0 -23 20.5 -36.5t61.5 -13.5h28v-54h-328z" />
    <glyph glyph-name="Y" unicode="Y" horiz-adv-x="722" 
d="M-12 668v54h358v-54h-22q-31 0 -42 -5t-11 -18q0 -11 19 -41l131 -212l96 174q19 35 19 50q0 52 -95 52v54h293v-54q-53 -7 -83 -32.5t-69 -91.5l-132 -226v-214q0 -30 10.5 -40t49.5 -10h53v-54h-401v54h50q39 0 49.5 10t10.5 40v202l-192 307q-22 35 -38 45t-54 10z
" />
    <glyph glyph-name="Z" unicode="Z" horiz-adv-x="667" 
d="M101 469h-48l12 253h573v-52l-403 -613q42 -3 101 -3q50 0 84.5 8t67.5 30t57.5 66.5t42.5 114.5h51l-16 -273h-595v52l404 613q-39 3 -91 3q-102 0 -154 -44.5t-86 -154.5z" />
    <glyph glyph-name="bracketleft" unicode="[" horiz-adv-x="389" 
d="M339 -65v-44h-255v846h255v-44h-135v-758h135z" />
    <glyph glyph-name="backslash" unicode="\" horiz-adv-x="606" 
d="M484 -15h-112l-250 752h112z" />
    <glyph glyph-name="bracketright" unicode="]" horiz-adv-x="389" 
d="M50 693v44h255v-846h-255v44h135v758h-135z" />
    <glyph glyph-name="asciicircum" unicode="^" horiz-adv-x="606" 
d="M66 325l177 365h120l177 -365h-108l-129 257l-129 -257h-108z" />
    <glyph glyph-name="underscore" unicode="_" horiz-adv-x="500" 
d="M0 -125v50h500v-50h-500z" />
    <glyph glyph-name="grave" unicode="`" horiz-adv-x="333" 
d="M249 547h-61l-153 90q-33 19 -33 47q0 22 15.5 37.5t40.5 15.5q19 0 36 -11.5t45 -45.5z" />
    <glyph glyph-name="a" unicode="a" horiz-adv-x="611" 
d="M366 287v51q0 53 -21.5 75.5t-70.5 22.5q-34 0 -53 -10.5t-19 -23.5q0 -6 12.5 -22t12.5 -32q0 -29 -22 -47.5t-60 -18.5q-31 0 -54.5 19.5t-23.5 56.5q0 55 60.5 91t166.5 36q226 0 226 -152v-202q0 -64 25 -64q8 0 20 7.5t21 7.5q15 0 15 -16q0 -30 -33 -55.5
t-73 -25.5q-37 0 -67.5 19.5t-40.5 49.5q-74 -69 -194 -69q-71 0 -112 29t-41 86q0 70 70.5 113t255.5 74zM366 172v66q-91 -18 -126 -43t-35 -73q0 -32 17.5 -50.5t48.5 -18.5q41 0 68 32.5t27 86.5z" />
    <glyph glyph-name="b" unicode="b" horiz-adv-x="648" 
d="M4 677v49l236 11v-333h2q22 38 65 59.5t90 21.5q101 0 160 -70t59 -173q0 -106 -69.5 -181.5t-188.5 -75.5q-111 0 -172 83l-67 -83h-46q13 70 13 180v460q0 31 -10.5 41.5t-41.5 10.5h-30zM240 226q0 -97 24.5 -144.5t77.5 -47.5q52 0 77 52.5t25 139.5q0 191 -102 191
q-52 0 -77 -52.5t-25 -138.5z" />
    <glyph glyph-name="c" unicode="c" horiz-adv-x="556" 
d="M476 175l48 -16q-52 -174 -223 -174q-64 0 -113 17.5t-78 43.5t-47 61t-24.5 66t-6.5 62q0 111 79.5 180.5t191.5 69.5q54 0 99.5 -11.5t79.5 -43t34 -79.5q0 -39 -24.5 -62.5t-64.5 -23.5q-34 0 -58.5 21t-24.5 51q0 24 16 45t16 28q0 12 -16.5 19t-39.5 7
q-51 0 -83.5 -47t-32.5 -140q0 -89 31 -142.5t95 -53.5q103 0 146 122z" />
    <glyph glyph-name="d" unicode="d" horiz-adv-x="667" 
d="M204 234q0 -77 24.5 -129t77.5 -52t77.5 52t24.5 129q0 50 -9 89t-32.5 66.5t-60.5 27.5t-60.5 -27.5t-32.5 -66.5t-9 -89zM32 227q0 107 65.5 182.5t165.5 75.5q87 0 145 -67v207q0 31 -10.5 41.5t-41.5 10.5h-42v49l248 11v-625q0 -31 10.5 -41.5t41.5 -10.5h30v-49
l-230 -11v76h-2q-46 -91 -161 -91q-94 0 -156.5 67.5t-62.5 174.5z" />
    <glyph glyph-name="e" unicode="e" 
d="M542 228h-338v-21q0 -72 37.5 -117t107.5 -45q92 0 148 113l45 -19q-35 -80 -92.5 -117t-144.5 -37q-114 0 -193.5 69.5t-79.5 180.5t79.5 180.5t193.5 69.5q115 0 177 -70.5t60 -186.5zM204 277h150q20 0 27 7.5t7 27.5q0 62 -22.5 93t-62.5 31q-50 0 -74.5 -47
t-24.5 -112z" />
    <glyph glyph-name="f" unicode="f" horiz-adv-x="389" 
d="M99 92v323h-88v60h88v16q0 111 62 178.5t152 67.5q67 0 107.5 -32t40.5 -78q0 -35 -22 -58t-58 -23q-28 0 -51 19.5t-23 47.5q0 19 8 32.5t16 20t8 9.5q0 13 -20 13q-30 0 -48 -33t-18 -99v-81h127v-60h-127v-323q0 -29 9 -36t50 -7h35v-49h-324v49h17q41 0 50 7t9 36z
" />
    <glyph glyph-name="g" unicode="g" horiz-adv-x="611" 
d="M30 -108q0 40 35 64.5t85 26.5l2 2q-106 19 -106 95q0 37 36.5 62.5t89.5 29.5v2q-62 16 -91.5 54.5t-29.5 86.5q0 77 67.5 123.5t169.5 46.5q80 0 134 -30q60 80 129 80q30 0 51 -17.5t21 -47.5q0 -26 -16 -44.5t-46 -18.5q-23 0 -38.5 17t-19.5 41q-17 -3 -40 -32
q62 -44 62 -116t-59.5 -115.5t-161.5 -43.5h-54q-26 0 -41 -9.5t-15 -22.5q0 -31 37 -33l198 -4q61 -2 97.5 -39.5t36.5 -86.5q0 -83 -75 -125.5t-209 -42.5q-249 0 -249 97zM211 319q0 -54 20 -85.5t57 -31.5t57 31.5t20 85.5q0 117 -77 117t-77 -117zM158 -94
q0 -27 30 -44.5t96 -17.5q151 0 151 65q0 46 -81 46h-162q-14 -7 -24 -21t-10 -28z" />
    <glyph glyph-name="h" unicode="h" horiz-adv-x="685" 
d="M23 0v49h17q41 0 50 7t9 36v533q0 31 -10.5 41.5t-41.5 10.5h-30v49l236 11v-343h2q51 91 166 91q76 0 120.5 -41.5t44.5 -127.5v-224q0 -29 9 -36t50 -7h17v-49h-300v49h11q41 0 50 7t9 36v214q0 41 -19 66t-54 25q-45 0 -75.5 -40t-30.5 -112v-153q0 -29 9 -36t50 -7
h11v-49h-300z" />
    <glyph glyph-name="i" unicode="i" horiz-adv-x="370" 
d="M32 0v49h17q41 0 50 7t9 36v271q0 31 -10.5 41.5t-41.5 10.5h-30v49l236 11v-383q0 -29 9 -36t50 -7h17v-49h-306zM99 651q0 35 25.5 60.5t60.5 25.5t60.5 -25.5t25.5 -60.5t-25.5 -60.5t-60.5 -25.5t-60.5 25.5t-25.5 60.5z" />
    <glyph glyph-name="j" unicode="j" horiz-adv-x="352" 
d="M14 415v49l248 11v-394q0 -71 -14 -124.5t-35 -83.5t-50.5 -48.5t-54.5 -24t-52 -5.5q-60 0 -101 27t-41 75q0 32 21.5 53t54.5 21q28 0 47 -19.5t19 -42.5q0 -19 -7 -31.5t-14 -17.5t-7 -7q0 -9 26 -9q27 0 40.5 21t13.5 71v427q0 31 -10.5 41.5t-41.5 10.5h-42zM99 651
q0 35 25.5 60.5t60.5 25.5t60.5 -25.5t25.5 -60.5t-25.5 -60.5t-60.5 -25.5t-60.5 25.5t-25.5 60.5z" />
    <glyph glyph-name="k" unicode="k" horiz-adv-x="667" 
d="M23 0v49h17q41 0 50 7t9 36v533q0 31 -10.5 41.5t-41.5 10.5h-30v49l236 11v-497l137 122q18 17 18 32q0 32 -65 32h-9v49h293v-49q-73 0 -123 -42l-86 -71l174 -220q23 -29 36 -36.5t34 -7.5v-49h-302v49h18q33 0 33 23q0 12 -22 38l-86 105l-50 -43v-80q0 -29 9 -36
t50 -7h11v-49h-300z" />
    <glyph glyph-name="l" unicode="l" horiz-adv-x="352" 
d="M23 0v49h17q41 0 50 7t9 36v533q0 31 -10.5 41.5t-41.5 10.5h-30v49l236 11v-645q0 -29 9 -36t50 -7h17v-49h-306z" />
    <glyph glyph-name="m" unicode="m" horiz-adv-x="963" 
d="M99 92v271q0 31 -10.5 41.5t-41.5 10.5h-30v49l232 11v-73h2q53 83 156 83q47 0 84.5 -21.5t56.5 -65.5q27 39 69 63t81 24q76 0 120.5 -41.5t44.5 -127.5v-224q0 -29 9 -36t50 -7h18v-49h-289v49h11q32 0 39.5 7t7.5 36v215q0 50 -16.5 70t-48.5 20q-31 0 -58.5 -31
t-27.5 -97v-177q0 -29 7.5 -36t39.5 -7h11v-49h-270v49h11q32 0 39.5 7t7.5 36v215q0 50 -16.5 70t-48.5 20q-31 0 -58.5 -31t-27.5 -97v-177q0 -29 7.5 -36t39.5 -7h11v-49h-288v49h17q41 0 50 7t9 36z" />
    <glyph glyph-name="n" unicode="n" horiz-adv-x="685" 
d="M23 0v49h17q41 0 50 7t9 36v271q0 31 -10.5 41.5t-41.5 10.5h-30v49l236 11v-81h2q51 91 166 91q76 0 120.5 -41.5t44.5 -127.5v-224q0 -29 9 -36t50 -7h17v-49h-300v49h11q41 0 50 7t9 36v214q0 41 -19 66t-54 25q-45 0 -75.5 -40t-30.5 -112v-153q0 -29 9 -36t50 -7h11
v-49h-300z" />
    <glyph glyph-name="o" unicode="o" horiz-adv-x="611" 
d="M32 235q0 111 79.5 180.5t193.5 69.5t194 -69.5t80 -180.5t-80 -180.5t-194 -69.5t-193.5 69.5t-79.5 180.5zM204 235q0 -201 101 -201q102 0 102 201t-102 201q-101 0 -101 -201z" />
    <glyph glyph-name="p" unicode="p" horiz-adv-x="667" 
d="M23 -205v49h17q41 0 50 7t9 36v476q0 31 -10.5 41.5t-41.5 10.5h-30v49l236 11v-72h2q50 82 155 82q101 0 160 -70t59 -173q0 -106 -65 -181.5t-164 -75.5q-43 0 -83 18.5t-62 49.5h-2v-166q0 -29 9 -36t50 -7h29v-49h-318zM253 236q0 -86 26 -134.5t76 -48.5
q52 0 77 50.5t25 132.5q0 85 -25 133t-66 48q-113 0 -113 -181z" />
    <glyph glyph-name="q" unicode="q" horiz-adv-x="648" 
d="M204 234q0 -77 24.5 -129t77.5 -52t77.5 52t24.5 129q0 104 -25.5 153t-80.5 49q-98 0 -98 -202zM465 403l65 82h47l-15 -196v-402q0 -29 9 -36t50 -7h17v-49h-318v49h29q41 0 50 7t9 36v166h-2q-49 -68 -155 -68q-94 0 -156.5 67.5t-62.5 174.5t65.5 182.5t165.5 75.5
q147 0 202 -82z" />
    <glyph glyph-name="r" unicode="r" horiz-adv-x="519" 
d="M99 92v271q0 31 -10.5 41.5t-41.5 10.5h-30v49l222 11v-136h2q49 146 163 146q48 0 80 -26t32 -75q0 -34 -23.5 -58.5t-57.5 -24.5q-39 0 -59 23.5t-20 53.5t22 45l-2 2q-63 -17 -93 -98t-30 -235q0 -29 9 -36t50 -7h41v-49h-330v49h17q41 0 50 7t9 36z" />
    <glyph glyph-name="s" unicode="s" horiz-adv-x="500" 
d="M132 19l-40 -19h-40l-4 172h46q61 -138 179 -138q89 0 89 63q0 43 -84 60l-74 15q-149 30 -149 153q0 76 56 118t139 42q66 0 121 -33l38 23h42l4 -155h-46q-66 116 -158 116q-40 0 -64 -16t-24 -46q0 -32 58 -46l137 -35q55 -14 86.5 -51t31.5 -88q0 -75 -54.5 -122
t-154.5 -47q-38 0 -78 11t-57 23z" />
    <glyph glyph-name="t" unicode="t" horiz-adv-x="426" 
d="M92 415h-71v54q71 8 110 56.5t55 149.5h60v-200h132v-60h-132v-284q0 -32 8.5 -48t31.5 -16q32 0 48.5 35t16.5 85h54q0 -202 -169 -202q-84 0 -114 41t-30 134v255z" />
    <glyph glyph-name="u" unicode="u" horiz-adv-x="685" 
d="M17 415v49l236 11v-307q0 -95 70 -95q48 0 78.5 38.5t30.5 109.5v142q0 31 -10.5 41.5t-41.5 10.5h-30v49l236 11v-363q0 -31 10.5 -41.5t41.5 -10.5h30v-49l-230 -11v83h-2q-62 -98 -177 -98q-160 0 -160 187v191q0 31 -10.5 41.5t-41.5 10.5h-30z" />
    <glyph glyph-name="v" unicode="v" horiz-adv-x="611" 
d="M12 426v49h282v-49q-54 -4 -54 -24q0 -10 6 -23l113 -239l86 210q9 22 9 34q0 20 -17.5 28t-63.5 14v49h226v-49q-37 -6 -57 -26t-46 -79l-145 -331h-85l-186 383q-16 33 -27.5 42t-40.5 11z" />
    <glyph glyph-name="w" unicode="w" horiz-adv-x="889" 
d="M16 426v49h273v-49q-29 0 -39 -6t-10 -20q0 -11 5 -24l92 -220l74 168l-24 59q-10 26 -22.5 34.5t-41.5 8.5v49h277v-49q-59 0 -59 -24q0 -11 8 -32l92 -216l70 166q15 35 15 56q0 50 -64 50h-12v49h223v-49q-31 0 -50.5 -19t-38.5 -62l-161 -355h-76l-107 264l-115 -264
h-77l-165 387q-12 29 -27 39t-40 10z" />
    <glyph glyph-name="x" unicode="x" horiz-adv-x="611" 
d="M12 0v49q43 0 91 45l124 117l-141 168q-24 29 -38 38t-36 9v49h296v-49h-9q-35 0 -35 -17q0 -11 11 -25l59 -70l44 41q29 26 29 45q0 26 -44 26h-18v49h244v-49q-57 0 -106 -47l-114 -106l156 -187q19 -22 30.5 -28.5t43.5 -8.5v-49h-313v49h14q16 0 25 6.5t9 16.5
q0 11 -11 25l-61 72l-53 -52q-22 -22 -22 -37q0 -31 42 -31h18v-49h-235z" />
    <glyph glyph-name="y" unicode="y" horiz-adv-x="611" 
d="M12 426v49h283v-49h-14q-23 0 -31.5 -6t-8.5 -20q0 -12 11 -34l106 -213l72 162q20 46 20 64q0 47 -64 47h-13v49h226v-49q-38 -5 -55 -21t-41 -68l-170 -367q-42 -91 -91 -133t-115 -42q-51 0 -82.5 29.5t-31.5 67.5q0 33 25.5 56.5t57.5 23.5q35 0 56 -19t21 -49
q0 -21 -9 -36q0 -5 7 -5q57 0 108 122l-211 412q-9 17 -19 22.5t-37 6.5z" />
    <glyph glyph-name="z" unicode="z" horiz-adv-x="537" 
d="M38 0v49l276 377h-94q-47 0 -72.5 -30t-43.5 -101h-48l11 180h432v-49l-274 -377h112q38 0 68 38t48 103h46l-10 -190h-451z" />
    <glyph glyph-name="braceleft" unicode="{" horiz-adv-x="389" 
d="M313 -77v-32q-111 0 -154 27t-43 114v165q0 47 -17 75.5t-63 41.5q46 13 63 41.5t17 75.5v165q0 87 43 114t154 27v-32q-43 -6 -60 -28.5t-17 -71.5v-159q0 -54 -17.5 -86.5t-68.5 -44.5v-2q51 -12 68.5 -44.5t17.5 -86.5v-159q0 -49 17 -71.5t60 -28.5z" />
    <glyph glyph-name="bar" unicode="|" horiz-adv-x="606" 
d="M249 -250v1000h108v-1000h-108z" />
    <glyph glyph-name="braceright" unicode="}" horiz-adv-x="389" 
d="M76 705v32q111 0 154 -27t43 -114v-165q0 -47 17 -75.5t63 -41.5q-46 -13 -63 -41.5t-17 -75.5v-165q0 -87 -43 -114t-154 -27v32q43 6 60 28.5t17 71.5v159q0 54 17.5 86.5t68.5 44.5v2q-51 12 -68.5 44.5t-17.5 86.5v159q0 49 -17 71.5t-60 28.5z" />
    <glyph glyph-name="asciitilde" unicode="~" horiz-adv-x="606" 
d="M108 160l-36 96q42 86 122 86q48 0 119 -34q73 -35 97 -35q41 0 88 73l36 -96q-58 -85 -125 -85q-38 0 -106 35q-65 34 -111 34q-27 0 -46.5 -17.5t-37.5 -56.5z" />
    <glyph glyph-name="uni00A0" unicode="&#xa0;" horiz-adv-x="287" 
 />
    <glyph glyph-name="exclamdown" unicode="&#xa1;" horiz-adv-x="296" 
d="M120 305h56q2 -105 18.5 -185t32.5 -133t16 -95q0 -43 -25.5 -70t-69.5 -27t-69.5 27t-25.5 70q0 42 16 95t32.5 133t18.5 185zM243 452q0 -39 -28 -67t-67 -28t-67 28t-28 67t28 67t67 28t67 -28t28 -67z" />
    <glyph glyph-name="cent" unicode="&#xa2;" 
d="M225 130l120 212q1 21 16 41t15 27q0 26 -56 26q-51 0 -83.5 -47t-32.5 -140q0 -74 21 -119zM94 -102l66 116q-48 22 -78 63.5t-40 79.5t-10 78q0 111 79.5 180.5t191.5 69.5q65 0 113 -17l58 104h54l-69 -123q57 -35 57 -98q0 -39 -24.5 -62.5t-64.5 -23.5q-35 0 -59 22
l-115 -203q29 -31 77 -31q103 0 146 122l48 -16q-52 -174 -223 -174q-57 0 -97 13l-56 -100h-54z" />
    <glyph glyph-name="sterling" unicode="&#xa3;" 
d="M31 313v60h104q-26 62 -26 119q0 100 65 156.5t168 56.5q81 0 139.5 -41.5t58.5 -118.5q0 -43 -25.5 -70t-64.5 -27q-37 0 -59.5 21.5t-22.5 51.5q0 44 48 67q21 10 21 27q0 15 -22 28t-53 13q-99 0 -99 -101q0 -40 37 -182h155v-60h-147q4 -14 4 -27q0 -69 -36 -149
q59 -24 117 -24q36 0 69 22t48 62l48 -13q-15 -86 -58.5 -142.5t-122.5 -56.5q-65 0 -149 66q-41 -66 -118 -66q-37 0 -65.5 24t-28.5 66q0 44 30 70t75 26q34 0 75 -18q2 16 2 23q0 53 -40 137h-127zM65 77q0 -43 46 -43q52 0 71 57q-36 31 -68 31q-23 0 -36 -12.5
t-13 -32.5z" />
    <glyph glyph-name="currency" unicode="&#xa4;" 
d="M89 84l-62 62l57 57q-45 62 -45 142t45 142l-57 56l62 62l57 -56q63 44 141 44q80 0 141 -44l57 56l62 -62l-57 -57q45 -62 45 -141t-45 -142l57 -57l-62 -62l-57 57q-63 -44 -141 -44t-141 44zM147 345q0 -69 38 -108.5t102 -39.5t102 39.5t38 108.5t-38 108.5
t-102 39.5t-102 -39.5t-38 -108.5z" />
    <glyph glyph-name="yen" unicode="&#xa5;" 
d="M129 0v54h40q30 0 38.5 9.5t8.5 37.5v67h-105v54h105v67h-105v54h79l-126 243q-17 32 -30 41t-44 9v54h285v-54h-15q-45 0 -45 -21q0 -7 16 -38l104 -202l76 166q15 34 15 48q0 47 -75 47v54h233v-54q-42 -7 -66.5 -31t-54.5 -85l-86 -177h89v-54h-108v-67h108v-54h-108
v-67q0 -28 8.5 -37.5t38.5 -9.5h43v-54h-319z" />
    <glyph glyph-name="brokenbar" unicode="&#xa6;" horiz-adv-x="606" 
d="M249 -175v350h108v-350h-108zM249 325v350h108v-350h-108z" />
    <glyph glyph-name="section" unicode="&#xa7;" horiz-adv-x="500" 
d="M283 81l-135 112q-54 44 -70 75.5t-16 71.5q0 56 30 88.5t76 32.5h20v9q-48 40 -65.5 71.5t-17.5 67.5q0 54 38.5 91t100.5 37q70 0 107 -29.5t37 -67.5q0 -24 -15.5 -42.5t-42.5 -18.5q-25 0 -40.5 15t-15.5 37q0 19 10 29.5t20 16.5t10 14q0 10 -15.5 18t-45.5 8
q-35 0 -59 -21.5t-24 -55.5q0 -20 24.5 -46t114.5 -94q129 -98 129 -192q0 -54 -33 -86t-88 -32v-9q83 -61 83 -137q0 -63 -48 -96.5t-115 -33.5q-55 0 -97.5 28.5t-42.5 70.5q0 29 15 45.5t42 16.5q26 0 41.5 -15t15.5 -37q0 -16 -6 -26.5t-13.5 -13.5t-13.5 -7.5t-6 -11.5
q0 -13 20 -21.5t55 -8.5q32 0 54.5 20t22.5 53q0 39 -41 74zM373 273q0 18 -9.5 34t-35.5 41q-95 93 -141 93q-29 0 -44.5 -18.5t-15.5 -45.5q0 -23 21.5 -50t87.5 -81q44 -36 75 -36q27 0 44.5 17.5t17.5 45.5z" />
    <glyph glyph-name="dieresis" unicode="&#xa8;" horiz-adv-x="333" 
d="M-12 623q0 29 21 50t50 21t50 -21t21 -50t-21 -50t-50 -21t-50 21t-21 50zM203 623q0 29 21 50t50 21t50 -21t21 -50t-21 -50t-50 -21t-50 21t-21 50z" />
    <glyph glyph-name="copyright" unicode="&#xa9;" horiz-adv-x="747" 
d="M538 439h-38q-11 43 -37.5 68.5t-65.5 25.5q-53 0 -87 -43t-34 -120q0 -91 33.5 -135.5t90.5 -44.5q40 0 70.5 27t46.5 69h38l-16 -98q-2 -16 -49.5 -29t-111.5 -13q-100 0 -158 60.5t-58 158.5q0 95 64 153.5t175 58.5q37 0 70 -7t50 -15.5t17 -14.5v-101zM-2 361
q0 156 110 266t266 110t266 -110t110 -266t-110 -266t-266 -110t-266 110t-110 266zM656 361q0 123 -80.5 205.5t-201.5 82.5t-201.5 -82.5t-80.5 -205.5t80.5 -205.5t201.5 -82.5t201.5 82.5t80.5 205.5z" />
    <glyph glyph-name="ordfeminine" unicode="&#xaa;" horiz-adv-x="367" 
d="M226 586v28q0 59 -52 59q-19 0 -37 -5t-18 -12q0 -4 8.5 -14.5t8.5 -21.5q0 -17 -16 -28.5t-46 -11.5q-25 0 -41.5 11.5t-16.5 34.5q0 35 41.5 57t119.5 22q163 0 163 -91v-114q0 -39 16 -39q5 0 13 4.5t14 4.5q10 0 10 -7q0 -23 -21.5 -39.5t-47.5 -16.5q-70 0 -84 41
q-49 -41 -133 -41q-106 0 -106 69q0 40 48 65.5t177 44.5zM226 520v35q-60 -11 -82.5 -24t-22.5 -38q0 -17 11.5 -27t31.5 -10q27 0 44.5 17.5t17.5 46.5z" />
    <glyph glyph-name="guillemotleft" unicode="&#xab;" horiz-adv-x="500" 
d="M245 229v18q25 16 89.5 71t78.5 69q10 10 22 10q9 0 14 -5.5t5 -12.5q0 -13 -46 -78l-44 -63l44 -63q46 -65 46 -78q0 -7 -5 -12.5t-14 -5.5q-12 0 -22 10q-14 14 -78.5 69t-89.5 71zM46 229v18q25 16 89.5 71t78.5 69q10 10 22 10q9 0 14 -5.5t5 -12.5q0 -13 -46 -78
l-44 -63l44 -63q46 -65 46 -78q0 -7 -5 -12.5t-14 -5.5q-12 0 -22 10q-14 14 -78.5 69t-89.5 71z" />
    <glyph glyph-name="logicalnot" unicode="&#xac;" horiz-adv-x="606" 
d="M448 103v192h-398v108h506v-300h-108z" />
    <glyph glyph-name="uni00AD" unicode="&#xad;" horiz-adv-x="333" 
d="M42 174v128h249v-128h-249z" />
    <glyph glyph-name="registered" unicode="&#xae;" horiz-adv-x="747" 
d="M-2 361q0 156 110 266t266 110t266 -110t110 -266t-110 -266t-266 -110t-266 110t-110 266zM656 361q0 123 -80.5 205.5t-201.5 82.5t-201.5 -82.5t-80.5 -205.5t80.5 -205.5t201.5 -82.5t201.5 82.5t80.5 205.5zM188 170v32q33 4 40.5 10t7.5 31v243q0 25 -7.5 31
t-40.5 10v32h224q52 0 86.5 -24.5t34.5 -73.5q0 -37 -23.5 -66.5t-61.5 -41.5l74 -117q22 -34 50 -34v-32h-92q-27 0 -50 41l-74 126h-26v-94q0 -25 7.5 -31t40.5 -10v-32h-190zM330 369h30q26 0 45.5 20.5t19.5 64.5q0 39 -18.5 56t-45.5 17h-31v-158z" />
    <glyph glyph-name="macron" unicode="&#xaf;" horiz-adv-x="333" 
d="M339 582h-345v82h345v-82z" />
    <glyph glyph-name="degree" unicode="&#xb0;" horiz-adv-x="400" 
d="M57 562q0 59 42 101t101 42t101 -42t42 -101t-42 -101t-101 -42t-101 42t-42 101zM133 562q0 -28 19.5 -47.5t47.5 -19.5t47.5 19.5t19.5 47.5t-19.5 47.5t-47.5 19.5t-47.5 -19.5t-19.5 -47.5z" />
    <glyph glyph-name="plusminus" unicode="&#xb1;" horiz-adv-x="606" 
d="M50 267v108h199v131h108v-131h199v-108h-199v-131h-108v131h-199zM50 0v108h506v-108h-506z" />
    <glyph glyph-name="twosuperior" unicode="&#xb2;" horiz-adv-x="344" 
d="M-3 282v23q44 56 151 162q80 79 80 123q0 77 -71 77q-28 0 -49 -14.5t-21 -29.5q0 -6 14 -10.5t28 -16.5t14 -36q0 -18 -17 -31t-44 -13q-33 0 -52 19.5t-19 54.5q0 46 47.5 80.5t121.5 34.5q65 0 116.5 -27t51.5 -73q0 -77 -83 -126q-90 -53 -147 -95v-2h154
q18 0 25 6.5t10 23.5l9 42h34l-14 -172h-339z" />
    <glyph glyph-name="threesuperior" unicode="&#xb3;" horiz-adv-x="344" 
d="M-3 375q0 24 17.5 39t46.5 15q27 0 45.5 -12.5t18.5 -31.5q0 -24 -16 -35q-16 -12 -16 -19q0 -10 18 -18t46 -8q31 0 50.5 25.5t19.5 65.5q0 86 -57 86q-9 0 -24.5 -2t-23.5 -2q-23 0 -23 21q0 23 26 23q6 0 22.5 -4t26.5 -4q20 0 34.5 20.5t14.5 65.5q0 34 -17.5 53.5
t-43.5 19.5q-25 0 -40.5 -7.5t-15.5 -16.5q0 -5 15.5 -19t15.5 -32q0 -21 -15.5 -33.5t-45.5 -12.5q-31 0 -49 15.5t-18 40.5q0 39 42.5 68t122.5 29q82 0 125.5 -29t43.5 -75q0 -79 -112 -101v-2q124 -7 124 -106q0 -47 -43.5 -83t-141.5 -36q-75 0 -124 25t-49 77z" />
    <glyph glyph-name="acute" unicode="&#xb4;" horiz-adv-x="333" 
d="M145 547h-61l110 133q28 34 45 45.5t36 11.5q25 0 40.5 -15.5t15.5 -37.5q0 -28 -33 -47z" />
    <glyph glyph-name="mu" unicode="&#xb5;" horiz-adv-x="685" 
d="M17 415v49l236 11v-307q0 -95 70 -95q48 0 78.5 38.5t30.5 109.5v142q0 31 -10.5 41.5t-41.5 10.5h-30v49l236 11v-363q0 -31 10.5 -41.5t41.5 -10.5h30v-49l-230 -11v83h-2q-27 -43 -71 -70.5t-73 -27.5q-62 0 -88 55h-2q0 -34 13.5 -90t13.5 -76q0 -34 -20 -56.5
t-57 -22.5t-57 22.5t-20 56.5q0 14 12 89t12 143v257q0 31 -10.5 41.5t-41.5 10.5h-30z" />
    <glyph glyph-name="paragraph" unicode="&#xb6;" horiz-adv-x="747" 
d="M289 28v312q-85 0 -139 49.5t-54 141.5q0 89 53 140t145 51h337v-32h-14q-64 0 -64 -67v-595q0 -67 64 -67h14v-32h-172v733h-76v-733h-172v32h14q64 0 64 67zM289 408v246q-51 0 -80 -30t-29 -93q0 -62 31.5 -92.5t77.5 -30.5z" />
    <glyph glyph-name="periodcentered" unicode="&#xb7;" horiz-adv-x="278" 
d="M53 286q0 35 25.5 60.5t60.5 25.5t60.5 -25.5t25.5 -60.5t-25.5 -60.5t-60.5 -25.5t-60.5 25.5t-25.5 60.5z" />
    <glyph glyph-name="cedilla" unicode="&#xb8;" horiz-adv-x="333" 
d="M111 0h44l-30 -63q17 5 41 5q35 0 58.5 -20.5t23.5 -55.5q0 -42 -36.5 -66t-100.5 -24q-47 0 -94 19l15 38q38 -13 60 -13q56 0 56 40q0 38 -42 38q-12 0 -24 -5l-17 8z" />
    <glyph glyph-name="onesuperior" unicode="&#xb9;" horiz-adv-x="344" 
d="M33 282v38h43q25 0 32 6t7 24v246q0 18 -7 24t-32 6h-45v38q106 1 163 41h35v-355q0 -18 7 -24t32 -6h41v-38h-276z" />
    <glyph glyph-name="ordmasculine" unicode="&#xba;" horiz-adv-x="367" 
d="M1 556q0 66 53 107.5t130 41.5t129.5 -41.5t52.5 -107.5t-52.5 -107.5t-129.5 -41.5t-130 41.5t-53 107.5zM121 556q0 -117 62 -117q63 0 63 117t-63 117q-62 0 -62 -117z" />
    <glyph glyph-name="guillemotright" unicode="&#xbb;" horiz-adv-x="500" 
d="M255 247v-18q-25 -16 -89.5 -71t-78.5 -69q-10 -10 -22 -10q-9 0 -14 5.5t-5 12.5q0 13 46 78l44 63l-44 63q-46 65 -46 78q0 7 5 12.5t14 5.5q12 0 22 -10q14 -14 78.5 -69t89.5 -71zM454 247v-18q-25 -16 -89.5 -71t-78.5 -69q-10 -10 -22 -10q-9 0 -14 5.5t-5 12.5
q0 13 46 78l44 63l-44 63q-46 65 -46 78q0 7 5 12.5t14 5.5q12 0 22 -10q14 -14 78.5 -69t89.5 -71z" />
    <glyph glyph-name="onequarter" unicode="&#xbc;" horiz-adv-x="861" 
d="M598 0v38h23q25 0 32 6t7 24v29h-183v55l237 271h65q-5 -47 -5 -85v-192h64v-49h-64v-29q0 -18 7 -24t32 -6h18v-38h-233zM658 301l-132 -155h134v155h-2zM190 -15l421 720h76l-421 -720h-76zM33 282v38h43q25 0 32 6t7 24v246q0 18 -7 24t-32 6h-45v38q106 1 163 41h35
v-355q0 -18 7 -24t32 -6h41v-38h-276z" />
    <glyph glyph-name="onehalf" unicode="&#xbd;" horiz-adv-x="861" 
d="M182 -15l421 720h76l-421 -720h-76zM33 282v38h43q25 0 32 6t7 24v246q0 18 -7 24t-32 6h-45v38q106 1 163 41h35v-355q0 -18 7 -24t32 -6h41v-38h-276zM485 0v23q44 56 151 162q80 79 80 123q0 77 -71 77q-28 0 -49 -14.5t-21 -29.5q0 -6 14 -10.5t28 -16.5t14 -36
q0 -18 -17 -31t-44 -13q-33 0 -52 19.5t-19 54.5q0 46 47.5 80.5t121.5 34.5q65 0 116.5 -27t51.5 -73q0 -77 -83 -126q-90 -53 -147 -95v-2h154q18 0 25 6.5t10 23.5l9 42h34l-14 -172h-339z" />
    <glyph glyph-name="threequarters" unicode="&#xbe;" horiz-adv-x="861" 
d="M598 0v38h23q25 0 32 6t7 24v29h-183v55l237 271h65q-5 -47 -5 -85v-192h64v-49h-64v-29q0 -18 7 -24t32 -6h18v-38h-233zM658 301l-132 -155h134v155h-2zM222 -15l421 720h76l-421 -720h-76zM15 375q0 24 17.5 39t46.5 15q27 0 45.5 -12.5t18.5 -31.5q0 -24 -16 -35
q-16 -12 -16 -19q0 -10 18 -18t46 -8q31 0 50.5 25.5t19.5 65.5q0 86 -57 86q-9 0 -24.5 -2t-23.5 -2q-23 0 -23 21q0 23 26 23q6 0 22.5 -4t26.5 -4q20 0 34.5 20.5t14.5 65.5q0 34 -17.5 53.5t-43.5 19.5q-25 0 -40.5 -7.5t-15.5 -16.5q0 -5 15.5 -19t15.5 -32
q0 -21 -15.5 -33.5t-45.5 -12.5q-31 0 -49 15.5t-18 40.5q0 39 42.5 68t122.5 29q82 0 125.5 -29t43.5 -75q0 -79 -112 -101v-2q124 -7 124 -106q0 -47 -43.5 -83t-141.5 -36q-75 0 -124 25t-49 77z" />
    <glyph glyph-name="questiondown" unicode="&#xbf;" horiz-adv-x="500" 
d="M245 305h54v-44q0 -47 -26 -95.5t-52 -99t-26 -99.5q0 -118 100 -118q25 0 41 8t16 19q0 9 -8.5 16t-18 13t-18 21t-8.5 37q0 31 23 55t61 24q40 0 67 -25.5t27 -70.5q0 -60 -58.5 -105.5t-162.5 -45.5q-120 0 -176.5 52t-56.5 119q0 90 76 146l76 57q44 34 56 59t14 77z
M177 452q0 39 28 67t67 28t67 -28t28 -67t-28 -67t-67 -28t-67 28t-28 67z" />
    <glyph glyph-name="Agrave" unicode="&#xc0;" horiz-adv-x="759" 
d="M-19 0v54q81 7 132 127l237 556h75l255 -613q18 -43 35 -56t63 -14v-54h-350v54h31q43 0 43 29q0 14 -9 37l-39 102h-253q-30 -69 -30 -100q0 -68 100 -68v-54h-290zM226 282h202l-99 249zM462 774h-61l-153 90q-33 19 -33 47q0 22 15.5 37.5t40.5 15.5q19 0 36 -11.5
t45 -45.5z" />
    <glyph glyph-name="Aacute" unicode="&#xc1;" horiz-adv-x="759" 
d="M-19 0v54q81 7 132 127l237 556h75l255 -613q18 -43 35 -56t63 -14v-54h-350v54h31q43 0 43 29q0 14 -9 37l-39 102h-253q-30 -69 -30 -100q0 -68 100 -68v-54h-290zM226 282h202l-99 249zM358 774h-61l110 133q28 34 45 45.5t36 11.5q25 0 40.5 -15.5t15.5 -37.5
q0 -28 -33 -47z" />
    <glyph glyph-name="Acircumflex" unicode="&#xc2;" horiz-adv-x="759" 
d="M-19 0v54q81 7 132 127l237 556h75l255 -613q18 -43 35 -56t63 -14v-54h-350v54h31q43 0 43 29q0 14 -9 37l-39 102h-253q-30 -69 -30 -100q0 -68 100 -68v-54h-290zM226 282h202l-99 249zM326 952h108l123 -178h-68l-109 96l-109 -96h-68z" />
    <glyph glyph-name="Atilde" unicode="&#xc3;" horiz-adv-x="759" 
d="M-19 0v54q81 7 132 127l237 556h75l255 -613q18 -43 35 -56t63 -14v-54h-350v54h31q43 0 43 29q0 14 -9 37l-39 102h-253q-30 -69 -30 -100q0 -68 100 -68v-54h-290zM226 282h202l-99 249zM521 926h49q-13 -60 -43 -98t-78 -38q-45 0 -96 26t-68 26q-35 0 -49 -48h-47
q11 57 42 97.5t77 40.5q29 0 87.5 -27t76.5 -27t29 11t20 37z" />
    <glyph glyph-name="Adieresis" unicode="&#xc4;" horiz-adv-x="759" 
d="M-19 0v54q81 7 132 127l237 556h75l255 -613q18 -43 35 -56t63 -14v-54h-350v54h31q43 0 43 29q0 14 -9 37l-39 102h-253q-30 -69 -30 -100q0 -68 100 -68v-54h-290zM226 282h202l-99 249zM201 850q0 29 21 50t50 21t50 -21t21 -50t-21 -50t-50 -21t-50 21t-21 50z
M416 850q0 29 21 50t50 21t50 -21t21 -50t-21 -50t-50 -21t-50 21t-21 50z" />
    <glyph glyph-name="Aring" unicode="&#xc5;" horiz-adv-x="759" 
d="M-19 0v54q81 7 132 127l237 556h75l255 -613q18 -43 35 -56t63 -14v-54h-350v54h31q43 0 43 29q0 14 -9 37l-39 102h-253q-30 -69 -30 -100q0 -68 100 -68v-54h-290zM226 282h202l-99 249zM271 880q0 45 31.5 76.5t76.5 31.5t76.5 -31.5t31.5 -76.5t-31.5 -76.5
t-76.5 -31.5t-76.5 31.5t-31.5 76.5zM325 880q0 -22 15.5 -38t38.5 -16t38.5 16t15.5 38t-15.5 38t-38.5 16t-38.5 -16t-15.5 -38z" />
    <glyph glyph-name="AE" unicode="&#xc6;" horiz-adv-x="981" 
d="M222 0h-251v54q31 6 50 24t44 66l193 380q33 65 33 91q0 25 -21 39t-58 14h-31v54h761l9 -262h-49q-36 113 -84.5 160.5t-154.5 47.5q-43 0 -55 -10.5t-12 -46.5v-209q67 0 98 35t42 108h55v-350h-54q-5 68 -35.5 110.5t-87.5 42.5h-18v-235q0 -39 10 -49t51 -10
q113 0 166 48t90 166l50 -3l-12 -265h-637v54h44q39 0 49.5 10t10.5 40v160h-220q-48 -97 -59 -123t-11 -38q0 -49 76 -49h18v-54zM228 324h190v325q0 19 -11 19q-9 0 -15 -14z" />
    <glyph glyph-name="Ccedilla" unicode="&#xc7;" horiz-adv-x="778" 
d="M291 -205l15 38q38 -13 60 -13q56 0 56 40q0 38 -42 38q-12 0 -24 -5l-17 8l40 84q-158 7 -249 108t-91 268q0 160 109 268t269 108q109 0 183 -56l57 54h42l9 -285l-51 -5q-29 107 -85 175t-141 68q-104 0 -149 -83t-45 -253q0 -307 202 -307q88 0 147.5 59.5
t77.5 158.5l59 -14q-28 -129 -101 -193.5t-199 -68.5l-24 -50q17 5 41 5q35 0 58.5 -20.5t23.5 -55.5q0 -42 -36.5 -66t-100.5 -24q-47 0 -94 19z" />
    <glyph glyph-name="Egrave" unicode="&#xc8;" horiz-adv-x="759" 
d="M19 0v54h44q39 0 49.5 10t10.5 40v514q0 30 -10.5 40t-49.5 10h-44v54h671l7 -262h-50q-17 58 -35.5 94.5t-47 63.5t-69.5 38.5t-101 11.5q-57 0 -75 -14t-18 -57v-195h19q60 0 95.5 38.5t43.5 105.5h52l4 -351h-56q-2 69 -42 111t-104 42h-12v-229q0 -30 6.5 -42
t29 -17.5t75.5 -5.5q104 0 158.5 51t87.5 165l50 -4l-11 -266h-678zM462 774h-61l-153 90q-33 19 -33 47q0 22 15.5 37.5t40.5 15.5q19 0 36 -11.5t45 -45.5z" />
    <glyph glyph-name="Eacute" unicode="&#xc9;" horiz-adv-x="759" 
d="M19 0v54h44q39 0 49.5 10t10.5 40v514q0 30 -10.5 40t-49.5 10h-44v54h671l7 -262h-50q-17 58 -35.5 94.5t-47 63.5t-69.5 38.5t-101 11.5q-57 0 -75 -14t-18 -57v-195h19q60 0 95.5 38.5t43.5 105.5h52l4 -351h-56q-2 69 -42 111t-104 42h-12v-229q0 -30 6.5 -42
t29 -17.5t75.5 -5.5q104 0 158.5 51t87.5 165l50 -4l-11 -266h-678zM358 774h-61l110 133q28 34 45 45.5t36 11.5q25 0 40.5 -15.5t15.5 -37.5q0 -28 -33 -47z" />
    <glyph glyph-name="Ecircumflex" unicode="&#xca;" horiz-adv-x="759" 
d="M19 0v54h44q39 0 49.5 10t10.5 40v514q0 30 -10.5 40t-49.5 10h-44v54h671l7 -262h-50q-17 58 -35.5 94.5t-47 63.5t-69.5 38.5t-101 11.5q-57 0 -75 -14t-18 -57v-195h19q60 0 95.5 38.5t43.5 105.5h52l4 -351h-56q-2 69 -42 111t-104 42h-12v-229q0 -30 6.5 -42
t29 -17.5t75.5 -5.5q104 0 158.5 51t87.5 165l50 -4l-11 -266h-678zM326 952h108l123 -178h-68l-109 96l-109 -96h-68z" />
    <glyph glyph-name="Edieresis" unicode="&#xcb;" horiz-adv-x="759" 
d="M19 0v54h44q39 0 49.5 10t10.5 40v514q0 30 -10.5 40t-49.5 10h-44v54h671l7 -262h-50q-17 58 -35.5 94.5t-47 63.5t-69.5 38.5t-101 11.5q-57 0 -75 -14t-18 -57v-195h19q60 0 95.5 38.5t43.5 105.5h52l4 -351h-56q-2 69 -42 111t-104 42h-12v-229q0 -30 6.5 -42
t29 -17.5t75.5 -5.5q104 0 158.5 51t87.5 165l50 -4l-11 -266h-678zM201 850q0 29 21 50t50 21t50 -21t21 -50t-21 -50t-50 -21t-50 21t-21 50zM416 850q0 29 21 50t50 21t50 -21t21 -50t-21 -50t-50 -21t-50 21t-21 50z" />
    <glyph glyph-name="Igrave" unicode="&#xcc;" horiz-adv-x="444" 
d="M29 0v54h44q39 0 49.5 10t10.5 40v514q0 30 -10.5 40t-49.5 10h-44v54h386v-54h-44q-39 0 -49.5 -10t-10.5 -40v-514q0 -30 10.5 -40t49.5 -10h44v-54h-386zM305 774h-61l-153 90q-33 19 -33 47q0 22 15.5 37.5t40.5 15.5q19 0 36 -11.5t45 -45.5z" />
    <glyph glyph-name="Iacute" unicode="&#xcd;" horiz-adv-x="444" 
d="M29 0v54h44q39 0 49.5 10t10.5 40v514q0 30 -10.5 40t-49.5 10h-44v54h386v-54h-44q-39 0 -49.5 -10t-10.5 -40v-514q0 -30 10.5 -40t49.5 -10h44v-54h-386zM201 774h-61l110 133q28 34 45 45.5t36 11.5q25 0 40.5 -15.5t15.5 -37.5q0 -28 -33 -47z" />
    <glyph glyph-name="Icircumflex" unicode="&#xce;" horiz-adv-x="444" 
d="M29 0v54h44q39 0 49.5 10t10.5 40v514q0 30 -10.5 40t-49.5 10h-44v54h386v-54h-44q-39 0 -49.5 -10t-10.5 -40v-514q0 -30 10.5 -40t49.5 -10h44v-54h-386zM169 952h108l123 -178h-68l-109 96l-109 -96h-68z" />
    <glyph glyph-name="Idieresis" unicode="&#xcf;" horiz-adv-x="444" 
d="M29 0v54h44q39 0 49.5 10t10.5 40v514q0 30 -10.5 40t-49.5 10h-44v54h386v-54h-44q-39 0 -49.5 -10t-10.5 -40v-514q0 -30 10.5 -40t49.5 -10h44v-54h-386zM44 850q0 29 21 50t50 21t50 -21t21 -50t-21 -50t-50 -21t-50 21t-21 50zM259 850q0 29 21 50t50 21t50 -21
t21 -50t-21 -50t-50 -21t-50 21t-21 50z" />
    <glyph glyph-name="Eth" unicode="&#xd0;" horiz-adv-x="833" 
d="M19 0v54h44q39 0 49.5 10t10.5 40v244h-104v54h104v216q0 30 -10.5 40t-49.5 10h-44v54h412q178 0 270.5 -97.5t92.5 -255.5q0 -179 -97 -274t-266 -95h-412zM301 608v-206h121v-54h-121v-240q0 -33 15 -43.5t65 -10.5q49 0 84.5 12.5t67 44t47.5 93.5t16 153
q0 95 -16 158.5t-47.5 95.5t-68 44.5t-87.5 12.5q-49 0 -62.5 -13t-13.5 -47z" />
    <glyph glyph-name="Ntilde" unicode="&#xd1;" horiz-adv-x="833" 
d="M5 668v54h258l387 -460v281q0 72 -21 97t-89 28v54h288v-54q-68 -3 -89 -28t-21 -97v-553h-65l-468 563h-2v-374q0 -72 21 -97t89 -28v-54h-288v54q68 3 89 28t21 97v435q-37 54 -110 54zM558 926h49q-13 -60 -43 -98t-78 -38q-44 0 -95 26t-69 26q-35 0 -49 -48h-47
q11 57 42 97.5t77 40.5q29 0 87.5 -27t76.5 -27t29 11t20 37z" />
    <glyph glyph-name="Ograve" unicode="&#xd2;" horiz-adv-x="833" 
d="M237 361q0 -327 180 -327q179 0 179 327t-179 327q-180 0 -180 -327zM39 361q0 160 109 268t269 108q159 0 268 -108t109 -268t-109 -268t-268 -108q-160 0 -269 108t-109 268zM499 774h-61l-153 90q-33 19 -33 47q0 22 15.5 37.5t40.5 15.5q19 0 36 -11.5t45 -45.5z" />
    <glyph glyph-name="Oacute" unicode="&#xd3;" horiz-adv-x="833" 
d="M237 361q0 -327 180 -327q179 0 179 327t-179 327q-180 0 -180 -327zM39 361q0 160 109 268t269 108q159 0 268 -108t109 -268t-109 -268t-268 -108q-160 0 -269 108t-109 268zM395 774h-61l110 133q28 34 45 45.5t36 11.5q25 0 40.5 -15.5t15.5 -37.5q0 -28 -33 -47z
" />
    <glyph glyph-name="Ocircumflex" unicode="&#xd4;" horiz-adv-x="833" 
d="M237 361q0 -327 180 -327q179 0 179 327t-179 327q-180 0 -180 -327zM39 361q0 160 109 268t269 108q159 0 268 -108t109 -268t-109 -268t-268 -108q-160 0 -269 108t-109 268zM363 952h108l123 -178h-68l-109 96l-109 -96h-68z" />
    <glyph glyph-name="Otilde" unicode="&#xd5;" horiz-adv-x="833" 
d="M237 361q0 -327 180 -327q179 0 179 327t-179 327q-180 0 -180 -327zM39 361q0 160 109 268t269 108q159 0 268 -108t109 -268t-109 -268t-268 -108q-160 0 -269 108t-109 268zM558 926h49q-13 -60 -43 -98t-78 -38q-44 0 -95 26t-69 26q-35 0 -49 -48h-47q11 57 42 97.5
t77 40.5q29 0 87.5 -27t76.5 -27t29 11t20 37z" />
    <glyph glyph-name="Odieresis" unicode="&#xd6;" horiz-adv-x="833" 
d="M237 361q0 -327 180 -327q179 0 179 327t-179 327q-180 0 -180 -327zM39 361q0 160 109 268t269 108q159 0 268 -108t109 -268t-109 -268t-268 -108q-160 0 -269 108t-109 268zM238 850q0 29 21 50t50 21t50 -21t21 -50t-21 -50t-50 -21t-50 21t-21 50zM453 850
q0 29 21 50t50 21t50 -21t21 -50t-21 -50t-50 -21t-50 21t-21 50z" />
    <glyph glyph-name="multiply" unicode="&#xd7;" horiz-adv-x="606" 
d="M141 15l-76 76l162 162l-162 162l76 76l162 -162l162 162l76 -76l-162 -162l162 -162l-76 -76l-162 162z" />
    <glyph glyph-name="Oslash" unicode="&#xd8;" horiz-adv-x="833" 
d="M257 183l297 416q-43 89 -137 89q-180 0 -180 -327q0 -109 20 -178zM154 -53h-65l87 122q-64 50 -100.5 126.5t-36.5 165.5q0 160 109 268t269 108q108 0 197 -53l65 91h65l-86 -121q64 -53 100 -129t36 -164q0 -160 -109 -268t-268 -108q-108 0 -197 54zM576 539
l-297 -417q43 -88 138 -88q179 0 179 327q0 112 -20 178z" />
    <glyph glyph-name="Ugrave" unicode="&#xd9;" horiz-adv-x="833" 
d="M14 668v54h386v-54h-44q-39 0 -49.5 -10t-10.5 -40v-396q0 -161 175 -161q80 0 129.5 47.5t49.5 140.5v292q0 73 -21.5 99t-89.5 28v54h286v-54q-62 0 -86 -33t-24 -102v-284q0 -60 -16.5 -106.5t-43.5 -76t-65 -48t-78.5 -26t-86.5 -7.5q-307 0 -307 237v396
q0 30 -10.5 40t-49.5 10h-44zM499 774h-61l-153 90q-33 19 -33 47q0 22 15.5 37.5t40.5 15.5q19 0 36 -11.5t45 -45.5z" />
    <glyph glyph-name="Uacute" unicode="&#xda;" horiz-adv-x="833" 
d="M14 668v54h386v-54h-44q-39 0 -49.5 -10t-10.5 -40v-396q0 -161 175 -161q80 0 129.5 47.5t49.5 140.5v292q0 73 -21.5 99t-89.5 28v54h286v-54q-62 0 -86 -33t-24 -102v-284q0 -60 -16.5 -106.5t-43.5 -76t-65 -48t-78.5 -26t-86.5 -7.5q-307 0 -307 237v396
q0 30 -10.5 40t-49.5 10h-44zM395 774h-61l110 133q28 34 45 45.5t36 11.5q25 0 40.5 -15.5t15.5 -37.5q0 -28 -33 -47z" />
    <glyph glyph-name="Ucircumflex" unicode="&#xdb;" horiz-adv-x="833" 
d="M14 668v54h386v-54h-44q-39 0 -49.5 -10t-10.5 -40v-396q0 -161 175 -161q80 0 129.5 47.5t49.5 140.5v292q0 73 -21.5 99t-89.5 28v54h286v-54q-62 0 -86 -33t-24 -102v-284q0 -60 -16.5 -106.5t-43.5 -76t-65 -48t-78.5 -26t-86.5 -7.5q-307 0 -307 237v396
q0 30 -10.5 40t-49.5 10h-44zM363 952h108l123 -178h-68l-109 96l-109 -96h-68z" />
    <glyph glyph-name="Udieresis" unicode="&#xdc;" horiz-adv-x="833" 
d="M14 668v54h386v-54h-44q-39 0 -49.5 -10t-10.5 -40v-396q0 -161 175 -161q80 0 129.5 47.5t49.5 140.5v292q0 73 -21.5 99t-89.5 28v54h286v-54q-62 0 -86 -33t-24 -102v-284q0 -60 -16.5 -106.5t-43.5 -76t-65 -48t-78.5 -26t-86.5 -7.5q-307 0 -307 237v396
q0 30 -10.5 40t-49.5 10h-44zM278 850q0 29 21 50t50 21t50 -21t21 -50t-21 -50t-50 -21t-50 21t-21 50zM493 850q0 29 21 50t50 21t50 -21t21 -50t-21 -50t-50 -21t-50 21t-21 50z" />
    <glyph glyph-name="Yacute" unicode="&#xdd;" horiz-adv-x="722" 
d="M-12 668v54h358v-54h-22q-31 0 -42 -5t-11 -18q0 -11 19 -41l131 -212l96 174q19 35 19 50q0 52 -95 52v54h293v-54q-53 -7 -83 -32.5t-69 -91.5l-132 -226v-214q0 -30 10.5 -40t49.5 -10h53v-54h-401v54h50q39 0 49.5 10t10.5 40v202l-192 307q-22 35 -38 45t-54 10z
M380 774h-61l110 133q28 34 45 45.5t36 11.5q25 0 40.5 -15.5t15.5 -37.5q0 -28 -33 -47z" />
    <glyph glyph-name="Thorn" unicode="&#xde;" horiz-adv-x="759" 
d="M128 104v514q0 30 -10.5 40t-49.5 10h-44v54h386v-54h-44q-39 0 -49.5 -10t-10.5 -40v-30h152q136 0 206.5 -53.5t70.5 -154.5q0 -206 -326 -206q-35 0 -103 2v-72q0 -30 10.5 -40t49.5 -10h50v-54h-392v54h44q39 0 49.5 10t10.5 40zM306 483v-255h57q98 0 140 34.5
t42 120.5q0 91 -36 121t-132 30q-41 0 -56 -10t-15 -41z" />
    <glyph glyph-name="germandbls" unicode="&#xdf;" horiz-adv-x="611" 
d="M-2 0v49h29q41 0 50 7t9 36v436q0 107 60.5 158t161.5 51q123 0 178.5 -46t55.5 -122q0 -48 -37 -92t-88 -54v-2q163 -43 163 -210q0 -92 -58 -159t-155 -67q-36 0 -72 15v57q19 -23 55 -23q22 0 35 13.5t21.5 58.5t8.5 125q0 89 -16 126.5t-65 37.5q-4 0 -11 -0.5
t-10 -0.5q-16 0 -20.5 4t-4.5 18q0 13 6 18t22 5q33 0 46 7t19.5 33t6.5 86q0 69 -20 96t-58 27q-42 0 -56 -32t-14 -117v-539h-235h-7z" />
    <glyph glyph-name="agrave" unicode="&#xe0;" horiz-adv-x="611" 
d="M520 333v-202q0 -64 25 -64q8 0 20 7.5t21 7.5q15 0 15 -16q0 -30 -33 -55.5t-73 -25.5q-37 0 -67.5 19.5t-40.5 49.5q-74 -69 -194 -69q-71 0 -112 29t-41 86q0 70 70.5 113t255.5 74v51q0 53 -21.5 75.5t-70.5 22.5q-34 0 -53 -10.5t-19 -23.5q0 -6 12.5 -22t12.5 -32
q0 -29 -22 -47.5t-60 -18.5q-31 0 -54.5 19.5t-23.5 56.5q0 55 60.5 91t166.5 36q226 0 226 -152zM366 172v66q-91 -18 -126 -43t-35 -73q0 -32 17.5 -50.5t48.5 -18.5q41 0 68 32.5t27 86.5zM388 547h-61l-153 90q-33 19 -33 47q0 22 15.5 37.5t40.5 15.5q19 0 36 -11.5
t45 -45.5z" />
    <glyph glyph-name="aacute" unicode="&#xe1;" horiz-adv-x="611" 
d="M520 333v-202q0 -64 25 -64q8 0 20 7.5t21 7.5q15 0 15 -16q0 -30 -33 -55.5t-73 -25.5q-37 0 -67.5 19.5t-40.5 49.5q-74 -69 -194 -69q-71 0 -112 29t-41 86q0 70 70.5 113t255.5 74v51q0 53 -21.5 75.5t-70.5 22.5q-34 0 -53 -10.5t-19 -23.5q0 -6 12.5 -22t12.5 -32
q0 -29 -22 -47.5t-60 -18.5q-31 0 -54.5 19.5t-23.5 56.5q0 55 60.5 91t166.5 36q226 0 226 -152zM366 172v66q-91 -18 -126 -43t-35 -73q0 -32 17.5 -50.5t48.5 -18.5q41 0 68 32.5t27 86.5zM284 547h-61l110 133q28 34 45 45.5t36 11.5q25 0 40.5 -15.5t15.5 -37.5
q0 -28 -33 -47z" />
    <glyph glyph-name="acircumflex" unicode="&#xe2;" horiz-adv-x="611" 
d="M520 333v-202q0 -64 25 -64q8 0 20 7.5t21 7.5q15 0 15 -16q0 -30 -33 -55.5t-73 -25.5q-37 0 -67.5 19.5t-40.5 49.5q-74 -69 -194 -69q-71 0 -112 29t-41 86q0 70 70.5 113t255.5 74v51q0 53 -21.5 75.5t-70.5 22.5q-34 0 -53 -10.5t-19 -23.5q0 -6 12.5 -22t12.5 -32
q0 -29 -22 -47.5t-60 -18.5q-31 0 -54.5 19.5t-23.5 56.5q0 55 60.5 91t166.5 36q226 0 226 -152zM366 172v66q-91 -18 -126 -43t-35 -73q0 -32 17.5 -50.5t48.5 -18.5q41 0 68 32.5t27 86.5zM252 725h108l123 -178h-68l-109 96l-109 -96h-68z" />
    <glyph glyph-name="atilde" unicode="&#xe3;" horiz-adv-x="611" 
d="M520 333v-202q0 -64 25 -64q8 0 20 7.5t21 7.5q15 0 15 -16q0 -30 -33 -55.5t-73 -25.5q-37 0 -67.5 19.5t-40.5 49.5q-74 -69 -194 -69q-71 0 -112 29t-41 86q0 70 70.5 113t255.5 74v51q0 53 -21.5 75.5t-70.5 22.5q-34 0 -53 -10.5t-19 -23.5q0 -6 12.5 -22t12.5 -32
q0 -29 -22 -47.5t-60 -18.5q-31 0 -54.5 19.5t-23.5 56.5q0 55 60.5 91t166.5 36q226 0 226 -152zM366 172v66q-91 -18 -126 -43t-35 -73q0 -32 17.5 -50.5t48.5 -18.5q41 0 68 32.5t27 86.5zM447 699h49q-13 -60 -43 -98t-78 -38q-45 0 -96 26t-68 26q-35 0 -49 -48h-47
q11 57 42 97.5t77 40.5q29 0 87.5 -27t76.5 -27t29 11t20 37z" />
    <glyph glyph-name="adieresis" unicode="&#xe4;" horiz-adv-x="611" 
d="M520 333v-202q0 -64 25 -64q8 0 20 7.5t21 7.5q15 0 15 -16q0 -30 -33 -55.5t-73 -25.5q-37 0 -67.5 19.5t-40.5 49.5q-74 -69 -194 -69q-71 0 -112 29t-41 86q0 70 70.5 113t255.5 74v51q0 53 -21.5 75.5t-70.5 22.5q-34 0 -53 -10.5t-19 -23.5q0 -6 12.5 -22t12.5 -32
q0 -29 -22 -47.5t-60 -18.5q-31 0 -54.5 19.5t-23.5 56.5q0 55 60.5 91t166.5 36q226 0 226 -152zM366 172v66q-91 -18 -126 -43t-35 -73q0 -32 17.5 -50.5t48.5 -18.5q41 0 68 32.5t27 86.5zM127 623q0 29 21 50t50 21t50 -21t21 -50t-21 -50t-50 -21t-50 21t-21 50z
M342 623q0 29 21 50t50 21t50 -21t21 -50t-21 -50t-50 -21t-50 21t-21 50z" />
    <glyph glyph-name="aring" unicode="&#xe5;" horiz-adv-x="611" 
d="M520 333v-202q0 -64 25 -64q8 0 20 7.5t21 7.5q15 0 15 -16q0 -30 -33 -55.5t-73 -25.5q-37 0 -67.5 19.5t-40.5 49.5q-74 -69 -194 -69q-71 0 -112 29t-41 86q0 70 70.5 113t255.5 74v51q0 53 -21.5 75.5t-70.5 22.5q-34 0 -53 -10.5t-19 -23.5q0 -6 12.5 -22t12.5 -32
q0 -29 -22 -47.5t-60 -18.5q-31 0 -54.5 19.5t-23.5 56.5q0 55 60.5 91t166.5 36q226 0 226 -152zM366 172v66q-91 -18 -126 -43t-35 -73q0 -32 17.5 -50.5t48.5 -18.5q41 0 68 32.5t27 86.5zM197 653q0 45 31.5 76.5t76.5 31.5t76.5 -31.5t31.5 -76.5t-31.5 -76.5
t-76.5 -31.5t-76.5 31.5t-31.5 76.5zM251 653q0 -23 15.5 -38.5t38.5 -15.5t38.5 15.5t15.5 38.5t-15.5 38.5t-38.5 15.5t-38.5 -15.5t-15.5 -38.5z" />
    <glyph glyph-name="ae" unicode="&#xe6;" horiz-adv-x="870" 
d="M358 172v66q-91 -18 -126 -43t-35 -73q0 -32 17.5 -50.5t48.5 -18.5q41 0 68 32.5t27 86.5zM32 100q0 70 70.5 113t255.5 74v51q0 53 -21.5 75.5t-70.5 22.5q-34 0 -53 -10.5t-19 -23.5q0 -6 12.5 -22t12.5 -32q0 -29 -22 -47.5t-60 -18.5q-31 0 -54.5 19.5t-23.5 56.5
q0 55 60.5 91t166.5 36q107 0 169 -62q52 62 146 62q115 0 177 -70.5t60 -186.5h-326v-21q0 -71 36 -116.5t100 -45.5q89 0 145 113l45 -19q-35 -80 -92.5 -117t-144.5 -37q-59 0 -113 24t-87 68q-34 -45 -96.5 -68.5t-119.5 -23.5q-71 0 -112 29t-41 86zM512 277h138
q20 0 27 7.5t7 27.5q0 61 -22 92.5t-61 31.5q-42 0 -65.5 -45t-23.5 -114z" />
    <glyph glyph-name="ccedilla" unicode="&#xe7;" horiz-adv-x="556" 
d="M175 -205l15 38q38 -13 60 -13q56 0 56 40q0 38 -42 38q-12 0 -24 -5l-17 8l40 84q-67 6 -115 33.5t-72 66.5t-34 76t-10 74q0 111 79.5 180.5t191.5 69.5q54 0 99.5 -11.5t79.5 -43t34 -79.5q0 -39 -24.5 -62.5t-64.5 -23.5q-34 0 -58.5 21t-24.5 51q0 24 16 45t16 28
q0 12 -16.5 19t-39.5 7q-51 0 -83.5 -47t-32.5 -140q0 -89 31 -142.5t95 -53.5q103 0 146 122l48 -16q-51 -171 -218 -174l-23 -48q17 5 41 5q35 0 58.5 -20.5t23.5 -55.5q0 -42 -36.5 -66t-100.5 -24q-47 0 -94 19z" />
    <glyph glyph-name="egrave" unicode="&#xe8;" 
d="M542 228h-338v-21q0 -72 37.5 -117t107.5 -45q92 0 148 113l45 -19q-35 -80 -92.5 -117t-144.5 -37q-114 0 -193.5 69.5t-79.5 180.5t79.5 180.5t193.5 69.5t175.5 -69t61.5 -183v-5zM204 277h150q20 0 27 7.5t7 27.5q0 62 -22.5 93t-62.5 31q-50 0 -74.5 -47t-24.5 -112
zM370 547h-61l-153 90q-33 19 -33 47q0 22 15.5 37.5t40.5 15.5q19 0 36 -11.5t45 -45.5z" />
    <glyph glyph-name="eacute" unicode="&#xe9;" 
d="M542 228h-338v-21q0 -72 37.5 -117t107.5 -45q92 0 148 113l45 -19q-35 -80 -92.5 -117t-144.5 -37q-114 0 -193.5 69.5t-79.5 180.5t79.5 180.5t193.5 69.5t175.5 -69t61.5 -183v-5zM204 277h150q20 0 27 7.5t7 27.5q0 62 -22.5 93t-62.5 31q-50 0 -74.5 -47t-24.5 -112
zM266 547h-61l110 133q28 34 45 45.5t36 11.5q25 0 40.5 -15.5t15.5 -37.5q0 -28 -33 -47z" />
    <glyph glyph-name="ecircumflex" unicode="&#xea;" 
d="M542 228h-338v-21q0 -72 37.5 -117t107.5 -45q92 0 148 113l45 -19q-35 -80 -92.5 -117t-144.5 -37q-114 0 -193.5 69.5t-79.5 180.5t79.5 180.5t193.5 69.5t175.5 -69t61.5 -183v-5zM204 277h150q20 0 27 7.5t7 27.5q0 62 -22.5 93t-62.5 31q-50 0 -74.5 -47t-24.5 -112
zM234 725h108l123 -178h-68l-109 96l-109 -96h-68z" />
    <glyph glyph-name="edieresis" unicode="&#xeb;" 
d="M542 228h-338v-21q0 -72 37.5 -117t107.5 -45q92 0 148 113l45 -19q-35 -80 -92.5 -117t-144.5 -37q-114 0 -193.5 69.5t-79.5 180.5t79.5 180.5t193.5 69.5t175.5 -69t61.5 -183v-5zM204 277h150q20 0 27 7.5t7 27.5q0 62 -22.5 93t-62.5 31q-50 0 -74.5 -47t-24.5 -112
zM109 623q0 29 21 50t50 21t50 -21t21 -50t-21 -50t-50 -21t-50 21t-21 50zM324 623q0 29 21 50t50 21t50 -21t21 -50t-21 -50t-50 -21t-50 21t-21 50z" />
    <glyph glyph-name="igrave" unicode="&#xec;" horiz-adv-x="370" 
d="M32 0v49h17q41 0 50 7t9 36v271q0 31 -10.5 41.5t-41.5 10.5h-30v49l236 11v-383q0 -29 9 -36t50 -7h17v-49h-306zM268 547h-61l-153 90q-33 19 -33 47q0 22 15.5 37.5t40.5 15.5q19 0 36 -11.5t45 -45.5z" />
    <glyph glyph-name="iacute" unicode="&#xed;" horiz-adv-x="370" 
d="M32 0v49h17q41 0 50 7t9 36v271q0 31 -10.5 41.5t-41.5 10.5h-30v49l236 11v-383q0 -29 9 -36t50 -7h17v-49h-306zM164 547h-61l110 133q28 34 45 45.5t36 11.5q25 0 40.5 -15.5t15.5 -37.5q0 -28 -33 -47z" />
    <glyph glyph-name="icircumflex" unicode="&#xee;" horiz-adv-x="370" 
d="M32 0v49h17q41 0 50 7t9 36v271q0 31 -10.5 41.5t-41.5 10.5h-30v49l236 11v-383q0 -29 9 -36t50 -7h17v-49h-306zM132 725h108l123 -178h-68l-109 96l-109 -96h-68z" />
    <glyph glyph-name="idieresis" unicode="&#xef;" horiz-adv-x="370" 
d="M32 0v49h17q41 0 50 7t9 36v271q0 31 -10.5 41.5t-41.5 10.5h-30v49l236 11v-383q0 -29 9 -36t50 -7h17v-49h-306zM7 623q0 29 21 50t50 21t50 -21t21 -50t-21 -50t-50 -21t-50 21t-21 50zM222 623q0 29 21 50t50 21t50 -21t21 -50t-21 -50t-50 -21t-50 21t-21 50z" />
    <glyph glyph-name="eth" unicode="&#xf0;" horiz-adv-x="611" 
d="M204 235q0 -201 101 -201q102 0 102 201t-102 201q-101 0 -101 -201zM223 550l-32 44l83 45q-60 40 -146 49v49q116 0 217 -59l103 56l32 -44l-84 -46q84 -65 133.5 -158.5t49.5 -193.5q0 -150 -70.5 -228.5t-203.5 -78.5q-114 0 -193.5 69.5t-79.5 180.5t79.5 180.5
t193.5 69.5q64 0 101 -32l2 2q-26 92 -87 148z" />
    <glyph glyph-name="ntilde" unicode="&#xf1;" horiz-adv-x="685" 
d="M23 0v49h17q41 0 50 7t9 36v271q0 31 -10.5 41.5t-41.5 10.5h-30v49l236 11v-81h2q51 91 166 91q76 0 120.5 -41.5t44.5 -127.5v-224q0 -29 9 -36t50 -7h17v-49h-300v49h11q41 0 50 7t9 36v214q0 41 -19 66t-54 25q-45 0 -75.5 -40t-30.5 -112v-153q0 -29 9 -36t50 -7h11
v-49h-300zM484 699h49q-13 -60 -43 -98t-78 -38q-44 0 -95 26t-69 26q-35 0 -49 -48h-47q11 57 42 97.5t77 40.5q29 0 87.5 -27t76.5 -27t29 11t20 37z" />
    <glyph glyph-name="ograve" unicode="&#xf2;" horiz-adv-x="611" 
d="M32 235q0 111 79.5 180.5t193.5 69.5t194 -69.5t80 -180.5t-80 -180.5t-194 -69.5t-193.5 69.5t-79.5 180.5zM204 235q0 -201 101 -201q102 0 102 201t-102 201q-101 0 -101 -201zM388 547h-61l-153 90q-33 19 -33 47q0 22 15.5 37.5t40.5 15.5q19 0 36 -11.5t45 -45.5z
" />
    <glyph glyph-name="oacute" unicode="&#xf3;" horiz-adv-x="611" 
d="M32 235q0 111 79.5 180.5t193.5 69.5t194 -69.5t80 -180.5t-80 -180.5t-194 -69.5t-193.5 69.5t-79.5 180.5zM204 235q0 -201 101 -201q102 0 102 201t-102 201q-101 0 -101 -201zM284 547h-61l110 133q28 34 45 45.5t36 11.5q25 0 40.5 -15.5t15.5 -37.5q0 -28 -33 -47z
" />
    <glyph glyph-name="ocircumflex" unicode="&#xf4;" horiz-adv-x="611" 
d="M32 235q0 111 79.5 180.5t193.5 69.5t194 -69.5t80 -180.5t-80 -180.5t-194 -69.5t-193.5 69.5t-79.5 180.5zM204 235q0 -201 101 -201q102 0 102 201t-102 201q-101 0 -101 -201zM252 725h108l123 -178h-68l-109 96l-109 -96h-68z" />
    <glyph glyph-name="otilde" unicode="&#xf5;" horiz-adv-x="611" 
d="M32 235q0 111 79.5 180.5t193.5 69.5t194 -69.5t80 -180.5t-80 -180.5t-194 -69.5t-193.5 69.5t-79.5 180.5zM204 235q0 -201 101 -201q102 0 102 201t-102 201q-101 0 -101 -201zM447 699h49q-13 -60 -43 -98t-78 -38q-45 0 -96 26t-68 26q-35 0 -49 -48h-47
q11 57 42 97.5t77 40.5q29 0 87.5 -27t76.5 -27t29 11t20 37z" />
    <glyph glyph-name="odieresis" unicode="&#xf6;" horiz-adv-x="611" 
d="M32 235q0 111 79.5 180.5t193.5 69.5t194 -69.5t80 -180.5t-80 -180.5t-194 -69.5t-193.5 69.5t-79.5 180.5zM204 235q0 -201 101 -201q102 0 102 201t-102 201q-101 0 -101 -201zM127 623q0 29 21 50t50 21t50 -21t21 -50t-21 -50t-50 -21t-50 21t-21 50zM342 623
q0 29 21 50t50 21t50 -21t21 -50t-21 -50t-50 -21t-50 21t-21 50z" />
    <glyph glyph-name="divide" unicode="&#xf7;" horiz-adv-x="606" 
d="M50 199v108h506v-108h-506zM217 460q0 35 25.5 60.5t60.5 25.5t60.5 -25.5t25.5 -60.5t-25.5 -60.5t-60.5 -25.5t-60.5 25.5t-25.5 60.5zM217 46q0 35 25.5 60.5t60.5 25.5t60.5 -25.5t25.5 -60.5t-25.5 -60.5t-60.5 -25.5t-60.5 25.5t-25.5 60.5z" />
    <glyph glyph-name="oslash" unicode="&#xf8;" horiz-adv-x="611" 
d="M215 126l159 273q-25 37 -69 37q-101 0 -101 -201q0 -65 11 -109zM396 344l-159 -272q25 -38 68 -38q102 0 102 201q0 63 -11 109zM136 -103h-54l74 127q-57 33 -90.5 87.5t-33.5 123.5q0 111 79.5 180.5t193.5 69.5q56 0 108 -19l62 107h54l-73 -126q57 -33 90 -88
t33 -124q0 -111 -80 -180.5t-194 -69.5q-59 0 -107 19z" />
    <glyph glyph-name="ugrave" unicode="&#xf9;" horiz-adv-x="685" 
d="M17 415v49l236 11v-307q0 -95 70 -95q48 0 78.5 38.5t30.5 109.5v142q0 31 -10.5 41.5t-41.5 10.5h-30v49l236 11v-363q0 -31 10.5 -41.5t41.5 -10.5h30v-49l-230 -11v83h-2q-62 -98 -177 -98q-160 0 -160 187v191q0 31 -10.5 41.5t-41.5 10.5h-30zM425 547h-61l-153 90
q-33 19 -33 47q0 22 15.5 37.5t40.5 15.5q19 0 36 -11.5t45 -45.5z" />
    <glyph glyph-name="uacute" unicode="&#xfa;" horiz-adv-x="685" 
d="M17 415v49l236 11v-307q0 -95 70 -95q48 0 78.5 38.5t30.5 109.5v142q0 31 -10.5 41.5t-41.5 10.5h-30v49l236 11v-363q0 -31 10.5 -41.5t41.5 -10.5h30v-49l-230 -11v83h-2q-62 -98 -177 -98q-160 0 -160 187v191q0 31 -10.5 41.5t-41.5 10.5h-30zM321 547h-61l110 133
q28 34 45 45.5t36 11.5q25 0 40.5 -15.5t15.5 -37.5q0 -28 -33 -47z" />
    <glyph glyph-name="ucircumflex" unicode="&#xfb;" horiz-adv-x="685" 
d="M17 415v49l236 11v-307q0 -95 70 -95q48 0 78.5 38.5t30.5 109.5v142q0 31 -10.5 41.5t-41.5 10.5h-30v49l236 11v-363q0 -31 10.5 -41.5t41.5 -10.5h30v-49l-230 -11v83h-2q-62 -98 -177 -98q-160 0 -160 187v191q0 31 -10.5 41.5t-41.5 10.5h-30zM289 725h108l123 -178
h-68l-109 96l-109 -96h-68z" />
    <glyph glyph-name="udieresis" unicode="&#xfc;" horiz-adv-x="685" 
d="M17 415v49l236 11v-307q0 -95 70 -95q48 0 78.5 38.5t30.5 109.5v142q0 31 -10.5 41.5t-41.5 10.5h-30v49l236 11v-363q0 -31 10.5 -41.5t41.5 -10.5h30v-49l-230 -11v83h-2q-62 -98 -177 -98q-160 0 -160 187v191q0 31 -10.5 41.5t-41.5 10.5h-30zM164 623q0 29 21 50
t50 21t50 -21t21 -50t-21 -50t-50 -21t-50 21t-21 50zM379 623q0 29 21 50t50 21t50 -21t21 -50t-21 -50t-50 -21t-50 21t-21 50z" />
    <glyph glyph-name="yacute" unicode="&#xfd;" horiz-adv-x="611" 
d="M12 426v49h283v-49h-14q-23 0 -31.5 -6t-8.5 -20q0 -12 11 -34l106 -213l72 162q20 46 20 64q0 47 -64 47h-13v49h226v-49q-38 -5 -55 -21t-41 -68l-170 -367q-42 -91 -91 -133t-115 -42q-51 0 -82.5 29.5t-31.5 67.5q0 33 25.5 56.5t57.5 23.5q35 0 56 -19t21 -49
q0 -21 -9 -36q0 -5 7 -5q57 0 108 122l-211 412q-9 17 -19 22.5t-37 6.5zM284 547h-61l110 133q28 34 45 45.5t36 11.5q25 0 40.5 -15.5t15.5 -37.5q0 -28 -33 -47z" />
    <glyph glyph-name="thorn" unicode="&#xfe;" horiz-adv-x="667" 
d="M23 -205v49h17q41 0 50 7t9 36v738q0 31 -10.5 41.5t-41.5 10.5h-30v49l236 11v-334h2q50 82 155 82q101 0 160 -70t59 -173q0 -106 -65 -181.5t-164 -75.5q-43 0 -83 18.5t-62 49.5h-2v-166q0 -29 9 -36t50 -7h29v-49h-318zM253 236q0 -86 26 -134.5t76 -48.5
q52 0 77 50.5t25 132.5q0 85 -25 133t-66 48q-113 0 -113 -181z" />
    <glyph glyph-name="ydieresis" unicode="&#xff;" horiz-adv-x="611" 
d="M12 426v49h283v-49h-14q-23 0 -31.5 -6t-8.5 -20q0 -12 11 -34l106 -213l72 162q20 46 20 64q0 47 -64 47h-13v49h226v-49q-38 -5 -55 -21t-41 -68l-170 -367q-42 -91 -91 -133t-115 -42q-51 0 -82.5 29.5t-31.5 67.5q0 33 25.5 56.5t57.5 23.5q35 0 56 -19t21 -49
q0 -21 -9 -36q0 -5 7 -5q57 0 108 122l-211 412q-9 17 -19 22.5t-37 6.5zM127 623q0 29 21 50t50 21t50 -21t21 -50t-21 -50t-50 -21t-50 21t-21 50zM342 623q0 29 21 50t50 21t50 -21t21 -50t-21 -50t-50 -21t-50 21t-21 50z" />
    <glyph glyph-name="dotlessi" unicode="&#x131;" horiz-adv-x="370" 
d="M32 0v49h17q41 0 50 7t9 36v271q0 31 -10.5 41.5t-41.5 10.5h-30v49l236 11v-383q0 -29 9 -36t50 -7h17v-49h-306z" />
    <glyph glyph-name="Lslash" unicode="&#x141;" horiz-adv-x="722" 
d="M19 0v54h44q39 0 49.5 10t10.5 40v172l-104 -62v68l104 62v274q0 30 -10.5 40t-49.5 10h-44v54h392v-54h-50q-39 0 -49.5 -10t-10.5 -40v-168l205 122v-68l-205 -122v-260q0 -45 17.5 -56.5t95.5 -11.5q104 0 159 54.5t78 162.5h52l-12 -271h-672z" />
    <glyph glyph-name="lslash" unicode="&#x142;" horiz-adv-x="352" 
d="M23 0v49h17q41 0 50 7t9 36v221l-76 -51v60l76 51v252q0 31 -10.5 41.5t-41.5 10.5h-30v49l236 11v-262l76 51v-60l-76 -51v-323q0 -29 9 -36t50 -7h17v-49h-306z" />
    <glyph glyph-name="OE" unicode="&#x152;" horiz-adv-x="1000" 
d="M0 350q0 157 97.5 264.5t260.5 107.5h609l8 -260l-49 -4q-36 116 -87 163t-145 47q-38 0 -48 -10t-10 -42v-214q63 0 93 35t41 108h55v-350h-54q-5 68 -34.5 110.5t-82.5 42.5h-18v-250q0 -25 10 -34.5t41 -9.5q101 0 157.5 51.5t86.5 164.5l51 -4l-11 -266h-613
q-72 0 -132.5 22t-101.5 57.5t-69.5 82t-41.5 94t-13 94.5zM458 172v377q0 58 -25.5 88.5t-71.5 30.5q-91 0 -127 -70t-36 -235q0 -168 37 -238.5t128 -70.5q95 0 95 118z" />
    <glyph glyph-name="oe" unicode="&#x153;" horiz-adv-x="907" 
d="M204 235q0 -201 101 -201t101 201t-101 201t-101 -201zM32 235q0 111 79.5 180.5t193.5 69.5q99 0 167 -65q31 29 77.5 47t88.5 18q115 0 177 -70.5t60 -186.5h-327v-21q0 -71 36.5 -116.5t100.5 -45.5q89 0 145 113l45 -19q-35 -80 -92.5 -117t-144.5 -37q-47 0 -95 17
t-74 48q-74 -65 -164 -65q-114 0 -193.5 69.5t-79.5 180.5zM548 277h139q20 0 27 7.5t7 27.5q0 61 -22 92.5t-61 31.5q-43 0 -66.5 -45t-23.5 -114z" />
    <glyph glyph-name="Scaron" unicode="&#x160;" horiz-adv-x="667" 
d="M59 -10l-8 285h49q34 -96 105 -166t164 -70q59 0 102 28.5t43 84.5q0 44 -25.5 68.5t-82.5 35.5l-102 20q-129 25 -191 88t-62 145q0 110 76 169t189 59q96 0 175 -55l54 49h43l13 -264h-50q-31 90 -96 153t-152 63q-54 0 -96 -26.5t-42 -76.5q0 -77 111 -100l124 -26
q122 -26 178 -84t56 -152q0 -97 -70 -165t-191 -68q-123 0 -207 67l-63 -62h-44zM388 774h-108l-123 178h68l109 -96l109 96h68z" />
    <glyph glyph-name="scaron" unicode="&#x161;" horiz-adv-x="500" 
d="M132 19l-40 -19h-40l-4 172h46q61 -138 179 -138q89 0 89 63q0 43 -84 60l-74 15q-149 30 -149 153q0 76 56 118t139 42q66 0 121 -33l38 23h42l4 -155h-46q-66 116 -158 116q-40 0 -64 -16t-24 -46q0 -32 58 -46l137 -35q55 -14 86.5 -51t31.5 -88q0 -75 -54.5 -122
t-154.5 -47q-38 0 -78 11t-57 23zM305 547h-108l-123 178h68l109 -96l109 96h68z" />
    <glyph glyph-name="Ydieresis" unicode="&#x178;" horiz-adv-x="722" 
d="M-12 668v54h358v-54h-22q-31 0 -42 -5t-11 -18q0 -11 19 -41l131 -212l96 174q19 35 19 50q0 52 -95 52v54h293v-54q-53 -7 -83 -32.5t-69 -91.5l-132 -226v-214q0 -30 10.5 -40t49.5 -10h53v-54h-401v54h50q39 0 49.5 10t10.5 40v202l-192 307q-22 35 -38 45t-54 10z
M183 850q0 29 21 50t50 21t50 -21t21 -50t-21 -50t-50 -21t-50 21t-21 50zM398 850q0 29 21 50t50 21t50 -21t21 -50t-21 -50t-50 -21t-50 21t-21 50z" />
    <glyph glyph-name="Zcaron" unicode="&#x17d;" horiz-adv-x="667" 
d="M101 469h-48l12 253h573v-52l-403 -613q42 -3 101 -3q50 0 84.5 8t67.5 30t57.5 66.5t42.5 114.5h51l-16 -273h-595v52l404 613q-39 3 -91 3q-102 0 -154 -44.5t-86 -154.5zM388 774h-108l-123 178h68l109 -96l109 96h68z" />
    <glyph glyph-name="zcaron" unicode="&#x17e;" horiz-adv-x="537" 
d="M38 0v49l276 377h-94q-47 0 -72.5 -30t-43.5 -101h-48l11 180h432v-49l-274 -377h112q38 0 68 38t48 103h46l-10 -190h-451zM323 547h-108l-123 178h68l109 -96l109 96h68z" />
    <glyph glyph-name="florin" unicode="&#x192;" 
d="M98 385v60h131q15 148 68 220t137 72q50 0 82 -24.5t32 -66.5q0 -29 -19.5 -50t-47.5 -21q-27 0 -44 16.5t-17 40.5q0 13 4 25t8 19t4 8q0 9 -13 9q-51 0 -56 -108l-6 -140h136v-60h-139l-14 -215q-25 -375 -218 -375q-48 0 -80 25t-32 65q0 32 17 52.5t48 20.5
q28 0 45.5 -14.5t17.5 -43.5q0 -18 -9 -33t-9 -16q0 -12 18 -12q17 0 33 20.5t18 54.5l30 471h-125z" />
    <glyph glyph-name="circumflex" unicode="&#x2c6;" horiz-adv-x="333" 
d="M113 725h108l123 -178h-68l-109 96l-109 -96h-68z" />
    <glyph glyph-name="caron" unicode="&#x2c7;" horiz-adv-x="333" 
d="M221 547h-108l-123 178h68l109 -96l109 96h68z" />
    <glyph glyph-name="uni02C9" unicode="&#x2c9;" horiz-adv-x="333" 
d="M339 582h-345v82h345v-82z" />
    <glyph glyph-name="breve" unicode="&#x2d8;" horiz-adv-x="333" 
d="M9 714h49q11 -46 37 -65.5t72 -19.5q45 0 71 20t37 65h49q-6 -76 -47.5 -121.5t-109.5 -45.5q-69 0 -110.5 45.5t-47.5 121.5z" />
    <glyph glyph-name="dotaccent" unicode="&#x2d9;" horiz-adv-x="333" 
d="M95 623q0 29 21 50t50 21t50 -21t21 -50t-21 -50t-50 -21t-50 21t-21 50z" />
    <glyph glyph-name="ring" unicode="&#x2da;" horiz-adv-x="333" 
d="M58 653q0 45 31.5 76.5t76.5 31.5t76.5 -31.5t31.5 -76.5t-31.5 -76.5t-76.5 -31.5t-76.5 31.5t-31.5 76.5zM112 653q0 -23 16 -38.5t38 -15.5t38 15.5t16 38.5t-16 38.5t-38 15.5t-38 -15.5t-16 -38.5z" />
    <glyph glyph-name="ogonek" unicode="&#x2db;" horiz-adv-x="333" 
d="M210 3h70q-33 -31 -33 -63t33 -32q21 0 49 22l17 -30q-13 -29 -41 -46t-60 -17q-34 0 -55.5 20.5t-21.5 54.5q0 49 42 91z" />
    <glyph glyph-name="tilde" unicode="&#x2dc;" horiz-adv-x="333" 
d="M308 699h49q-13 -60 -43 -98t-78 -38q-44 0 -95 26t-69 26q-35 0 -49 -48h-47q11 57 42 97.5t77 40.5q29 0 87.5 -27t76.5 -27t29 11t20 37z" />
    <glyph glyph-name="hungarumlaut" unicode="&#x2dd;" horiz-adv-x="333" 
d="M45 547h-61l110 133q28 34 45 45.5t36 11.5q25 0 40.5 -15.5t15.5 -37.5q0 -28 -33 -47zM245 547h-61l110 133q28 34 45 45.5t36 11.5q25 0 40.5 -15.5t15.5 -37.5q0 -28 -33 -47z" />
    <glyph glyph-name="uni03A9" unicode="&#x3a9;" horiz-adv-x="751" 
d="M717 182l-29 -182h-266l-11 24q2 4 24.5 61t30 78.5t22.5 68.5t20.5 84.5t5.5 72.5q0 272 -141 272q-44 0 -73 -23t-46.5 -85.5t-17.5 -166.5q0 -56 17.5 -127.5t34.5 -116t48 -118.5l-9 -24h-269l-25 182h38q16 -43 32 -56t50 -13h91q-38 27 -61.5 47t-55 56t-47.5 81
t-16 98q0 140 88.5 224.5t224.5 84.5q137 0 222.5 -82.5t85.5 -221.5q0 -39 -12.5 -76.5t-27.5 -62.5t-45.5 -57t-47.5 -46.5t-54 -44.5h105q31 0 46 13t30 56h38z" />
    <glyph glyph-name="uni03BC" unicode="&#x3bc;" horiz-adv-x="685" 
d="M17 415v49l236 11v-307q0 -95 70 -95q48 0 78.5 38.5t30.5 109.5v142q0 31 -10.5 41.5t-41.5 10.5h-30v49l236 11v-363q0 -31 10.5 -41.5t41.5 -10.5h30v-49l-230 -11v83h-2q-27 -43 -71 -70.5t-73 -27.5q-62 0 -88 55h-2q0 -34 13.5 -90t13.5 -76q0 -34 -20 -56.5
t-57 -22.5t-57 22.5t-20 56.5q0 14 12 89t12 143v257q0 31 -10.5 41.5t-41.5 10.5h-30z" />
    <glyph glyph-name="pi" unicode="&#x3c0;" horiz-adv-x="607" 
d="M551 486l33 -7q-3 -33 -16 -75t-24 -56q-23 -8 -63 -8q-5 -55 -5 -180q1 -85 39 -85q17 0 42 17l14 -30q-20 -31 -56.5 -53t-72.5 -22q-112 0 -112 140q0 86 9 216q-26 0 -62 1t-54 1v-7q0 -247 -66 -332q-37 -15 -78 -19l-9 24q50 72 73.5 163.5t23.5 172.5
q-42 1 -67.5 -6.5t-61.5 -28.5l-18 34q2 3 11.5 15.5t13 17t13.5 16t17 16.5t18.5 14t23 13.5t26 9.5t32 6.5t36.5 1.5q164 -2 280 -2q25 0 37 6.5t23 25.5z" />
    <glyph glyph-name="uni2010" unicode="&#x2010;" horiz-adv-x="333" 
d="M42 174v128h249v-128h-249z" />
    <glyph glyph-name="endash" unicode="&#x2013;" horiz-adv-x="500" 
d="M500 184h-500v108h500v-108z" />
    <glyph glyph-name="emdash" unicode="&#x2014;" horiz-adv-x="1000" 
d="M0 184v108h1000v-108h-1000z" />
    <glyph glyph-name="quoteleft" unicode="&#x2018;" horiz-adv-x="241" 
d="M192 737l28 -40q-42 -26 -73 -63.5t-31 -63.5q0 -10 9 -10q2 0 9.5 1t10.5 1q31 0 53 -28t22 -58q0 -43 -28.5 -70.5t-65.5 -27.5q-48 0 -76 35t-28 85q0 132 170 239z" />
    <glyph glyph-name="quoteright" unicode="&#x2019;" horiz-adv-x="241" 
d="M50 378l-28 40q42 26 73 63.5t31 63.5q0 10 -9 10q-2 0 -9.5 -1t-10.5 -1q-31 0 -53 28t-22 58q0 43 28.5 70.5t65.5 27.5q48 0 76 -35t28 -85q0 -132 -170 -239z" />
    <glyph glyph-name="quotesinglbase" unicode="&#x201a;" horiz-adv-x="241" 
d="M50 -184l-28 40q42 26 73 63.5t31 63.5q0 10 -9 10q-2 0 -9.5 -1t-10.5 -1q-31 0 -53 28t-22 58q0 43 28.5 70.5t65.5 27.5q48 0 76 -35t28 -85q0 -132 -170 -239z" />
    <glyph glyph-name="quotedblleft" unicode="&#x201c;" horiz-adv-x="481" 
d="M192 737l28 -40q-42 -26 -73 -63.5t-31 -63.5q0 -10 9 -10q2 0 9.5 1t10.5 1q31 0 53 -28t22 -58q0 -43 -28.5 -70.5t-65.5 -27.5q-48 0 -76 35t-28 85q0 132 170 239zM431 737l28 -40q-42 -26 -73 -63.5t-31 -63.5q0 -10 9 -10q2 0 9.5 1t10.5 1q31 0 53 -28t22 -58
q0 -43 -28.5 -70.5t-65.5 -27.5q-48 0 -76 35t-28 85q0 132 170 239z" />
    <glyph glyph-name="quotedblright" unicode="&#x201d;" horiz-adv-x="481" 
d="M289 378l-28 40q42 26 73 63.5t31 63.5q0 10 -9 10q-2 0 -9.5 -1t-10.5 -1q-31 0 -53 28t-22 58q0 43 28.5 70.5t65.5 27.5q48 0 76 -35t28 -85q0 -132 -170 -239zM50 378l-28 40q42 26 73 63.5t31 63.5q0 10 -9 10q-2 0 -9.5 -1t-10.5 -1q-31 0 -53 28t-22 58
q0 43 28.5 70.5t65.5 27.5q48 0 76 -35t28 -85q0 -132 -170 -239z" />
    <glyph glyph-name="quotedblbase" unicode="&#x201e;" horiz-adv-x="481" 
d="M289 -184l-28 40q42 26 73 63.5t31 63.5q0 10 -9 10q-2 0 -9.5 -1t-10.5 -1q-31 0 -53 28t-22 58q0 43 28.5 70.5t65.5 27.5q48 0 76 -35t28 -85q0 -132 -170 -239zM50 -184l-28 40q42 26 73 63.5t31 63.5q0 10 -9 10q-2 0 -9.5 -1t-10.5 -1q-31 0 -53 28t-22 58
q0 43 28.5 70.5t65.5 27.5q48 0 76 -35t28 -85q0 -132 -170 -239z" />
    <glyph glyph-name="dagger" unicode="&#x2020;" horiz-adv-x="500" 
d="M269 -101h-38q-1 279 -54 406q54 74 54 161v14q-4 1 -12 1q-22 0 -64 -21.5t-58 -21.5q-25 0 -41.5 16.5t-16.5 42.5q0 61 57 61q20 0 60.5 -22.5t74.5 -22.5v18q0 38 -23 82t-23 64q0 60 65 60t65 -60q0 -20 -23 -64t-23 -82v-18q34 0 74.5 22.5t60.5 22.5q57 0 57 -61
q0 -26 -16.5 -42.5t-41.5 -16.5q-16 0 -58 21.5t-64 21.5q-8 0 -12 -1v-14q0 -87 54 -161q-53 -127 -54 -406z" />
    <glyph glyph-name="daggerdbl" unicode="&#x2021;" horiz-adv-x="500" 
d="M231 513v18q0 38 -23 82t-23 64q0 60 65 60t65 -60q0 -20 -23 -64t-23 -82v-18q34 0 74.5 22.5t60.5 22.5q57 0 57 -61q0 -26 -16.5 -42.5t-41.5 -16.5q-16 0 -58 21.5t-64 21.5q-8 0 -12 -1v-14q0 -80 54 -142q-54 -62 -54 -142v-14q4 -1 12 -1q22 0 64 21.5t58 21.5
q25 0 41.5 -16.5t16.5 -42.5q0 -61 -57 -61q-20 0 -60.5 22.5t-74.5 22.5v-18q0 -38 23 -82t23 -64q0 -60 -65 -60t-65 60q0 20 23 64t23 82v18q-34 0 -74.5 -22.5t-60.5 -22.5q-57 0 -57 61q0 26 16.5 42.5t41.5 16.5q16 0 58 -21.5t64 -21.5q8 0 12 1v14q0 80 -54 142
q54 62 54 142v14q-4 1 -12 1q-22 0 -64 -21.5t-58 -21.5q-25 0 -41.5 16.5t-16.5 42.5q0 61 57 61q20 0 60.5 -22.5t74.5 -22.5z" />
    <glyph glyph-name="bullet" unicode="&#x2022;" horiz-adv-x="606" 
d="M122 361q0 75 53 128t128 53t128 -53t53 -128t-53 -128t-128 -53t-128 53t-53 128z" />
    <glyph glyph-name="ellipsis" unicode="&#x2026;" horiz-adv-x="1000" 
d="M72 80q0 39 28 67t67 28t67 -28t28 -67t-28 -67t-67 -28t-67 28t-28 67zM405 80q0 39 28 67t67 28t67 -28t28 -67t-28 -67t-67 -28t-67 28t-28 67zM738 80q0 39 28 67t67 28t67 -28t28 -67t-28 -67t-67 -28t-67 28t-28 67z" />
    <glyph glyph-name="perthousand" unicode="&#x2030;" horiz-adv-x="1000" 
d="M409 89q0 -57 44 -57q57 0 102.5 71t45.5 141q0 76 -55 76q-38 0 -87.5 -93t-49.5 -138zM315 124q0 75 67.5 154.5t145.5 79.5q50 0 77.5 -32.5t27.5 -83.5q0 -53 -23.5 -108t-71 -94.5t-106.5 -39.5q-52 0 -84.5 32.5t-32.5 91.5zM675 124q0 75 67.5 154.5t145.5 79.5
q50 0 77.5 -32.5t27.5 -83.5q0 -53 -23.5 -108t-71 -94.5t-106.5 -39.5q-52 0 -84.5 32.5t-32.5 91.5zM769 89q0 -57 44 -57q57 0 102.5 71t45.5 141q0 76 -55 76q-38 0 -87.5 -93t-49.5 -138zM135 -15h-49l376 633l-2 2q-43 -36 -97 -36q-23 0 -43 7q0 -3 0.5 -13.5
t0.5 -16.5q0 -22 -7 -50t-23 -60t-38.5 -59t-57.5 -44.5t-75 -17.5q-53 0 -83 33.5t-30 89.5q0 87 74.5 162t147.5 75q22 0 47 -14.5t35 -40.5q7 -19 51 -19q42 0 81 24t67 65h47zM101 415q0 -53 45 -53q52 0 100.5 71t48.5 138q0 17 -3 34q-34 17 -52 47q-24 0 -58 -47
t-57.5 -103.5t-23.5 -86.5z" />
    <glyph glyph-name="guilsinglleft" unicode="&#x2039;" horiz-adv-x="333" 
d="M62 229v18q25 16 89.5 71t78.5 69q10 10 22 10q9 0 14 -5.5t5 -12.5q0 -13 -46 -78l-44 -63l44 -63q46 -65 46 -78q0 -7 -5 -12.5t-14 -5.5q-12 0 -22 10q-14 14 -78.5 69t-89.5 71z" />
    <glyph glyph-name="guilsinglright" unicode="&#x203a;" horiz-adv-x="333" 
d="M271 247v-18q-25 -16 -89.5 -71t-78.5 -69q-10 -10 -22 -10q-9 0 -14 5.5t-5 12.5q0 13 46 78l44 63l-44 63q-46 65 -46 78q0 7 5 12.5t14 5.5q12 0 22 -10q14 -14 78.5 -69t89.5 -71z" />
    <glyph glyph-name="fraction" unicode="&#x2044;" horiz-adv-x="167" 
d="M-165 -15l421 720h76l-421 -720h-76z" />
    <glyph glyph-name="Euro" unicode="&#x20ac;" 
d="M570 183l-8 -196h-42l-32 37q-41 -39 -142 -39q-95 0 -169 74t-94 196h-78l24 70h46v20q0 15 2 43h-72l24 70h59q22 107 96 177t176 70q90 0 127 -41l33 39h42l7 -181h-49q-20 134 -136 134q-49 0 -84.5 -51.5t-46.5 -146.5h243l-24 -70h-224q-2 -28 -2 -36q0 -7 0.5 -16
t0.5 -11h204l-25 -70h-175q9 -108 44.5 -164.5t83.5 -56.5q64 0 93 35t49 114h49z" />
    <glyph glyph-name="afii61289" unicode="&#x2113;" horiz-adv-x="472" 
d="M428 151l28 -25q-75 -140 -202 -140q-82 0 -123 41q-22 27 -31 57t-9 97v58l-56 -35l-15 36l71 49v142q0 101 12 152t44 92q54 71 127 71q56 0 86 -40.5t30 -103.5q0 -81 -36.5 -143t-117.5 -138v-74q0 -96 17.5 -134.5t63.5 -38.5q56 0 111 77zM236 484v-99
q73 82 73 214q0 107 -38 107q-23 0 -29 -41.5t-6 -180.5z" />
    <glyph glyph-name="trademark" unicode="&#x2122;" horiz-adv-x="1000" 
d="M86 318v32q34 2 43 15.5t9 53.5v271h-31q-50 0 -65 -66h-36v98h364v-98h-36q-15 66 -65 66h-31v-271q0 -40 9 -53.5t43 -15.5v-32h-204zM428 318v32q34 2 43 15.5t9 53.5v219q0 22 -22.5 37t-46.5 15v32h160l139 -279l152 279h120v-32q-34 -2 -43 -15.5t-9 -53.5v-202
q0 -40 9 -53.5t43 -15.5v-32h-198v32q34 2 43 15.5t9 53.5v189h-2l-155 -291h-13l-140 291h-2v-189q0 -40 9 -53.5t43 -15.5v-32h-148z" />
    <glyph glyph-name="Omega" unicode="&#x2126;" horiz-adv-x="751" 
d="M717 182l-29 -182h-266l-11 24q2 4 24.5 61t30 78.5t22.5 68.5t20.5 84.5t5.5 72.5q0 272 -141 272q-44 0 -73 -23t-46.5 -85.5t-17.5 -166.5q0 -56 17.5 -127.5t34.5 -116t48 -118.5l-9 -24h-269l-25 182h38q16 -43 32 -56t50 -13h91q-38 27 -61.5 47t-55 56t-47.5 81
t-16 98q0 140 88.5 224.5t224.5 84.5q137 0 222.5 -82.5t85.5 -221.5q0 -39 -12.5 -76.5t-27.5 -62.5t-45.5 -57t-47.5 -46.5t-54 -44.5h105q31 0 46 13t30 56h38z" />
    <glyph glyph-name="estimated" unicode="&#x212e;" horiz-adv-x="867" 
d="M832 334h-646q-6 0 -6 -4v-196q0 -12 9 -22q103 -106 244 -106q154 0 258 119h57q-54 -64 -137.5 -101.5t-178.5 -37.5q-165 0 -281.5 105t-116.5 253q0 149 116.5 254t281.5 105q166 0 283 -105t117 -254v-10zM685 360v197q0 14 -9 23q-104 102 -243 102
q-140 0 -243 -105q-10 -10 -10 -25v-192q0 -6 6 -6h495q4 0 4 6z" />
    <glyph glyph-name="partialdiff" unicode="&#x2202;" horiz-adv-x="576" 
d="M279 435h1q74 0 116 -54q11 68 13 114q6 92 -23 148q-31 57 -105 57q-70 0 -153 -72q-16 0 -35 39.5t-10 61.5q70 39 153 39q154 0 236 -147q57 -105 57 -240q0 -140 -53 -242q-78 -153 -236 -153q-90 0 -144.5 54t-54.5 147q0 102 65 173q67 75 173 75zM314 382h-1
q-51 0 -83 -56q-45 -81 -45 -215q0 -84 60 -84q45 0 90 105q32 75 50 197q-9 20 -28 36.5t-43 16.5z" />
    <glyph glyph-name="Delta" unicode="&#x2206;" horiz-adv-x="680" 
d="M644 0h-609v42l265 646l67 15l277 -661v-42zM459 70l-176 432l-171 -432h347z" />
    <glyph glyph-name="product" unicode="&#x220f;" horiz-adv-x="753" 
d="M725 703v-37q-66 -6 -81 -23t-15 -83v-496q0 -69 15 -86.5t80 -23.5v-38h-322v38q52 5 63 21.5t11 88.5v553q0 26 -6.5 32.5t-32.5 6.5h-126q-24 0 -29.5 -6t-5.5 -30v-556q0 -72 9 -88.5t58 -21.5v-38h-316v38q64 5 79.5 23t15.5 87v496q0 67 -16 84t-83 22v37h702z" />
    <glyph glyph-name="summation" unicode="&#x2211;" horiz-adv-x="589" 
d="M567 141l-51 -234h-490v37l219 306l-215 415v38h486q2 -43 12 -187l-38 -8q-21 74 -40 107q-14 26 -34.5 34.5t-75.5 8.5h-129l161 -303l-226 -322h229q71 0 94.5 17.5t58.5 100.5z" />
    <glyph glyph-name="minus" unicode="&#x2212;" horiz-adv-x="606" 
d="M50 199v108h506v-108h-506z" />
    <glyph glyph-name="uni2215" unicode="&#x2215;" horiz-adv-x="167" 
d="M-165 -15l421 720h76l-421 -720h-76z" />
    <glyph glyph-name="uni2219" unicode="&#x2219;" horiz-adv-x="278" 
d="M53 286q0 35 25.5 60.5t60.5 25.5t60.5 -25.5t25.5 -60.5t-25.5 -60.5t-60.5 -25.5t-60.5 25.5t-25.5 60.5z" />
    <glyph glyph-name="radical" unicode="&#x221a;" horiz-adv-x="583" 
d="M576 868l-186 -1041l-34 -14l-214 541l-90 -39l-15 45l204 88l137 -372h3l138 803z" />
    <glyph glyph-name="infinity" unicode="&#x221e;" horiz-adv-x="773" 
d="M727 286v-1q0 -82 -49.5 -131.5t-115.5 -49.5q-47 0 -89 23t-86 86q-42 -54 -83.5 -81.5t-96.5 -27.5q-66 0 -114.5 49t-48.5 127q0 79 49 128.5t123 49.5q99 0 175 -104q46 52 69 69q48 36 106 35q68 0 114.5 -47.5t46.5 -124.5zM217 188h1q34 0 62 22.5t61 64.5
q-21 30 -29 40.5t-25 29t-34 25t-38 6.5q-39 0 -62 -26.5t-23 -70.5q-1 -38 24.5 -64.5t62.5 -26.5zM558 376h-1q-8 0 -16.5 -2t-15 -4t-14.5 -7.5t-13 -8.5t-13 -11l-11.5 -11.5t-11.5 -12.5t-10 -12t-10 -13t-9 -11q42 -56 68.5 -75.5t61.5 -19.5t56.5 29t21.5 62
q0 41 -23 69t-60 28z" />
    <glyph glyph-name="integral" unicode="&#x222b;" horiz-adv-x="430" 
d="M166 -23l-22 394q-6 111 4 196t30 134t49 80t55.5 41t54.5 10q31 0 57.5 -17t27.5 -47q0 -32 -20.5 -50t-47.5 -18q-19 0 -29.5 18t-16.5 36.5t-15 18.5q-10 0 -14.5 -10.5t-7 -42.5t1.5 -90l20 -361q13 -241 -46 -364.5t-156 -123.5q-33 0 -57.5 19.5t-25.5 47.5
q-1 31 24.5 51.5t54.5 20.5q16 0 25.5 -20t16 -40t15.5 -20q30 0 22 137z" />
    <glyph glyph-name="approxequal" unicode="&#x2248;" horiz-adv-x="541" 
d="M450 463l58 -53q-28 -49 -65.5 -78t-76.5 -29q-50 0 -108 38q-50 33 -80 33q-20 0 -38.5 -12t-27 -23t-25.5 -35l-57 53q23 45 65 75t88 30t101 -33q31 -21 46.5 -28.5t33.5 -7.5q24 0 44 17.5t42 52.5zM450 268l58 -53q-27 -49 -64.5 -78t-78.5 -29q-49 0 -107 38
q-50 33 -80 33q-16 0 -28.5 -5t-25.5 -18.5t-18 -20t-19 -26.5l-57 53q23 45 65 75t88 30q45 0 100 -32q5 -3 19.5 -12.5t21 -13t17.5 -7.5t22 -4q25 0 43.5 16.5t43.5 53.5z" />
    <glyph glyph-name="notequal" unicode="&#x2260;" horiz-adv-x="541" 
d="M408 514l-35 -80h122v-90h-156l-52 -126h208v-90h-243l-47 -109l-70 28l35 81h-124v90h158l53 126h-211v90h244l47 108z" />
    <glyph glyph-name="lessequal" unicode="&#x2264;" horiz-adv-x="541" 
d="M493 105l-443 220v97l443 218v-103l-355 -163v-2l355 -163v-104zM497 -21h-450v92h450v-92z" />
    <glyph glyph-name="greaterequal" unicode="&#x2265;" horiz-adv-x="541" 
d="M52 640l443 -219v-97l-443 -219v104l355 163v3l-355 162v103zM494 -21h-446v92h446v-92z" />
    <glyph glyph-name="lozenge" unicode="&#x25ca;" horiz-adv-x="592" 
d="M546 335l-195 -408h-111l-194 408l197 411h109zM445 335l-146 319h-4l-148 -319l148 -321h3z" />
    <glyph glyph-name="fi" unicode="&#xfb01;" horiz-adv-x="685" 
d="M590 485v-393q0 -29 9 -36t50 -7h17v-49h-306v49h17q41 0 50 7t9 36v271q0 31 -10.5 41.5t-41.5 10.5h-131v-323q0 -29 9 -36t50 -7h11v-49h-300v49h17q41 0 50 7t9 36v323h-88v60h88q0 142 75 202t212 60q98 0 146 -31.5t48 -76.5q0 -36 -22.5 -57.5t-58.5 -21.5
q-31 0 -55 18t-24 49q0 16 7.5 30.5t7.5 19.5q0 9 -13 15t-34 6q-78 0 -106.5 -49.5t-28.5 -163.5h193q27 0 144 10z" />
    <glyph glyph-name="fl" unicode="&#xfb02;" horiz-adv-x="685" 
d="M23 0v49h17q41 0 50 7t9 36v323h-88v60h88q0 142 75 202t212 60q57 0 100 -15l104 15v-645q0 -29 9 -36t50 -7h17v-49h-306v49h17q41 0 50 7t9 36v323h-183v-323q0 -29 9 -36t50 -7h11v-49h-300zM253 475h183v87q-36 15 -36 56q0 20 12.5 36t12.5 17q0 17 -37 17
q-78 0 -106.5 -49.5t-28.5 -163.5z" />
    <glyph glyph-name="a.superior" horiz-adv-x="367" 
d="M226 586v28q0 59 -52 59q-19 0 -37 -5t-18 -12q0 -4 8.5 -14.5t8.5 -21.5q0 -17 -16 -28.5t-46 -11.5q-25 0 -41.5 11.5t-16.5 34.5q0 35 41.5 57t119.5 22q163 0 163 -91v-114q0 -39 16 -39q5 0 13 4.5t14 4.5q10 0 10 -7q0 -23 -21.5 -39.5t-47.5 -16.5q-70 0 -84 41
q-49 -41 -133 -41q-106 0 -106 69q0 40 48 65.5t177 44.5zM226 520v35q-60 -11 -82.5 -24t-22.5 -38q0 -17 11.5 -27t31.5 -10q27 0 44.5 17.5t17.5 46.5z" />
    <glyph glyph-name="o.superior" horiz-adv-x="367" 
d="M1 556q0 66 53 107.5t130 41.5t129.5 -41.5t52.5 -107.5t-52.5 -107.5t-129.5 -41.5t-130 41.5t-53 107.5zM121 556q0 -117 62 -117q63 0 63 117t-63 117q-62 0 -62 -117z" />
    <glyph glyph-name="one.superior" horiz-adv-x="344" 
d="M33 282v38h43q25 0 32 6t7 24v246q0 18 -7 24t-32 6h-45v38q106 1 163 41h35v-355q0 -18 7 -24t32 -6h41v-38h-276z" />
    <glyph glyph-name="two.superior" horiz-adv-x="344" 
d="M-3 282v23q44 56 151 162q80 79 80 123q0 77 -71 77q-28 0 -49 -14.5t-21 -29.5q0 -6 14 -10.5t28 -16.5t14 -36q0 -18 -17 -31t-44 -13q-33 0 -52 19.5t-19 54.5q0 46 47.5 80.5t121.5 34.5q65 0 116.5 -27t51.5 -73q0 -77 -83 -126q-90 -53 -147 -95v-2h154
q18 0 25 6.5t10 23.5l9 42h34l-14 -172h-339z" />
    <glyph glyph-name="three.superior" horiz-adv-x="344" 
d="M-3 375q0 24 17.5 39t46.5 15q27 0 45.5 -12.5t18.5 -31.5q0 -24 -16 -35q-16 -12 -16 -19q0 -10 18 -18t46 -8q31 0 50.5 25.5t19.5 65.5q0 86 -57 86q-9 0 -24.5 -2t-23.5 -2q-23 0 -23 21q0 23 26 23q6 0 22.5 -4t26.5 -4q20 0 34.5 20.5t14.5 65.5q0 34 -17.5 53.5
t-43.5 19.5q-25 0 -40.5 -7.5t-15.5 -16.5q0 -5 15.5 -19t15.5 -32q0 -21 -15.5 -33.5t-45.5 -12.5q-31 0 -49 15.5t-18 40.5q0 39 42.5 68t122.5 29q82 0 125.5 -29t43.5 -75q0 -79 -112 -101v-2q124 -7 124 -106q0 -47 -43.5 -83t-141.5 -36q-75 0 -124 25t-49 77z" />
    </font>
</defs>
</svg>
