<?xml version="1.0" standalone="no"?>
<!DOCTYPE svg PUBLIC "-//W3C//DTD SVG 1.1//EN" "http://www.w3.org/Graphics/SVG/1.1/DTD/svg11.dtd" >
<svg xmlns="http://www.w3.org/2000/svg" xmlns:xlink="http://www.w3.org/1999/xlink" version="1.1">
<metadata>
Created by FontForge 20170731 at Wed Mar 23 19:16:36 2011
 By Aleksey,,,
(c) 1985, 1987, 1989, 1991, 1992, 1997, 1998, 1999, 2002 Adobe Systems Incorporated. All rights reserved.
</metadata>
<defs>
<font id="NewCenturySchlbkLTStd-It" horiz-adv-x="333" >
  <font-face 
    font-family="NewCenturySchlbk LT Std"
    font-weight="400"
    font-style="italic"
    font-stretch="normal"
    units-per-em="1000"
    panose-1="2 4 6 3 5 7 5 9 3 4"
    ascent="737"
    descent="-263"
    x-height="466"
    cap-height="722"
    bbox="-166 -250 994 958"
    underline-thickness="50"
    underline-position="-200"
    slope="-16"
    unicode-range="U+0020-FB02"
  />
<missing-glyph horiz-adv-x="602" 
d="M102 0v700h500v-700h-500zM352 395l170 255h-340zM382 350l170 -255v510zM182 50h340l-170 255zM152 605v-510l170 255z" />
    <glyph glyph-name="f_i" unicode="fi" horiz-adv-x="611" 
d="M29 406l11 45h95q16 55 37 101.5t53 90.5t77.5 69t100.5 25q52 0 91.5 -19t39.5 -65q0 -27 -14 -42.5t-39 -15.5q-22 0 -35.5 12.5t-13.5 32.5q0 16 8 27t8 18q0 17 -47 17q-111 0 -175 -214l-11 -37h140q23 0 48 2.5t56 6.5t48 6l-115 -363q-10 -30 -10 -43
q0 -25 23 -25q10 0 22.5 7.5t22.5 16.5t23.5 25.5t20.5 26t19 26t13 18.5l29 -17q-10 -18 -25 -39t-40 -49.5t-56.5 -46.5t-62.5 -18q-69 0 -69 68q0 28 13 73l73 234q7 23 7 31q0 15 -23 15h-169l-77 -310q-19 -77 -85 -283l-109 -18q33 69 63.5 156t45.5 141t44 167.5
t38 146.5h-94z" />
    <glyph glyph-name="f_l" unicode="fl" horiz-adv-x="611" 
d="M29 406l11 45h95q78 286 275 286q49 0 90 -22q38 0 87 22l-178 -591q-20 -68 -20 -86v-2q0 -23 23 -23q10 0 22.5 7.5t22.5 16.5t23.5 25.5t20.5 26t19 26t13 18.5l29 -17q-10 -18 -25 -39t-40 -49.5t-56.5 -46.5t-62.5 -18q-69 0 -69 80q0 27 17 84l135 448
q-19 13 -19 34q0 13 6 25t6 18q0 15 -16.5 21.5t-33.5 6.5q-57 0 -99.5 -46t-60.5 -106l-29 -99h116l-11 -45h-117l-77 -310q-19 -77 -85 -283l-109 -18q33 69 63.5 156t45.5 141t44 167.5t38 146.5h-94z" />
    <glyph glyph-name=".notdef" horiz-adv-x="602" 
d="M102 0v700h500v-700h-500zM352 395l170 255h-340zM382 350l170 -255v510zM182 50h340l-170 255zM152 605v-510l170 255z" />
    <glyph glyph-name=".null" horiz-adv-x="0" 
 />
    <glyph glyph-name="nonmarkingreturn" 
 />
    <glyph glyph-name="space" unicode=" " horiz-adv-x="278" 
 />
    <glyph glyph-name="exclam" unicode="!" 
d="M127 183l-34 9q30 104 53 227.5t23 165.5q0 67 19.5 109.5t52.5 42.5q62 0 62 -59q0 -26 -24.5 -78t-69.5 -164t-82 -253zM17 47q0 25 18.5 43.5t43.5 18.5t43.5 -18.5t18.5 -43.5t-18.5 -43.5t-43.5 -18.5t-43.5 18.5t-18.5 43.5z" />
    <glyph glyph-name="quotedbl" unicode="&#x22;" horiz-adv-x="400" 
d="M293 490l-12 162q-4 42 -4 44q0 41 43 41t43 -41q0 -2 -4 -44l-12 -162q-2 -27 -27 -27t-27 27zM143 490l-12 162q-4 42 -4 44q0 41 43 41t43 -41q0 -2 -4 -44l-12 -162q-2 -27 -27 -27t-27 27z" />
    <glyph glyph-name="numbersign" unicode="#" horiz-adv-x="556" 
d="M225 414l-20 -138h126l19 138h-125zM100 0l31 216h-103v60h111l20 138h-102v60h111l31 216h66l-31 -216h125l31 216h66l-31 -216h103v-60h-112l-19 -138h102v-60h-111l-31 -216h-66l31 216h-125l-31 -216h-66z" />
    <glyph glyph-name="dollar" unicode="$" horiz-adv-x="556" 
d="M75 236q27 0 45.5 -15.5t18.5 -41.5q0 -23 -11 -36.5t-23.5 -17t-23.5 -9.5t-11 -16q0 -29 35 -50t69 -24l75 283q-64 24 -106 71t-42 111q0 94 70 154t159 60h23l27 103h40l-27 -107q63 -14 103 -53.5t40 -100.5q0 -31 -16 -52.5t-47 -21.5q-26 0 -43.5 17t-17.5 42
q0 32 35 49q17 8 17 21q0 21 -29.5 39.5t-51.5 18.5l-72 -264q74 -34 118.5 -79t44.5 -114q0 -104 -80.5 -161t-189.5 -57l-36 -127h-40l35 130q-31 3 -65 18.5t-64 52.5t-30 85q0 34 19.5 63t51.5 29zM285 296l-71 -271q72 0 123 34t51 104q0 96 -103 133zM274 409l69 256
h-20q-59 0 -100.5 -36.5t-41.5 -96.5q0 -84 93 -123z" />
    <glyph glyph-name="percent" unicode="%" horiz-adv-x="833" 
d="M604 705h45l-415 -720h-50l372 645l-2 2q-41 -41 -107 -41q-33 0 -66 14q6 -15 6 -45q0 -94 -68 -174.5t-147 -80.5q-58 0 -93.5 36.5t-35.5 92.5q0 91 75 173.5t160 82.5q27 0 50 -12.5t34 -29.5q8 -12 36.5 -19.5t55.5 -7.5q39 0 83 25t67 59zM589 15q57 0 114 76.5
t57 160.5q0 35 -20 61.5t-52 26.5q-49 0 -107.5 -101.5t-58.5 -155.5q0 -32 19 -50t48 -18zM119 406q0 -32 17.5 -51.5t51.5 -19.5q53 0 111 72.5t58 160.5q0 30 -8 48q-39 15 -64 44q-36 -5 -76.5 -57.5t-65 -110t-24.5 -86.5zM446 109q0 90 70 175.5t158 85.5
q54 0 85 -33.5t31 -88.5q0 -36 -15 -80t-41 -85.5t-68.5 -69.5t-90.5 -28q-58 0 -93.5 33t-35.5 91z" />
    <glyph glyph-name="ampersand" unicode="&#x26;" horiz-adv-x="852" 
d="M510 357v40h263v-40q-55 -5 -89 -35.5t-83.5 -99.5t-96.5 -116q43 -55 99 -55q59 0 119 95l32 -22q-85 -139 -198 -139q-79 0 -132 59q-103 -59 -197 -59q-91 0 -147 49t-56 139q0 47 22 88.5t59 72t76.5 52.5t83.5 38q-9 45 -9 103q0 89 48.5 149.5t141.5 60.5
q59 0 105 -36t46 -91q0 -35 -15.5 -64.5t-34.5 -47.5t-55 -35.5t-58 -25.5t-62 -21q36 -171 106 -275l27 27q86 86 86 139q0 26 -26 38t-55 12zM273 382q-61 -26 -97.5 -73t-36.5 -110q0 -70 35.5 -114.5t104.5 -44.5q55 0 117 39q-75 109 -123 303zM363 459q63 16 112.5 57
t49.5 99q0 33 -23 57.5t-55 24.5q-52 0 -73.5 -41t-21.5 -97q0 -50 11 -100z" />
    <glyph glyph-name="quotesingle" unicode="'" horiz-adv-x="278" 
d="M167 490l-12 162q-4 42 -4 44q0 41 43 41t43 -41q0 -2 -4 -44l-12 -162q-2 -27 -27 -27t-27 27z" />
    <glyph glyph-name="parenleft" unicode="(" 
d="M401 745l10 -23l-51 -27q-73 -39 -130 -138t-84 -209t-27 -209q0 -71 15.5 -125t53.5 -116l-18 -15q-117 130 -117 346q0 161 95 306.5t253 209.5z" />
    <glyph glyph-name="parenright" unicode=")" 
d="M-83 -117l-10 23l51 27q73 39 130 138t84 209t27 209q0 71 -15.5 125t-53.5 116l18 15q117 -130 117 -346q0 -161 -95 -306.5t-253 -209.5z" />
    <glyph glyph-name="asterisk" unicode="*" horiz-adv-x="500" 
d="M269 530v10q-20 24 -48 40.5t-47.5 23t-33.5 18t-14 28.5t12 29t30 12q19 0 29.5 -12.5t16 -30.5t23 -46t44.5 -51l9 2q12 41 12 70q0 10 -3.5 33t-3.5 40t12 29t30 12q19 0 28.5 -12.5t9.5 -31.5q0 -16 -11.5 -28.5t-29 -40.5t-27.5 -76l6 -6q50 13 79 32t42 30.5
t31 11.5q16 0 25.5 -13.5t9.5 -30.5q0 -38 -56 -38q-7 0 -21 3.5t-21 3.5q-42 0 -85 -15l-2 -8q52 -56 96 -66q20 -4 34 -20t14 -32t-14 -25.5t-31 -9.5q-14 0 -25.5 10t-16.5 26q-10 32 -24 53t-47 52l-7 -2q-14 -48 -14 -77q0 -12 4 -30t4 -35q0 -16 -9.5 -30t-25.5 -14
q-19 0 -32 11.5t-13 30.5q0 16 11.5 29t29 42t28.5 77l-5 7q-40 -11 -66.5 -25t-36 -24t-20.5 -16.5t-26 -6.5t-29 11t-14 25q0 44 55 44q12 0 30.5 -3.5t27.5 -3.5q23 0 76 14z" />
    <glyph glyph-name="plus" unicode="+" horiz-adv-x="606" 
d="M267 289v217h72v-217h217v-72h-217v-217h-72v217h-217v72h217z" />
    <glyph glyph-name="comma" unicode="," horiz-adv-x="278" 
d="M-25 -165l-14 30q113 52 130 137q-8 -2 -23 -2q-22 0 -36 14.5t-14 35.5q0 27 19 43t46 16q32 0 50 -24t18 -57q0 -51 -44 -104t-132 -89z" />
    <glyph glyph-name="hyphen" unicode="-" 
d="M238 202h-206l21 72h206z" />
    <glyph glyph-name="period" unicode="." horiz-adv-x="278" 
d="M17 47q0 25 18.5 43.5t43.5 18.5t43.5 -18.5t18.5 -43.5t-18.5 -43.5t-43.5 -18.5t-43.5 18.5t-18.5 43.5z" />
    <glyph glyph-name="slash" unicode="/" horiz-adv-x="606" 
d="M132 -15l266 752h76l-266 -752h-76z" />
    <glyph glyph-name="zero" unicode="0" horiz-adv-x="556" 
d="M347 705q49 0 85.5 -23.5t56 -62.5t28.5 -82t9 -90q0 -66 -22 -144t-60.5 -150t-101.5 -120t-136 -48q-46 0 -81.5 23t-55.5 61t-29.5 79.5t-9.5 85.5q0 66 21 145t59 153t100.5 123.5t136.5 49.5zM347 665q-54 0 -100 -64.5t-71.5 -153.5t-39.5 -167.5t-14 -122.5
q0 -132 90 -132q53 0 98.5 64t70.5 152.5t39 167.5t14 124q0 33 -6 60t-26.5 49.5t-54.5 22.5z" />
    <glyph glyph-name="one" unicode="1" horiz-adv-x="556" 
d="M426 705h33l-159 -569q-1 -5 -5 -16.5t-6.5 -21t-2.5 -15.5q0 -43 93 -43h36l-9 -40h-356l9 40h41q53 0 69 13t29 57l117 426q5 22 5 31q0 3 -0.5 6t-2 5t-3 3.5t-4.5 2.5t-5 1.5t-5.5 1t-5 1t-5.5 0.5h-5h-103l11 40q145 14 234 77z" />
    <glyph glyph-name="two" unicode="2" horiz-adv-x="556" 
d="M434 206l36 -14l-77 -192h-430q0 36 51 83l282 260q52 49 80 93t28 101q0 53 -30 85.5t-87 32.5q-67 0 -107 -28.5t-40 -60.5q0 -17 11.5 -27.5t25 -14.5t25 -17.5t11.5 -36.5q0 -27 -17.5 -44t-45.5 -17q-39 0 -57.5 29t-18.5 71q0 80 69 138t157 58q96 0 151 -46.5
t55 -131.5q0 -119 -144 -221l-175 -122q-55 -39 -120 -98h238q40 0 54 6t31 36z" />
    <glyph glyph-name="three" unicode="3" horiz-adv-x="556" 
d="M317 705q77 0 133 -42t56 -116q0 -78 -47 -118.5t-130 -65.5v-1q58 -10 92.5 -47.5t34.5 -96.5q0 -105 -78 -169t-186 -64q-84 0 -139 39.5t-55 119.5q0 34 18 57.5t52 23.5q25 0 43.5 -18t18.5 -43q0 -44 -45 -58q-21 -6 -21 -20q0 -31 39 -46t76 -15q84 0 129.5 61.5
t45.5 147.5q0 44 -20 77t-63 33q-16 0 -33.5 -3t-23.5 -3q-12 0 -21 6.5t-9 18.5t8.5 18.5t20.5 6.5q10 0 29.5 -2t29.5 -2q57 0 97 55.5t40 115.5q0 110 -114 110q-27 0 -63 -14t-36 -38q0 -10 19 -29.5t19 -38.5q0 -27 -17 -40.5t-43 -13.5q-28 0 -43 18.5t-15 47.5
q0 67 65 107.5t136 40.5z" />
    <glyph glyph-name="four" unicode="4" horiz-adv-x="556" 
d="M-8 223l467 482h53l-130 -471h120l-14 -50h-119l-15 -57q-8 -32 -8 -47q0 -40 68 -40h26l-9 -40h-306l9 40h28q48 0 65.5 11.5t27.5 51.5l22 81h-285v39zM379 564l-319 -330h230l91 330h-2z" />
    <glyph glyph-name="five" unicode="5" horiz-adv-x="556" 
d="M111 382l90 323q2 0 77 -15q89 -16 132 -16q40 0 87 15q9 4 18.5 8t13.5 6t5 2q6 0 6 -11q0 -30 -48 -68t-129 -38q-67 0 -144 16l-55 -194q68 34 119 34q84 0 137.5 -46.5t53.5 -128.5q0 -118 -86.5 -201t-204.5 -83q-68 0 -123.5 39.5t-55.5 107.5q0 36 19.5 62
t55.5 26q25 0 41.5 -15.5t16.5 -39.5q0 -26 -16.5 -41.5t-33.5 -23t-17 -12.5q0 -22 20 -37t44 -20.5t47 -5.5q60 0 105 38.5t65.5 92t20.5 111.5t-30.5 92.5t-87.5 34.5q-65 0 -107 -39q0 -55 -43 -55q-12 0 -20.5 9t-8.5 22q0 32 36 51z" />
    <glyph glyph-name="six" unicode="6" horiz-adv-x="556" 
d="M159 351l2 -2q80 78 163 78q77 0 123 -49t46 -127q0 -109 -75 -187.5t-183 -78.5q-102 0 -150.5 65.5t-48.5 173.5q0 73 26 156t70.5 156t114 121t148.5 48q59 0 106 -29.5t47 -84.5q0 -31 -17 -54.5t-49 -23.5q-28 0 -44.5 15.5t-16.5 38.5q0 24 14.5 41t14.5 28
q0 29 -55 29q-50 0 -92 -32t-70 -85t-45 -100t-29 -97zM293 372q-55 0 -94 -37t-55 -86t-16 -101q0 -54 28 -88.5t81 -34.5q48 0 85 37t53 85.5t16 94.5q0 130 -98 130z" />
    <glyph glyph-name="seven" unicode="7" horiz-adv-x="556" 
d="M106 483l-37 12l86 187q11 23 24 23q5 0 17.5 -1t33.5 -3t38 -3q56 -8 125 -8q75 0 168 15v-30q-184 -280 -251 -436q-14 -32 -35.5 -96.5t-29.5 -98.5q-8 -32 -24 -45.5t-47 -13.5q-22 0 -37 16t-15 37q0 25 17 65.5t32.5 67t45.5 73t32 49.5l222 317h-206
q-59 0 -84.5 -21t-60.5 -82z" />
    <glyph glyph-name="eight" unicode="8" horiz-adv-x="556" 
d="M6 142q0 74 54 129t131 79q-79 54 -79 141q0 91 66.5 152.5t157.5 61.5q79 0 134.5 -41.5t55.5 -116.5q0 -63 -44.5 -107t-110.5 -67q53 -34 81 -73.5t28 -94.5q0 -48 -23.5 -93t-62.5 -74q-69 -53 -180 -53q-85 0 -146.5 38.5t-61.5 118.5zM262 309l-35 16
q-61 -21 -101 -68.5t-40 -109.5t41 -92t105 -30t113 37t49 99q0 28 -11 51.5t-33 41.5t-40.5 29.5t-47.5 25.5zM192 542q0 -16 4 -30.5t8 -24.5t16 -22l17.5 -17.5t23 -16.5t22 -14t25.5 -14t24 -12q54 19 88 63.5t34 100.5q0 49 -33 79.5t-83 30.5q-56 0 -101 -34t-45 -89z
" />
    <glyph glyph-name="nine" unicode="9" horiz-adv-x="556" 
d="M397 339l-2 2q-80 -78 -163 -78q-77 0 -123 49t-46 127q0 109 75 187.5t183 78.5q102 0 150.5 -65.5t48.5 -173.5q0 -73 -26 -156t-70.5 -156t-114 -121t-148.5 -48q-59 0 -106 29.5t-47 84.5q0 31 17 54.5t49 23.5q28 0 44.5 -15.5t16.5 -38.5q0 -24 -14.5 -41
t-14.5 -28q0 -29 55 -29q50 0 92 32t70 85t45 100t29 97zM263 318q55 0 94 37t55 86t16 101q0 54 -28 88.5t-81 34.5q-48 0 -85 -37t-53 -85.5t-16 -94.5q0 -130 98 -130z" />
    <glyph glyph-name="colon" unicode=":" horiz-adv-x="278" 
d="M105 404q0 26 18.5 44t43.5 18t43.5 -18t18.5 -44t-18.5 -44t-43.5 -18t-43.5 18t-18.5 44zM17 47q0 25 18.5 43.5t43.5 18.5t43.5 -18.5t18.5 -43.5t-18.5 -43.5t-43.5 -18.5t-43.5 18.5t-18.5 43.5z" />
    <glyph glyph-name="semicolon" unicode=";" horiz-adv-x="278" 
d="M-25 -165l-14 30q113 52 130 137q-8 -2 -23 -2q-22 0 -36 14.5t-14 35.5q0 27 19 43t46 16q32 0 50 -24t18 -57q0 -51 -44 -104t-132 -89zM105 404q0 26 18.5 44t43.5 18t43.5 -18t18.5 -44t-18.5 -44t-43.5 -18t-43.5 18t-18.5 44z" />
    <glyph glyph-name="less" unicode="&#x3c;" horiz-adv-x="606" 
d="M36 220v66l506 228v-76l-414 -185l414 -185v-76z" />
    <glyph glyph-name="equal" unicode="=" horiz-adv-x="606" 
d="M50 317v72h506v-72h-506zM50 117v72h506v-72h-506z" />
    <glyph glyph-name="greater" unicode="&#x3e;" horiz-adv-x="606" 
d="M64 -8v76l414 185l-414 185v76l506 -228v-66z" />
    <glyph glyph-name="question" unicode="?" horiz-adv-x="444" 
d="M148 528l-35 -5q-1 9 -1 27q0 77 47.5 132t125.5 55q57 0 94.5 -40.5t37.5 -98.5q0 -50 -25.5 -90.5t-62.5 -67.5t-74 -50.5t-62.5 -50t-25.5 -54.5q0 -53 44 -53q63 0 80 76l36 -5q-10 -45 -41.5 -75.5t-74.5 -30.5q-42 0 -68 28.5t-26 70.5q0 54 36 102.5t111 106.5
q51 40 72 67t21 54q0 35 -23 55.5t-58 20.5q-52 0 -90.5 -43t-38.5 -102q0 -20 1 -29zM102 47q0 25 18 43.5t44 18.5t44 -18.5t18 -43.5t-18 -43.5t-44 -18.5t-44 18.5t-18 43.5z" />
    <glyph glyph-name="at" unicode="@" horiz-adv-x="747" 
d="M295 295q0 -89 68 -89q44 0 86 64t42 166q0 69 -54 69q-44 0 -93 -61t-49 -149zM523 542h72l-61 -244q-11 -41 -11 -69q0 -11 12 -22t30 -11q54 0 94.5 64.5t40.5 151.5q0 120 -90 200t-214 80q-123 0 -209.5 -96t-86.5 -262q0 -120 88.5 -212t218.5 -92q115 0 217 52
l14 -35q-52 -28 -116.5 -45t-113.5 -17q-82 0 -151.5 23.5t-116 62t-79.5 88t-48 101t-15 101.5q0 156 110 266t266 110q158 0 267 -85.5t109 -238.5q0 -107 -60 -182t-142 -75q-44 0 -69 24.5t-28 51.5h-2q-47 -76 -129 -76q-20 0 -37 5.5t-35 19t-28.5 42t-10.5 69.5
q0 100 63 181.5t157 81.5q62 0 80 -56h2z" />
    <glyph glyph-name="A" unicode="A" horiz-adv-x="704" 
d="M78 179l323 558h40l123 -619q9 -45 21 -59t50 -14h33l-12 -45h-298l12 45h45q44 0 44 38q0 18 -6 42l-22 113h-260q-4 -7 -12.5 -20.5t-12.5 -20.5t-11 -19t-11 -19t-9 -16.5t-8 -15.5t-6 -13t-4 -12t-1 -9q0 -23 10.5 -34t22 -12.5t36.5 -1.5h26l-12 -45h-266l12 45
q27 0 50 11.5t43.5 36t31 40.5t28.5 46zM365 581l-167 -293h225z" />
    <glyph glyph-name="B" unicode="B" horiz-adv-x="722" 
d="M320 601l-57 -209h106q77 0 130 46t53 127q0 37 -11.5 60.5t-35.5 34t-47.5 14t-61.5 3.5q-37 0 -50 -16t-26 -60zM-33 0l12 45h29q33 0 45 12t20 41q3 10 43.5 156t72 262.5t31.5 128.5q0 15 -10.5 22.5t-20.5 8.5t-29 1h-44l12 45h319q92 0 157.5 -41.5t65.5 -126.5
q0 -79 -61.5 -126.5t-145.5 -54.5v-2q68 -12 116.5 -55t48.5 -110q0 -206 -284 -206h-377zM251 344l-64 -242q-5 -17 -5 -28q0 -20 23 -24.5t91 -4.5q214 0 214 182q0 39 -18 65t-51 37t-62 14.5t-68 3.5q-36 0 -60 -3z" />
    <glyph glyph-name="C" unicode="C" horiz-adv-x="722" 
d="M618 652l59 61h35l-54 -280h-40q-1 50 -7.5 89t-23 81t-52 65.5t-86.5 23.5q-56 0 -104.5 -32t-81 -82.5t-55.5 -111.5t-33.5 -118.5t-10.5 -104.5q0 -96 47.5 -154.5t141.5 -58.5q160 0 240 189l39 -18q-47 -113 -117 -164.5t-189 -51.5q-133 0 -209.5 79.5t-76.5 209.5
q0 83 31.5 166.5t84.5 149t129 106.5t159 41q53 0 99.5 -22t74.5 -63z" />
    <glyph glyph-name="D" unicode="D" horiz-adv-x="778" 
d="M110 677l12 45h305q146 0 228.5 -69.5t82.5 -213.5q0 -114 -50.5 -214.5t-142.5 -162.5t-203 -62h-375l12 45h29q33 0 45 12t20 41q3 10 43.5 156t72 262.5t31.5 128.5q0 15 -10.5 22.5t-20.5 8.5t-29 1h-50zM437 677h-43q-33 0 -45.5 -12t-19.5 -39q-6 -24 -44 -160.5
t-70.5 -257t-32.5 -131.5q0 -15 11.5 -22.5t24.5 -8.5t43 -1q56 0 84.5 2.5t65.5 17t70 44.5q60 55 99.5 171.5t39.5 210.5q0 186 -183 186z" />
    <glyph glyph-name="E" unicode="E" horiz-adv-x="722" 
d="M116 677l12 45h572l-41 -244h-40q0 67 -12 108t-39 60.5t-56 25t-78 5.5h-40q-33 0 -45.5 -12t-19.5 -39q-2 -9 -63 -227h34q75 0 113.5 33t58.5 97l43 -4l-93 -342l-41 6q8 46 8 70q0 51 -26 73t-77 22h-32q-72 -261 -72 -277q0 -15 10.5 -22.5t20.5 -8.5t29 -1h58
q82 0 136.5 24t89 64.5t76.5 118.5l39 -7l-78 -245h-596l12 45h29q33 0 45 12t20 41q3 10 43.5 156t72 262.5t31.5 128.5q0 15 -10.5 22.5t-20.5 8.5t-29 1h-44z" />
    <glyph glyph-name="F" unicode="F" horiz-adv-x="667" 
d="M116 677l12 45h572l-41 -244h-40q0 67 -12 108t-39 60.5t-56 25t-78 5.5h-40q-33 0 -45.5 -12t-19.5 -39q-2 -9 -63 -227h34q75 0 113.5 33t58.5 97l43 -4l-93 -342l-41 6q8 46 8 70q0 51 -26 73t-77 22h-32q-72 -261 -72 -277q0 -15 10.5 -22.5t20.5 -8.5t29 -1h44
l-12 -45h-307l12 45h29q33 0 45 12t20 41q3 10 43.5 156t72 262.5t31.5 128.5q0 15 -10.5 22.5t-20.5 8.5t-29 1h-44z" />
    <glyph glyph-name="G" unicode="G" horiz-adv-x="778" 
d="M646 650l60 62h34l-55 -276l-39 6q-4 250 -193 250q-68 0 -126.5 -51t-94 -126.5t-55 -154t-19.5 -141.5q0 -91 48.5 -140t143.5 -49q87 0 142.5 66.5t55.5 154.5q0 14 -5.5 22.5t-18 12t-21.5 4t-25 0.5h-43l7 40h321l-9 -40h-34q-35 0 -48 -12t-21 -39l-71 -254h-36
l-10 84q-88 -84 -209 -84q-135 0 -210 79t-75 210q0 112 52.5 218t149.5 175.5t211 69.5q122 0 193 -87z" />
    <glyph glyph-name="H" unicode="H" horiz-adv-x="833" 
d="M116 677l12 45h319l-12 -45h-41q-33 0 -45.5 -12t-19.5 -39q-2 -9 -63 -227h322q63 230 63 246q0 15 -10.5 22.5t-20.5 8.5t-29 1h-44l12 45h307l-12 -45h-29q-33 0 -45.5 -12t-19.5 -39q-5 -19 -44 -159.5t-71 -259t-32 -130.5q0 -15 10.5 -22.5t20.5 -8.5t29 -1h44
l-12 -45h-319l12 45h41q33 0 45 12t20 41l25 90q25 89 45 161h-322q-70 -259 -70 -272q0 -15 10.5 -22.5t20.5 -8.5t29 -1h44l-12 -45h-307l12 45h29q33 0 45 12t20 41q3 10 43.5 156t72 262.5t31.5 128.5q0 15 -10.5 22.5t-20.5 8.5t-29 1h-44z" />
    <glyph glyph-name="I" unicode="I" horiz-adv-x="407" 
d="M116 677l12 45h307l-12 -45h-29q-33 0 -45.5 -12t-19.5 -39q-5 -19 -44 -159.5t-71 -259t-32 -130.5q0 -15 10.5 -22.5t20.5 -8.5t29 -1h44l-12 -45h-307l12 45h29q33 0 45 12t20 41q3 10 43.5 156t72 262.5t31.5 128.5q0 15 -10.5 22.5t-20.5 8.5t-29 1h-44z" />
    <glyph glyph-name="J" unicode="J" horiz-adv-x="611" 
d="M651 722l-12 -45h-35q-32 0 -43 -10t-19 -42l-98 -376q-13 -51 -24.5 -84.5t-32.5 -71t-47 -59t-67 -35.5t-95 -14q-85 0 -138.5 38t-53.5 119q0 54 32 98t85 44q34 0 58 -18.5t24 -51.5q0 -29 -17.5 -49t-46.5 -20q-20 0 -38.5 10t-25.5 10q-10 0 -18 -12.5t-8 -22.5
q0 -49 38.5 -74.5t90.5 -25.5q33 0 58.5 11.5t42 27.5t31 50t23 61t21.5 78l94 360q5 25 5 29q0 30 -58 30h-54l12 45h316z" />
    <glyph glyph-name="K" unicode="K" horiz-adv-x="741" 
d="M116 677l12 45h317l-12 -45h-39q-33 0 -45 -11.5t-20 -39.5l-80 -287l2 -3l309 257q37 30 37 57t-41 27h-40l12 45h288l-12 -45q-51 -6 -84 -20.5t-74 -49.5l-222 -191l155 -318l1 -2q19 -35 32 -42q14 -7 78 -9h1h1h1h1h1h1h1h1h2l-12 -45h-318l12 45h52q18 0 25 0.5
t12.5 5t5.5 14.5t-12 34l-122 254l-115 -96q-46 -170 -46 -180q0 -15 10.5 -22.5t20.5 -8.5t29 -1h44l-12 -45h-307l12 45h29q33 0 45 12t20 41q3 10 43.5 156t72 262.5t31.5 128.5q0 15 -10.5 22.5t-20.5 8.5t-29 1h-44z" />
    <glyph glyph-name="L" unicode="L" horiz-adv-x="667" 
d="M627 245l-78 -245h-582l12 45h29q33 0 45 12t20 41q3 10 43.5 156t72 262.5t31.5 128.5q0 15 -10.5 22.5t-20.5 8.5t-29 1h-44l12 45h331l-12 -45h-53q-33 0 -45.5 -12t-19.5 -39q-5 -19 -44 -159.5t-71 -259t-32 -130.5q0 -15 10.5 -22.5t20.5 -8.5t29 -1h44
q82 0 136.5 24t89 64.5t76.5 118.5z" />
    <glyph glyph-name="M" unicode="M" horiz-adv-x="944" 
d="M112 677l12 45h234l52 -548h2l344 548h221l-12 -45h-24q-47 0 -58 -6.5t-20 -40.5l-136 -502q-13 -56 -13 -59q0 -16 14 -20t41 -4h48l-12 -45h-319l12 45h44q36 0 48.5 13.5t23.5 54.5l142 517h-2l-394 -630h-35l-59 620h-2l-115 -434q-15 -57 -15 -81q0 -60 92 -60
l-12 -45h-247l12 45q28 0 48 9t32.5 29.5t19 37.5t14.5 47q17 65 50.5 185t57 202.5t23.5 91.5q0 30 -49 30h-63z" />
    <glyph glyph-name="N" unicode="N" horiz-adv-x="815" 
d="M540 -15l-281 613h-2l-118 -451q-6 -16 -6 -41q0 -61 104 -61l-12 -45h-276l12 45q65 3 89 29.5t42 96.5l128 474q-8 32 -58 32h-61l12 45h203l254 -560h2l102 380q13 46 13 78q0 57 -95 57l12 45h262l-12 -45q-55 -3 -78.5 -22t-38.5 -73l-163 -597h-34z" />
    <glyph glyph-name="O" unicode="O" horiz-adv-x="778" 
d="M40 274q0 83 31.5 166t85.5 149t133 107t166 41q127 0 204.5 -81t77.5 -209q0 -113 -53.5 -219t-151.5 -174.5t-213 -68.5q-132 0 -206 79t-74 210zM158 219q0 -86 38.5 -137.5t123.5 -51.5q72 0 132 48.5t95 121.5t54 149t19 139q0 44 -6.5 77.5t-23.5 63.5t-50.5 46.5
t-83.5 16.5q-56 0 -106 -34t-84 -87t-59 -117t-37 -125t-12 -110z" />
    <glyph glyph-name="P" unicode="P" horiz-adv-x="667" 
d="M116 677l12 45h290q249 0 249 -183q0 -63 -29 -108t-78.5 -67.5t-102 -32.5t-113.5 -10q-24 0 -99 3q-63 -232 -63 -247t10.5 -22.5t20.5 -8.5t29 -1h44l-12 -45h-307l12 45h29q33 0 45 12t20 41q3 10 43.5 156t72 262.5t31.5 128.5q0 15 -10.5 22.5t-20.5 8.5t-29 1h-44
zM319 600l-63 -231q22 -3 71 -3q113 0 172 41t59 146q0 124 -142 124q-54 0 -69 -12.5t-28 -64.5z" />
    <glyph glyph-name="Q" unicode="Q" horiz-adv-x="778" 
d="M409 103q0 51 -22 83t-70 32q-38 0 -66 -29.5t-28 -68.5q0 -90 107 -90q27 0 68 15q11 40 11 58zM158 219q0 -107 31 -153l2 2q-8 22 -8 54q0 61 41.5 101t100.5 40q139 0 161 -151q60 82 97 182t37 194q0 44 -6.5 77.5t-23.5 63.5t-50.5 46.5t-83.5 16.5q-56 0 -106 -34
t-84 -87t-59 -117t-37 -125t-12 -110zM626 -44l33 -18q-17 -30 -29.5 -48t-32.5 -39t-44 -31t-53 -10q-56 0 -83 40t-27 99v43q-19 -4 -34 -5q-24 -2 -39 -2q-130 0 -203.5 79t-73.5 210q0 83 31.5 166t85.5 149t133 107t166 41q127 0 204.5 -81t77.5 -209
q0 -124 -66.5 -239.5t-175.5 -175.5v-42q0 -46 15 -77t42 -31q13 0 28 14t22.5 25t22.5 35z" />
    <glyph glyph-name="R" unicode="R" horiz-adv-x="741" 
d="M641 141l34 -13q-13 -34 -22.5 -52.5t-26.5 -43t-40.5 -36t-54.5 -11.5q-51 0 -78 33.5t-27 85.5q0 26 6.5 79t6.5 80q0 47 -27.5 69t-73.5 22h-85q-71 -262 -71 -277t10.5 -22.5t20.5 -8.5t29 -1h44l-12 -45h-319l12 45h41q33 0 45 12t20 41q3 10 43.5 156t72 262.5
t31.5 128.5q0 15 -10.5 22.5t-20.5 8.5t-29 1h-56l12 45h344q40 0 77 -7.5t73.5 -24t59 -50.5t22.5 -81q0 -53 -23 -90.5t-65 -58t-82 -30t-93 -14.5v-2q53 -13 82.5 -54.5t29.5 -97.5v-108q0 -59 29 -59q33 0 71 96zM264 399h60q51 0 89.5 5.5t78 21.5t61 51t21.5 88
q0 36 -14 60t-40 34.5t-49.5 14t-54.5 3.5q-54 0 -69 -12.5t-28 -64.5z" />
    <glyph glyph-name="S" unicode="S" horiz-adv-x="667" 
d="M-6 0l60 283l40 -7v-32q0 -95 54.5 -154.5t153.5 -59.5q74 0 124 36t50 106q0 47 -36.5 77.5t-88 49t-103.5 40t-88.5 65t-37.5 108.5q0 96 68 160.5t165 64.5q119 0 186 -77l61 53h36l-59 -259l-40 7v25q0 91 -43.5 148.5t-132.5 57.5q-67 0 -111 -35.5t-44 -99.5
q0 -38 26.5 -65t66.5 -41t87 -33t87 -40t66.5 -62.5t26.5 -99.5q0 -109 -79.5 -170t-191.5 -61q-119 0 -203 79l-65 -64h-35z" />
    <glyph glyph-name="T" unicode="T" horiz-adv-x="685" 
d="M206 98l140 508q12 41 12 50q0 21 -36 21t-64.5 -9t-50 -24t-44 -45t-39.5 -59.5t-44 -81.5l-40 6l88 258h597l-40 -275l-40 6q3 31 3 67q0 80 -29 118.5t-106 38.5q-28 0 -37 -10t-16 -40l-134 -493q-11 -44 -11 -57q0 -15 10.5 -22.5t20.5 -8.5t29 -1h56l-12 -45h-343
l12 45h53q33 0 45 12t20 41z" />
    <glyph glyph-name="U" unicode="U" horiz-adv-x="815" 
d="M112 289l82 308q10 37 10 48q0 15 -10.5 22.5t-20.5 8.5t-29 1h-44l12 45h325l-12 -45h-45q-33 0 -45.5 -12t-19.5 -39l-89 -323q-24 -92 -24 -137q0 -136 176 -136q52 0 91 18.5t64 54t40 72.5t28 90l74 277q13 46 13 78q0 57 -95 57l12 45h262l-12 -45
q-55 -3 -78.5 -22t-38.5 -73l-99 -366q-34 -126 -101 -178.5t-196 -52.5q-108 0 -178.5 44.5t-70.5 144.5q0 41 19 115z" />
    <glyph glyph-name="V" unicode="V" horiz-adv-x="704" 
d="M36 677l12 45h294l-12 -45h-51q-43 0 -43 -28q0 -19 6 -49l90 -452l240 433q18 33 18 59q0 37 -65 37h-29l12 45h271l-12 -45q-16 -1 -30 -5t-27.5 -12t-23 -14.5t-21.5 -20.5l-18 -21t-17.5 -25t-15 -24.5t-15 -27t-14.5 -25.5l-289 -512h-36l-121 606q-10 49 -24.5 65
t-60.5 16h-18z" />
    <glyph glyph-name="W" unicode="W" horiz-adv-x="926" 
d="M225 -10l-85 626q-5 37 -18.5 49t-50.5 12h-18l12 45h262l-12 -45h-18q-58 0 -58 -31q0 -5 1.5 -15.5t1.5 -12.5l56 -434h2l176 407l-4 29q-6 41 -17.5 49t-59.5 8h-20l12 45h277l-12 -45h-22q-33 0 -46 -5.5t-13 -25.5q0 -6 0.5 -13.5t2 -15.5t1.5 -11l52 -422h2
l168 395q19 42 19 66q0 32 -55 32h-26l12 45h231l-12 -45q-19 0 -35 -5.5t-29.5 -19t-22 -22.5t-19.5 -31.5t-15 -30.5t-15 -34l-234 -544h-40l-70 508h-2l-224 -508h-35z" />
    <glyph glyph-name="X" unicode="X" horiz-adv-x="704" 
d="M75 677l12 45h312l-12 -45h-37q-46 0 -46 -22q0 -16 13 -47l70 -167l146 152q27 29 27 54q0 30 -48 30h-26l12 45h281l-12 -45q-46 0 -78.5 -15.5t-65.5 -49.5l-215 -220l122 -286q16 -39 33.5 -50t60.5 -11h30l-12 -45h-319l12 45h37q16 0 23.5 0.5t17 2t13 6t3.5 11.5
q0 13 -12 41l-86 207l-143 -150q-50 -54 -50 -87q0 -31 63 -31h24l-12 -45h-288l12 45q48 3 83.5 26.5t77.5 67.5l211 221l-118 274q-17 43 -77 43h-39z" />
    <glyph glyph-name="Y" unicode="Y" horiz-adv-x="685" 
d="M76 0l12 45h41q47 0 60 9.5t22 43.5l58 209l-128 314q-14 31 -31 43.5t-50 12.5h-29l12 45h305l-12 -45h-44q-48 0 -48 -19q0 -10 10 -38l105 -261l176 226q24 34 24 57q0 35 -65 35h-24l12 45h278l-12 -45q-36 0 -63.5 -12.5t-43.5 -28.5t-44 -51l-218 -276l-55 -207
q-5 -22 -5 -28q0 -10 4 -16.5t13 -9t15 -3t18 -0.5h64l-12 -45h-345z" />
    <glyph glyph-name="Z" unicode="Z" horiz-adv-x="667" 
d="M611 256l-83 -256h-553l7 40l535 637h-109q-63 0 -107.5 -13t-77 -43.5t-52.5 -61.5t-48 -87l-40 10l81 240h503l-7 -40l-537 -637h157q60 0 102 12t75.5 43t56.5 66t57 100z" />
    <glyph glyph-name="bracketleft" unicode="[" 
d="M-55 -109l223 846h220l-7 -30h-152l-206 -786h160l-7 -30h-231z" />
    <glyph glyph-name="backslash" unicode="\" horiz-adv-x="606" 
d="M208 737l266 -752h-76l-266 752h76z" />
    <glyph glyph-name="bracketright" unicode="]" 
d="M128 707l7 30h231l-223 -846h-220l7 30h152l206 786h-160z" />
    <glyph glyph-name="asciicircum" unicode="^" horiz-adv-x="606" 
d="M165 325h-76l181 365h66l181 -365h-76l-138 279z" />
    <glyph glyph-name="underscore" unicode="_" horiz-adv-x="500" 
d="M0 -75h500v-50h-500v50z" />
    <glyph glyph-name="grave" unicode="`" 
d="M262 518h-30l-124 93q-37 27 -37 46q0 13 10.5 23t25.5 10q20 0 43 -30z" />
    <glyph glyph-name="a" unicode="a" horiz-adv-x="574" 
d="M345 325q0 39 -19.5 65t-56.5 26q-42 0 -77 -31t-55.5 -76.5t-31.5 -92t-11 -83.5q0 -47 22 -75t66 -28h2q39 0 71.5 33.5t51 82t28.5 96.5t10 83zM495 153l29 -16l-8 -17q-16 -27 -28.5 -46.5t-32 -42t-42 -34.5t-46.5 -12q-37 0 -52.5 19t-15.5 58h-2q-53 -77 -148 -77
q-68 0 -107.5 45.5t-39.5 114.5q0 68 29.5 141t88 126.5t128.5 53.5q46 0 80.5 -28.5t41.5 -72.5h2l32 86h80q-77 -245 -102 -336q-11 -39 -11 -56q0 -24 19 -24q24 0 49 27.5t43 64.5z" />
    <glyph glyph-name="b" unicode="b" horiz-adv-x="556" 
d="M312 411q-57 0 -103.5 -52t-68.5 -117t-22 -119q0 -46 22 -74.5t68 -28.5q56 0 101.5 51t66 114t20.5 118q0 45 -20 76.5t-64 31.5zM93 687l9 35l192 15l-108 -351h2q27 36 67.5 58t84.5 22q73 0 110.5 -48t37.5 -124q0 -124 -85.5 -216.5t-207.5 -92.5q-75 0 -119 37
t-44 111q0 35 25 113l115 376q10 32 10 43q0 10 -7.5 15.5t-14.5 6t-22 0.5h-45z" />
    <glyph glyph-name="c" unicode="c" horiz-adv-x="444" 
d="M340 129l28 -21q-36 -54 -87 -88.5t-111 -34.5q-80 0 -124 51t-44 132q0 70 33.5 138.5t94.5 114t131 45.5q50 0 91.5 -26.5t41.5 -74.5q0 -35 -18.5 -55.5t-40.5 -20.5q-23 0 -38.5 12.5t-15.5 34.5q0 34 30 42q23 6 23 20t-21 23.5t-39 9.5q-44 0 -80.5 -29.5t-57 -75
t-31.5 -92.5t-11 -89q0 -50 24.5 -82.5t73.5 -32.5q41 0 83 30.5t65 68.5z" />
    <glyph glyph-name="d" unicode="d" horiz-adv-x="611" 
d="M585 737l-167 -561q-4 -14 -11 -37t-9.5 -32t-5 -21.5t-2.5 -22.5q0 -12 7.5 -20t19.5 -8q44 0 94 83l22 36l30 -16l-15 -26q-77 -127 -159 -127q-40 0 -55.5 21.5t-15.5 62.5h-2q-24 -37 -66.5 -60.5t-87.5 -23.5q-77 0 -118.5 45.5t-41.5 123.5q0 71 35.5 142.5
t100 120.5t138.5 49q88 0 119 -80h2l65 222q11 36 11 57q0 10 -7.5 15.5t-14.5 6t-22 0.5h-45l9 35zM94 140q0 -46 23 -78t68 -32q42 0 79 34.5t59.5 84t35 99t12.5 84.5q0 39 -25 66.5t-66 27.5q-54 0 -99 -52.5t-66 -117t-21 -116.5z" />
    <glyph glyph-name="e" unicode="e" horiz-adv-x="444" 
d="M340 114l23 -26q-86 -103 -193 -103q-79 0 -127.5 45t-48.5 123q0 128 84 220.5t189 92.5q51 0 86 -25t35 -75q0 -31 -14.5 -57.5t-42.5 -46.5t-55 -34t-67.5 -26t-63 -18t-57.5 -13q-2 -18 -2 -26q0 -115 103 -115q75 0 151 84zM93 206q102 20 158.5 62.5t56.5 103.5
q0 27 -14.5 43t-40.5 16q-36 0 -66 -23t-48.5 -59t-29.5 -72t-16 -71z" />
    <glyph glyph-name="f" unicode="f" 
d="M41 -187l-109 -18q33 69 63.5 156t45.5 141t44 167.5t38 146.5h-94l11 45h95q11 36 16 53t18.5 53t24 56t29 47t37.5 41.5t45.5 25t56.5 10.5q41 0 74.5 -22.5t33.5 -61.5q0 -58 -55 -58q-19 0 -33 12.5t-14 30.5q0 17 8 29.5t8 19.5q0 15 -21 15q-22 0 -41 -12
t-29.5 -24t-23.5 -41t-16 -38.5t-13 -41.5l-3 -9l-22 -85h128l-11 -45h-129l-77 -310q-19 -77 -85 -283z" />
    <glyph glyph-name="g" unicode="g" horiz-adv-x="537" 
d="M-79 -93q0 49 41 76t94 32v2q-25 7 -43.5 27.5t-18.5 45.5q0 48 38.5 73t91.5 28v2q-32 12 -49.5 41.5t-17.5 66.5q0 71 64 118t137 47q57 0 90 -15q70 46 112 46q25 0 44 -10.5t19 -33.5q0 -44 -43 -44q-17 0 -31.5 19t-24.5 19q-21 0 -44 -17q61 -41 61 -108
q0 -80 -61 -126t-143 -46q-18 0 -54 6q-45 5 -55 5q-26 0 -44 -10.5t-18 -32.5q0 -25 30 -32t136 -15q49 -4 81.5 -12t58.5 -34t26 -69q0 -49 -27.5 -83t-72.5 -49.5t-87 -22t-88 -6.5q-32 0 -62.5 4.5t-64.5 15.5t-54.5 34.5t-20.5 57.5zM156 -170q23 0 49.5 4.5t55 14
t47 28.5t18.5 45q0 78 -188 78q-33 0 -61.5 -7t-52 -29t-23.5 -56q0 -78 155 -78zM143 278q0 -43 23 -68t66 -25q59 0 91 47t32 104q0 95 -92 95q-59 0 -89.5 -47.5t-30.5 -105.5z" />
    <glyph glyph-name="h" unicode="h" horiz-adv-x="611" 
d="M113 687l9 35l192 15l-116 -402h2q27 33 40.5 48t40.5 39t54.5 34t59.5 10q43 0 65 -28t22 -68q0 -37 -44.5 -170t-44.5 -144q0 -21 25 -21q42 0 116 114l28 -18q-91 -146 -176 -146q-35 0 -54 21.5t-19 57.5q0 24 44.5 152.5t44.5 156.5q0 19 -11.5 31t-30.5 12
q-44 0 -91 -46t-73 -96q-11 -21 -21 -45.5t-16.5 -41t-16 -49.5t-12 -43t-13 -50.5t-11.5 -44.5h-92l171 589q17 59 17 76q0 10 -7.5 15.5t-14.5 6t-22 0.5h-45z" />
    <glyph glyph-name="i" unicode="i" 
d="M253 155l29 -17q-10 -18 -25 -39t-40 -49.5t-56.5 -46.5t-62.5 -18q-69 0 -69 68q0 28 13 73l73 234q7 23 7 34q0 10 -7.5 15.5t-14.5 6t-22 0.5h-39l9 35l186 15l-115 -363q-10 -30 -10 -43q0 -25 23 -25q10 0 22.5 7.5t22.5 16.5t23.5 25.5t20.5 26t19 26t13 18.5z
M165 662q0 21 15.5 37t36.5 16q22 0 39.5 -16t17.5 -37q0 -22 -17 -39t-39 -17q-21 0 -37 17t-16 39z" />
    <glyph glyph-name="j" unicode="j" horiz-adv-x="315" 
d="M77 416l9 35l192 15l-121 -440q-12 -42 -28.5 -79t-42 -73.5t-62 -57.5t-80.5 -21t-77 19t-33 60q0 25 14.5 42.5t39.5 17.5q18 0 33 -13.5t15 -31.5t-7 -27t-7 -17q0 -15 25 -15q42 0 66 37t43 104l105 383q5 17 5 40q0 22 -50 22h-39zM209 662q0 21 15.5 37t36.5 16
q22 0 39.5 -16t17.5 -37q0 -22 -17 -39t-39 -17q-21 0 -37 17t-16 39z" />
    <glyph glyph-name="k" unicode="k" horiz-adv-x="556" 
d="M106 687l9 35l192 15l-121 -410h2q95 139 193 139q46 0 72 -25t26 -71q0 -53 -55 -94.5t-118 -59.5l-14 -4q44 -33 51 -112q5 -65 24 -65q7 0 15 5t17 14.5t17 18.5t17 23t14 21.5t12.5 19.5t8.5 13l29 -16q-28 -56 -71 -102.5t-92 -46.5q-73 0 -73 82q0 18 1.5 52
t1.5 47q0 35 -18 35q-6 0 -15 -2.5t-15 -2.5q-26 0 -26 22q0 23 28 23q7 0 20 -2.5t18 -2.5q26 0 84.5 39t58.5 90q0 21 -13 33.5t-35 12.5q-76 0 -148.5 -117t-110.5 -294h-92l178 589q17 59 17 76q0 10 -7.5 15.5t-14.5 6t-22 0.5h-45z" />
    <glyph glyph-name="l" unicode="l" 
d="M91 687l9 35l192 15l-179 -591q-19 -62 -19 -86q0 -25 23 -25q10 0 22.5 7.5t22.5 16.5t23.5 25.5t20.5 26t19 26t13 18.5l29 -17q-10 -18 -25 -39t-40 -49.5t-56.5 -46.5t-62.5 -18q-69 0 -69 68q0 40 17 96l138 459q11 36 11 57q0 10 -7.5 15.5t-14.5 6t-22 0.5h-45z
" />
    <glyph glyph-name="m" unicode="m" horiz-adv-x="889" 
d="M812 149l28 -18q-91 -146 -176 -146q-35 0 -54 21.5t-19 57.5q0 24 44.5 152.5t44.5 156.5q0 19 -11.5 31t-30.5 12q-44 0 -91 -46t-73 -96q-11 -21 -21 -45.5t-16.5 -41t-16 -49.5t-12 -43t-13 -50.5t-11.5 -44.5h-92q18 36 64 184.5t46 184.5q0 47 -39 47
q-46 0 -93.5 -46t-73.5 -96q-11 -21 -21 -45.5t-16.5 -41t-16 -49.5t-12 -43t-13 -50.5t-11.5 -44.5h-92l92 291q23 71 23 97q0 28 -45 28h-42l11 35l174 15l-29 -131h2q27 33 40 47.5t39 39t50 34.5t51 10q45 0 69.5 -26.5t24.5 -71.5q0 -6 -3 -33h3q27 33 40.5 48t40.5 39
t55 34t60 10q45 0 67.5 -28t22.5 -68q0 -37 -44.5 -170t-44.5 -144q0 -21 25 -21q42 0 116 114z" />
    <glyph glyph-name="n" unicode="n" horiz-adv-x="611" 
d="M534 149l28 -18q-91 -146 -176 -146q-35 0 -54 21.5t-19 57.5q0 24 44.5 152.5t44.5 156.5q0 19 -11.5 31t-30.5 12q-44 0 -91 -46t-73 -96q-11 -21 -21 -45.5t-16.5 -41t-16 -49.5t-12 -43t-13 -50.5t-11.5 -44.5h-92l92 291q23 71 23 97q0 28 -45 28h-42l11 35l174 15
l-29 -131h2q27 33 40.5 48t40.5 39t54.5 34t59.5 10q43 0 65 -28t22 -68q0 -37 -44.5 -170t-44.5 -144q0 -21 25 -21q42 0 116 114z" />
    <glyph glyph-name="o" unicode="o" horiz-adv-x="500" 
d="M450 274q0 -109 -78.5 -199t-186.5 -90q-88 0 -135.5 50t-47.5 140q0 108 78 199.5t185 91.5q83 0 134 -54.5t51 -137.5zM190 20q40 0 74 32.5t53.5 80.5t30 95.5t10.5 83.5q0 119 -95 119q-41 0 -75 -34t-53.5 -83t-30 -97.5t-10.5 -84.5q0 -112 96 -112z" />
    <glyph glyph-name="p" unicode="p" horiz-adv-x="574" 
d="M42 416l11 35l166 15l-19 -96h2q19 37 69 66.5t92 29.5q68 0 105.5 -45.5t37.5 -118.5q0 -71 -30 -143t-90.5 -123t-134.5 -51q-44 0 -79.5 19t-48.5 57h-2l-52 -178q-6 -21 -6 -28q0 -20 32 -20h49l-11 -40h-234l11 40h36q15 0 22.5 10t14.5 33l123 413q23 71 23 97
q0 28 -45 28h-42zM148 126q0 -42 22 -69t64 -27q45 0 81.5 33.5t57 82.5t31 96.5t10.5 82.5q0 40 -20.5 65.5t-59.5 25.5q-54 0 -98.5 -54.5t-66 -120t-21.5 -115.5z" />
    <glyph glyph-name="q" unicode="q" horiz-adv-x="556" 
d="M153 -205l9 40h22q33 0 44.5 8.5t20.5 40.5l47 165l-2 2q-64 -66 -138 -66q-72 0 -113 44t-41 116q0 75 34.5 148.5t99.5 123t141 49.5q84 0 128 -70l60 70h35l-158 -544q-17 -57 -17 -64q0 -14 10.5 -18.5t33.5 -4.5h34l-9 -40h-241zM365 325q0 47 -21.5 76.5
t-66.5 29.5q-52 0 -96.5 -53.5t-65.5 -118t-21 -115.5q0 -114 84 -114q56 0 101 55t65.5 121.5t20.5 118.5z" />
    <glyph glyph-name="r" unicode="r" horiz-adv-x="444" 
d="M38 416l11 35l174 15l-29 -131h2q20 31 31 46t33 39t45.5 35t51.5 11q34 0 55.5 -20.5t21.5 -54.5q0 -25 -14 -41.5t-37 -16.5q-29 0 -40 10.5t-11 40.5q0 27 -22 27q-17 0 -42.5 -27t-54.5 -76t-59 -130.5t-52 -177.5h-92l92 291q23 71 23 97q0 28 -45 28h-42z" />
    <glyph glyph-name="s" unicode="s" horiz-adv-x="444" 
d="M136 345q0 -29 22.5 -44t81.5 -37q4 -1 6 -2q52 -19 81.5 -46t29.5 -75q0 -74 -55.5 -115t-132.5 -41q-39 0 -74 8.5t-64 34t-29 65.5q0 28 14.5 49t43.5 21q22 0 36.5 -11.5t14.5 -31.5q0 -24 -14.5 -36.5t-14.5 -22.5q0 -20 26.5 -30.5t56.5 -10.5q50 0 85 21.5
t35 68.5q0 32 -23.5 48.5t-86.5 40.5q-25 10 -41 18t-34 22t-27 34.5t-9 47.5q0 69 53.5 107t124.5 38q36 0 68.5 -8.5t58 -33t25.5 -60.5q0 -25 -13.5 -41.5t-39.5 -16.5q-23 0 -38 10.5t-15 31.5q0 19 13 33t13 21q0 29 -69 29q-45 0 -77 -21.5t-32 -64.5z" />
    <glyph glyph-name="t" unicode="t" horiz-adv-x="352" 
d="M36 132l84 274h-92l11 45h95l59 168h80l-54 -168h109l-11 -45h-113l-92 -308q-8 -24 -8 -37q0 -26 30 -26q42 0 121 124l30 -20q-92 -154 -183 -154q-38 0 -58 23t-20 62q0 14 12 62z" />
    <glyph glyph-name="u" unicode="u" horiz-adv-x="611" 
d="M46 416l9 35l186 15l-96 -298q-1 -4 -7.5 -22t-10 -32t-3.5 -26q0 -53 50 -53q33 0 72 37.5t65 77.5q48 75 116 308h92l-109 -321q-16 -45 -16 -72q0 -30 21 -30q13 0 37 22t46 52l30 41l28 -18q-93 -147 -174 -147q-68 0 -68 65q0 23 8 59h-2q-91 -124 -182 -124
q-44 0 -69 24.5t-25 64.5q0 31 18 92l60 194q7 23 7 34q0 10 -5.5 15t-12 6t-20.5 1h-45z" />
    <glyph glyph-name="v" unicode="v" horiz-adv-x="519" 
d="M220 466l-55 -178q-38 -121 -38 -175q0 -35 19.5 -56.5t53.5 -21.5q49 0 95.5 52t71.5 116.5t25 112.5q0 22 -8.5 38t-18 23.5t-18 19t-8.5 26.5q0 20 13 31.5t35 11.5q60 0 60 -88q0 -53 -20 -120t-53.5 -128t-85.5 -103t-109 -42q-66 0 -99 38.5t-33 105.5q0 46 28 135
l28 96q5 22 5 34q0 10 -5.5 15t-12 6t-20.5 1h-39l9 35z" />
    <glyph glyph-name="w" unicode="w" horiz-adv-x="778" 
d="M402 458h92q-27 -82 -55.5 -190t-28.5 -159q0 -36 12.5 -55t45.5 -19q45 0 89.5 51.5t69 117t24.5 112.5q0 22 -8.5 38t-18.5 23.5t-18.5 19t-8.5 26.5q0 20 13 31.5t36 11.5q60 0 60 -88q0 -73 -32 -162.5t-95.5 -160t-136.5 -70.5q-56 0 -84 32t-28 89q0 16 5 36h-2
q-42 -72 -87 -114.5t-110 -42.5q-48 0 -76.5 26.5t-28.5 63.5q0 38 16 93l15 45t23 70t19 65t9 46q0 10 -5.5 15t-12 6t-20.5 1h-39l9 35l181 15l-95 -307q-14 -45 -14 -78q0 -21 16.5 -33.5t37.5 -12.5q45 0 88 51t71.5 124t47 138.5t24.5 109.5z" />
    <glyph glyph-name="x" unicode="x" horiz-adv-x="500" 
d="M46 305l-28 20q1 2 11 16.5t14.5 21.5t16 22.5t19 24.5t19 21t20.5 18.5t20 11.5t20 5q33 0 51 -27t33 -85l14 -56l37 62q66 106 120 106q27 0 42.5 -16.5t15.5 -43.5q0 -21 -13 -35t-34 -14q-17 0 -25.5 6t-9.5 12.5t-4.5 12.5t-11.5 6q-27 0 -83 -103l-25 -46l29 -133
q8 -39 17 -53t26 -14q10 0 20.5 6.5t24.5 24.5t20.5 27.5t24.5 36.5l29 -18l-14 -24q-67 -113 -135 -113q-69 0 -95 130l-8 39h-2l-24 -44q-69 -125 -145 -125q-32 0 -49 17t-17 40q0 27 12.5 43t36.5 16q31 0 41 -23q2 -5 2 -15t3 -14t13 -4q25 0 63 67l54 93l-14 69
q-14 71 -23.5 95.5t-25.5 24.5q-26 0 -71 -70z" />
    <glyph glyph-name="y" unicode="y" horiz-adv-x="500" 
d="M22 291l-30 14q62 161 129 161q36 0 58 -47.5t51 -174.5l35 -143h2q97 169 97 236q0 14 -3 41.5t-3 41.5q0 20 14 33t35 13q19 0 31 -15.5t12 -41.5q0 -35 -38 -108q-95 -192 -175 -315q-23 -35 -30.5 -46.5t-29.5 -41.5t-36.5 -42.5t-37.5 -30t-47 -24t-52 -6.5
q-37 0 -62 21t-25 47q0 24 13 40.5t37 16.5q20 0 33.5 -12.5t13.5 -31.5q0 -4 -2.5 -13.5t-2.5 -13.5q0 -14 23 -14q73 0 166 163q-34 184 -66 301q-16 57 -23.5 72t-21.5 15q-23 0 -65 -95z" />
    <glyph glyph-name="z" unicode="z" horiz-adv-x="463" 
d="M55 314l-32 15l10 17q33 57 68.5 88.5t85.5 31.5q29 0 79 -25q52 -26 75 -26q10 0 16.5 4.5t8 8.5t3.5 13q6 25 27 25q20 0 20 -22q0 -39 -64.5 -115.5t-117.5 -108.5l-124 -76q-31 -19 -70 -60h2q20 10 60 10q46 0 91 -18q47 -19 74 -19q29 0 52 28.5t36 62.5l33 -12
q-59 -151 -161 -151q-38 0 -81.5 16t-74.5 32t-39 16q-15 0 -15 -24q0 -40 -28 -40q-22 0 -22 28q0 37 69.5 114.5t126.5 113.5l120 75q41 26 64 54h-2q-21 -10 -60 -10q-28 0 -79.5 17t-65.5 17q-19 0 -37 -15t-26.5 -28.5t-21.5 -36.5z" />
    <glyph glyph-name="braceleft" unicode="{" 
d="M394 737l-6 -20q-45 -10 -69.5 -38.5t-38.5 -80.5l-43 -158q-15 -55 -40 -84t-76 -41v-2q56 -15 56 -67q0 -21 -10 -58l-44 -158q-9 -34 -9 -60q0 -46 51 -59l-5 -20q-60 0 -91 15t-31 55q0 28 10 67l48 174q9 33 9 54q0 41 -53 58q48 13 70 37.5t35 74.5l48 174
q22 82 66.5 109.5t122.5 27.5z" />
    <glyph glyph-name="bar" unicode="|" horiz-adv-x="606" 
d="M267 750h72v-1000h-72v1000z" />
    <glyph glyph-name="braceright" unicode="}" 
d="M-87 -109l6 20q45 10 69.5 38.5t38.5 80.5l43 158q15 55 40 84t76 41v2q-56 15 -56 67q0 21 10 58l44 158q9 34 9 60q0 46 -51 59l5 20q60 0 91 -15t31 -55q0 -28 -10 -67l-48 -174q-9 -33 -9 -54q0 -41 53 -58q-48 -13 -70 -37.5t-35 -74.5l-48 -174
q-22 -82 -66.5 -109.5t-122.5 -27.5z" />
    <glyph glyph-name="asciitilde" unicode="~" horiz-adv-x="606" 
d="M498 322l36 -49q-44 -89 -125 -89q-45 0 -111 32q-70 34 -102 34q-19 0 -36.5 -11.5t-26.5 -22t-25 -32.5l-36 49q44 89 125 89q45 0 111 -32q70 -34 102 -34q19 0 36.5 11.5t26.5 22t25 32.5z" />
    <glyph glyph-name="uni00A0" unicode="&#xa0;" horiz-adv-x="278" 
 />
    <glyph glyph-name="exclamdown" unicode="&#xa1;" 
d="M154 349l34 -9q-30 -104 -53 -227.5t-23 -165.5q0 -67 -19.5 -109.5t-52.5 -42.5q-62 0 -62 59q0 26 24.5 78t69.5 164t82 253zM264 485q0 -25 -18 -43.5t-44 -18.5t-44 18.5t-18 43.5t18 43.5t44 18.5t44 -18.5t18 -43.5z" />
    <glyph glyph-name="cent" unicode="&#xa2;" horiz-adv-x="556" 
d="M208 41l134 303q2 4 5.5 11.5t5.5 11.5q6 11 31 19q13 4 13 13q0 14 -23 23t-40 9q-43 0 -79 -31t-57 -76t-32.5 -90t-11.5 -80q0 -90 54 -113zM391 456l55 124h40l-64 -144q35 -30 35 -70q0 -36 -17.5 -56.5t-41.5 -20.5q-15 0 -37 11l-118 -270h18q34 0 71.5 32
t65.5 69l29 -21q-28 -44 -81.5 -84.5t-103.5 -40.5h-20l-56 -129h-40l59 134q-61 17 -92 65t-31 114q0 110 79.5 203.5t187.5 93.5q39 0 62 -10z" />
    <glyph glyph-name="sterling" unicode="&#xa3;" horiz-adv-x="556" 
d="M49 326l11 40h114v54q0 126 58 205.5t165 79.5q60 0 103.5 -31.5t43.5 -89.5q0 -37 -18.5 -60t-50.5 -23q-56 0 -56 51q0 24 37 54q16 11 16 21q0 38 -63 38q-40 0 -69.5 -21.5t-44.5 -59t-22 -78.5t-7 -89q0 -6 1.5 -23.5t1.5 -27.5h139l-11 -40h-128q0 -140 -55 -223
q85 -38 141 -38q42 0 72.5 21t62.5 60l31 -13q-63 -148 -178 -148q-84 0 -158 61q-41 -61 -109 -61q-36 0 -62.5 20t-26.5 58q0 34 23.5 58t62.5 24q38 0 95 -21q15 42 15 97q0 19 -3 54.5t-3 50.5h-128zM27 63q0 -21 15 -32t36 -11q47 0 71 54q-38 36 -76 36q-46 0 -46 -47
z" />
    <glyph glyph-name="currency" unicode="&#xa4;" horiz-adv-x="556" 
d="M26 138l56 56q-52 66 -52 151q0 86 52 151l-56 56l45 45l56 -56q65 52 151 52q85 0 151 -52l56 56l45 -45l-56 -56q52 -65 52 -151q0 -85 -52 -151l56 -56l-45 -45l-56 57q-64 -53 -151 -53q-86 0 -151 52l-56 -56zM102 345q0 -77 51.5 -129.5t124.5 -52.5t124.5 52.5
t51.5 129.5t-51.5 129.5t-124.5 52.5t-124.5 -52.5t-51.5 -129.5z" />
    <glyph glyph-name="yen" unicode="&#xa5;" horiz-adv-x="556" 
d="M74 312l9 40h128l-82 241q-11 33 -21 45t-32 12h-36l9 40h245l-9 -40h-21q-30 0 -42.5 -3.5t-12.5 -16.5t10 -38l84 -249l141 216q20 31 20 56q0 35 -54 35h-19l9 40h224l-9 -40q-45 -14 -69 -32.5t-52 -58.5l-137 -207h143l-9 -40h-158l-28 -82h166l-9 -40h-169l-18 -92
q-4 -20 -4 -29q0 -10 4.5 -16.5t13.5 -9t16 -3t19 -0.5h40l-7 -40h-277l7 40h32q34 0 46.5 12t19.5 42l23 96h-163l9 40h163l14 63l-7 19h-150z" />
    <glyph glyph-name="brokenbar" unicode="&#xa6;" horiz-adv-x="606" 
d="M267 675h72v-350h-72v350zM267 175h72v-350h-72v350z" />
    <glyph glyph-name="section" unicode="&#xa7;" horiz-adv-x="500" 
d="M284 155q32 0 56 23t24 54q0 54 -81 147q-48 55 -95 55q-33 0 -58 -21.5t-25 -54.5q0 -25 15 -50.5t52 -75.5q20 -26 32 -39.5t33.5 -25.5t46.5 -12zM33 331q0 57 41 95t98 38q23 0 51 -13l2 2q-25 29 -43 68.5t-18 73.5q0 72 46.5 107t122.5 35q58 0 102.5 -29t44.5 -86
q0 -27 -16 -45t-42 -18q-23 0 -39 14t-16 37q0 17 6.5 29t14.5 17t14.5 10t6.5 10q0 15 -23 25.5t-54 10.5q-39 0 -63.5 -24t-24.5 -62q0 -57 61 -135l78 -103q53 -68 53 -131q0 -54 -37.5 -93t-91.5 -39q-32 0 -55 10l-2 -2q54 -80 54 -145q0 -67 -47.5 -101t-118.5 -34
q-59 0 -103.5 32t-44.5 83q0 27 16.5 44.5t42.5 17.5q20 0 35 -14.5t15 -35.5q0 -16 -6.5 -27.5t-13.5 -16.5t-13.5 -11t-6.5 -12q0 -13 25.5 -24t53.5 -11q38 0 62 25t24 63q0 53 -60 132l-78 101q-53 72 -53 132z" />
    <glyph glyph-name="dieresis" unicode="&#xa8;" 
d="M59 657q0 21 15 36t36 15t36 -15t15 -36t-15 -36t-36 -15t-36 15t-15 36zM257 657q0 21 15 36t36 15t36 -15t15 -36t-15 -36t-36 -15t-36 15t-15 36z" />
    <glyph glyph-name="copyright" unicode="&#xa9;" horiz-adv-x="747" 
d="M539 453h-20q-4 42 -32 69t-86 27q-72 0 -109 -49t-37 -131q0 -86 36.5 -136.5t115.5 -50.5q91 0 131 95l18 -8l-17 -78q-2 -7 -17 -15.5t-49 -16t-77 -7.5q-117 0 -172 60.5t-55 151.5q0 101 62 158t172 57q53 0 94.5 -13.5t41.5 -27.5v-85zM-2 361q0 156 110 266
t266 110t266 -110t110 -266t-110 -266t-266 -110t-266 110t-110 266zM70 361q0 -135 86.5 -222.5t217.5 -87.5t217.5 87.5t86.5 222.5t-86.5 222.5t-217.5 87.5t-217.5 -87.5t-86.5 -222.5z" />
    <glyph glyph-name="ordfeminine" unicode="&#xaa;" horiz-adv-x="422" 
d="M252 675q-36 0 -63.5 -32t-39 -69t-11.5 -66q0 -28 14.5 -45t42.5 -17q34 0 59.5 34.5t36 73.5t10.5 69q0 21 -12.5 36.5t-36.5 15.5zM323 644l17 52h55q-53 -154 -67 -202q-7 -23 -7 -34q0 -14 14 -14q27 0 57 55l9 16l19 -10l-6 -10q-49 -81 -96 -81t-47 46h-2
q-34 -46 -101 -46q-44 0 -70 27.5t-26 68.5q0 66 46 129.5t114 63.5q33 0 57.5 -17t31.5 -44h2z" />
    <glyph glyph-name="guillemotleft" unicode="&#xab;" horiz-adv-x="426" 
d="M183 243l172 139q25 20 34 20q13 0 13 -12q0 -11 -27.5 -41.5t-113.5 -112.5q19 -33 37 -68.5t27 -57.5t9 -26q0 -10 -10 -10q-13 0 -31 24zM-15 243l172 139q25 20 34 20q13 0 13 -12q0 -11 -27.5 -41.5t-113.5 -112.5q19 -33 37 -68.5t27 -57.5t9 -26q0 -10 -10 -10
q-13 0 -31 24z" />
    <glyph glyph-name="logicalnot" unicode="&#xac;" horiz-adv-x="606" 
d="M484 108v209h-434v72h506v-281h-72z" />
    <glyph glyph-name="uni00AD" unicode="&#xad;" 
d="M238 202h-206l21 72h206z" />
    <glyph glyph-name="registered" unicode="&#xae;" horiz-adv-x="747" 
d="M-2 361q0 156 110 266t266 110t266 -110t110 -266t-110 -266t-266 -110t-266 110t-110 266zM70 361q0 -135 86.5 -222.5t217.5 -87.5t217.5 87.5t86.5 222.5t-86.5 222.5t-217.5 87.5t-217.5 -87.5t-86.5 -222.5zM243 238v259q0 31 -8 38t-44 10v25h209q54 0 89.5 -25.5
t35.5 -75.5q0 -40 -23 -70.5t-60 -41.5l77 -126q15 -25 26 -33t29 -8v-25h-80q-28 0 -56 49l-75 131h-40v-107q0 -31 8 -38t42 -10v-25h-182v25q36 3 44 10t8 38zM323 545v-175h43q37 0 55 25.5t18 66.5q0 83 -74 83h-42z" />
    <glyph glyph-name="macron" unicode="&#xaf;" 
d="M52 560l11 50h300l-11 -50h-300z" />
    <glyph glyph-name="degree" unicode="&#xb0;" horiz-adv-x="400" 
d="M86 562q0 59 42 101t101 42t101 -42t42 -101t-42 -101t-101 -42t-101 42t-42 101zM141 562q0 -37 25.5 -62.5t62.5 -25.5t62.5 25.5t25.5 62.5t-25.5 62.5t-62.5 25.5t-62.5 -25.5t-25.5 -62.5z" />
    <glyph glyph-name="plusminus" unicode="&#xb1;" horiz-adv-x="606" 
d="M267 344v162h72v-162h217v-72h-217v-162h-72v162h-217v72h217zM50 0v72h506v-72h-506z" />
    <glyph glyph-name="twosuperior" unicode="&#xb2;" 
d="M300 406l30 -9l-50 -115h-280q0 21 33 50l168 143q78 65 78 123q0 72 -68 72q-36 0 -62.5 -15t-26.5 -30q0 -13 21 -25t21 -34q0 -16 -12 -26.5t-30 -10.5q-26 0 -38 17t-12 41q0 50 51 84t106 34q58 0 94 -29t36 -78q0 -74 -99 -138l-76 -50q-74 -49 -102 -71v-2h141
q21 0 29.5 3t19.5 19z" />
    <glyph glyph-name="threesuperior" unicode="&#xb3;" 
d="M22 368q0 21 12 35t33 14t34 -10.5t13 -26.5q0 -27 -30 -34q-12 -3 -12 -12q0 -16 21 -23.5t47 -7.5q55 0 80.5 33.5t25.5 85.5q0 26 -11.5 45.5t-34.5 19.5q-11 0 -22 -1t-15 -1q-19 0 -19 20q0 15 18 15q7 0 19 -1.5t17 -1.5q36 0 58.5 32t22.5 66q0 60 -64 60
q-23 0 -42 -7t-19 -18q0 -6 12.5 -18t12.5 -23q0 -32 -42 -32q-18 0 -28 11t-10 28q0 41 40 65t92 24q54 0 91 -25t37 -70q0 -46 -31 -70.5t-86 -39.5v-2q39 -5 61.5 -27.5t22.5 -57.5q0 -64 -51.5 -102t-126.5 -38q-54 0 -90 23.5t-36 71.5z" />
    <glyph glyph-name="acute" unicode="&#xb4;" 
d="M167 518h-35l162 161q11 11 27 11q12 0 23 -10.5t11 -23.5q0 -19 -19 -31z" />
    <glyph glyph-name="mu" unicode="&#xb5;" horiz-adv-x="611" 
d="M556 132q-93 -147 -174 -147q-68 0 -68 65q0 23 8 59h-2q-91 -124 -182 -124q-15 0 -27.5 8.5t-17.5 20.5l-42 -131q-6 -21 -6 -28q0 -20 32 -20h49l-11 -40h-215l11 40h26q15 0 22.5 10t14.5 33l148 482q7 23 7 34q0 10 -5.5 15t-12 6t-20.5 1h-45l9 35l186 15l-96 -298
q-1 -4 -7.5 -22t-10 -32t-3.5 -26q0 -53 50 -53q33 0 72 37.5t65 77.5q48 75 116 308h92l-109 -321q-16 -45 -16 -72q0 -30 21 -30q13 0 37 22t46 52l30 41z" />
    <glyph glyph-name="paragraph" unicode="&#xb6;" horiz-adv-x="650" 
d="M274 -132l223 804h-72l-223 -804h-154l7 25q60 9 75.5 19.5t26.5 51.5l97 350q-142 12 -142 139q0 126 74.5 197.5t207.5 71.5h271l-7 -25q-60 -9 -74.5 -19.5t-26.5 -51.5l-184 -662q-7 -28 -7 -36q0 -15 13 -21.5t56 -13.5l-7 -25h-154zM268 364l85 308
q-52 0 -91.5 -35t-56.5 -80t-17 -88q0 -87 80 -105z" />
    <glyph glyph-name="periodcentered" unicode="&#xb7;" horiz-adv-x="278" 
d="M71 306q0 28 19.5 48t48.5 20t48.5 -20t19.5 -48t-19.5 -48t-48.5 -20t-48.5 20t-19.5 48z" />
    <glyph glyph-name="cedilla" unicode="&#xb8;" 
d="M113 0h40l-44 -64l2 -2q8 4 26 4q33 0 55.5 -16.5t22.5 -45.5q0 -45 -35 -68t-79 -23q-45 0 -98 21l18 29q38 -15 70 -15q22 0 37 13t15 34q0 14 -15.5 25t-30.5 11t-33 -7l-12 8z" />
    <glyph glyph-name="onesuperior" unicode="&#xb9;" 
d="M118 630l8 30q95 7 152 45h33l-102 -336q-7 -25 -7 -31q0 -26 58 -26h24l-7 -30h-243l6 30h27q34 0 44.5 8t19.5 34l74 245q3 15 3 18q0 4 -1 6.5t-4.5 3.5t-5 1.5t-7.5 1.5h-5h-67z" />
    <glyph glyph-name="ordmasculine" unicode="&#xba;" horiz-adv-x="372" 
d="M66 530q0 65 52 120t125 55q58 0 92.5 -32.5t34.5 -83.5q0 -66 -52 -119.5t-127 -53.5q-61 0 -93 29.5t-32 84.5zM242 680q-34 0 -61 -35t-38 -73.5t-11 -67.5q0 -63 63 -63q49 0 79 61t30 110q0 68 -62 68z" />
    <glyph glyph-name="guillemotright" unicode="&#xbb;" horiz-adv-x="426" 
d="M204 233l-172 -139q-25 -20 -34 -20q-13 0 -13 12q0 11 27.5 41.5t113.5 112.5q-19 33 -37 68.5t-27 57.5t-9 26q0 10 10 10q13 0 31 -24zM402 233l-172 -139q-25 -20 -34 -20q-13 0 -13 12q0 11 27.5 41.5t113.5 112.5q-19 33 -37 68.5t-27 57.5t-9 26q0 10 10 10
q13 0 31 -24z" />
    <glyph glyph-name="onequarter" unicode="&#xbc;" horiz-adv-x="834" 
d="M429 134l303 289h50l-84 -278h75l-10 -35h-75l-10 -30q-5 -17 -5 -32q0 -18 33 -18h27l-6 -30h-212l5 30h21q30 0 41.5 7t17.5 25l16 48h-187v24zM677 326l-188 -181h137l53 179zM118 630l8 30q95 7 152 45h33l-102 -336q-7 -25 -7 -31q0 -26 58 -26h24l-7 -30h-243l6 30
h27q34 0 44.5 8t19.5 34l74 245q3 15 3 18q0 4 -1 6.5t-4.5 3.5t-5 1.5t-7.5 1.5h-5h-67zM194 -15l375 720h60l-375 -720h-60z" />
    <glyph glyph-name="onehalf" unicode="&#xbd;" horiz-adv-x="834" 
d="M180 -15l375 720h60l-375 -720h-60zM34 282l6 30h27q34 0 44.5 8t19.5 34l74 245q3 15 3 18q0 4 -1 6.5t-4.5 3.5t-5 1.5t-7.5 1.5h-5h-67l8 30q95 7 152 45h33l-102 -336q-7 -25 -7 -31q0 -26 58 -26h24l-7 -30h-243zM717 124l30 -9l-50 -115h-280q0 21 33 50l168 143
q78 65 78 123q0 72 -68 72q-36 0 -62.5 -15t-26.5 -30q0 -13 21 -25t21 -34q0 -16 -12 -26.5t-30 -10.5q-26 0 -38 17t-12 41q0 50 51 84t106 34q58 0 94 -29t36 -78q0 -74 -99 -138l-76 -50q-74 -49 -102 -71v-2h141q21 0 29.5 3t19.5 19z" />
    <glyph glyph-name="threequarters" unicode="&#xbe;" horiz-adv-x="834" 
d="M206 -15l375 720h60l-375 -720h-60zM22 368q0 21 12 35t33 14t34 -10.5t13 -26.5q0 -27 -30 -34q-12 -3 -12 -12q0 -16 21 -23.5t47 -7.5q55 0 80.5 33.5t25.5 85.5q0 26 -11.5 45.5t-34.5 19.5q-11 0 -22 -1t-15 -1q-19 0 -19 20q0 15 18 15q7 0 19 -1.5t17 -1.5
q36 0 58.5 32t22.5 66q0 60 -64 60q-23 0 -42 -7t-19 -18q0 -6 12.5 -18t12.5 -23q0 -32 -42 -32q-18 0 -28 11t-10 28q0 41 40 65t92 24q54 0 91 -25t37 -70q0 -46 -31 -70.5t-86 -39.5v-2q39 -5 61.5 -27.5t22.5 -57.5q0 -64 -51.5 -102t-126.5 -38q-54 0 -90 23.5
t-36 71.5zM429 134l303 289h50l-84 -278h75l-10 -35h-75l-10 -30q-5 -17 -5 -32q0 -18 33 -18h27l-6 -30h-212l5 30h21q30 0 41.5 7t17.5 25l16 48h-187v24zM626 145l53 179l-2 2l-188 -181h137z" />
    <glyph glyph-name="questiondown" unicode="&#xbf;" horiz-adv-x="444" 
d="M123 224l-36 5q10 45 41.5 75.5t74.5 30.5q42 0 68 -28.5t26 -70.5q0 -54 -36 -102.5t-111 -106.5q-51 -40 -72 -67t-21 -54q0 -35 23 -55.5t58 -20.5q52 0 90.5 43t38.5 102q0 20 -1 32l35 5q1 -12 1 -30q0 -77 -47.5 -132t-125.5 -55q-57 0 -94.5 40.5t-37.5 98.5
q0 50 25.5 90.5t62.5 67.5t74 50.5t62.5 50t25.5 54.5q0 53 -44 53q-63 0 -80 -76zM188 485q0 25 18 43.5t44 18.5t44 -18.5t18 -43.5t-18 -43.5t-44 -18.5t-44 18.5t-18 43.5z" />
    <glyph glyph-name="Agrave" unicode="&#xc0;" horiz-adv-x="704" 
d="M78 179l323 558h40l123 -619q9 -45 21 -59t50 -14h33l-12 -45h-298l12 45h45q44 0 44 38q0 18 -6 42l-22 113h-260q-4 -7 -12.5 -20.5t-12.5 -20.5t-11 -19t-11 -19t-9 -16.5t-8 -15.5t-6 -13t-4 -12t-1 -9q0 -23 10.5 -34t22 -12.5t36.5 -1.5h26l-12 -45h-266l12 45
q27 0 50 11.5t43.5 36t31 40.5t28.5 46zM365 581l-167 -293h225zM508 774h-30l-124 93q-37 27 -37 46q0 13 10.5 23t25.5 10q20 0 43 -30z" />
    <glyph glyph-name="Aacute" unicode="&#xc1;" horiz-adv-x="704" 
d="M78 179l323 558h40l123 -619q9 -45 21 -59t50 -14h33l-12 -45h-298l12 45h45q44 0 44 38q0 18 -6 42l-22 113h-260q-4 -7 -12.5 -20.5t-12.5 -20.5t-11 -19t-11 -19t-9 -16.5t-8 -15.5t-6 -13t-4 -12t-1 -9q0 -23 10.5 -34t22 -12.5t36.5 -1.5h26l-12 -45h-266l12 45
q27 0 50 11.5t43.5 36t31 40.5t28.5 46zM365 581l-167 -293h225zM413 774h-35l162 161q11 11 27 11q12 0 23 -10.5t11 -23.5q0 -19 -19 -31z" />
    <glyph glyph-name="Acircumflex" unicode="&#xc2;" horiz-adv-x="704" 
d="M78 179l323 558h40l123 -619q9 -45 21 -59t50 -14h33l-12 -45h-298l12 45h45q44 0 44 38q0 18 -6 42l-22 113h-260q-4 -7 -12.5 -20.5t-12.5 -20.5t-11 -19t-11 -19t-9 -16.5t-8 -15.5t-6 -13t-4 -12t-1 -9q0 -23 10.5 -34t22 -12.5t36.5 -1.5h26l-12 -45h-266l12 45
q27 0 50 11.5t43.5 36t31 40.5t28.5 46zM365 581l-167 -293h225zM283 774l156 172h50l88 -172h-35l-83 106l-136 -106h-40z" />
    <glyph glyph-name="Atilde" unicode="&#xc3;" horiz-adv-x="704" 
d="M78 179l323 558h40l123 -619q9 -45 21 -59t50 -14h33l-12 -45h-298l12 45h45q44 0 44 38q0 18 -6 42l-22 113h-260q-4 -7 -12.5 -20.5t-12.5 -20.5t-11 -19t-11 -19t-9 -16.5t-8 -15.5t-6 -13t-4 -12t-1 -9q0 -23 10.5 -34t22 -12.5t36.5 -1.5h26l-12 -45h-266l12 45
q27 0 50 11.5t43.5 36t31 40.5t28.5 46zM365 581l-167 -293h225zM584 905h30q-7 -45 -35.5 -73.5t-69.5 -28.5q-38 0 -77 23q-42 24 -63 24q-40 0 -56 -47h-30q8 43 37 72.5t71 29.5q31 0 73 -24q41 -23 67 -23q20 0 34.5 14.5t18.5 32.5z" />
    <glyph glyph-name="Adieresis" unicode="&#xc4;" horiz-adv-x="704" 
d="M78 179l323 558h40l123 -619q9 -45 21 -59t50 -14h33l-12 -45h-298l12 45h45q44 0 44 38q0 18 -6 42l-22 113h-260q-4 -7 -12.5 -20.5t-12.5 -20.5t-11 -19t-11 -19t-9 -16.5t-8 -15.5t-6 -13t-4 -12t-1 -9q0 -23 10.5 -34t22 -12.5t36.5 -1.5h26l-12 -45h-266l12 45
q27 0 50 11.5t43.5 36t31 40.5t28.5 46zM365 581l-167 -293h225zM290 851q0 21 15 36t36 15t36 -15t15 -36t-15 -36t-36 -15t-36 15t-15 36zM488 851q0 21 15 36t36 15t36 -15t15 -36t-15 -36t-36 -15t-36 15t-15 36z" />
    <glyph glyph-name="Aring" unicode="&#xc5;" horiz-adv-x="704" 
d="M78 179l323 558h40l123 -619q9 -45 21 -59t50 -14h33l-12 -45h-298l12 45h45q44 0 44 38q0 18 -6 42l-22 113h-260q-4 -7 -12.5 -20.5t-12.5 -20.5t-11 -19t-11 -19t-9 -16.5t-8 -15.5t-6 -13t-4 -12t-1 -9q0 -23 10.5 -34t22 -12.5t36.5 -1.5h26l-12 -45h-266l12 45
q27 0 50 11.5t43.5 36t31 40.5t28.5 46zM365 581l-167 -293h225zM330 858q0 41 29.5 70.5t70.5 29.5t70.5 -29.5t29.5 -70.5t-29.5 -70.5t-70.5 -29.5t-70.5 29.5t-29.5 70.5zM365 858q0 -27 19 -46t46 -19t46 19t19 46t-19 46t-46 19t-46 -19t-19 -46z" />
    <glyph glyph-name="AE" unicode="&#xc6;" horiz-adv-x="870" 
d="M245 677l12 45h631l-41 -244h-40q0 55 -5 91t-14 58t-26.5 33t-36 14t-49.5 3h-16q-43 0 -57.5 -11.5t-21.5 -39.5q-2 -9 -63 -227h34q53 0 84 33.5t50 91.5l43 -6l-93 -329l-41 6q8 34 8 85q0 36 -17 55t-48 19h-32q-72 -261 -72 -277q0 -32 74 -32h22q63 0 109 24
t77.5 64.5t73.5 118.5l39 -7l-78 -245h-519l12 45h20q36 0 46.5 12t23.5 58l43 158h-198l-94 -140q-22 -33 -22 -49q0 -39 54 -39h23l-12 -45h-215l12 45q36 0 71 49l322 463q33 48 33 70q0 50 -70 50h-36zM216 323h175l83 289q10 33 10 54q0 11 -12 11q-3 0 -6.5 -1.5
t-7.5 -6t-6.5 -7.5t-7.5 -10.5l-7 -10.5z" />
    <glyph glyph-name="Ccedilla" unicode="&#xc7;" horiz-adv-x="722" 
d="M203 -194l18 29q38 -15 70 -15q22 0 37 13t15 34q0 14 -15.5 25t-30.5 11t-33 -7l-12 8l51 81q-122 7 -192.5 86t-70.5 203q0 83 31.5 166.5t84.5 149t129 106.5t159 41q53 0 99.5 -22t74.5 -63l59 61h35l-54 -280h-40q-1 50 -7.5 89t-23 81t-52 65.5t-86.5 23.5
q-56 0 -104.5 -32t-81 -82.5t-55.5 -111.5t-33.5 -118.5t-10.5 -104.5q0 -96 47.5 -154.5t141.5 -58.5q160 0 240 189l39 -18q-46 -110 -112 -161t-177 -55l-34 -49l2 -2q8 4 26 4q33 0 55.5 -16.5t22.5 -45.5q0 -45 -35 -68t-79 -23q-45 0 -98 21z" />
    <glyph glyph-name="Egrave" unicode="&#xc8;" horiz-adv-x="722" 
d="M116 677l12 45h572l-41 -244h-40q0 67 -12 108t-39 60.5t-56 25t-78 5.5h-40q-33 0 -45.5 -12t-19.5 -39q-2 -9 -63 -227h34q75 0 113.5 33t58.5 97l43 -4l-93 -342l-41 6q8 46 8 70q0 51 -26 73t-77 22h-32q-72 -261 -72 -277q0 -15 10.5 -22.5t20.5 -8.5t29 -1h58
q82 0 136.5 24t89 64.5t76.5 118.5l39 -7l-78 -245h-596l12 45h29q33 0 45 12t20 41q3 10 43.5 156t72 262.5t31.5 128.5q0 15 -10.5 22.5t-20.5 8.5t-29 1h-44zM517 774h-30l-124 93q-37 27 -37 46q0 13 10.5 23t25.5 10q20 0 43 -30z" />
    <glyph glyph-name="Eacute" unicode="&#xc9;" horiz-adv-x="722" 
d="M116 677l12 45h572l-41 -244h-40q0 67 -12 108t-39 60.5t-56 25t-78 5.5h-40q-33 0 -45.5 -12t-19.5 -39q-2 -9 -63 -227h34q75 0 113.5 33t58.5 97l43 -4l-93 -342l-41 6q8 46 8 70q0 51 -26 73t-77 22h-32q-72 -261 -72 -277q0 -15 10.5 -22.5t20.5 -8.5t29 -1h58
q82 0 136.5 24t89 64.5t76.5 118.5l39 -7l-78 -245h-596l12 45h29q33 0 45 12t20 41q3 10 43.5 156t72 262.5t31.5 128.5q0 15 -10.5 22.5t-20.5 8.5t-29 1h-44zM422 774h-35l162 161q11 11 27 11q12 0 23 -10.5t11 -23.5q0 -19 -19 -31z" />
    <glyph glyph-name="Ecircumflex" unicode="&#xca;" horiz-adv-x="722" 
d="M116 677l12 45h572l-41 -244h-40q0 67 -12 108t-39 60.5t-56 25t-78 5.5h-40q-33 0 -45.5 -12t-19.5 -39q-2 -9 -63 -227h34q75 0 113.5 33t58.5 97l43 -4l-93 -342l-41 6q8 46 8 70q0 51 -26 73t-77 22h-32q-72 -261 -72 -277q0 -15 10.5 -22.5t20.5 -8.5t29 -1h58
q82 0 136.5 24t89 64.5t76.5 118.5l39 -7l-78 -245h-596l12 45h29q33 0 45 12t20 41q3 10 43.5 156t72 262.5t31.5 128.5q0 15 -10.5 22.5t-20.5 8.5t-29 1h-44zM292 774l156 172h50l88 -172h-35l-83 106l-136 -106h-40z" />
    <glyph glyph-name="Edieresis" unicode="&#xcb;" horiz-adv-x="722" 
d="M116 677l12 45h572l-41 -244h-40q0 67 -12 108t-39 60.5t-56 25t-78 5.5h-40q-33 0 -45.5 -12t-19.5 -39q-2 -9 -63 -227h34q75 0 113.5 33t58.5 97l43 -4l-93 -342l-41 6q8 46 8 70q0 51 -26 73t-77 22h-32q-72 -261 -72 -277q0 -15 10.5 -22.5t20.5 -8.5t29 -1h58
q82 0 136.5 24t89 64.5t76.5 118.5l39 -7l-78 -245h-596l12 45h29q33 0 45 12t20 41q3 10 43.5 156t72 262.5t31.5 128.5q0 15 -10.5 22.5t-20.5 8.5t-29 1h-44zM314 851q0 21 15 36t36 15t36 -15t15 -36t-15 -36t-36 -15t-36 15t-15 36zM512 851q0 21 15 36t36 15t36 -15
t15 -36t-15 -36t-36 -15t-36 15t-15 36z" />
    <glyph glyph-name="Igrave" unicode="&#xcc;" horiz-adv-x="407" 
d="M116 677l12 45h307l-12 -45h-29q-33 0 -45.5 -12t-19.5 -39q-5 -19 -44 -159.5t-71 -259t-32 -130.5q0 -15 10.5 -22.5t20.5 -8.5t29 -1h44l-12 -45h-307l12 45h29q33 0 45 12t20 41q3 10 43.5 156t72 262.5t31.5 128.5q0 15 -10.5 22.5t-20.5 8.5t-29 1h-44zM359 774
h-30l-124 93q-37 27 -37 46q0 13 10.5 23t25.5 10q20 0 43 -30z" />
    <glyph glyph-name="Iacute" unicode="&#xcd;" horiz-adv-x="407" 
d="M116 677l12 45h307l-12 -45h-29q-33 0 -45.5 -12t-19.5 -39q-5 -19 -44 -159.5t-71 -259t-32 -130.5q0 -15 10.5 -22.5t20.5 -8.5t29 -1h44l-12 -45h-307l12 45h29q33 0 45 12t20 41q3 10 43.5 156t72 262.5t31.5 128.5q0 15 -10.5 22.5t-20.5 8.5t-29 1h-44zM264 774
h-35l162 161q11 11 27 11q12 0 23 -10.5t11 -23.5q0 -19 -19 -31z" />
    <glyph glyph-name="Icircumflex" unicode="&#xce;" horiz-adv-x="407" 
d="M116 677l12 45h307l-12 -45h-29q-33 0 -45.5 -12t-19.5 -39q-5 -19 -44 -159.5t-71 -259t-32 -130.5q0 -15 10.5 -22.5t20.5 -8.5t29 -1h44l-12 -45h-307l12 45h29q33 0 45 12t20 41q3 10 43.5 156t72 262.5t31.5 128.5q0 15 -10.5 22.5t-20.5 8.5t-29 1h-44zM134 774
l156 172h50l88 -172h-35l-83 106l-136 -106h-40z" />
    <glyph glyph-name="Idieresis" unicode="&#xcf;" horiz-adv-x="407" 
d="M116 677l12 45h307l-12 -45h-29q-33 0 -45.5 -12t-19.5 -39q-5 -19 -44 -159.5t-71 -259t-32 -130.5q0 -15 10.5 -22.5t20.5 -8.5t29 -1h44l-12 -45h-307l12 45h29q33 0 45 12t20 41q3 10 43.5 156t72 262.5t31.5 128.5q0 15 -10.5 22.5t-20.5 8.5t-29 1h-44zM156 851
q0 21 15 36t36 15t36 -15t15 -36t-15 -36t-36 -15t-36 15t-15 36zM354 851q0 21 15 36t36 15t36 -15t15 -36t-15 -36t-36 -15t-36 15t-15 36z" />
    <glyph glyph-name="Eth" unicode="&#xd0;" horiz-adv-x="778" 
d="M43 354l12 45h101q64 227 64 246q0 15 -10.5 22.5t-20.5 8.5t-29 1h-50l12 45h305q146 0 228.5 -69.5t82.5 -213.5q0 -114 -50.5 -214.5t-142.5 -162.5t-203 -62h-375l12 45h29q33 0 45 12t20 41q3 11 27.5 99t43.5 157h-101zM459 399l-12 -45h-194q-71 -262 -71 -277
t11.5 -22.5t24.5 -8.5t43 -1q56 0 84.5 2.5t65.5 17t70 44.5q60 55 99.5 171.5t39.5 210.5q0 186 -183 186h-43q-33 0 -45.5 -12t-19.5 -39q-11 -41 -64 -227h194z" />
    <glyph glyph-name="Ntilde" unicode="&#xd1;" horiz-adv-x="815" 
d="M540 -15l-281 613h-2l-118 -451q-6 -16 -6 -41q0 -61 104 -61l-12 -45h-276l12 45q65 3 89 29.5t42 96.5l128 474q-8 32 -58 32h-61l12 45h203l254 -560h2l102 380q13 46 13 78q0 57 -95 57l12 45h262l-12 -45q-55 -3 -78.5 -22t-38.5 -73l-163 -597h-34zM654 905h30
q-7 -45 -35.5 -73.5t-69.5 -28.5q-38 0 -77 23q-42 24 -63 24q-40 0 -56 -47h-30q8 43 37 72.5t71 29.5q31 0 73 -24q41 -23 67 -23q20 0 34.5 14.5t18.5 32.5z" />
    <glyph glyph-name="Ograve" unicode="&#xd2;" horiz-adv-x="778" 
d="M40 274q0 83 31.5 166t85.5 149t133 107t166 41q127 0 204.5 -81t77.5 -209q0 -113 -53.5 -219t-151.5 -174.5t-213 -68.5q-132 0 -206 79t-74 210zM158 219q0 -86 38.5 -137.5t123.5 -51.5q72 0 132 48.5t95 121.5t54 149t19 139q0 44 -6.5 77.5t-23.5 63.5t-50.5 46.5
t-83.5 16.5q-56 0 -106 -34t-84 -87t-59 -117t-37 -125t-12 -110zM545 774h-30l-124 93q-37 27 -37 46q0 13 10.5 23t25.5 10q20 0 43 -30z" />
    <glyph glyph-name="Oacute" unicode="&#xd3;" horiz-adv-x="778" 
d="M40 274q0 83 31.5 166t85.5 149t133 107t166 41q127 0 204.5 -81t77.5 -209q0 -113 -53.5 -219t-151.5 -174.5t-213 -68.5q-132 0 -206 79t-74 210zM158 219q0 -86 38.5 -137.5t123.5 -51.5q72 0 132 48.5t95 121.5t54 149t19 139q0 44 -6.5 77.5t-23.5 63.5t-50.5 46.5
t-83.5 16.5q-56 0 -106 -34t-84 -87t-59 -117t-37 -125t-12 -110zM450 774h-35l162 161q11 11 27 11q12 0 23 -10.5t11 -23.5q0 -19 -19 -31z" />
    <glyph glyph-name="Ocircumflex" unicode="&#xd4;" horiz-adv-x="778" 
d="M40 274q0 83 31.5 166t85.5 149t133 107t166 41q127 0 204.5 -81t77.5 -209q0 -113 -53.5 -219t-151.5 -174.5t-213 -68.5q-132 0 -206 79t-74 210zM158 219q0 -86 38.5 -137.5t123.5 -51.5q72 0 132 48.5t95 121.5t54 149t19 139q0 44 -6.5 77.5t-23.5 63.5t-50.5 46.5
t-83.5 16.5q-56 0 -106 -34t-84 -87t-59 -117t-37 -125t-12 -110zM320 774l156 172h50l88 -172h-35l-83 106l-136 -106h-40z" />
    <glyph glyph-name="Otilde" unicode="&#xd5;" horiz-adv-x="778" 
d="M40 274q0 83 31.5 166t85.5 149t133 107t166 41q127 0 204.5 -81t77.5 -209q0 -113 -53.5 -219t-151.5 -174.5t-213 -68.5q-132 0 -206 79t-74 210zM158 219q0 -86 38.5 -137.5t123.5 -51.5q72 0 132 48.5t95 121.5t54 149t19 139q0 44 -6.5 77.5t-23.5 63.5t-50.5 46.5
t-83.5 16.5q-56 0 -106 -34t-84 -87t-59 -117t-37 -125t-12 -110zM636 905h30q-7 -45 -35.5 -73.5t-69.5 -28.5q-38 0 -77 23q-42 24 -63 24q-40 0 -56 -47h-30q8 43 37 72.5t71 29.5q31 0 73 -24q41 -23 67 -23q20 0 34.5 14.5t18.5 32.5z" />
    <glyph glyph-name="Odieresis" unicode="&#xd6;" horiz-adv-x="778" 
d="M40 274q0 83 31.5 166t85.5 149t133 107t166 41q127 0 204.5 -81t77.5 -209q0 -113 -53.5 -219t-151.5 -174.5t-213 -68.5q-132 0 -206 79t-74 210zM158 219q0 -86 38.5 -137.5t123.5 -51.5q72 0 132 48.5t95 121.5t54 149t19 139q0 44 -6.5 77.5t-23.5 63.5t-50.5 46.5
t-83.5 16.5q-56 0 -106 -34t-84 -87t-59 -117t-37 -125t-12 -110zM342 851q0 21 15 36t36 15t36 -15t15 -36t-15 -36t-36 -15t-36 15t-15 36zM540 851q0 21 15 36t36 15t36 -15t15 -36t-15 -36t-36 -15t-36 15t-15 36z" />
    <glyph glyph-name="multiply" unicode="&#xd7;" horiz-adv-x="606" 
d="M251 253l-177 178l51 51l177 -178l179 178l51 -51l-179 -178l179 -178l-51 -51l-179 178l-177 -178l-51 51z" />
    <glyph glyph-name="Oslash" unicode="&#xd8;" horiz-adv-x="778" 
d="M605 596l-411 -510q38 -56 126 -56q72 0 132 48.5t95 121.5t54 149t19 139q0 68 -15 108zM172 128l409 510q-39 54 -128 54q-68 0 -126.5 -51t-94 -126.5t-55 -154t-19.5 -141.5q0 -55 14 -91zM16 -68l102 128q-78 76 -78 214q0 112 52.5 218t149.5 175.5t211 69.5
q95 0 168 -47l73 90h54l-91 -120q81 -83 81 -213q0 -113 -53.5 -219t-151.5 -174.5t-213 -68.5q-102 0 -169 48l-81 -101h-54z" />
    <glyph glyph-name="Ugrave" unicode="&#xd9;" horiz-adv-x="815" 
d="M112 289l82 308q10 37 10 48q0 15 -10.5 22.5t-20.5 8.5t-29 1h-44l12 45h325l-12 -45h-45q-33 0 -45.5 -12t-19.5 -39l-89 -323q-24 -92 -24 -137q0 -136 176 -136q52 0 91 18.5t64 54t40 72.5t28 90l74 277q13 46 13 78q0 57 -95 57l12 45h262l-12 -45
q-55 -3 -78.5 -22t-38.5 -73l-99 -366q-34 -126 -101 -178.5t-196 -52.5q-108 0 -178.5 44.5t-70.5 144.5q0 41 19 115zM563 774h-30l-124 93q-37 27 -37 46q0 13 10.5 23t25.5 10q20 0 43 -30z" />
    <glyph glyph-name="Uacute" unicode="&#xda;" horiz-adv-x="815" 
d="M112 289l82 308q10 37 10 48q0 15 -10.5 22.5t-20.5 8.5t-29 1h-44l12 45h325l-12 -45h-45q-33 0 -45.5 -12t-19.5 -39l-89 -323q-24 -92 -24 -137q0 -136 176 -136q52 0 91 18.5t64 54t40 72.5t28 90l74 277q13 46 13 78q0 57 -95 57l12 45h262l-12 -45
q-55 -3 -78.5 -22t-38.5 -73l-99 -366q-34 -126 -101 -178.5t-196 -52.5q-108 0 -178.5 44.5t-70.5 144.5q0 41 19 115zM468 774h-35l162 161q11 11 27 11q12 0 23 -10.5t11 -23.5q0 -19 -19 -31z" />
    <glyph glyph-name="Ucircumflex" unicode="&#xdb;" horiz-adv-x="815" 
d="M112 289l82 308q10 37 10 48q0 15 -10.5 22.5t-20.5 8.5t-29 1h-44l12 45h325l-12 -45h-45q-33 0 -45.5 -12t-19.5 -39l-89 -323q-24 -92 -24 -137q0 -136 176 -136q52 0 91 18.5t64 54t40 72.5t28 90l74 277q13 46 13 78q0 57 -95 57l12 45h262l-12 -45
q-55 -3 -78.5 -22t-38.5 -73l-99 -366q-34 -126 -101 -178.5t-196 -52.5q-108 0 -178.5 44.5t-70.5 144.5q0 41 19 115zM338 774l156 172h50l88 -172h-35l-83 106l-136 -106h-40z" />
    <glyph glyph-name="Udieresis" unicode="&#xdc;" horiz-adv-x="815" 
d="M112 289l82 308q10 37 10 48q0 15 -10.5 22.5t-20.5 8.5t-29 1h-44l12 45h325l-12 -45h-45q-33 0 -45.5 -12t-19.5 -39l-89 -323q-24 -92 -24 -137q0 -136 176 -136q52 0 91 18.5t64 54t40 72.5t28 90l74 277q13 46 13 78q0 57 -95 57l12 45h262l-12 -45
q-55 -3 -78.5 -22t-38.5 -73l-99 -366q-34 -126 -101 -178.5t-196 -52.5q-108 0 -178.5 44.5t-70.5 144.5q0 41 19 115zM360 851q0 21 15 36t36 15t36 -15t15 -36t-15 -36t-36 -15t-36 15t-15 36zM558 851q0 21 15 36t36 15t36 -15t15 -36t-15 -36t-36 -15t-36 15t-15 36z
" />
    <glyph glyph-name="Yacute" unicode="&#xdd;" horiz-adv-x="685" 
d="M76 0l12 45h41q47 0 60 9.5t22 43.5l58 209l-128 314q-14 31 -31 43.5t-50 12.5h-29l12 45h305l-12 -45h-44q-48 0 -48 -19q0 -10 10 -38l105 -261l176 226q24 34 24 57q0 35 -65 35h-24l12 45h278l-12 -45q-36 0 -63.5 -12.5t-43.5 -28.5t-44 -51l-218 -276l-55 -207
q-5 -22 -5 -28q0 -10 4 -16.5t13 -9t15 -3t18 -0.5h64l-12 -45h-345zM423 774h-35l162 161q11 11 27 11q12 0 23 -10.5t11 -23.5q0 -19 -19 -31z" />
    <glyph glyph-name="Thorn" unicode="&#xde;" horiz-adv-x="667" 
d="M116 677l12 45h307l-12 -45h-29q-34 0 -47 -12t-19 -39l-12 -52q57 3 62 3q249 0 249 -183q0 -63 -29 -108t-78.5 -67.5t-102 -32.5t-113.5 -10q-37 0 -97 3q-25 -93 -25 -102q0 -15 10.5 -22.5t20.5 -8.5t29 -1h44l-12 -45h-307l12 45h29q33 0 45 12t20 41
q3 10 43.5 156t72 262.5t31.5 128.5q0 15 -10.5 22.5t-20.5 8.5t-29 1h-44zM282 455l-63 -231q16 -3 68 -3q113 0 172 41t59 146q0 124 -142 124q-52 0 -66.5 -12.5t-27.5 -64.5z" />
    <glyph glyph-name="germandbls" unicode="&#xdf;" horiz-adv-x="556" 
d="M29 -187l-105 -18q34 52 78 198q33 111 77.5 283t63.5 233q34 111 94 169.5t133 58.5q64 0 109.5 -37t45.5 -100q0 -75 -40 -124.5t-113 -70.5q45 -22 71 -65.5t26 -95.5q0 -60 -22 -118t-69.5 -99.5t-108.5 -41.5q-41 0 -73 23t-32 63q0 21 14.5 38.5t35.5 17.5
q23 0 37.5 -12.5t14.5 -33.5q0 -16 -8.5 -27t-8.5 -19q0 -15 22 -15q27 0 49.5 34.5t35.5 82t20 90t7 66.5q0 51 -19 74.5t-67 35.5q-31 8 -35 15q-2 3 -2 8q0 15 21 15q7 0 25 -3t33 -3q51 0 78.5 55.5t27.5 113.5q0 98 -77 98q-30 0 -53.5 -14.5t-38.5 -35t-29.5 -58
t-22 -66.5t-19.5 -79q-2 -9 -3 -13q-48 -201 -102.5 -402t-70.5 -221z" />
    <glyph glyph-name="agrave" unicode="&#xe0;" horiz-adv-x="574" 
d="M345 325q0 39 -19.5 65t-56.5 26q-42 0 -77 -31t-55.5 -76.5t-31.5 -92t-11 -83.5q0 -47 22 -75t66 -28h2q39 0 71.5 33.5t51 82t28.5 96.5t10 83zM495 153l29 -16l-8 -17q-16 -27 -28.5 -46.5t-32 -42t-42 -34.5t-46.5 -12q-37 0 -52.5 19t-15.5 58h-2q-53 -77 -148 -77
q-68 0 -107.5 45.5t-39.5 114.5q0 68 29.5 141t88 126.5t128.5 53.5q46 0 80.5 -28.5t41.5 -72.5h2l32 86h80q-77 -245 -102 -336q-11 -39 -11 -56q0 -24 19 -24q24 0 49 27.5t43 64.5zM383 518h-30l-124 93q-37 27 -37 46q0 13 10.5 23t25.5 10q20 0 43 -30z" />
    <glyph glyph-name="aacute" unicode="&#xe1;" horiz-adv-x="574" 
d="M345 325q0 39 -19.5 65t-56.5 26q-42 0 -77 -31t-55.5 -76.5t-31.5 -92t-11 -83.5q0 -47 22 -75t66 -28h2q39 0 71.5 33.5t51 82t28.5 96.5t10 83zM495 153l29 -16l-8 -17q-16 -27 -28.5 -46.5t-32 -42t-42 -34.5t-46.5 -12q-37 0 -52.5 19t-15.5 58h-2q-53 -77 -148 -77
q-68 0 -107.5 45.5t-39.5 114.5q0 68 29.5 141t88 126.5t128.5 53.5q46 0 80.5 -28.5t41.5 -72.5h2l32 86h80q-77 -245 -102 -336q-11 -39 -11 -56q0 -24 19 -24q24 0 49 27.5t43 64.5zM288 518h-35l162 161q11 11 27 11q12 0 23 -10.5t11 -23.5q0 -19 -19 -31z" />
    <glyph glyph-name="acircumflex" unicode="&#xe2;" horiz-adv-x="574" 
d="M345 325q0 39 -19.5 65t-56.5 26q-42 0 -77 -31t-55.5 -76.5t-31.5 -92t-11 -83.5q0 -47 22 -75t66 -28h2q39 0 71.5 33.5t51 82t28.5 96.5t10 83zM495 153l29 -16l-8 -17q-16 -27 -28.5 -46.5t-32 -42t-42 -34.5t-46.5 -12q-37 0 -52.5 19t-15.5 58h-2q-53 -77 -148 -77
q-68 0 -107.5 45.5t-39.5 114.5q0 68 29.5 141t88 126.5t128.5 53.5q46 0 80.5 -28.5t41.5 -72.5h2l32 86h80q-77 -245 -102 -336q-11 -39 -11 -56q0 -24 19 -24q24 0 49 27.5t43 64.5zM158 518l156 172h50l88 -172h-35l-83 106l-136 -106h-40z" />
    <glyph glyph-name="atilde" unicode="&#xe3;" horiz-adv-x="574" 
d="M345 325q0 39 -19.5 65t-56.5 26q-42 0 -77 -31t-55.5 -76.5t-31.5 -92t-11 -83.5q0 -47 22 -75t66 -28h2q39 0 71.5 33.5t51 82t28.5 96.5t10 83zM495 153l29 -16l-8 -17q-16 -27 -28.5 -46.5t-32 -42t-42 -34.5t-46.5 -12q-37 0 -52.5 19t-15.5 58h-2q-53 -77 -148 -77
q-68 0 -107.5 45.5t-39.5 114.5q0 68 29.5 141t88 126.5t128.5 53.5q46 0 80.5 -28.5t41.5 -72.5h2l32 86h80q-77 -245 -102 -336q-11 -39 -11 -56q0 -24 19 -24q24 0 49 27.5t43 64.5zM474 649h30q-7 -45 -35.5 -73.5t-69.5 -28.5q-38 0 -77 23q-42 24 -63 24
q-40 0 -56 -47h-30q8 43 37 72.5t71 29.5q31 0 73 -24q41 -23 67 -23q20 0 34.5 14.5t18.5 32.5z" />
    <glyph glyph-name="adieresis" unicode="&#xe4;" horiz-adv-x="574" 
d="M345 325q0 39 -19.5 65t-56.5 26q-42 0 -77 -31t-55.5 -76.5t-31.5 -92t-11 -83.5q0 -47 22 -75t66 -28h2q39 0 71.5 33.5t51 82t28.5 96.5t10 83zM495 153l29 -16l-8 -17q-16 -27 -28.5 -46.5t-32 -42t-42 -34.5t-46.5 -12q-37 0 -52.5 19t-15.5 58h-2q-53 -77 -148 -77
q-68 0 -107.5 45.5t-39.5 114.5q0 68 29.5 141t88 126.5t128.5 53.5q46 0 80.5 -28.5t41.5 -72.5h2l32 86h80q-77 -245 -102 -336q-11 -39 -11 -56q0 -24 19 -24q24 0 49 27.5t43 64.5zM180 595q0 21 15 36t36 15t36 -15t15 -36t-15 -36t-36 -15t-36 15t-15 36zM378 595
q0 21 15 36t36 15t36 -15t15 -36t-15 -36t-36 -15t-36 15t-15 36z" />
    <glyph glyph-name="aring" unicode="&#xe5;" horiz-adv-x="574" 
d="M345 325q0 39 -19.5 65t-56.5 26q-42 0 -77 -31t-55.5 -76.5t-31.5 -92t-11 -83.5q0 -47 22 -75t66 -28h2q39 0 71.5 33.5t51 82t28.5 96.5t10 83zM495 153l29 -16l-8 -17q-16 -27 -28.5 -46.5t-32 -42t-42 -34.5t-46.5 -12q-37 0 -52.5 19t-15.5 58h-2q-53 -77 -148 -77
q-68 0 -107.5 45.5t-39.5 114.5q0 68 29.5 141t88 126.5t128.5 53.5q46 0 80.5 -28.5t41.5 -72.5h2l32 86h80q-77 -245 -102 -336q-11 -39 -11 -56q0 -24 19 -24q24 0 49 27.5t43 64.5zM235 612q0 41 29.5 70.5t70.5 29.5t70.5 -29.5t29.5 -70.5t-29.5 -70.5t-70.5 -29.5
t-70.5 29.5t-29.5 70.5zM270 612q0 -27 19 -46t46 -19t46 19t19 46t-19 46t-46 19t-46 -19t-19 -46z" />
    <glyph glyph-name="ae" unicode="&#xe6;" horiz-adv-x="722" 
d="M296 221q-117 -18 -162 -42q-60 -32 -60 -87q0 -31 19 -46.5t49 -15.5q47 0 82 36t51 86zM376 228q39 7 59.5 11t54 15.5t51 26t31.5 40.5t14 60q0 24 -14.5 37t-38.5 13q-14 0 -27.5 -4t-23.5 -9.5t-21 -17t-18 -19.5t-15.5 -24.5t-13 -24.5t-12 -28t-10 -26.5t-9 -26.5
t-7.5 -23zM613 111l26 -23q-51 -54 -93.5 -78.5t-106.5 -24.5q-58 0 -99 25t-52 78q-71 -103 -180 -103q-54 0 -90 25.5t-36 77.5q0 32 15.5 58t44 43t58 29t70 19.5t66.5 11t60 7.5q3 0 5.5 0.5t4.5 0.5q16 69 16 91q0 38 -30 60.5t-70 22.5q-9 0 -19.5 -1t-24.5 -4
t-23.5 -10t-9.5 -16q0 -4 11.5 -16.5t11.5 -35.5q0 -24 -13.5 -36.5t-36.5 -12.5q-25 0 -38.5 16t-13.5 41q0 53 49 81.5t106 28.5q106 0 157 -72q35 33 82 52.5t94 19.5q45 0 78.5 -24.5t33.5 -68.5q0 -33 -14 -59.5t-41 -45t-54.5 -31.5t-66 -22t-63 -13.5t-58.5 -9.5
q-9 -32 -9 -66q0 -96 103 -96q73 0 150 81z" />
    <glyph glyph-name="ccedilla" unicode="&#xe7;" horiz-adv-x="444" 
d="M34 -194l18 29q38 -15 70 -15q22 0 37 13t15 34q0 14 -15.5 25t-30.5 11q-16 0 -33 -7l-12 8l54 81q-65 12 -100 61.5t-35 121.5q0 70 33.5 138.5t94.5 114t131 45.5q50 0 91.5 -26.5t41.5 -74.5q0 -35 -18.5 -55.5t-40.5 -20.5q-23 0 -38.5 12.5t-15.5 34.5q0 34 30 42
q23 6 23 20t-21 23.5t-39 9.5q-44 0 -80.5 -29.5t-57 -75t-31.5 -92.5t-11 -89q0 -50 24.5 -82.5t73.5 -32.5q41 0 83 30.5t65 68.5l28 -21q-35 -53 -85.5 -87.5t-108.5 -35.5l-34 -49l2 -2q8 4 26 4q33 0 55.5 -16.5t22.5 -45.5q0 -45 -35 -68t-79 -23q-45 0 -98 21z" />
    <glyph glyph-name="egrave" unicode="&#xe8;" horiz-adv-x="444" 
d="M340 114l23 -26q-86 -103 -193 -103q-79 0 -127.5 45t-48.5 123q0 128 84 220.5t189 92.5q51 0 86 -25t35 -75q0 -31 -14.5 -57.5t-42.5 -46.5t-55 -34t-67.5 -26t-63 -18t-57.5 -13q-2 -18 -2 -26q0 -115 103 -115q75 0 151 84zM93 206q102 20 158.5 62.5t56.5 103.5
q0 27 -14.5 43t-40.5 16q-36 0 -66 -23t-48.5 -59t-29.5 -72t-16 -71zM318 518h-30l-124 93q-37 27 -37 46q0 13 10.5 23t25.5 10q20 0 43 -30z" />
    <glyph glyph-name="eacute" unicode="&#xe9;" horiz-adv-x="444" 
d="M340 114l23 -26q-86 -103 -193 -103q-79 0 -127.5 45t-48.5 123q0 128 84 220.5t189 92.5q51 0 86 -25t35 -75q0 -31 -14.5 -57.5t-42.5 -46.5t-55 -34t-67.5 -26t-63 -18t-57.5 -13q-2 -18 -2 -26q0 -115 103 -115q75 0 151 84zM93 206q102 20 158.5 62.5t56.5 103.5
q0 27 -14.5 43t-40.5 16q-36 0 -66 -23t-48.5 -59t-29.5 -72t-16 -71zM223 518h-35l162 161q11 11 27 11q12 0 23 -10.5t11 -23.5q0 -19 -19 -31z" />
    <glyph glyph-name="ecircumflex" unicode="&#xea;" horiz-adv-x="444" 
d="M340 114l23 -26q-86 -103 -193 -103q-79 0 -127.5 45t-48.5 123q0 128 84 220.5t189 92.5q51 0 86 -25t35 -75q0 -31 -14.5 -57.5t-42.5 -46.5t-55 -34t-67.5 -26t-63 -18t-57.5 -13q-2 -18 -2 -26q0 -115 103 -115q75 0 151 84zM93 206q102 20 158.5 62.5t56.5 103.5
q0 27 -14.5 43t-40.5 16q-36 0 -66 -23t-48.5 -59t-29.5 -72t-16 -71zM93 518l156 172h50l88 -172h-35l-83 106l-136 -106h-40z" />
    <glyph glyph-name="edieresis" unicode="&#xeb;" horiz-adv-x="444" 
d="M340 114l23 -26q-86 -103 -193 -103q-79 0 -127.5 45t-48.5 123q0 128 84 220.5t189 92.5q51 0 86 -25t35 -75q0 -31 -14.5 -57.5t-42.5 -46.5t-55 -34t-67.5 -26t-63 -18t-57.5 -13q-2 -18 -2 -26q0 -115 103 -115q75 0 151 84zM93 206q102 20 158.5 62.5t56.5 103.5
q0 27 -14.5 43t-40.5 16q-36 0 -66 -23t-48.5 -59t-29.5 -72t-16 -71zM115 595q0 21 15 36t36 15t36 -15t15 -36t-15 -36t-36 -15t-36 15t-15 36zM313 595q0 21 15 36t36 15t36 -15t15 -36t-15 -36t-36 -15t-36 15t-15 36z" />
    <glyph glyph-name="igrave" unicode="&#xec;" 
d="M253 155l29 -17q-10 -18 -25 -39t-40 -49.5t-56.5 -46.5t-62.5 -18q-69 0 -69 68q0 28 13 73l73 234q7 23 7 34q0 10 -7.5 15.5t-14.5 6t-22 0.5h-39l9 35l186 15l-115 -363q-10 -30 -10 -43q0 -25 23 -25q10 0 22.5 7.5t22.5 16.5t23.5 25.5t20.5 26t19 26t13 18.5z
M262 518h-30l-124 93q-37 27 -37 46q0 13 10.5 23t25.5 10q20 0 43 -30z" />
    <glyph glyph-name="iacute" unicode="&#xed;" 
d="M253 155l29 -17q-10 -18 -25 -39t-40 -49.5t-56.5 -46.5t-62.5 -18q-69 0 -69 68q0 28 13 73l73 234q7 23 7 34q0 10 -7.5 15.5t-14.5 6t-22 0.5h-39l9 35l186 15l-115 -363q-10 -30 -10 -43q0 -25 23 -25q10 0 22.5 7.5t22.5 16.5t23.5 25.5t20.5 26t19 26t13 18.5z
M167 518h-35l162 161q11 11 27 11q12 0 23 -10.5t11 -23.5q0 -19 -19 -31z" />
    <glyph glyph-name="icircumflex" unicode="&#xee;" 
d="M253 155l29 -17q-10 -18 -25 -39t-40 -49.5t-56.5 -46.5t-62.5 -18q-69 0 -69 68q0 28 13 73l73 234q7 23 7 34q0 10 -7.5 15.5t-14.5 6t-22 0.5h-39l9 35l186 15l-115 -363q-10 -30 -10 -43q0 -25 23 -25q10 0 22.5 7.5t22.5 16.5t23.5 25.5t20.5 26t19 26t13 18.5z
M37 518l156 172h50l88 -172h-35l-83 106l-136 -106h-40z" />
    <glyph glyph-name="idieresis" unicode="&#xef;" 
d="M253 155l29 -17q-10 -18 -25 -39t-40 -49.5t-56.5 -46.5t-62.5 -18q-69 0 -69 68q0 28 13 73l73 234q7 23 7 34q0 10 -7.5 15.5t-14.5 6t-22 0.5h-39l9 35l186 15l-115 -363q-10 -30 -10 -43q0 -25 23 -25q10 0 22.5 7.5t22.5 16.5t23.5 25.5t20.5 26t19 26t13 18.5z
M59 595q0 21 15 36t36 15t36 -15t15 -36t-15 -36t-36 -15t-36 15t-15 36zM257 595q0 21 15 36t36 15t36 -15t15 -36t-15 -36t-36 -15t-36 15t-15 36z" />
    <glyph glyph-name="eth" unicode="&#xf0;" horiz-adv-x="500" 
d="M94 132q0 -112 96 -112q40 0 74 32.5t53.5 80.5t30 95.5t10.5 83.5q0 119 -95 119q-41 0 -75 -34t-53.5 -83t-30 -97.5t-10.5 -84.5zM187 549l-30 35l89 46q-56 49 -131 72l11 35q103 -19 176 -79l91 46l30 -35l-87 -44q114 -123 114 -325q0 -124 -74 -219.5t-191 -95.5
q-88 0 -135.5 50t-47.5 140q0 108 78 199.5t185 91.5q58 0 91 -32l2 2q-20 92 -79 160z" />
    <glyph glyph-name="ntilde" unicode="&#xf1;" horiz-adv-x="611" 
d="M534 149l28 -18q-91 -146 -176 -146q-35 0 -54 21.5t-19 57.5q0 24 44.5 152.5t44.5 156.5q0 19 -11.5 31t-30.5 12q-44 0 -91 -46t-73 -96q-11 -21 -21 -45.5t-16.5 -41t-16 -49.5t-12 -43t-13 -50.5t-11.5 -44.5h-92l92 291q23 71 23 97q0 28 -45 28h-42l11 35l174 15
l-29 -131h2q27 33 40.5 48t40.5 39t54.5 34t59.5 10q43 0 65 -28t22 -68q0 -37 -44.5 -170t-44.5 -144q0 -21 25 -21q42 0 116 114zM492 649h30q-7 -45 -35.5 -73.5t-69.5 -28.5q-38 0 -77 23q-42 24 -63 24q-40 0 -56 -47h-30q8 43 37 72.5t71 29.5q31 0 73 -24
q41 -23 67 -23q20 0 34.5 14.5t18.5 32.5z" />
    <glyph glyph-name="ograve" unicode="&#xf2;" horiz-adv-x="500" 
d="M450 274q0 -109 -78.5 -199t-186.5 -90q-88 0 -135.5 50t-47.5 140q0 108 78 199.5t185 91.5q83 0 134 -54.5t51 -137.5zM190 20q40 0 74 32.5t53.5 80.5t30 95.5t10.5 83.5q0 119 -95 119q-41 0 -75 -34t-53.5 -83t-30 -97.5t-10.5 -84.5q0 -112 96 -112zM346 518h-30
l-124 93q-37 27 -37 46q0 13 10.5 23t25.5 10q20 0 43 -30z" />
    <glyph glyph-name="oacute" unicode="&#xf3;" horiz-adv-x="500" 
d="M450 274q0 -109 -78.5 -199t-186.5 -90q-88 0 -135.5 50t-47.5 140q0 108 78 199.5t185 91.5q83 0 134 -54.5t51 -137.5zM190 20q40 0 74 32.5t53.5 80.5t30 95.5t10.5 83.5q0 119 -95 119q-41 0 -75 -34t-53.5 -83t-30 -97.5t-10.5 -84.5q0 -112 96 -112zM251 518h-35
l162 161q11 11 27 11q12 0 23 -10.5t11 -23.5q0 -19 -19 -31z" />
    <glyph glyph-name="ocircumflex" unicode="&#xf4;" horiz-adv-x="500" 
d="M450 274q0 -109 -78.5 -199t-186.5 -90q-88 0 -135.5 50t-47.5 140q0 108 78 199.5t185 91.5q83 0 134 -54.5t51 -137.5zM190 20q40 0 74 32.5t53.5 80.5t30 95.5t10.5 83.5q0 119 -95 119q-41 0 -75 -34t-53.5 -83t-30 -97.5t-10.5 -84.5q0 -112 96 -112zM121 518
l156 172h50l88 -172h-35l-83 106l-136 -106h-40z" />
    <glyph glyph-name="otilde" unicode="&#xf5;" horiz-adv-x="500" 
d="M450 274q0 -109 -78.5 -199t-186.5 -90q-88 0 -135.5 50t-47.5 140q0 108 78 199.5t185 91.5q83 0 134 -54.5t51 -137.5zM190 20q40 0 74 32.5t53.5 80.5t30 95.5t10.5 83.5q0 119 -95 119q-41 0 -75 -34t-53.5 -83t-30 -97.5t-10.5 -84.5q0 -112 96 -112zM437 649h30
q-7 -45 -35.5 -73.5t-69.5 -28.5q-38 0 -77 23q-42 24 -63 24q-40 0 -56 -47h-30q8 43 37 72.5t71 29.5q31 0 73 -24q41 -23 67 -23q20 0 34.5 14.5t18.5 32.5z" />
    <glyph glyph-name="odieresis" unicode="&#xf6;" horiz-adv-x="500" 
d="M450 274q0 -109 -78.5 -199t-186.5 -90q-88 0 -135.5 50t-47.5 140q0 108 78 199.5t185 91.5q83 0 134 -54.5t51 -137.5zM190 20q40 0 74 32.5t53.5 80.5t30 95.5t10.5 83.5q0 119 -95 119q-41 0 -75 -34t-53.5 -83t-30 -97.5t-10.5 -84.5q0 -112 96 -112zM143 595
q0 21 15 36t36 15t36 -15t15 -36t-15 -36t-36 -15t-36 15t-15 36zM341 595q0 21 15 36t36 15t36 -15t15 -36t-15 -36t-36 -15t-36 15t-15 36z" />
    <glyph glyph-name="divide" unicode="&#xf7;" horiz-adv-x="606" 
d="M50 217v72h506v-72h-506zM235 460q0 28 19.5 48t48.5 20t48.5 -20t19.5 -48t-19.5 -48t-48.5 -20t-48.5 20t-19.5 48zM235 46q0 28 19.5 48t48.5 20t48.5 -20t19.5 -48t-19.5 -48t-48.5 -20t-48.5 20t-19.5 48z" />
    <glyph glyph-name="oslash" unicode="&#xf8;" horiz-adv-x="500" 
d="M338 394l-204 -360q22 -14 56 -14q40 0 74 32.5t53.5 80.5t30 95.5t10.5 83.5q0 53 -20 82zM109 61l203 358q-20 12 -49 12q-41 0 -75 -34t-53.5 -83t-30 -97.5t-10.5 -84.5q0 -45 15 -71zM6 -121l75 132q-79 44 -79 164q0 108 78 199.5t185 91.5q39 0 67 -12l54 95h40
l-62 -110q86 -52 86 -165q0 -109 -78.5 -199t-186.5 -90q-41 0 -72 12l-67 -118h-40z" />
    <glyph glyph-name="ugrave" unicode="&#xf9;" horiz-adv-x="611" 
d="M46 416l9 35l186 15l-96 -298q-1 -4 -7.5 -22t-10 -32t-3.5 -26q0 -53 50 -53q33 0 72 37.5t65 77.5q48 75 116 308h92l-109 -321q-16 -45 -16 -72q0 -30 21 -30q13 0 37 22t46 52l30 41l28 -18q-93 -147 -174 -147q-68 0 -68 65q0 23 8 59h-2q-91 -124 -182 -124
q-44 0 -69 24.5t-25 64.5q0 31 18 92l60 194q7 23 7 34q0 10 -5.5 15t-12 6t-20.5 1h-45zM401 518h-30l-124 93q-37 27 -37 46q0 13 10.5 23t25.5 10q20 0 43 -30z" />
    <glyph glyph-name="uacute" unicode="&#xfa;" horiz-adv-x="611" 
d="M46 416l9 35l186 15l-96 -298q-1 -4 -7.5 -22t-10 -32t-3.5 -26q0 -53 50 -53q33 0 72 37.5t65 77.5q48 75 116 308h92l-109 -321q-16 -45 -16 -72q0 -30 21 -30q13 0 37 22t46 52l30 41l28 -18q-93 -147 -174 -147q-68 0 -68 65q0 23 8 59h-2q-91 -124 -182 -124
q-44 0 -69 24.5t-25 64.5q0 31 18 92l60 194q7 23 7 34q0 10 -5.5 15t-12 6t-20.5 1h-45zM306 518h-35l162 161q11 11 27 11q12 0 23 -10.5t11 -23.5q0 -19 -19 -31z" />
    <glyph glyph-name="ucircumflex" unicode="&#xfb;" horiz-adv-x="611" 
d="M46 416l9 35l186 15l-96 -298q-1 -4 -7.5 -22t-10 -32t-3.5 -26q0 -53 50 -53q33 0 72 37.5t65 77.5q48 75 116 308h92l-109 -321q-16 -45 -16 -72q0 -30 21 -30q13 0 37 22t46 52l30 41l28 -18q-93 -147 -174 -147q-68 0 -68 65q0 23 8 59h-2q-91 -124 -182 -124
q-44 0 -69 24.5t-25 64.5q0 31 18 92l60 194q7 23 7 34q0 10 -5.5 15t-12 6t-20.5 1h-45zM176 518l156 172h50l88 -172h-35l-83 106l-136 -106h-40z" />
    <glyph glyph-name="udieresis" unicode="&#xfc;" horiz-adv-x="611" 
d="M46 416l9 35l186 15l-96 -298q-1 -4 -7.5 -22t-10 -32t-3.5 -26q0 -53 50 -53q33 0 72 37.5t65 77.5q48 75 116 308h92l-109 -321q-16 -45 -16 -72q0 -30 21 -30q13 0 37 22t46 52l30 41l28 -18q-93 -147 -174 -147q-68 0 -68 65q0 23 8 59h-2q-91 -124 -182 -124
q-44 0 -69 24.5t-25 64.5q0 31 18 92l60 194q7 23 7 34q0 10 -5.5 15t-12 6t-20.5 1h-45zM198 595q0 21 15 36t36 15t36 -15t15 -36t-15 -36t-36 -15t-36 15t-15 36zM396 595q0 21 15 36t36 15t36 -15t15 -36t-15 -36t-36 -15t-36 15t-15 36z" />
    <glyph glyph-name="yacute" unicode="&#xfd;" horiz-adv-x="500" 
d="M22 291l-30 14q62 161 129 161q36 0 58 -47.5t51 -174.5l35 -143h2q97 169 97 236q0 14 -3 41.5t-3 41.5q0 20 14 33t35 13q19 0 31 -15.5t12 -41.5q0 -35 -38 -108q-95 -192 -175 -315q-23 -35 -30.5 -46.5t-29.5 -41.5t-36.5 -42.5t-37.5 -30t-47 -24t-52 -6.5
q-37 0 -62 21t-25 47q0 24 13 40.5t37 16.5q20 0 33.5 -12.5t13.5 -31.5q0 -4 -2.5 -13.5t-2.5 -13.5q0 -14 23 -14q73 0 166 163q-34 184 -66 301q-16 57 -23.5 72t-21.5 15q-23 0 -65 -95zM251 518h-35l162 161q11 11 27 11q12 0 23 -10.5t11 -23.5q0 -19 -19 -31z" />
    <glyph glyph-name="thorn" unicode="&#xfe;" horiz-adv-x="574" 
d="M144 -165l-11 -40h-234l11 40h36q15 0 22.5 10t14.5 33q19 63 79.5 273.5t88.5 305.5q11 36 22 74t16.5 54.5t10 33.5t6 25t1.5 15q0 28 -45 28h-42l11 35l196 15l-127 -367h2q19 37 69 66.5t92 29.5q68 0 105.5 -45.5t37.5 -118.5q0 -71 -30 -143t-90.5 -123t-134.5 -51
q-44 0 -79.5 19t-48.5 57h-2l-52 -178q-6 -21 -6 -28q0 -20 32 -20h49zM148 126q0 -42 22 -69t64 -27q45 0 81.5 33.5t57 82.5t31 96.5t10.5 82.5q0 40 -20.5 65.5t-59.5 25.5q-54 0 -98.5 -54.5t-66 -120t-21.5 -115.5z" />
    <glyph glyph-name="ydieresis" unicode="&#xff;" horiz-adv-x="500" 
d="M22 291l-30 14q62 161 129 161q36 0 58 -47.5t51 -174.5l35 -143h2q97 169 97 236q0 14 -3 41.5t-3 41.5q0 20 14 33t35 13q19 0 31 -15.5t12 -41.5q0 -35 -38 -108q-95 -192 -175 -315q-23 -35 -30.5 -46.5t-29.5 -41.5t-36.5 -42.5t-37.5 -30t-47 -24t-52 -6.5
q-37 0 -62 21t-25 47q0 24 13 40.5t37 16.5q20 0 33.5 -12.5t13.5 -31.5q0 -4 -2.5 -13.5t-2.5 -13.5q0 -14 23 -14q73 0 166 163q-34 184 -66 301q-16 57 -23.5 72t-21.5 15q-23 0 -65 -95zM143 595q0 21 15 36t36 15t36 -15t15 -36t-15 -36t-36 -15t-36 15t-15 36z
M341 595q0 21 15 36t36 15t36 -15t15 -36t-15 -36t-36 -15t-36 15t-15 36z" />
    <glyph glyph-name="dotlessi" unicode="&#x131;" 
d="M253 155l29 -17q-10 -18 -25 -39t-40 -49.5t-56.5 -46.5t-62.5 -18q-69 0 -69 68q0 28 13 73l73 234q7 23 7 34q0 10 -7.5 15.5t-14.5 6t-22 0.5h-39l9 35l186 15l-115 -363q-10 -30 -10 -43q0 -25 23 -25q10 0 22.5 7.5t22.5 16.5t23.5 25.5t20.5 26t19 26t13 18.5z" />
    <glyph glyph-name="Lslash" unicode="&#x141;" horiz-adv-x="667" 
d="M116 677l12 45h331l-12 -45h-53q-33 0 -45.5 -12t-19.5 -39q-4 -18 -81 -292l204 170l-16 -73l-209 -170l-45 -184q0 -15 10.5 -22.5t20.5 -8.5t29 -1h44q82 0 136.5 24t89 64.5t76.5 118.5l39 -7l-78 -245h-582l12 45h29q33 0 45 12t20 41l27 100l-104 -76l20 73l104 76
q100 352 100 374q0 15 -10.5 22.5t-20.5 8.5t-29 1h-44z" />
    <glyph glyph-name="lslash" unicode="&#x142;" 
d="M292 737l-83 -277l85 76l-14 -73l-94 -77l-73 -240q-19 -62 -19 -86q0 -25 23 -25q10 0 22.5 7.5t22.5 16.5t23.5 25.5t20.5 26t19 26t13 18.5l29 -17q-10 -18 -25 -39t-40 -49.5t-56.5 -46.5t-62.5 -18q-69 0 -69 68q0 40 17 96l55 189l-88 -62l15 73l95 63l61 196
q11 36 11 57q0 10 -7.5 15.5t-14.5 6t-22 0.5h-45l9 35z" />
    <glyph glyph-name="OE" unicode="&#x152;" horiz-adv-x="981" 
d="M934 478h-40q0 55 -5 91t-14 58t-26.5 33t-36 14t-49.5 3h-16q-43 0 -57.5 -11.5t-21.5 -39.5q-2 -9 -63 -227h34q53 0 84 33.5t50 91.5l43 -6l-93 -329l-41 6q8 34 8 85q0 36 -17 55t-48 19h-32q-72 -261 -72 -277q0 -32 74 -32h22q63 0 109 24t77.5 64.5t73.5 118.5
l39 -7l-78 -245h-530q-129 0 -198.5 79t-69.5 209q0 79 28 155t80 139t134.5 101.5t182.5 38.5h510zM435 171l98 358q13 55 13 62q0 46 -25.5 66t-76.5 20q-69 0 -126 -48.5t-90.5 -120.5t-51.5 -146.5t-18 -136.5q0 -74 39 -127t111 -53q60 0 84.5 29.5t42.5 96.5z" />
    <glyph glyph-name="oe" unicode="&#x153;" horiz-adv-x="778" 
d="M673 114l23 -26q-86 -103 -193 -103q-105 0 -153 70q-72 -70 -165 -70q-88 0 -135.5 50t-47.5 140q0 108 78 199.5t185 91.5q48 0 89 -23t64 -62q78 85 185 85q49 0 84 -25t35 -75q0 -31 -14.5 -57.5t-42.5 -46.5t-55 -34t-67.5 -26t-63.5 -18t-58 -13q-2 -18 -2 -26
q0 -115 103 -115q75 0 151 84zM94 132q0 -112 95 -112q40 0 74 32.5t53.5 80.5t30 95.5t10.5 83.5q0 119 -95 119q-40 0 -74 -34t-53.5 -83t-30 -97.5t-10.5 -84.5zM642 372q0 27 -14.5 43t-41.5 16q-47 0 -83.5 -40.5t-52.5 -88.5t-21 -96q101 20 157 62.5t56 103.5z" />
    <glyph glyph-name="Scaron" unicode="&#x160;" horiz-adv-x="667" 
d="M-6 0l60 283l40 -7v-32q0 -95 54.5 -154.5t153.5 -59.5q74 0 124 36t50 106q0 47 -36.5 77.5t-88 49t-103.5 40t-88.5 65t-37.5 108.5q0 96 68 160.5t165 64.5q119 0 186 -77l61 53h36l-59 -259l-40 7v25q0 91 -43.5 148.5t-132.5 57.5q-67 0 -111 -35.5t-44 -99.5
q0 -38 26.5 -65t66.5 -41t87 -33t87 -40t66.5 -62.5t26.5 -99.5q0 -109 -79.5 -170t-191.5 -61q-119 0 -203 79l-65 -64h-35zM442 774h-45l-97 172h35l92 -106l143 106h35z" />
    <glyph glyph-name="scaron" unicode="&#x161;" horiz-adv-x="444" 
d="M136 345q0 -29 22.5 -44t81.5 -37q4 -1 6 -2q52 -19 81.5 -46t29.5 -75q0 -74 -55.5 -115t-132.5 -41q-39 0 -74 8.5t-64 34t-29 65.5q0 28 14.5 49t43.5 21q22 0 36.5 -11.5t14.5 -31.5q0 -24 -14.5 -36.5t-14.5 -22.5q0 -20 26.5 -30.5t56.5 -10.5q50 0 85 21.5
t35 68.5q0 32 -23.5 48.5t-86.5 40.5q-25 10 -41 18t-34 22t-27 34.5t-9 47.5q0 69 53.5 107t124.5 38q36 0 68.5 -8.5t58 -33t25.5 -60.5q0 -25 -13.5 -41.5t-39.5 -16.5q-23 0 -38 10.5t-15 31.5q0 19 13 33t13 21q0 29 -69 29q-45 0 -77 -21.5t-32 -64.5zM271 518h-45
l-97 172h35l92 -106l143 106h35z" />
    <glyph glyph-name="Ydieresis" unicode="&#x178;" horiz-adv-x="685" 
d="M76 0l12 45h41q47 0 60 9.5t22 43.5l58 209l-128 314q-14 31 -31 43.5t-50 12.5h-29l12 45h305l-12 -45h-44q-48 0 -48 -19q0 -10 10 -38l105 -261l176 226q24 34 24 57q0 35 -65 35h-24l12 45h278l-12 -45q-36 0 -63.5 -12.5t-43.5 -28.5t-44 -51l-218 -276l-55 -207
q-5 -22 -5 -28q0 -10 4 -16.5t13 -9t15 -3t18 -0.5h64l-12 -45h-345zM295 851q0 21 15 36t36 15t36 -15t15 -36t-15 -36t-36 -15t-36 15t-15 36zM493 851q0 21 15 36t36 15t36 -15t15 -36t-15 -36t-36 -15t-36 15t-15 36z" />
    <glyph glyph-name="Zcaron" unicode="&#x17d;" horiz-adv-x="667" 
d="M611 256l-83 -256h-553l7 40l535 637h-109q-63 0 -107.5 -13t-77 -43.5t-52.5 -61.5t-48 -87l-40 10l81 240h503l-7 -40l-537 -637h157q60 0 102 12t75.5 43t56.5 66t57 100zM442 774h-45l-97 172h35l92 -106l143 106h35z" />
    <glyph glyph-name="zcaron" unicode="&#x17e;" horiz-adv-x="463" 
d="M55 314l-32 15l10 17q33 57 68.5 88.5t85.5 31.5q29 0 79 -25q52 -26 75 -26q10 0 16.5 4.5t8 8.5t3.5 13q6 25 27 25q20 0 20 -22q0 -39 -64.5 -115.5t-117.5 -108.5l-124 -76q-31 -19 -70 -60h2q20 10 60 10q46 0 91 -18q47 -19 74 -19q29 0 52 28.5t36 62.5l33 -12
q-59 -151 -161 -151q-38 0 -81.5 16t-74.5 32t-39 16q-15 0 -15 -24q0 -40 -28 -40q-22 0 -22 28q0 37 69.5 114.5t126.5 113.5l120 75q41 26 64 54h-2q-21 -10 -60 -10q-28 0 -79.5 17t-65.5 17q-19 0 -37 -15t-26.5 -28.5t-21.5 -36.5zM280 518h-45l-97 172h35l92 -106
l143 106h35z" />
    <glyph glyph-name="florin" unicode="&#x192;" horiz-adv-x="556" 
d="M113 393l8 40h119q11 48 21 82t30 79.5t43 73.5t60.5 48.5t82.5 20.5q39 0 65.5 -19t26.5 -55q0 -24 -18.5 -42t-46.5 -18q-18 0 -31 10.5t-13 27.5q0 19 10.5 31.5t10.5 15.5q0 9 -18 9q-24 0 -44 -16.5t-33 -43.5t-20 -49.5t-12 -46.5l-21 -108h133l-7 -40h-135
l-59 -305q-27 -140 -89.5 -216.5t-139.5 -76.5q-94 0 -94 76q0 22 18.5 40.5t41.5 18.5q21 0 35 -10.5t14 -27.5q0 -20 -11.5 -31.5t-11.5 -15.5q0 -10 20 -10t36.5 11t29.5 35t21 41t16.5 52.5t10 43.5t7.5 38l63 337h-119z" />
    <glyph glyph-name="circumflex" unicode="&#x2c6;" 
d="M37 518l156 172h50l88 -172h-35l-83 106l-136 -106h-40z" />
    <glyph glyph-name="caron" unicode="&#x2c7;" 
d="M215 518h-45l-97 172h35l92 -106l143 106h35z" />
    <glyph glyph-name="uni02C9" unicode="&#x2c9;" 
d="M52 560l11 50h300l-11 -50h-300z" />
    <glyph glyph-name="breve" unicode="&#x2d8;" 
d="M69 677h30q8 -99 109 -99q45 0 81.5 28t50.5 71h30q-15 -70 -57.5 -114.5t-109.5 -44.5q-63 0 -98 35.5t-36 123.5z" />
    <glyph glyph-name="dotaccent" unicode="&#x2d9;" 
d="M146 662q0 21 15.5 37t36.5 16q22 0 39.5 -16t17.5 -37q0 -22 -17 -39t-39 -17q-21 0 -37 17t-16 39z" />
    <glyph glyph-name="ring" unicode="&#x2da;" 
d="M114 612q0 41 29.5 70.5t70.5 29.5t70.5 -29.5t29.5 -70.5t-29.5 -70.5t-70.5 -29.5t-70.5 29.5t-29.5 70.5zM149 612q0 -27 19 -46t46 -19t46 19t19 46t-19 46t-46 19t-46 -19t-19 -46z" />
    <glyph glyph-name="ogonek" unicode="&#x2db;" 
d="M311 -91l23 -19q-81 -110 -162 -110h-2q-27 0 -53 6t-48.5 25t-22.5 49q0 40 35 83t74 61h67q-83 -52 -83 -124q0 -28 13.5 -41.5t32.5 -13.5q23 0 60 25t66 59z" />
    <glyph glyph-name="tilde" unicode="&#x2dc;" 
d="M353 649h30q-7 -45 -35.5 -73.5t-69.5 -28.5q-38 0 -77 23q-42 24 -63 24q-40 0 -56 -47h-30q8 43 37 72.5t71 29.5q31 0 73 -24q41 -23 67 -23q20 0 34.5 14.5t18.5 32.5z" />
    <glyph glyph-name="hungarumlaut" unicode="&#x2dd;" 
d="M67 518h-35l162 161q11 11 27 11q12 0 23 -10.5t11 -23.5q0 -19 -19 -31zM267 518h-35l162 161q11 11 27 11q12 0 23 -10.5t11 -23.5q0 -19 -19 -31z" />
    <glyph glyph-name="uni03A9" unicode="&#x3a9;" horiz-adv-x="727" 
d="M635 142l-65 -142h-235l-1 19q7 9 44.5 53.5t57 70.5t50 69.5t50.5 85.5t32 84q32 106 20.5 171t-45 93t-85.5 28q-87 0 -160.5 -71.5t-117.5 -225.5q-6 -21 -10 -42.5t-6 -39t-1.5 -40.5t1 -37t4.5 -38t5 -34t7.5 -35t8 -31t8.5 -32.5t8 -28.5l-13 -19h-232l17 142l24 1
q2 -48 13 -62t42 -14h105q-18 22 -31 39.5t-29.5 49.5t-23.5 63t-6.5 75t13.5 90q41 144 149.5 232t234.5 88q128 0 184.5 -84t15.5 -228q-19 -67 -68.5 -133.5t-93 -106t-103.5 -85.5h110q32 0 49.5 13t47.5 63z" />
    <glyph glyph-name="uni03BC" unicode="&#x3bc;" horiz-adv-x="611" 
d="M556 132q-93 -147 -174 -147q-68 0 -68 65q0 23 8 59h-2q-91 -124 -182 -124q-15 0 -27.5 8.5t-17.5 20.5l-42 -131q-6 -21 -6 -28q0 -20 32 -20h49l-11 -40h-215l11 40h26q15 0 22.5 10t14.5 33l148 482q7 23 7 34q0 10 -5.5 15t-12 6t-20.5 1h-45l9 35l186 15l-96 -298
q-1 -4 -7.5 -22t-10 -32t-3.5 -26q0 -53 50 -53q33 0 72 37.5t65 77.5q48 75 116 308h92l-109 -321q-16 -45 -16 -72q0 -30 21 -30q13 0 37 22t46 52l30 41z" />
    <glyph glyph-name="pi" unicode="&#x3c0;" horiz-adv-x="564" 
d="M550 476l21 -9q-29 -58 -61 -88q-17 -4 -69 -4q-22 -57 -73 -238q-26 -92 18 -92q23 0 59 31l7 -21q-57 -67 -122 -67q-42 0 -55.5 26t4.5 103q31 106 85 260q-116 2 -157 2l-5 -19q-30 -105 -68.5 -189.5t-62 -118.5t-37.5 -47q-45 -16 -63 -17l-1 17q67 62 119 169
t81 206q-32 0 -58.5 -7t-40.5 -14t-44 -25l-7 22q2 2 12 11t13.5 12l14 12t16.5 12.5t17.5 11t20 10.5t21 8t24 7.5t26 4t29.5 1.5q219 -3 267 -3q23 0 37 6.5t32 26.5z" />
    <glyph glyph-name="uni2010" unicode="&#x2010;" 
d="M238 202h-206l21 72h206z" />
    <glyph glyph-name="endash" unicode="&#x2013;" horiz-adv-x="500" 
d="M-27 208l14 60h500l-14 -60h-500z" />
    <glyph glyph-name="emdash" unicode="&#x2014;" horiz-adv-x="1000" 
d="M-27 208l14 60h1000l-14 -60h-1000z" />
    <glyph glyph-name="quoteleft" unicode="&#x2018;" horiz-adv-x="204" 
d="M215 737l14 -30q-113 -52 -130 -137q8 2 23 2q22 0 36 -14.5t14 -35.5q0 -27 -19 -43t-46 -16q-32 0 -50 24t-18 57q0 51 44 104t132 89z" />
    <glyph glyph-name="quoteright" unicode="&#x2019;" horiz-adv-x="204" 
d="M53 463l-14 30q113 52 130 137q-8 -2 -23 -2q-22 0 -36 14.5t-14 35.5q0 27 19 43t46 16q32 0 50 -24t18 -57q0 -51 -44 -104t-132 -89z" />
    <glyph glyph-name="quotesinglbase" unicode="&#x201a;" horiz-adv-x="204" 
d="M-64 -165l-14 30q113 52 130 137q-8 -2 -23 -2q-22 0 -36 14.5t-14 35.5q0 27 19 43t46 16q32 0 50 -24t18 -57q0 -51 -44 -104t-132 -89z" />
    <glyph glyph-name="quotedblleft" unicode="&#x201c;" horiz-adv-x="389" 
d="M392 737l14 -30q-113 -52 -130 -137q8 2 23 2q22 0 36 -14.5t14 -35.5q0 -27 -19 -43t-46 -16q-32 0 -50 24t-18 57q0 51 44 104t132 89zM215 737l14 -30q-113 -52 -130 -137q8 2 23 2q22 0 36 -14.5t14 -35.5q0 -27 -19 -43t-46 -16q-32 0 -50 24t-18 57q0 51 44 104
t132 89z" />
    <glyph glyph-name="quotedblright" unicode="&#x201d;" horiz-adv-x="389" 
d="M53 463l-14 30q113 52 130 137q-8 -2 -23 -2q-22 0 -36 14.5t-14 35.5q0 27 19 43t46 16q32 0 50 -24t18 -57q0 -51 -44 -104t-132 -89zM230 463l-14 30q113 52 130 137q-8 -2 -23 -2q-22 0 -36 14.5t-14 35.5q0 27 19 43t46 16q32 0 50 -24t18 -57q0 -51 -44 -104
t-132 -89z" />
    <glyph glyph-name="quotedblbase" unicode="&#x201e;" horiz-adv-x="389" 
d="M-64 -165l-14 30q113 52 130 137q-8 -2 -23 -2q-22 0 -36 14.5t-14 35.5q0 27 19 43t46 16q32 0 50 -24t18 -57q0 -51 -44 -104t-132 -89zM113 -165l-14 30q113 52 130 137q-8 -2 -23 -2q-22 0 -36 14.5t-14 35.5q0 27 19 43t46 16q32 0 50 -24t18 -57q0 -51 -44 -104
t-132 -89z" />
    <glyph glyph-name="dagger" unicode="&#x2020;" horiz-adv-x="500" 
d="M120 -147h-25l35 129q38 139 38 244q0 36 -4 69q72 90 98 184h-21q-39 0 -82.5 -18t-56.5 -18q-21 0 -36 13.5t-15 35.5q0 25 16 39t41 14q10 0 57 -20.5t83 -20.5h20l4 13q12 37 12 78q0 14 -3.5 40t-3.5 39q0 32 15 47.5t38 15.5q24 0 40 -14.5t16 -34.5
q0 -28 -36 -74.5t-48 -83.5l-9 -26q51 3 103.5 22t60.5 19q22 0 35.5 -15.5t13.5 -39.5q0 -21 -15.5 -34t-36.5 -13q-11 0 -58 18t-93 18h-16q-10 -52 -10 -95q0 -53 11 -89q-76 -113 -128 -300z" />
    <glyph glyph-name="daggerdbl" unicode="&#x2021;" horiz-adv-x="500" 
d="M149 60l9 26q-51 -3 -103.5 -22t-60.5 -19q-21 0 -34.5 15.5t-13.5 39.5q0 21 15.5 34t35.5 13q11 0 58 -18t93 -18h16q11 43 11 95q0 48 -11 89q72 90 98 184h-21q-39 0 -82.5 -18t-56.5 -18q-21 0 -36 13.5t-15 35.5q0 25 16 39t41 14q10 0 57 -20.5t83 -20.5h20l4 13
q12 37 12 78q0 14 -3.5 40t-3.5 39q0 32 15 47.5t38 15.5q24 0 40 -14.5t16 -34.5q0 -28 -36 -74.5t-48 -83.5l-9 -26q51 3 103.5 22t60.5 19q22 0 35.5 -15.5t13.5 -39.5q0 -21 -15.5 -34t-36.5 -13q-11 0 -58 18t-93 18h-16q-10 -52 -10 -95q0 -53 11 -89
q-73 -88 -99 -184h21q39 0 82.5 18t56.5 18q21 0 36 -13.5t15 -35.5q0 -25 -16 -39t-41 -14q-10 0 -57 20.5t-83 20.5h-20l-4 -13q-12 -37 -12 -78q0 -14 4 -40t4 -39q0 -63 -54 -63q-23 0 -39 14.5t-16 34.5q0 23 15 45.5t36.5 51.5t31.5 61z" />
    <glyph glyph-name="bullet" unicode="&#x2022;" horiz-adv-x="606" 
d="M122 361q0 75 53 128t128 53t128 -53t53 -128t-53 -128t-128 -53t-128 53t-53 128z" />
    <glyph glyph-name="ellipsis" unicode="&#x2026;" horiz-adv-x="1000" 
d="M59 47q0 25 18.5 43.5t43.5 18.5t43.5 -18.5t18.5 -43.5t-18.5 -43.5t-43.5 -18.5t-43.5 18.5t-18.5 43.5zM392 47q0 25 18 43.5t44 18.5t44 -18.5t18 -43.5t-18 -43.5t-44 -18.5t-44 18.5t-18 43.5zM725 47q0 25 18.5 43.5t43.5 18.5t43.5 -18.5t18.5 -43.5t-18.5 -43.5
t-43.5 -18.5t-43.5 18.5t-18.5 43.5z" />
    <glyph glyph-name="perthousand" unicode="&#x2030;" horiz-adv-x="1000" 
d="M404 77q0 -29 16 -45.5t46 -16.5q50 0 99 70.5t49 138.5q0 35 -18.5 56t-44.5 21q-27 0 -63 -45.5t-60 -99t-24 -79.5zM100 -15l368 642l-2 2q-46 -30 -95 -30q-33 0 -60 13q7 -25 7 -44q0 -79 -60 -153.5t-137 -74.5q-51 0 -83 35.5t-32 87.5q0 75 68.5 151t142.5 76
q23 0 45.5 -11.5t35.5 -29.5q5 -7 28.5 -13.5t45.5 -6.5q78 0 150 76h40l-412 -720h-50zM332 95q0 84 64.5 160t144.5 76q50 0 76.5 -31.5t26.5 -80.5q0 -79 -57.5 -156.5t-136.5 -77.5q-52 0 -85 29t-33 81zM78 430q0 -28 15 -44t44 -16q55 0 103 71t48 131q0 36 -8 51
q-34 14 -55 37q-31 -1 -66.5 -46.5t-58 -99.5t-22.5 -84zM682 95q0 84 64.5 160t144.5 76q50 0 76.5 -31.5t26.5 -80.5q0 -79 -57.5 -156.5t-136.5 -77.5q-52 0 -85 29t-33 81zM754 77q0 -29 16 -45.5t46 -16.5q50 0 99 70.5t49 138.5q0 35 -18.5 56t-44.5 21
q-27 0 -63 -45.5t-60 -99t-24 -79.5z" />
    <glyph glyph-name="guilsinglleft" unicode="&#x2039;" 
d="M40 243l172 139q25 20 34 20q13 0 13 -12q0 -11 -27.5 -41.5t-113.5 -112.5q19 -33 37 -68.5t27 -57.5t9 -26q0 -10 -10 -10q-13 0 -31 24z" />
    <glyph glyph-name="guilsinglright" unicode="&#x203a;" 
d="M259 233l-172 -139q-25 -20 -34 -20q-13 0 -13 12q0 11 27.5 41.5t113.5 112.5q-19 33 -37 68.5t-27 57.5t-9 26q0 10 10 10q13 0 31 -24z" />
    <glyph glyph-name="fraction" unicode="&#x2044;" horiz-adv-x="167" 
d="M-134 -15l375 720h60l-375 -720h-60z" />
    <glyph glyph-name="Euro" unicode="&#x20ac;" horiz-adv-x="556" 
d="M607 698l-35 -191h-35q-7 60 -47.5 109t-108.5 49q-113 0 -184 -233h290l-35 -58h-271q-1 -5 -3.5 -14.5t-3.5 -14.5q-3 -12 -6 -27h250l-34 -58h-226q-7 -51 -7 -90q0 -145 81 -145q69 0 137.5 51.5t107.5 106.5h36l-37 -191h-36l-20 74q-3 -3 -9.5 -8.5t-26.5 -20
t-40.5 -25t-50 -19.5t-57.5 -9q-48 0 -84 21.5t-56.5 58t-30 79.5t-9.5 93q0 4 0.5 12t0.5 12h-82l35 58h53q1 9 5 27q1 5 3.5 14.5t3.5 14.5h-65l34 58h48q41 118 113.5 195.5t173.5 77.5q95 0 142 -62l53 55h33z" />
    <glyph glyph-name="afii61289" unicode="&#x2113;" horiz-adv-x="408" 
d="M306 115l15 -17q-91 -111 -197 -111q-67 0 -89 39q-11 19 -10 53t18 93l24 84l-72 -45l-6 23l88 58l37 130q37 126 62 178.5t68 90.5q50 47 99 47q43 0 56 -39.5t-4 -93.5q-43 -147 -232 -297l-27 -94q-27 -100 -16 -136t56 -36q61 0 130 73zM212 481l-36 -128
q58 52 103.5 119t64.5 132q28 104 -17 104q-28 0 -53.5 -50.5t-61.5 -176.5z" />
    <glyph glyph-name="trademark" unicode="&#x2122;" horiz-adv-x="950" 
d="M168 385v312h-47q-50 0 -64 -63h-25v88h352v-88h-25q-14 63 -64 63h-47v-312q0 -25 7.5 -31.5t40.5 -10.5v-25h-176v25q33 4 40.5 10.5t7.5 31.5zM671 318l-147 302h-2v-214q0 -36 9.5 -48.5t42.5 -14.5v-25h-131v25q31 2 40 14.5t9 48.5v242q-7 22 -25.5 35t-41.5 14v25
h128l149 -302l157 302h109v-25q-31 -1 -42.5 -12.5t-11.5 -37.5v-262q0 -25 7.5 -31.5t40.5 -10.5v-25h-176v25q33 4 40.5 10.5t7.5 31.5v235h-2l-151 -302h-10z" />
    <glyph glyph-name="Omega" unicode="&#x2126;" horiz-adv-x="727" 
d="M635 142l-65 -142h-235l-1 19q7 9 44.5 53.5t57 70.5t50 69.5t50.5 85.5t32 84q32 106 20.5 171t-45 93t-85.5 28q-87 0 -160.5 -71.5t-117.5 -225.5q-6 -21 -10 -42.5t-6 -39t-1.5 -40.5t1 -37t4.5 -38t5 -34t7.5 -35t8 -31t8.5 -32.5t8 -28.5l-13 -19h-232l17 142l24 1
q2 -48 13 -62t42 -14h105q-18 22 -31 39.5t-29.5 49.5t-23.5 63t-6.5 75t13.5 90q41 144 149.5 232t234.5 88q128 0 184.5 -84t15.5 -228q-19 -67 -68.5 -133.5t-93 -106t-103.5 -85.5h110q32 0 49.5 13t47.5 63z" />
    <glyph glyph-name="estimated" unicode="&#x212e;" horiz-adv-x="970" 
d="M936 334h-647q-5 0 -5 -4v-196q0 -11 8 -22q103 -106 245 -106q153 0 257 119h58q-55 -64 -138.5 -101.5t-177.5 -37.5q-165 0 -282 105t-117 253q0 149 117 254t282 105q166 0 283 -105t117 -254v-10zM789 360v197q0 14 -10 23q-102 102 -242 102q-141 0 -244 -105
q-9 -11 -9 -25v-192q0 -6 5 -6h496q4 0 4 6z" />
    <glyph glyph-name="partialdiff" unicode="&#x2202;" horiz-adv-x="529" 
d="M287 431h1q37 0 69.5 -18t45.5 -53q26 66 40 108q27 87 19 159q-6 39 -33.5 68.5t-71.5 29.5q-69 0 -153 -57q-8 -1 -13.5 9.5t-5.5 26t7 25.5q75 42 153 42q132 0 164 -142q23 -98 -18 -234q-42 -150 -120 -254q-113 -154 -248 -154q-82 0 -116 54t-7 148q26 96 106 167
q37 33 86 54t95 21zM297 392h-1q-67 0 -126 -59q-64 -70 -98 -186q-17 -53 -1 -91.5t61 -38.5q69 0 146 106q51 68 106 195q-5 26 -28 50t-59 24z" />
    <glyph glyph-name="Delta" unicode="&#x2206;" horiz-adv-x="633" 
d="M498 0h-561l7 24l449 669l41 11l71 -680zM406 46l-51 531l-352 -531h403z" />
    <glyph glyph-name="product" unicode="&#x220f;" horiz-adv-x="784" 
d="M756 696v-26q-64 -4 -77.5 -15t-13.5 -54v-583q0 -49 14 -62t75 -17v-26h-256v26q59 5 71 16t12 63v612q0 21 -6.5 27t-28.5 6h-209q-22 0 -27.5 -5t-5.5 -24v-616q0 -50 10 -62t66 -17v-26h-249v26q61 4 74.5 16.5t13.5 62.5v583q0 43 -13.5 54t-77.5 15v26h628z" />
    <glyph glyph-name="summation" unicode="&#x2211;" horiz-adv-x="652" 
d="M629 97l-43 -187h-456v23l224 349l-219 390v24h451q0 -8 2.5 -33.5t5.5 -64t5 -63.5l-27 -6q-13 70 -33 102q-10 20 -30 26.5t-74 6.5h-194l188 -326l-225 -354h259q67 0 88 17.5t51 102.5z" />
    <glyph glyph-name="minus" unicode="&#x2212;" horiz-adv-x="606" 
d="M50 217v72h506v-72h-506z" />
    <glyph glyph-name="uni2215" unicode="&#x2215;" horiz-adv-x="167" 
d="M-134 -15l375 720h60l-375 -720h-60z" />
    <glyph glyph-name="uni2219" unicode="&#x2219;" horiz-adv-x="278" 
d="M71 306q0 28 19.5 48t48.5 20t48.5 -20t19.5 -48t-19.5 -48t-48.5 -20t-48.5 20t-19.5 48z" />
    <glyph glyph-name="radical" unicode="&#x221a;" horiz-adv-x="651" 
d="M635 891l-165 -1039l-20 -11l-217 553l-87 -42l-11 32l154 73l169 -444h2l137 887z" />
    <glyph glyph-name="infinity" unicode="&#x221e;" horiz-adv-x="781" 
d="M733 288v-1q0 -71 -45 -115t-106 -44q-44 0 -84.5 26.5t-91.5 87.5q-47 -55 -88 -84.5t-94 -29.5q-61 0 -104.5 44.5t-43.5 110.5q0 69 44 113.5t111 44.5q50 0 91.5 -29.5t86.5 -83.5q27 31 38 42t36.5 32.5t50.5 30t55 8.5q63 0 103.5 -42.5t40.5 -110.5zM230 181h2
q10 0 19 1.5t18.5 6.5t17 8t17.5 11.5t15 12.5t15.5 15t14 14.5t14.5 16t13 14.5q-24 30 -33.5 41t-30.5 31.5t-41.5 28.5t-44.5 8q-44 0 -69.5 -31t-25.5 -77q0 -43 28 -72t71 -29zM583 390h-1q-18 0 -35 -6.5t-35 -21.5t-27 -23t-28 -30t-20 -23q51 -59 81.5 -82t66.5 -23
q42 0 67.5 31.5t25.5 70.5q0 49 -26.5 78t-68.5 29z" />
    <glyph glyph-name="integral" unicode="&#x222b;" horiz-adv-x="475" 
d="M265 15l-20 413q-19 419 152 419q22 0 40.5 -12.5t18.5 -33.5q0 -20 -12.5 -31t-30.5 -11q-14 0 -22 11.5t-14.5 22.5t-15.5 11q-49 0 -42 -168l18 -386q21 -447 -152 -447q-27 0 -43.5 13.5t-16.5 33.5q-1 19 14 32.5t36 13.5q14 0 26.5 -24.5t22.5 -24.5q23 0 34 45.5
t7 122.5z" />
    <glyph glyph-name="approxequal" unicode="&#x2248;" horiz-adv-x="563" 
d="M486 431l36 -31q-48 -95 -127 -95q-28 0 -51 9t-60 31q-55 32 -88 32q-30 0 -51 -18.5t-43 -52.5l-37 31q22 43 58.5 68.5t78.5 25.5q10 0 19 -1t18 -4t15.5 -5t15.5 -7t13.5 -7t13.5 -7.5t11 -6.5q4 -2 18.5 -10.5t19 -10.5t15 -6t18.5 -5.5t17 -1.5q47 0 90 72z
M486 262l36 -32q-49 -94 -128 -94q-43 0 -110 39q-55 33 -87 33q-31 0 -51.5 -18.5t-43.5 -53.5l-37 31q22 44 58.5 69.5t78.5 25.5q14 0 26.5 -2.5t24.5 -7.5t19.5 -8.5t19.5 -10.5t16 -9t17 -9.5t18.5 -10t15.5 -7t18.5 -6t18.5 -1.5q28 0 48 17.5t42 54.5z" />
    <glyph glyph-name="notequal" unicode="&#x2260;" horiz-adv-x="589" 
d="M437 497l-42 -91h145v-56h-166l-62 -137h228v-56h-251l-50 -112l-44 19l42 93h-139v56h162l61 137h-223v56h245l50 110z" />
    <glyph glyph-name="lessequal" unicode="&#x2264;" horiz-adv-x="611" 
d="M560 100l-434 219v59l434 218v-65l-376 -181v-2l376 -182v-66zM563 5h-441v57h441v-57z" />
    <glyph glyph-name="greaterequal" unicode="&#x2265;" horiz-adv-x="611" 
d="M127 596l434 -218v-59l-434 -219v66l376 181v3l-376 181v65zM562 5h-440v57h440v-57z" />
    <glyph glyph-name="lozenge" unicode="&#x25ca;" horiz-adv-x="659" 
d="M611 335l-197 -405h-65l-196 405l197 408h65zM548 335l-164 347h-3l-166 -345l166 -348h3z" />
    <glyph glyph-name="fi" unicode="&#xfb01;" horiz-adv-x="611" 
d="M29 406l11 45h95q16 55 37 101.5t53 90.5t77.5 69t100.5 25q52 0 91.5 -19t39.5 -65q0 -27 -14 -42.5t-39 -15.5q-22 0 -35.5 12.5t-13.5 32.5q0 16 8 27t8 18q0 17 -47 17q-111 0 -175 -214l-11 -37h140q23 0 48 2.5t56 6.5t48 6l-115 -363q-10 -30 -10 -43
q0 -25 23 -25q10 0 22.5 7.5t22.5 16.5t23.5 25.5t20.5 26t19 26t13 18.5l29 -17q-10 -18 -25 -39t-40 -49.5t-56.5 -46.5t-62.5 -18q-69 0 -69 68q0 28 13 73l73 234q7 23 7 31q0 15 -23 15h-169l-77 -310q-19 -77 -85 -283l-109 -18q33 69 63.5 156t45.5 141t44 167.5
t38 146.5h-94z" />
    <glyph glyph-name="fl" unicode="&#xfb02;" horiz-adv-x="611" 
d="M29 406l11 45h95q78 286 275 286q49 0 90 -22q38 0 87 22l-178 -591q-20 -68 -20 -86v-2q0 -23 23 -23q10 0 22.5 7.5t22.5 16.5t23.5 25.5t20.5 26t19 26t13 18.5l29 -17q-10 -18 -25 -39t-40 -49.5t-56.5 -46.5t-62.5 -18q-69 0 -69 80q0 27 17 84l135 448
q-19 13 -19 34q0 13 6 25t6 18q0 15 -16.5 21.5t-33.5 6.5q-57 0 -99.5 -46t-60.5 -106l-29 -99h116l-11 -45h-117l-77 -310q-19 -77 -85 -283l-109 -18q33 69 63.5 156t45.5 141t44 167.5t38 146.5h-94z" />
    <glyph glyph-name="a.superior" horiz-adv-x="422" 
d="M252 675q-36 0 -63.5 -32t-39 -69t-11.5 -66q0 -28 14.5 -45t42.5 -17q34 0 59.5 34.5t36 73.5t10.5 69q0 21 -12.5 36.5t-36.5 15.5zM323 644l17 52h55q-53 -154 -67 -202q-7 -23 -7 -34q0 -14 14 -14q27 0 57 55l9 16l19 -10l-6 -10q-49 -81 -96 -81t-47 46h-2
q-34 -46 -101 -46q-44 0 -70 27.5t-26 68.5q0 66 46 129.5t114 63.5q33 0 57.5 -17t31.5 -44h2z" />
    <glyph glyph-name="o.superior" horiz-adv-x="372" 
d="M66 530q0 65 52 120t125 55q58 0 92.5 -32.5t34.5 -83.5q0 -66 -52 -119.5t-127 -53.5q-61 0 -93 29.5t-32 84.5zM242 680q-34 0 -61 -35t-38 -73.5t-11 -67.5q0 -63 63 -63q49 0 79 61t30 110q0 68 -62 68z" />
    <glyph glyph-name="one.superior" 
d="M118 630l8 30q95 7 152 45h33l-102 -336q-7 -25 -7 -31q0 -26 58 -26h24l-7 -30h-243l6 30h27q34 0 44.5 8t19.5 34l74 245q3 15 3 18q0 4 -1 6.5t-4.5 3.5t-5 1.5t-7.5 1.5h-5h-67z" />
    <glyph glyph-name="two.superior" 
d="M300 406l30 -9l-50 -115h-280q0 21 33 50l168 143q78 65 78 123q0 72 -68 72q-36 0 -62.5 -15t-26.5 -30q0 -13 21 -25t21 -34q0 -16 -12 -26.5t-30 -10.5q-26 0 -38 17t-12 41q0 50 51 84t106 34q58 0 94 -29t36 -78q0 -74 -99 -138l-76 -50q-74 -49 -102 -71v-2h141
q21 0 29.5 3t19.5 19z" />
    <glyph glyph-name="three.superior" 
d="M22 368q0 21 12 35t33 14t34 -10.5t13 -26.5q0 -27 -30 -34q-12 -3 -12 -12q0 -16 21 -23.5t47 -7.5q55 0 80.5 33.5t25.5 85.5q0 26 -11.5 45.5t-34.5 19.5q-11 0 -22 -1t-15 -1q-19 0 -19 20q0 15 18 15q7 0 19 -1.5t17 -1.5q36 0 58.5 32t22.5 66q0 60 -64 60
q-23 0 -42 -7t-19 -18q0 -6 12.5 -18t12.5 -23q0 -32 -42 -32q-18 0 -28 11t-10 28q0 41 40 65t92 24q54 0 91 -25t37 -70q0 -46 -31 -70.5t-86 -39.5v-2q39 -5 61.5 -27.5t22.5 -57.5q0 -64 -51.5 -102t-126.5 -38q-54 0 -90 23.5t-36 71.5z" />
    </font>
</defs>
</svg>
