<?xml version="1.0" standalone="no"?>
<!DOCTYPE svg PUBLIC "-//W3C//DTD SVG 1.1//EN" "http://www.w3.org/Graphics/SVG/1.1/DTD/svg11.dtd" >
<svg xmlns="http://www.w3.org/2000/svg" xmlns:xlink="http://www.w3.org/1999/xlink" version="1.1">
<metadata>
Created by FontForge 20170731 at Wed Mar 23 19:16:36 2011
 By Aleksey,,,
(c) 1985, 1987, 1989, 1991, 1992, 1997, 1998, 1999, 2002 Adobe Systems Incorporated. All rights reserved.
</metadata>
<defs>
<font id="NewCenturySchlbkLTStd-Roman" horiz-adv-x="333" >
  <font-face 
    font-family="NewCenturySchlbk LT Std"
    font-weight="400"
    font-stretch="normal"
    units-per-em="1000"
    panose-1="2 4 6 3 5 7 5 2 3 4"
    ascent="737"
    descent="-263"
    x-height="464"
    cap-height="722"
    bbox="-195 -250 1000 965"
    underline-thickness="50"
    underline-position="-200"
    unicode-range="U+0020-FB02"
  />
<missing-glyph horiz-adv-x="500" 
d="M0 0v700h500v-700h-500zM250 395l170 255h-340zM280 350l170 -255v510zM80 50h340l-170 255zM50 605v-510l170 255z" />
    <glyph glyph-name="f_i" unicode="fi" horiz-adv-x="611" 
d="M112 419h-94v45h94v28q0 108 61.5 176.5t174.5 68.5q66 0 106.5 -28t40.5 -68q0 -30 -15.5 -48.5t-45.5 -18.5q-22 0 -38 14.5t-16 36.5q0 18 8.5 30t8.5 20t-16.5 15t-39.5 7q-59 0 -98 -53.5t-39 -164.5v-15h121q97 0 175 15v-393q0 -26 12 -36t42 -10h28v-40h-256v40
h29q29 0 41 10.5t12 38.5v302q0 17 -10.5 22.5t-37.5 5.5h-156v-333q0 -26 12 -36t42 -10h22v-40h-250v40h28q30 0 42 10t12 36v333z" />
    <glyph glyph-name="f_l" unicode="fl" horiz-adv-x="611" 
d="M204 464h204v112q-14 3 -26.5 17.5t-12.5 31.5q0 18 8.5 30t8.5 20q0 9 -14.5 15.5t-36.5 6.5q-55 0 -93 -54t-38 -164v-15zM112 86v333h-94v45h94v28q0 108 60.5 176.5t170.5 68.5q37 0 74 -15l83 15v-651q0 -26 12 -36t42 -10h28v-40h-256v40h28q30 0 42 10t12 36v333
h-204v-333q0 -26 12 -36t42 -10h22v-40h-250v40h28q30 0 42 10t12 36z" />
    <glyph glyph-name=".notdef" horiz-adv-x="500" 
d="M0 0v700h500v-700h-500zM250 395l170 255h-340zM280 350l170 -255v510zM80 50h340l-170 255zM50 605v-510l170 255z" />
    <glyph glyph-name=".null" horiz-adv-x="0" 
 />
    <glyph glyph-name="nonmarkingreturn" 
 />
    <glyph glyph-name="space" unicode=" " horiz-adv-x="278" 
 />
    <glyph glyph-name="exclam" unicode="!" horiz-adv-x="296" 
d="M128 192v70q0 109 -20 230t-20 160q0 37 16 61t44 24t44 -24t16 -61q0 -39 -20 -160t-20 -230v-70h-40zM86 47q0 25 18 43.5t44 18.5t44 -18.5t18 -43.5t-18 -43.5t-44 -18.5t-44 18.5t-18 43.5z" />
    <glyph glyph-name="quotedbl" unicode="&#x22;" horiz-adv-x="389" 
d="M61 693q0 44 43 44t43 -44q0 -20 -6 -110.5t-9 -109.5q-4 -30 -28 -30t-28 30q-3 19 -9 109.5t-6 110.5zM242 693q0 44 43 44t43 -44q0 -20 -6 -110.5t-9 -109.5q-4 -30 -28 -30t-28 30q-3 19 -9 109.5t-6 110.5z" />
    <glyph glyph-name="numbersign" unicode="#" horiz-adv-x="556" 
d="M331 276l19 138h-125l-20 -138h126zM359 474l31 216h66l-31 -216h103v-60h-112l-19 -138h102v-60h-111l-31 -216h-66l31 216h-125l-31 -216h-66l31 216h-103v60h111l20 138h-102v60h111l31 216h66l-31 -216h125z" />
    <glyph glyph-name="dollar" unicode="$" horiz-adv-x="556" 
d="M252 25v289q-85 22 -138 71.5t-53 129.5q0 83 54.5 133t136.5 57v108h45v-108q82 -1 133 -45.5t51 -98.5q0 -34 -17 -54t-46 -20q-24 0 -40.5 17t-16.5 42q0 21 10.5 34t20.5 19.5t10 10.5q0 22 -32.5 38.5t-72.5 16.5v-256q113 -35 163.5 -78.5t50.5 -132.5
q0 -95 -59 -152t-155 -61v-123h-45v123q-85 2 -146 46t-61 111q0 36 18.5 63t52.5 27q25 0 41 -19t16 -45q0 -17 -8.5 -31t-19.5 -20.5t-19.5 -12.5t-8.5 -11q0 -23 39.5 -45t95.5 -23zM297 301v-276q57 2 99.5 41.5t42.5 98.5q0 101 -142 136zM252 424v241
q-125 -19 -125 -124q0 -45 39 -75.5t86 -41.5z" />
    <glyph glyph-name="percent" unicode="%" horiz-adv-x="833" 
d="M604 705h45l-415 -720h-50l372 645l-2 2q-41 -41 -107 -41q-33 0 -66 14q6 -15 6 -45q0 -94 -68 -174.5t-147 -80.5q-58 0 -93.5 36.5t-35.5 92.5q0 91 75 173.5t160 82.5q27 0 50 -12.5t34 -29.5q8 -12 36.5 -19.5t55.5 -7.5q39 0 83 25t67 59zM357 568q0 30 -8 48
q-39 15 -64 44q-36 -5 -76.5 -57.5t-65 -110t-24.5 -86.5q0 -32 17.5 -51.5t51.5 -19.5q53 0 111 72.5t58 160.5zM446 124q0 90 70 175.5t158 85.5q54 0 85 -33.5t31 -88.5q0 -36 -15 -80t-41 -85.5t-68.5 -69.5t-90.5 -28q-58 0 -93.5 33t-35.5 91zM760 267q0 35 -20 61.5
t-52 26.5q-49 0 -107.5 -101.5t-58.5 -155.5q0 -32 19 -50t48 -18q57 0 114 76.5t57 160.5z" />
    <glyph glyph-name="ampersand" unicode="&#x26;" horiz-adv-x="815" 
d="M473 363v45h281v-45q-55 -3 -77.5 -18.5t-44.5 -57.5q-65 -121 -100 -159q63 -66 108 -66q74 0 94 105l41 -8q-31 -169 -170 -169q-40 0 -79 18.5t-65 49.5q-92 -73 -190 -73q-100 0 -160 58t-60 145q0 73 49.5 130.5t122.5 93.5q-40 89 -40 141q0 85 45.5 134.5
t125.5 49.5q69 0 114 -35t45 -102q0 -59 -49 -111t-125 -76q92 -164 164 -252q71 88 71 150q0 28 -21.5 39.5t-79.5 12.5zM318 51q55 0 114 38q-112 123 -190 283q-89 -42 -89 -132q0 -67 49 -128t116 -61zM433 602q0 41 -20.5 65.5t-57.5 24.5q-36 0 -58 -25t-22 -71
q0 -67 45 -145q113 46 113 151z" />
    <glyph glyph-name="quotesingle" unicode="'" horiz-adv-x="204" 
d="M59 693q0 44 43 44t43 -44q0 -20 -6 -110.5t-9 -109.5q-4 -30 -28 -30t-28 30q-3 19 -9 109.5t-6 110.5z" />
    <glyph glyph-name="parenleft" unicode="(" 
d="M279 -87v-30q-117 74 -178 186t-61 245t61 245t178 186v-30q-92 -69 -125.5 -165.5t-33.5 -235.5t33.5 -235.5t125.5 -165.5z" />
    <glyph glyph-name="parenright" unicode=")" 
d="M54 715v30q117 -74 178 -186t61 -245t-61 -245t-178 -186v30q92 69 125.5 165.5t33.5 235.5t-33.5 235.5t-125.5 165.5z" />
    <glyph glyph-name="asterisk" unicode="*" horiz-adv-x="500" 
d="M193 499l30 17v11l-30 17q-25 14 -62.5 19t-55.5 13.5t-18 36.5q0 15 11.5 26t30.5 11t28 -11.5t27.5 -35.5t49.5 -44l28 -17l8 2v27q0 38 -15 74t-15 50q0 18 11 30t29 12t29 -12t11 -30q0 -14 -15 -50t-15 -74v-27l8 -2l28 17q25 16 42 34.5t23 30t15.5 19t24.5 7.5
q19 0 30.5 -11t11.5 -26q0 -28 -18 -36.5t-55.5 -13.5t-62.5 -19l-30 -17v-11l30 -17q25 -14 62.5 -19t55.5 -13.5t18 -36.5q0 -15 -11.5 -26t-30.5 -11t-28 11.5t-27.5 35.5t-49.5 44l-28 18l-8 -3v-27q0 -38 15 -74t15 -50q0 -18 -11 -30t-29 -12t-29 12t-11 30
q0 14 15 50t15 74v27l-8 3l-28 -18q-25 -16 -42 -34.5t-23 -30t-15.5 -19t-24.5 -7.5q-19 0 -30.5 11t-11.5 26q0 28 18 36.5t55.5 13.5t62.5 19z" />
    <glyph glyph-name="plus" unicode="+" horiz-adv-x="606" 
d="M267 289v217h72v-217h217v-72h-217v-217h-72v217h-217v72h217z" />
    <glyph glyph-name="comma" unicode="," horiz-adv-x="278" 
d="M84 -185l-22 29q46 35 75 73.5t29 63.5q0 12 -7 12q-2 0 -12 -2t-15 -2q-28 0 -46 16.5t-18 45.5q0 23 19 40.5t44 17.5q39 0 62 -27.5t23 -75.5q0 -49 -30 -93.5t-102 -97.5z" />
    <glyph glyph-name="hyphen" unicode="-" 
d="M42 199v78h249v-78h-249z" />
    <glyph glyph-name="period" unicode="." horiz-adv-x="278" 
d="M77 47q0 25 18.5 43.5t43.5 18.5t43.5 -18.5t18.5 -43.5t-18.5 -43.5t-43.5 -18.5t-43.5 18.5t-18.5 43.5z" />
    <glyph glyph-name="slash" unicode="/" horiz-adv-x="278" 
d="M-32 -15l266 752h76l-266 -752h-76z" />
    <glyph glyph-name="zero" unicode="0" horiz-adv-x="556" 
d="M42 345q0 93 25 173t80.5 133.5t130.5 53.5t130.5 -53.5t80.5 -133.5t25 -173t-25 -173t-80.5 -133.5t-130.5 -53.5t-130.5 53.5t-80.5 133.5t-25 173zM151 375v-60q0 -285 127 -285t127 285v60q0 285 -127 285t-127 -285z" />
    <glyph glyph-name="one" unicode="1" horiz-adv-x="556" 
d="M251 100v426q0 39 -11 49.5t-52 10.5h-88v45q137 4 218 74h35v-584q0 -50 12 -63t61 -13h70v-45h-391v45h49q61 0 79 10t18 45z" />
    <glyph glyph-name="two" unicode="2" horiz-adv-x="556" 
d="M454 161l11 51h40l-18 -212h-452v24q102 131 139 169q135 139 175.5 202t40.5 134q0 62 -37.5 96.5t-100.5 34.5q-57 0 -96 -32.5t-39 -65.5q0 -13 11.5 -20.5t24.5 -12t24.5 -19.5t11.5 -41t-19.5 -41.5t-45.5 -15.5q-32 0 -52.5 29.5t-20.5 78.5q0 73 63 129t165 56
q86 0 153 -53t67 -137q0 -71 -31.5 -119t-122.5 -122q-60 -49 -103 -86.5t-72 -65.5t-32 -30h237q45 0 57 11t22 58z" />
    <glyph glyph-name="three" unicode="3" horiz-adv-x="556" 
d="M389 188q0 155 -118 155q-15 0 -38.5 -1.5t-30.5 -1.5q-11 0 -20.5 6.5t-9.5 16.5q0 16 8 22.5t30 6.5q8 0 24.5 -2t25.5 -2q117 0 117 143q0 129 -114 129q-47 0 -80.5 -17.5t-33.5 -38.5q0 -8 10 -16t20 -20.5t10 -30.5q0 -26 -15 -44t-40 -18q-29 0 -47 20.5t-18 50.5
q0 22 10.5 47t32.5 51.5t64.5 43.5t98.5 17q86 0 145 -45.5t59 -128.5q0 -63 -40 -105.5t-103 -57.5v-2q75 -11 118.5 -58.5t43.5 -122.5q0 -86 -64 -143t-170 -57q-110 0 -166 47.5t-56 122.5q0 32 18.5 55.5t49.5 23.5q26 0 45.5 -16.5t19.5 -41.5q0 -23 -9.5 -37t-21 -18
t-21 -11.5t-9.5 -18.5q0 -22 37.5 -41.5t99.5 -19.5q70 0 104 43t34 115z" />
    <glyph glyph-name="four" unicode="4" horiz-adv-x="556" 
d="M311 111v65h-283v55l342 474h40q-7 -84 -7 -150v-324h125v-55h-125v-70q0 -39 11.5 -50t50.5 -11h34v-45h-293v45h39q46 0 56 11.5t10 54.5zM86 231h225v310h-2z" />
    <glyph glyph-name="five" unicode="5" horiz-adv-x="556" 
d="M161 595l-16 -176q73 31 126 31q104 0 167.5 -62.5t63.5 -165.5q0 -106 -69 -171.5t-175 -65.5q-94 0 -153 42.5t-59 128.5q0 29 19 52t47 23q24 0 43 -16t19 -41q0 -27 -14 -42t-28 -24t-14 -21q0 -22 38.5 -42t93.5 -20q51 0 84.5 30t46 71.5t12.5 92.5q0 80 -35 133
t-109 53q-65 0 -109 -40q0 -29 -12.5 -45t-30.5 -16q-12 0 -20.5 10.5t-8.5 25.5q0 20 26 48q24 210 26 317h10q1 0 66 -13t137 -13q57 0 96 13q9 3 18.5 6.5t14 5t6.5 1.5q9 0 9 -10q0 -6 -5 -18t-19 -29.5t-33.5 -33t-53 -26.5t-73.5 -11q-70 0 -132 18z" />
    <glyph glyph-name="six" unicode="6" horiz-adv-x="556" 
d="M368 574q0 18 9.5 33t9.5 24q0 29 -51 29q-89 0 -136.5 -85t-49.5 -243h2q58 98 163 98q88 0 144 -58.5t56 -147.5q0 -101 -63.5 -170t-163.5 -69q-62 0 -111 28t-77.5 74t-43.5 101t-15 113q0 97 24.5 176t65.5 127.5t92 74.5t106 26q64 0 115.5 -30.5t51.5 -90.5
q0 -28 -19 -48.5t-47 -20.5q-27 0 -44.5 17.5t-17.5 41.5zM406 198q0 172 -123 172q-60 0 -93.5 -48t-33.5 -124q0 -69 38 -118.5t89 -49.5q57 0 90 48t33 120z" />
    <glyph glyph-name="seven" unicode="7" horiz-adv-x="556" 
d="M59 464l30 241q42 -6 130 -12q43 -3 120 -3q115 0 169 15v-35q-117 -244 -146 -337t-29 -237q0 -62 -16 -86.5t-52 -24.5q-30 0 -45 21.5t-15 53.5q0 126 226 544h-105q-40 0 -91 4t-59 4q-16 0 -24 -2.5t-16 -16t-14 -41.5l-21 -96z" />
    <glyph glyph-name="eight" unicode="8" horiz-adv-x="556" 
d="M76 514q0 82 58.5 136.5t151.5 54.5q80 0 139 -42.5t59 -120.5q0 -50 -33 -91t-82 -62q77 -27 111 -72.5t34 -120.5q0 -97 -68 -154t-172 -57q-96 0 -164 50t-68 139q0 64 43 106.5t107 60.5v2q-54 23 -85 68t-31 103zM122 166q0 -61 42 -98.5t110 -37.5q65 0 112.5 34
t47.5 95q0 38 -13.5 65t-38.5 43t-47.5 25t-54.5 18t-46 15q-57 -26 -84.5 -63t-27.5 -96zM412 538q0 57 -36 89.5t-94 32.5q-55 0 -94.5 -27.5t-39.5 -77.5q0 -111 187 -156q77 62 77 139z" />
    <glyph glyph-name="nine" unicode="9" horiz-adv-x="556" 
d="M406 358h-2q-58 -98 -163 -98q-88 0 -144 58.5t-56 147.5q0 101 63.5 170t163.5 69q62 0 111 -28t77.5 -74t43.5 -101t15 -113q0 -97 -24.5 -176t-65.5 -127.5t-92 -74.5t-106 -26q-64 0 -115.5 30.5t-51.5 90.5q0 28 19 48.5t47 20.5q27 0 44.5 -17.5t17.5 -41.5
q0 -16 -9.5 -35t-9.5 -22q0 -29 51 -29q89 0 136.5 85t49.5 243zM150 492q0 -172 123 -172q60 0 93.5 48t33.5 124q0 69 -38 118.5t-89 49.5q-57 0 -90 -48t-33 -120z" />
    <glyph glyph-name="colon" unicode=":" horiz-adv-x="278" 
d="M77 412q0 26 18.5 44t43.5 18t43.5 -18t18.5 -44t-18.5 -44t-43.5 -18t-43.5 18t-18.5 44zM77 47q0 25 18.5 43.5t43.5 18.5t43.5 -18.5t18.5 -43.5t-18.5 -43.5t-43.5 -18.5t-43.5 18.5t-18.5 43.5z" />
    <glyph glyph-name="semicolon" unicode=";" horiz-adv-x="278" 
d="M84 -185l-22 29q46 35 75 73.5t29 63.5q0 12 -7 12q-2 0 -12 -2t-15 -2q-28 0 -46 16.5t-18 45.5q0 23 19 40.5t44 17.5q39 0 62 -27.5t23 -75.5q0 -49 -30 -93.5t-102 -97.5zM77 412q0 26 18.5 44t43.5 18t43.5 -18t18.5 -44t-18.5 -44t-43.5 -18t-43.5 18t-18.5 44z
" />
    <glyph glyph-name="less" unicode="&#x3c;" horiz-adv-x="606" 
d="M50 220v66l506 228v-76l-414 -185l414 -185v-76z" />
    <glyph glyph-name="equal" unicode="=" horiz-adv-x="606" 
d="M50 317v72h506v-72h-506zM50 117v72h506v-72h-506z" />
    <glyph glyph-name="greater" unicode="&#x3e;" horiz-adv-x="606" 
d="M50 438v76l506 -228v-66l-506 -228v76l414 185z" />
    <glyph glyph-name="question" unicode="?" horiz-adv-x="444" 
d="M179 195v35q0 93 54 166l36 49q44 60 44 119q0 128 -119 128q-38 0 -63.5 -16.5t-25.5 -31.5q0 -11 22 -32.5t22 -46.5q0 -23 -16.5 -38.5t-39.5 -15.5q-25 0 -44.5 22t-19.5 55q0 70 58 109.5t138 39.5q81 0 135.5 -48.5t54.5 -128.5q0 -48 -25.5 -89t-84.5 -90
q-53 -44 -69.5 -76.5t-16.5 -96.5v-13h-40zM137 47q0 25 18.5 43.5t43.5 18.5t43.5 -18.5t18.5 -43.5t-18.5 -43.5t-43.5 -18.5t-43.5 18.5t-18.5 43.5z" />
    <glyph glyph-name="at" unicode="@" horiz-adv-x="737" 
d="M485 436q0 69 -54 69q-44 0 -93 -61t-49 -149q0 -89 68 -89q44 0 86 64t42 166zM505 499l12 43h72q-72 -292 -72 -313q0 -11 12 -22t30 -11q54 0 94.5 64.5t40.5 151.5q0 120 -90 200t-214 80q-123 0 -209.5 -96t-86.5 -262q0 -120 88.5 -212t218.5 -92q115 0 217 52
l14 -35q-52 -28 -116.5 -45t-113.5 -17q-177 0 -293.5 109t-116.5 267q0 156 110 266t266 110q158 0 267 -85.5t109 -238.5q0 -107 -60 -182t-142 -75q-44 0 -69 24.5t-28 51.5h-2q-47 -76 -129 -76q-20 0 -37 5.5t-35 19t-28.5 42t-10.5 69.5q0 100 63 181.5t157 81.5
q62 0 80 -56h2z" />
    <glyph glyph-name="A" unicode="A" horiz-adv-x="722" 
d="M-8 0v45q74 1 104 78l242 614h40l264 -649q11 -27 28 -35t60 -8v-45h-306v45h25q78 0 78 26q0 13 -14 49l-47 118h-270l-27 -79q-15 -42 -15 -57q0 -33 25.5 -44.5t76.5 -12.5v-45h-264zM215 288h232l-118 292z" />
    <glyph glyph-name="B" unicode="B" horiz-adv-x="722" 
d="M249 622v-221q23 -2 69 -2q112 0 156 34t44 107q0 76 -46 110q-25 18 -49.5 22.5t-94.5 4.5q-47 0 -63 -12.5t-16 -42.5zM29 677v45h378q108 0 167 -49.5t59 -121.5q0 -76 -49.5 -120.5t-127.5 -52.5v-2q102 -10 157.5 -57t55.5 -120q0 -100 -73.5 -149.5t-211.5 -49.5
h-355v45h55q30 0 43 11t13 40v530q0 29 -13 40t-43 11h-55zM249 351v-245q0 -40 14 -50.5t71 -10.5q42 0 70 2.5t58 11.5t47.5 24.5t28.5 43.5t11 68q0 93 -49.5 126t-168.5 33q-41 0 -82 -3z" />
    <glyph glyph-name="C" unicode="C" horiz-adv-x="722" 
d="M561 668l43 62h35l14 -290h-40q-63 252 -227 252q-107 0 -160 -92t-53 -241q0 -142 38 -219q25 -51 73 -80.5t105 -29.5q103 0 160 60.5t73 163.5l46 -8q-18 -124 -91.5 -192.5t-200.5 -68.5q-69 0 -132.5 29t-110.5 81q-88 97 -88 248q0 90 30 166t79.5 125t110.5 76
t124 27q103 0 172 -69z" />
    <glyph glyph-name="D" unicode="D" horiz-adv-x="778" 
d="M29 677v45h333q200 0 281 -95q90 -107 90 -275q0 -75 -25.5 -146t-70.5 -116q-52 -51 -114.5 -70.5t-168.5 -19.5h-325v45h55q30 0 43 11t13 40v530q0 29 -13 40t-43 11h-55zM249 632v-548q0 -26 14 -32.5t60 -6.5q102 0 148 14t76 53q33 43 45.5 101.5t12.5 147.5
q0 181 -60 248.5t-209 67.5q-57 0 -72 -8.5t-15 -36.5z" />
    <glyph glyph-name="E" unicode="E" horiz-adv-x="722" 
d="M29 677v45h604l14 -258h-40q-8 45 -17.5 76t-20 55t-28.5 38.5t-34.5 24t-48 13.5t-59 5t-76.5 1q-46 0 -60 -6.5t-14 -32.5v-239h36q66 0 97.5 31.5t35.5 105.5h45v-328h-45q0 69 -28.5 107.5t-85.5 38.5h-55v-270q0 -26 14 -32.5t60 -6.5q63 0 99.5 1.5t69.5 12
t48.5 21.5t32.5 41t26 59t24 87h40l-19 -267h-615v45h55q30 0 43 11t13 40v530q0 29 -13 40t-43 11h-55z" />
    <glyph glyph-name="F" unicode="F" horiz-adv-x="667" 
d="M140 96v530q0 29 -13 40t-43 11h-55v45h595l14 -258h-40q-7 39 -14.5 67.5t-18 51.5t-20.5 38t-28 26t-33.5 16.5t-43.5 9t-52 4t-65 0.5q-46 0 -60 -6.5t-14 -32.5v-239h36q66 0 97.5 31.5t35.5 105.5h45v-328h-45q0 69 -28.5 107.5t-85.5 38.5h-55v-265
q0 -23 15.5 -33.5t59.5 -10.5h50v-45h-345v45h55q30 0 43 11t13 40z" />
    <glyph glyph-name="G" unicode="G" horiz-adv-x="778" 
d="M576 666l41 64h35l15 -282h-40q-14 51 -32 90.5t-45.5 76.5t-69 57t-94.5 20q-107 0 -160 -92t-53 -241q0 -142 38 -219q25 -51 73 -80.5t105 -29.5q84 0 130 46.5t46 115.5v40q0 31 -16 42t-67 11h-28v45h321v-45h-68q-40 0 -40 -38v-262h-35l-41 93q-77 -93 -215 -93
q-69 0 -132.5 29t-110.5 81q-88 97 -88 248q0 90 30 166t79.5 125t110.5 76t124 27q115 0 187 -71z" />
    <glyph glyph-name="H" unicode="H" horiz-adv-x="833" 
d="M584 349h-335v-253q0 -29 13 -40t43 -11h55v-45h-331v45h55q30 0 43 11t13 40v530q0 29 -13 40t-43 11h-55v45h331v-45h-55q-30 0 -43 -11t-13 -40v-227h335v227q0 29 -13 40t-43 11h-55v45h331v-45h-55q-30 0 -43 -11t-13 -40v-530q0 -29 13 -40t43 -11h55v-45h-331v45
h55q30 0 43 11t13 40v253z" />
    <glyph glyph-name="I" unicode="I" horiz-adv-x="407" 
d="M38 0v45h55q30 0 43 11t13 40v530q0 29 -13 40t-43 11h-55v45h331v-45h-55q-30 0 -43 -11t-13 -40v-530q0 -29 13 -40t43 -11h55v-45h-331z" />
    <glyph glyph-name="J" unicode="J" horiz-adv-x="556" 
d="M320 274v352q0 29 -13 40t-43 11h-55v45h331v-45h-55q-30 0 -43 -11t-13 -40v-390q0 -128 -49 -185q-58 -66 -175 -66q-86 0 -143 44.5t-57 127.5q0 44 26 80t70 36q34 0 55 -19.5t21 -51.5q0 -31 -17 -51t-48 -20q-6 0 -19 2.5t-19 2.5q-14 0 -14 -17q0 -29 39 -59
t88 -30q45 0 77 24t44 66q12 43 12 154z" />
    <glyph glyph-name="K" unicode="K" horiz-adv-x="778" 
d="M455 677v45h308v-45q-54 -2 -95 -23.5t-84 -64.5l-142 -141l242 -350q31 -46 57 -49q30 -4 62 -4v-45h-340v45h56q47 0 47 19q0 14 -25 52l-175 254l-117 -121v-153q0 -29 13 -40t43 -11h55v-45h-331v45h55q30 0 43 11t13 40v530q0 29 -13 40t-43 11h-55v45h331v-45h-55
q-30 0 -43 -11t-13 -40v-305l264 266q33 33 33 59q0 31 -72 31h-19z" />
    <glyph glyph-name="L" unicode="L" horiz-adv-x="667" 
d="M29 677v45h331v-45h-55q-30 0 -43 -11t-13 -40v-542q0 -26 14 -32.5t60 -6.5q55 0 84 1.5t62 9t49.5 20.5t34.5 38.5t29 61.5t22 91h40l-19 -267h-596v45h55q30 0 43 11t13 40v530q0 29 -13 40t-43 11h-55z" />
    <glyph glyph-name="M" unicode="M" horiz-adv-x="944" 
d="M478 180l183 542h254v-45h-57q-30 0 -43 -11t-13 -40v-530q0 -29 13 -40t43 -11h57v-45h-333v45h55q30 0 43 11t13 40v576h-2l-229 -672h-30l-238 672h-2v-486q0 -77 21 -108t95 -33v-45h-279v45q70 6 91.5 35t21.5 130v416q0 29 -13 40t-43 11h-57v45h256l191 -542h2z
" />
    <glyph glyph-name="N" unicode="N" horiz-adv-x="815" 
d="M509 677v45h282v-45q-81 -7 -97 -40q-19 -39 -19 -114v-538h-40l-443 613h-2v-434q0 -66 20.5 -91t96.5 -28v-45h-283v45q65 2 90.5 29t25.5 89v481q-16 21 -37 27t-64 6h-15v45h206l393 -539h2v353q0 77 -21 108t-95 33z" />
    <glyph glyph-name="O" unicode="O" horiz-adv-x="778" 
d="M605 361q0 331 -217 331q-64 0 -109 -30t-67 -82t-30.5 -104.5t-8.5 -114.5q0 -331 217 -331q64 0 109 30t67 82t30.5 104.5t8.5 114.5zM733 361q0 -46 -13 -96.5t-41 -100.5t-67.5 -89.5t-97 -64.5t-124.5 -25q-100 0 -180.5 54t-122.5 139.5t-42 182.5q0 46 13 96.5
t41 100.5t67.5 89.5t97 64.5t124.5 25q100 0 180.5 -54t122.5 -139.5t42 -182.5z" />
    <glyph glyph-name="P" unicode="P" horiz-adv-x="667" 
d="M29 677v45h361q126 0 193 -52.5t67 -146.5q0 -53 -24.5 -95.5t-60.5 -65.5q-66 -41 -206 -41q-19 0 -55 1t-55 1v-227q0 -29 13 -40t43 -11h60v-45h-336v45h55q30 0 43 11t13 40v530q0 29 -13 40t-43 11h-55zM249 611v-243q64 -2 125 -2q70 0 99 22q57 42 57 136
q0 47 -17 87.5t-53 52.5q-40 13 -101 13q-79 0 -94.5 -10t-15.5 -56z" />
    <glyph glyph-name="Q" unicode="Q" horiz-adv-x="778" 
d="M708 -24h40q-1 -83 -36 -124.5t-92 -41.5q-125 0 -134 190q-12 -6 -41 -11q-21 -4 -55 -4q-100 0 -180.5 54t-122.5 139.5t-42 182.5q0 46 13 96.5t41 100.5t67.5 89.5t97 64.5t124.5 25q100 0 180.5 -54t122.5 -139.5t42 -182.5q0 -91 -42 -177.5t-117 -141.5l26 -73
q29 -81 67 -81q31 0 41 88zM173 361q0 -179 62 -259l2 2q-2 18 -2 27q0 57 40.5 95t102.5 38q66 0 111 -43t58 -110q58 90 58 250q0 331 -217 331q-64 0 -109 -30t-67 -82t-30.5 -104.5t-8.5 -114.5zM481 51v28q0 64 -30 102t-82 38q-40 0 -64.5 -30t-24.5 -71
q0 -45 31 -66.5t78 -21.5q48 0 92 21z" />
    <glyph glyph-name="R" unicode="R" horiz-adv-x="722" 
d="M249 621v-220q56 -2 77 -2q109 0 152 33.5t43 111.5q0 74 -33 103q-20 18 -58 24t-117 6q-39 0 -51.5 -10.5t-12.5 -45.5zM29 677v45h364q45 0 86.5 -9.5t79 -29t60 -55.5t22.5 -84q0 -82 -63.5 -127.5t-169.5 -50.5v-2q124 -12 154 -135l23 -91q13 -49 23.5 -65
t25.5 -16q19 0 27.5 24t11.5 78h40q0 -174 -125 -174q-50 0 -81.5 38.5t-39.5 137.5q-9 107 -41.5 150t-120.5 43h-56v-258q0 -29 13 -40t43 -11h55v-45h-331v45h55q30 0 43 11t13 40v530q0 29 -13 40t-43 11h-55z" />
    <glyph glyph-name="S" unicode="S" horiz-adv-x="630" 
d="M462 667l41 63h35l12 -259h-40q-25 94 -82.5 157.5t-146.5 63.5q-69 0 -105.5 -35t-36.5 -84q0 -87 120 -120l156 -43q168 -46 168 -211q0 -93 -65.5 -153.5t-179.5 -60.5q-121 0 -209 77l-45 -72h-33l-4 283l38 4q21 -118 89 -182.5t164 -64.5q76 0 120.5 38.5
t44.5 107.5q0 90 -96 115l-162 42q-92 24 -139 69.5t-47 126.5q0 98 60 153t159 55q107 0 184 -70z" />
    <glyph glyph-name="T" unicode="T" horiz-adv-x="667" 
d="M158 0v45h65q30 0 43 11t13 40v521q0 34 -10 47t-38 13q-75 0 -114.5 -57.5t-57.5 -176.5h-40l16 279h597l16 -279h-40q-18 119 -57.5 176.5t-114.5 57.5q-28 0 -38 -13t-10 -47v-521q0 -29 13 -40t43 -11h65v-45h-351z" />
    <glyph glyph-name="U" unicode="U" horiz-adv-x="815" 
d="M520 677v45h279v-45q-72 -2 -92.5 -33t-20.5 -108v-268q0 -283 -275 -283q-122 0 -202 53t-80 157v431q0 29 -13 40t-43 11h-57v45h333v-45h-55q-30 0 -43 -11t-13 -40v-376q0 -65 10 -101.5t41 -63.5q55 -50 151 -50q83 0 139.5 54.5t56.5 142.5v304q0 77 -21 108
t-95 33z" />
    <glyph glyph-name="V" unicode="V" horiz-adv-x="722" 
d="M-8 677v45h311v-45h-51q-50 0 -50 -28q0 -13 13 -46l179 -455l149 396q21 56 21 82q0 51 -102 51v45h268v-45q-51 0 -72.5 -18.5t-43.5 -74.5l-231 -594h-40l-246 616q-20 51 -35 61t-70 10z" />
    <glyph glyph-name="W" unicode="W" horiz-adv-x="981" 
d="M733 677v45h243v-45q-47 -2 -68 -27t-41 -92l-169 -568h-45l-160 501h-2l-146 -501h-45l-213 643q-10 29 -21 36.5t-46 7.5h-15v45h281v-45h-55q-33 0 -33 -22q0 -13 16 -63l133 -418h2l120 400l-27 77q-6 16 -17.5 21t-40.5 5h-31v45h289v-45h-31q-33 0 -43.5 -8.5
t-10.5 -24.5q0 -21 23 -94l120 -376h2l116 398q10 33 10 55q0 28 -25 38t-70 12z" />
    <glyph glyph-name="X" unicode="X" horiz-adv-x="704" 
d="M397 677v45h275v-45q-53 -1 -82.5 -20t-64.5 -67l-139 -191l213 -306q22 -32 39.5 -40t58.5 -8h15v-45h-326v45h62q36 0 36 20q0 12 -34 62l-129 182l-107 -150q-30 -42 -30 -62q0 -52 68 -52h23v-45h-283v45q82 6 132 76l168 231l-202 290q-14 20 -30 27.5t-45 7.5h-23
v45h306v-45h-52q-20 0 -27.5 -2.5t-7.5 -10.5q0 -12 22 -43l125 -179l99 138q26 37 26 56q0 22 -20 31.5t-66 9.5z" />
    <glyph glyph-name="Y" unicode="Y" horiz-adv-x="704" 
d="M433 677v45h282v-45q-54 -2 -81.5 -23t-56.5 -73l-159 -284v-190q0 -41 9 -51.5t51 -10.5h56v-45h-341v45h56q42 0 51 10.5t9 51.5v181l-205 325q-25 40 -41.5 52t-49.5 12h-24v45h320v-45h-63q-36 0 -36 -18q0 -16 16 -41l166 -265l115 203q28 50 28 79q0 24 -22 33
t-80 9z" />
    <glyph glyph-name="Z" unicode="Z" horiz-adv-x="611" 
d="M53 468l18 254h496v-40l-413 -637h161q89 0 128 26.5t63 95.5q19 53 25 110l45 -4l-19 -273h-533v40l411 637h-137q-57 0 -92 -10t-57 -43.5t-30 -58t-24 -90.5q-1 -5 -2 -7h-40z" />
    <glyph glyph-name="bracketleft" unicode="[" 
d="M126 -109v846h189v-35h-113v-776h113v-35h-189z" />
    <glyph glyph-name="backslash" unicode="\" horiz-adv-x="606" 
d="M398 -15l-266 752h76l266 -752h-76z" />
    <glyph glyph-name="bracketright" unicode="]" 
d="M131 -74v776h-113v35h189v-846h-189v35h113z" />
    <glyph glyph-name="asciicircum" unicode="^" horiz-adv-x="606" 
d="M165 325h-76l181 365h66l181 -365h-76l-138 279z" />
    <glyph glyph-name="underscore" unicode="_" horiz-adv-x="500" 
d="M0 -75h500v-50h-500v50z" />
    <glyph glyph-name="grave" unicode="`" 
d="M242 528h-40l-145 91q-40 24 -40 46q0 14 9 24t24 10q22 0 54 -32z" />
    <glyph glyph-name="a" unicode="a" horiz-adv-x="556" 
d="M359 287v54q0 49 -24.5 71t-83.5 22q-31 0 -53.5 -6t-31 -13t-8.5 -15q0 -4 11 -24t11 -33q0 -49 -56 -49q-26 0 -39.5 18t-13.5 45q0 49 54 85.5t141 36.5q97 0 141 -36.5t44 -116.5q0 -26 -1.5 -119t-1.5 -111q0 -15 10.5 -30.5t26.5 -15.5t28.5 6t15.5 6q13 0 13 -17
q0 -14 -27 -34.5t-62 -20.5q-69 0 -89 75q-66 -80 -180 -80q-61 0 -100.5 29.5t-39.5 89.5q0 69 83 116t232 67zM359 167v80q-126 -18 -172 -47.5t-46 -86.5q0 -35 24.5 -56.5t59.5 -21.5q50 0 92 37t42 95z" />
    <glyph glyph-name="b" unicode="b" horiz-adv-x="556" 
d="M10 687v40l168 10v-341h2q18 39 55 61t82 22q82 0 143.5 -65.5t61.5 -175.5q0 -111 -60 -182t-153 -71q-99 0 -154 81l-51 -81h-35q17 76 17 172v502q0 17 -10.5 22.5t-37.5 5.5h-28zM420 228q0 102 -32 151.5t-89 49.5t-89 -49.5t-32 -151.5q0 -100 32 -149t89 -49
t89 49t32 149z" />
    <glyph glyph-name="c" unicode="c" horiz-adv-x="444" 
d="M390 145l36 -15q-48 -145 -188 -145q-91 0 -147.5 69t-56.5 162q0 124 62.5 193.5t168.5 69.5q66 0 107.5 -36t41.5 -76q0 -31 -14.5 -51.5t-44.5 -20.5q-26 0 -43.5 15t-17.5 40q0 19 14 34.5t14 20.5q0 15 -17 24.5t-41 9.5q-59 0 -93.5 -55t-34.5 -144
q0 -92 34.5 -143.5t102.5 -51.5q79 0 117 100z" />
    <glyph glyph-name="d" unicode="d" horiz-adv-x="574" 
d="M276 687v40l194 10v-645q0 -33 14.5 -42.5t67.5 -9.5v-40l-174 -10v88h-2q-33 -93 -138 -93q-94 0 -149 68.5t-55 172.5q0 115 59 184t144 69q96 0 139 -77h2v257q0 17 -10.5 22.5t-37.5 5.5h-54zM378 232q0 100 -32.5 148.5t-88.5 48.5t-88.5 -48.5t-32.5 -148.5
t32.5 -148.5t88.5 -48.5t88.5 48.5t32.5 148.5z" />
    <glyph glyph-name="e" unicode="e" horiz-adv-x="500" 
d="M466 225h-330v-14q0 -84 41 -130t103 -46q100 0 152 108l34 -19q-63 -139 -203 -139q-103 0 -166 64t-63 167q0 125 63 194t171 69q86 0 139.5 -70.5t58.5 -183.5zM136 265h177q31 0 41 7t10 31q0 63 -28.5 99.5t-76.5 36.5q-109 0 -123 -174z" />
    <glyph glyph-name="f" unicode="f" 
d="M112 464v22q0 126 50.5 188.5t145.5 62.5q51 0 90 -23.5t39 -70.5q0 -25 -15 -42t-40 -17q-22 0 -38 15.5t-16 36.5q0 14 8 26t8 18q0 17 -33 17q-51 0 -79 -43.5t-28 -152.5v-37h110v-45h-110v-333q0 -26 12 -36t42 -10h40v-40h-268v40h28q30 0 42 10t12 36v333h-94v45
h94z" />
    <glyph glyph-name="g" unicode="g" horiz-adv-x="537" 
d="M173 68h154q155 0 155 -113q0 -76 -59 -118t-167 -42q-124 0 -178.5 27.5t-54.5 81.5q0 29 30.5 55.5t68.5 30.5v2q-76 16 -76 91q0 76 99 98v2q-87 35 -87 136q0 76 57.5 118t136.5 42q78 0 128 -38q50 53 97 53q25 0 45 -14.5t20 -39.5q0 -21 -12 -34.5t-30 -13.5
q-24 0 -35 12.5t-14.5 25t-9.5 12.5q-15 0 -36 -26q37 -32 37 -97q0 -81 -57 -122t-143 -41q-130 0 -130 -44q0 -23 12.5 -33.5t48.5 -10.5zM350 315q0 64 -28 94t-72 30t-72 -30t-28 -94t28 -94t72 -30t72 30t28 94zM416 -77q0 34 -30 50.5t-105 16.5q-50 0 -113 -5
q-65 -31 -65 -81q0 -33 36 -51t125 -18q74 0 113 27t39 61z" />
    <glyph glyph-name="h" unicode="h" horiz-adv-x="611" 
d="M336 0v40h28q30 0 42 10t12 36v230q0 48 -25.5 75.5t-66.5 27.5q-57 0 -95 -39.5t-38 -101.5v-192q0 -26 12 -36t42 -10h28v-40h-256v40h28q30 0 42 10t12 36v573q0 17 -10.5 22.5t-37.5 5.5h-46v40l186 10v-358h2q52 100 162 100q69 0 111 -51t42 -128v-214
q0 -26 12 -36t42 -10h28v-40h-256z" />
    <glyph glyph-name="i" unicode="i" horiz-adv-x="315" 
d="M18 414v40l186 10v-378q0 -26 12 -36t42 -10h28v-40h-260v40h33q29 0 41 10.5t12 38.5v297q0 17 -10.5 22.5t-37.5 5.5h-46zM96 662q0 25 17.5 42.5t42.5 17.5t42.5 -17.5t17.5 -42.5t-17.5 -42.5t-42.5 -17.5t-42.5 17.5t-17.5 42.5z" />
    <glyph glyph-name="j" unicode="j" horiz-adv-x="296" 
d="M112 45v341q0 17 -10.5 22.5t-37.5 5.5h-52v40l192 10v-374q0 -92 -8.5 -143t-32.5 -86q-22 -32 -59.5 -49t-78.5 -17q-42 0 -76.5 20t-34.5 60q0 27 15 43t38 16q24 0 40 -12t16 -31q0 -13 -6 -24.5t-6 -19.5q0 -12 26 -12q35 0 55 35t20 175zM96 662q0 25 17.5 42.5
t42.5 17.5t42.5 -17.5t17.5 -42.5t-17.5 -42.5t-42.5 -17.5t-42.5 17.5t-17.5 42.5z" />
    <glyph glyph-name="k" unicode="k" horiz-adv-x="593" 
d="M279 424v40h262v-40q-77 -3 -143 -61l-73 -64l139 -184q33 -44 56.5 -58t68.5 -17v-40h-266v40h36q18 0 24 3.5t6 13.5q0 5 -12 22l-118 162l-63 -59v-96q0 -26 12 -36t42 -10h28v-40h-256v40h28q30 0 42 10t12 36v573q0 17 -10.5 22.5t-37.5 5.5h-46v40l186 10v-500
l145 135q20 20 20 35q0 17 -50 17h-32z" />
    <glyph glyph-name="l" unicode="l" horiz-adv-x="315" 
d="M18 687v40l186 10v-651q0 -26 12 -36t42 -10h28v-40h-256v40h28q30 0 42 10t12 36v573q0 17 -10.5 22.5t-37.5 5.5h-46z" />
    <glyph glyph-name="m" unicode="m" horiz-adv-x="889" 
d="M618 0v40h24q30 0 42 10t12 36v241q0 42 -23 67t-65 25q-47 0 -79.5 -33t-32.5 -85v-215q0 -26 12 -36t42 -10h24v-40h-248v40h24q30 0 42 10t12 36v230q0 48 -26 75.5t-69 27.5q-40 0 -72.5 -44.5t-32.5 -117.5v-171q0 -26 12 -36t42 -10h24v-40h-256v40h32q30 0 42 10
t12 36v300q0 17 -10.5 22.5t-37.5 5.5h-38v40l178 10v-85h2q54 100 143 100q53 0 89.5 -28.5t47.5 -73.5q62 102 156 102q53 0 99.5 -46t46.5 -115v-232q0 -26 12 -36t42 -10h21v-40h-245z" />
    <glyph glyph-name="n" unicode="n" horiz-adv-x="611" 
d="M22 414v40l174 10v-85h2q54 100 150 100q73 0 116 -51t43 -128v-214q0 -26 12 -36t42 -10h28v-40h-256v40h28q30 0 42 10t12 36v230q0 48 -26 75.5t-69 27.5q-53 0 -88.5 -43.5t-35.5 -118.5v-171q0 -26 12 -36t42 -10h28v-40h-256v40h28q30 0 42 10t12 36v300
q0 17 -10.5 22.5t-37.5 5.5h-34z" />
    <glyph glyph-name="o" unicode="o" horiz-adv-x="500" 
d="M136 232q0 -207 114 -207t114 207t-114 207t-114 -207zM34 232q0 107 58 177t158 70t158 -70t58 -177t-58 -177t-158 -70t-158 70t-58 177z" />
    <glyph glyph-name="p" unicode="p" horiz-adv-x="574" 
d="M22 414v40l174 10v-62h2q43 77 139 77q84 0 143.5 -69t59.5 -184q0 -104 -55 -172.5t-149 -68.5q-105 0 -138 93h-2v-197q0 -26 12 -36t42 -10h28v-40h-256v40h28q30 0 42 10t12 36v505q0 17 -10.5 22.5t-37.5 5.5h-34zM438 232q0 100 -32.5 148.5t-88.5 48.5
t-88.5 -48.5t-32.5 -148.5t32.5 -148.5t88.5 -48.5t88.5 48.5t32.5 148.5z" />
    <glyph glyph-name="q" unicode="q" horiz-adv-x="556" 
d="M403 394l49 70h35q-17 -62 -17 -103v-480q0 -26 12 -36t42 -10h28v-40h-256v40h28q30 0 42 10t12 36v182h-2q-40 -78 -138 -78q-86 0 -145 66t-59 174q0 118 66 186t154 68q98 0 149 -85zM378 236q0 198 -121 198t-121 -198q0 -201 121 -201t121 201z" />
    <glyph glyph-name="r" unicode="r" horiz-adv-x="444" 
d="M18 414v40l186 10v-119h2q11 49 50 91.5t99 42.5q33 0 56 -22t23 -56q0 -30 -15.5 -49t-44.5 -19q-24 0 -39.5 16t-15.5 38q0 29 24 45v2h-2q-37 -3 -65 -32t-43 -71.5t-22 -83.5t-7 -75v-100q0 -19 13 -25.5t45 -6.5h36v-40h-272v40h33q29 0 41 10.5t12 38.5v297
q0 17 -10.5 22.5t-37.5 5.5h-46z" />
    <glyph glyph-name="s" unicode="s" horiz-adv-x="463" 
d="M322 439l28 35h35v-166h-35q-37 131 -149 131q-37 0 -64.5 -19t-27.5 -54q0 -27 21 -44t69 -27l98 -21q57 -12 88.5 -47t31.5 -89q0 -71 -46 -112t-117 -41q-84 0 -142 49l-31 -44h-35v190h35q44 -155 176 -155q37 0 68.5 20.5t31.5 56.5q0 35 -25 53t-86 32l-77 18
q-64 15 -89.5 47.5t-25.5 87.5q0 64 40.5 101.5t105.5 37.5q72 0 122 -40z" />
    <glyph glyph-name="t" unicode="t" horiz-adv-x="389" 
d="M18 419v45q119 8 133 202h40v-202h149v-45h-149v-297q0 -77 62 -77q30 0 48.5 24.5t24 52.5t5.5 58h40q-2 -195 -152 -195q-50 0 -85 30.5t-35 77.5v326h-81z" />
    <glyph glyph-name="u" unicode="u" horiz-adv-x="611" 
d="M318 414v40l189 10v-386q0 -17 10.5 -22.5t37.5 -5.5h34v-40l-174 -10v85h-2q-47 -100 -150 -100q-76 0 -117.5 39.5t-41.5 116.5v245q0 17 -10.5 22.5t-37.5 5.5h-34v40l174 10v-316q0 -53 21 -78t68 -25q65 0 97.5 46t32.5 122v173q0 17 -10.5 22.5t-37.5 5.5h-49z" />
    <glyph glyph-name="v" unicode="v" horiz-adv-x="537" 
d="M283 114l86 214q16 39 16 61q0 21 -15 28t-54 7v40h199v-40q-36 0 -57.5 -27t-46.5 -85l-137 -322h-30l-167 374q-17 38 -29.5 49t-41.5 11h-12v40h236v-40h-14q-30 0 -42.5 -4t-12.5 -17q0 -11 9 -31z" />
    <glyph glyph-name="w" unicode="w" horiz-adv-x="778" 
d="M500 -10l-124 317l-120 -317h-30l-157 395q-10 24 -20.5 31.5t-35.5 7.5h-12v40h219v-40h-16q-26 0 -35 -5t-9 -18q0 -10 13 -43l92 -230l89 239l-11 27q-7 18 -18.5 24t-35.5 6h-15v40h224v-40h-13q-34 0 -44.5 -4.5t-10.5 -18.5q0 -10 15 -49l91 -230l79 212
q13 34 13 62t-48 28h-20v40h189v-40q-31 -2 -46 -13.5t-28 -45.5l-145 -375h-30z" />
    <glyph glyph-name="x" unicode="x" horiz-adv-x="537" 
d="M301 424v40h206v-40q-50 -1 -80 -35l-120 -134l127 -164q40 -51 82 -51h13v-40h-251v40h38q26 0 26 16q0 14 -18 36l-76 96l-71 -81q-23 -26 -23 -41q0 -26 34 -26h32v-40h-212v40q55 5 71 23l141 159l-137 171q-22 29 -69 31v40h236v-40h-28q-32 0 -32 -14q0 -8 14 -27
l76 -94l65 74q18 19 18 36q0 25 -32 25h-30z" />
    <glyph glyph-name="y" unicode="y" horiz-adv-x="537" 
d="M334 424v40h199v-40q-35 -1 -52 -15.5t-32 -51.5l-130 -315q-55 -133 -107 -190t-116 -57q-39 0 -65.5 20t-26.5 58q0 25 18 41t43 16q20 0 34 -13t14 -29q0 -10 -3.5 -21t-3.5 -13q0 -14 12 -14q60 0 138 168l-157 356q-17 38 -29.5 49t-41.5 11h-12v40h236v-40h-14
q-30 0 -42.5 -4t-12.5 -17q0 -11 9 -31l110 -252l78 193q26 63 26 80q0 15 -13.5 23t-28.5 8h-30z" />
    <glyph glyph-name="z" unicode="z" horiz-adv-x="481" 
d="M101 297h-40l10 167h361v-35l-279 -384h121q36 0 60.5 11.5t37 33t18 41t9.5 47.5h40l-10 -178h-387v35l277 384h-89q-124 0 -129 -122z" />
    <glyph glyph-name="braceleft" unicode="{" 
d="M128 28v174q0 50 -15 74.5t-59 37.5q44 13 59 37.5t15 74.5v174q0 82 36.5 109.5t114.5 27.5v-20q-43 -10 -59 -38t-16 -81v-158q0 -55 -16.5 -84t-64.5 -41v-2q48 -12 64.5 -41t16.5 -84v-158q0 -53 16 -81t59 -38v-20q-78 0 -114.5 27.5t-36.5 109.5z" />
    <glyph glyph-name="bar" unicode="|" horiz-adv-x="606" 
d="M267 750h72v-1000h-72v1000z" />
    <glyph glyph-name="braceright" unicode="}" 
d="M129 440v158q0 53 -16 81t-59 38v20q78 0 114.5 -27.5t36.5 -109.5v-174q0 -50 15 -74.5t59 -37.5q-44 -13 -59 -37.5t-15 -74.5v-174q0 -82 -36.5 -109.5t-114.5 -27.5v20q43 10 59 38t16 81v158q0 55 16.5 84t64.5 41v2q-48 12 -64.5 41t-16.5 84z" />
    <glyph glyph-name="asciitilde" unicode="~" horiz-adv-x="606" 
d="M498 322l36 -49q-44 -89 -125 -89q-45 0 -111 32q-70 34 -102 34q-19 0 -36.5 -11.5t-26.5 -22t-25 -32.5l-36 49q44 89 125 89q45 0 111 -32q70 -34 102 -34q19 0 36.5 11.5t26.5 22t25 32.5z" />
    <glyph glyph-name="uni00A0" unicode="&#xa0;" horiz-adv-x="278" 
 />
    <glyph glyph-name="exclamdown" unicode="&#xa1;" horiz-adv-x="296" 
d="M128 270v70h40v-70q0 -109 20 -230t20 -160q0 -37 -16 -61t-44 -24t-44 24t-16 61q0 39 20 160t20 230zM86 485q0 25 18 43.5t44 18.5t44 -18.5t18 -43.5t-18 -43.5t-44 -18.5t-44 18.5t-18 43.5z" />
    <glyph glyph-name="cent" unicode="&#xa2;" horiz-adv-x="556" 
d="M393 464l48 120h40l-54 -139q42 -37 42 -81q0 -34 -20.5 -51t-44.5 -17q-20 0 -32 12l-102 -256q30 -7 52 -7q87 0 123 100l37 -13q-47 -147 -190 -147q-28 0 -51 5l-52 -131h-40l59 141q-66 29 -100 87.5t-34 132.5q0 112 63.5 185.5t173.5 73.5q48 0 82 -15zM236 71
l115 289q3 7 9.5 18.5t11.5 20.5t5 13q0 9 -19.5 18t-40.5 9q-40 0 -69 -18t-44 -48.5t-21.5 -63.5t-6.5 -72q0 -50 14 -97.5t46 -68.5z" />
    <glyph glyph-name="sterling" unicode="&#xa3;" horiz-adv-x="556" 
d="M37 326v40h122q-27 95 -27 147q0 86 55.5 139t142.5 53q79 0 127.5 -41.5t48.5 -102.5q0 -34 -18.5 -58t-50.5 -24q-25 0 -42 16t-17 43q0 22 15.5 36t31 21t15.5 14q0 21 -27 38.5t-69 17.5q-52 0 -83.5 -31.5t-31.5 -91.5q0 -43 32 -176h171v-40h-161q10 -57 10 -104
q0 -70 -32 -119q84 -32 135 -32q45 0 72.5 22t47.5 66l34 -14q-16 -72 -57.5 -116t-109.5 -44q-71 0 -152 60q-52 -60 -115 -60q-34 0 -60 22t-26 56q0 38 25 61.5t64 23.5q45 0 92 -24q6 26 6 53q0 59 -33 149h-135zM58 66q0 -17 15 -29t34 -12q44 0 75 49q-45 34 -82 34
q-17 0 -29.5 -14t-12.5 -28z" />
    <glyph glyph-name="currency" unicode="&#xa4;" horiz-adv-x="556" 
d="M26 138l56 56q-52 66 -52 151q0 86 52 151l-56 56l45 45l56 -56q65 52 151 52q85 0 151 -52l56 56l45 -45l-56 -56q52 -65 52 -151q0 -85 -52 -151l56 -56l-45 -45l-56 57q-64 -53 -151 -53q-86 0 -151 52l-56 -56zM102 345q0 -77 51.5 -129.5t124.5 -52.5t124.5 52.5
t51.5 129.5t-51.5 129.5t-124.5 52.5t-124.5 -52.5t-51.5 -129.5z" />
    <glyph glyph-name="yen" unicode="&#xa5;" horiz-adv-x="556" 
d="M246 210v72h-133v45h108l-142 274q-12 24 -24.5 34t-36.5 10h-19v45h245v-45h-53q-23 0 -23 -17q0 -8 15 -40l126 -256l96 220q14 31 14 60q0 33 -80 33v45h218v-45q-41 -2 -62.5 -22t-43.5 -70l-102 -226h110v-45h-133v-72h133v-45h-133v-67q0 -34 11.5 -43.5t54.5 -9.5
h25v-45h-262v45h25q43 0 54.5 9.5t11.5 43.5v67h-133v45h133z" />
    <glyph glyph-name="brokenbar" unicode="&#xa6;" horiz-adv-x="606" 
d="M267 675h72v-350h-72v350zM267 175h72v-350h-72v350z" />
    <glyph glyph-name="section" unicode="&#xa7;" horiz-adv-x="500" 
d="M244 75l-78 62q-111 89 -111 180q0 53 37 91t84 38q14 0 28 -3l2 2q-53 40 -78 78.5t-25 84.5q0 63 46 96t111 33q55 0 94 -29.5t39 -73.5q0 -28 -14.5 -45t-40.5 -17q-54 0 -54 50q0 15 9 27.5t18.5 20.5t9.5 12q0 9 -20.5 19.5t-47.5 10.5q-32 0 -58 -21.5t-26 -52.5
q0 -23 12 -42t44 -46l110 -94q110 -93 110 -175q0 -57 -36.5 -98t-85.5 -41q-17 0 -30 4l-2 -2q56 -34 83.5 -78t27.5 -86q0 -57 -45 -92t-109 -35q-60 0 -99 33t-39 70q0 29 16 44.5t42 15.5q21 0 36 -13.5t15 -35.5q0 -20 -18.5 -37.5t-18.5 -21.5q0 -10 21 -20t48 -10
q34 0 59.5 19t25.5 51t-18.5 57.5t-73.5 69.5zM115 351q0 -54 74.5 -119t120.5 -65q33 0 54 20.5t21 53.5q0 46 -72.5 113t-118.5 67q-34 0 -56.5 -18.5t-22.5 -51.5z" />
    <glyph glyph-name="dieresis" unicode="&#xa8;" 
d="M16 653q0 21 15 36t36 15t36 -15t15 -36t-15 -36t-36 -15t-36 15t-15 36zM215 653q0 21 15 36t36 15t36 -15t15 -36t-15 -36t-36 -15t-36 15t-15 36z" />
    <glyph glyph-name="copyright" unicode="&#xa9;" horiz-adv-x="737" 
d="M533 453h-20q-4 42 -32 69t-86 27q-72 0 -109 -49t-37 -131q0 -86 36.5 -136.5t115.5 -50.5q91 0 131 95l18 -8l-17 -78q-2 -7 -17 -15.5t-49 -16t-77 -7.5q-117 0 -172 60.5t-55 151.5q0 101 62 158t172 57q53 0 94.5 -13.5t41.5 -27.5v-85zM-8 361q0 156 110 266
t266 110t266 -110t110 -266t-110 -266t-266 -110t-266 110t-110 266zM64 361q0 -135 86.5 -222.5t217.5 -87.5t217.5 87.5t86.5 222.5t-86.5 222.5t-217.5 87.5t-217.5 -87.5t-86.5 -222.5z" />
    <glyph glyph-name="ordfeminine" unicode="&#xaa;" horiz-adv-x="334" 
d="M207 590v30q0 29 -16 42t-54 13q-20 0 -34.5 -3.5t-20 -7t-5.5 -6.5t8.5 -14.5t8.5 -19.5q0 -30 -39 -30q-41 0 -41 38q0 30 37 51.5t102 21.5q67 0 96.5 -21.5t29.5 -69.5q0 -16 -1 -72t-1 -67q0 -9 7 -18.5t17 -9.5t18.5 3.5t10.5 3.5q8 0 8 -10q0 -12 -18.5 -24.5
t-45.5 -12.5q-51 0 -63 46q-44 -46 -117 -46q-98 0 -98 73q0 87 211 110zM207 526v40q-78 -10 -108.5 -28.5t-30.5 -51.5q0 -16 16 -27.5t36 -11.5q33 0 60 22t27 57z" />
    <glyph glyph-name="guillemotleft" unicode="&#xab;" horiz-adv-x="426" 
d="M39 235v6q37 29 76.5 69.5t62 64t30.5 23.5q12 0 12 -10q0 -8 -31 -57t-64 -93q33 -44 64 -93t31 -57q0 -10 -12 -10q-8 0 -30.5 23.5t-62 64t-76.5 69.5zM206 235v6q37 29 76.5 69.5t62 64t30.5 23.5q12 0 12 -10q0 -8 -31 -57t-64 -93q33 -44 64 -93t31 -57
q0 -10 -12 -10q-8 0 -30.5 23.5t-62 64t-76.5 69.5z" />
    <glyph glyph-name="logicalnot" unicode="&#xac;" horiz-adv-x="606" 
d="M484 108v209h-434v72h506v-281h-72z" />
    <glyph glyph-name="uni00AD" unicode="&#xad;" 
d="M42 199v78h249v-78h-249z" />
    <glyph glyph-name="registered" unicode="&#xae;" horiz-adv-x="737" 
d="M-8 361q0 156 110 266t266 110t266 -110t110 -266t-110 -266t-266 -110t-266 110t-110 266zM64 361q0 -135 86.5 -222.5t217.5 -87.5t217.5 87.5t86.5 222.5t-86.5 222.5t-217.5 87.5t-217.5 -87.5t-86.5 -222.5zM237 238v259q0 31 -8 38t-44 10v25h209q54 0 89.5 -25.5
t35.5 -75.5q0 -40 -23 -70.5t-60 -41.5l77 -126q22 -37 55 -41v-25h-80q-28 0 -56 49l-75 131h-40v-107q0 -31 8 -38t42 -10v-25h-182v25q36 3 44 10t8 38zM317 545v-175h43q37 0 55 25.5t18 66.5q0 83 -74 83h-42z" />
    <glyph glyph-name="macron" unicode="&#xaf;" 
d="M10 568v55h313v-55h-313z" />
    <glyph glyph-name="degree" unicode="&#xb0;" horiz-adv-x="400" 
d="M57 562q0 59 42 101t101 42t101 -42t42 -101t-42 -101t-101 -42t-101 42t-42 101zM112 562q0 -37 25.5 -62.5t62.5 -25.5t62.5 25.5t25.5 62.5t-25.5 62.5t-62.5 25.5t-62.5 -25.5t-25.5 -62.5z" />
    <glyph glyph-name="plusminus" unicode="&#xb1;" horiz-adv-x="606" 
d="M267 344v162h72v-162h217v-72h-217v-162h-72v162h-217v72h217zM50 0v72h506v-72h-506z" />
    <glyph glyph-name="twosuperior" unicode="&#xb2;" 
d="M279 363l15 46h25l-10 -127h-295v15q33 45 78 88q95 91 124 131t29 83q0 36 -24.5 56t-65.5 20q-39 0 -64 -19t-25 -40q0 -6 13 -10.5t26 -14t13 -28.5q0 -15 -13 -24.5t-32 -9.5q-21 0 -34 18.5t-13 46.5q0 43 39.5 77t107.5 34q57 0 100.5 -31.5t43.5 -82.5
q0 -45 -28 -78t-101 -89q-100 -76 -107 -80v-2h153q23 0 32 4.5t13 16.5z" />
    <glyph glyph-name="threesuperior" unicode="&#xb3;" 
d="M35 610q0 35 35.5 65t98.5 30q56 0 94.5 -27t38.5 -77q0 -38 -25.5 -63.5t-65.5 -34.5v-2q47 -6 75.5 -34.5t28.5 -73.5q0 -56 -44.5 -88t-108.5 -32q-60 0 -102 25t-42 77q0 19 12 33t32 14q17 0 29.5 -9.5t12.5 -24.5q0 -18 -10 -27t-20.5 -12.5t-10.5 -9.5
q0 -12 26.5 -24t63.5 -12q46 0 68 25.5t22 66.5q0 94 -79 94q-9 0 -23 -1.5t-19 -1.5q-20 0 -20 14q0 12 5.5 17t19.5 5q4 0 15 -1.5t16 -1.5q42 0 60 20.5t18 61.5q0 74 -75 74q-24 0 -42.5 -6t-26 -13t-7.5 -12q0 -4 15 -15t15 -25q0 -16 -10 -26.5t-28 -10.5
q-19 0 -30.5 12.5t-11.5 30.5z" />
    <glyph glyph-name="acute" unicode="&#xb4;" 
d="M91 528l138 139q32 32 54 32q15 0 24 -10t9 -24q0 -22 -40 -46l-145 -91h-40z" />
    <glyph glyph-name="mu" unicode="&#xb5;" horiz-adv-x="611" 
d="M599 39q-6 -16 -32.5 -33.5t-63.5 -17.5q-38 0 -60.5 26t-27.5 71h-2q-34 -95 -120 -95q-31 0 -57 22t-40 54v-185q0 -26 12 -36t42 -10h28v-40h-256v40h28q30 0 42 10t12 36v505q0 17 -10.5 22.5t-37.5 5.5h-34v40l174 10v-280q0 -54 26.5 -88.5t72.5 -34.5
q120 0 120 168v157q0 17 -10.5 22.5t-37.5 5.5h-49v40l189 10v-347q0 -38 6.5 -52.5t31.5 -14.5q8 0 17.5 3.5t15.5 7.5l5 4z" />
    <glyph glyph-name="paragraph" unicode="&#xb6;" horiz-adv-x="606" 
d="M392 -132v804h-72v-804h-154v25q58 9 70 19.5t12 51.5v350q-188 0 -188 212q0 103 52 149.5t163 46.5h271v-25q-58 -9 -70 -19.5t-12 -51.5v-662q0 -41 12 -51.5t70 -19.5v-25h-154zM248 364v308q-55 0 -83.5 -33.5t-28.5 -114.5q0 -84 32 -122t80 -38z" />
    <glyph glyph-name="periodcentered" unicode="&#xb7;" horiz-adv-x="278" 
d="M71 306q0 28 19.5 48t48.5 20t48.5 -20t19.5 -48t-19.5 -48t-48.5 -20t-48.5 20t-19.5 48z" />
    <glyph glyph-name="cedilla" unicode="&#xb8;" 
d="M115 0h36l-26 -65q13 3 29 3q36 0 59.5 -17.5t23.5 -51.5q0 -38 -33 -61t-95 -23q-41 0 -80 17l14 30q32 -12 61 -12q57 0 57 46q0 18 -11 27.5t-25 9.5q-27 0 -44 -5l-7 3z" />
    <glyph glyph-name="onesuperior" unicode="&#xb9;" 
d="M46 282v25h47q25 0 34.5 9.5t9.5 33.5v251q0 22 -7 28t-32 6h-59v25q89 2 144 45h20v-355q0 -24 9.5 -33.5t34.5 -9.5h47v-25h-248z" />
    <glyph glyph-name="ordmasculine" unicode="&#xba;" horiz-adv-x="300" 
d="M80 556q0 -63 20 -91t51 -28q30 0 49.5 28t19.5 91t-19.5 91t-49.5 28q-31 0 -51 -28t-20 -91zM4 556q0 65 38.5 107t108.5 42q68 0 106.5 -42t38.5 -107t-38.5 -107t-106.5 -42q-70 0 -108.5 42t-38.5 107z" />
    <glyph glyph-name="guillemotright" unicode="&#xbb;" horiz-adv-x="426" 
d="M387 241v-6q-37 -29 -76.5 -69.5t-62 -64t-30.5 -23.5q-12 0 -12 10q0 8 31 57t64 93q-33 44 -64 93t-31 57q0 10 12 10q8 0 30.5 -23.5t62 -64t76.5 -69.5zM220 241v-6q-37 -29 -76.5 -69.5t-62 -64t-30.5 -23.5q-12 0 -12 10q0 8 31 57t64 93q-33 44 -64 93t-31 57
q0 10 12 10q8 0 30.5 -23.5t62 -64t76.5 -69.5z" />
    <glyph glyph-name="onequarter" unicode="&#xbc;" horiz-adv-x="834" 
d="M471 102v35l224 286h25q-5 -43 -5 -90v-196h80v-35h-80v-34q0 -28 7 -35.5t33 -7.5h22v-25h-190v25h25q30 0 36.5 6.5t6.5 35.5v35h-184zM655 137v183h-2l-137 -183h139zM147 -15l502 720h55l-502 -720h-55zM46 282v25h47q25 0 34.5 9.5t9.5 33.5v251q0 22 -7 28t-32 6
h-59v25q89 2 144 45h20v-355q0 -24 9.5 -33.5t34.5 -9.5h47v-25h-248z" />
    <glyph glyph-name="onehalf" unicode="&#xbd;" horiz-adv-x="834" 
d="M147 -15l502 720h55l-502 -720h-55zM39 635v25q89 2 144 45h20v-355q0 -24 9.5 -33.5t34.5 -9.5h47v-25h-248v25h47q25 0 34.5 9.5t9.5 33.5v251q0 22 -7 28t-32 6h-59zM780 81l15 46h25l-10 -127h-295v15q33 45 78 88q95 91 124 131t29 83q0 36 -24.5 56t-65.5 20
q-39 0 -64 -19t-25 -40q0 -6 13 -10.5t26 -14t13 -28.5q0 -15 -13 -24.5t-32 -9.5q-21 0 -34 18.5t-13 46.5q0 43 39.5 77t107.5 34q57 0 100.5 -31.5t43.5 -82.5q0 -45 -28 -78t-101 -89q-100 -76 -107 -80v-2h153q23 0 32 4.5t13 16.5z" />
    <glyph glyph-name="threequarters" unicode="&#xbe;" horiz-adv-x="834" 
d="M471 102v35l224 286h25q-5 -43 -5 -90v-196h80v-35h-80v-34q0 -28 7 -35.5t33 -7.5h22v-25h-190v25h25q30 0 36.5 6.5t6.5 35.5v35h-184zM655 137v183h-2l-137 -183h139zM147 -15l502 720h55l-502 -720h-55zM45 610q0 35 35.5 65t98.5 30q56 0 94.5 -27t38.5 -77
q0 -38 -25.5 -63.5t-65.5 -34.5v-2q47 -6 75.5 -34.5t28.5 -73.5q0 -56 -44.5 -88t-108.5 -32q-60 0 -102 25t-42 77q0 19 12 33t32 14q17 0 29.5 -9.5t12.5 -24.5q0 -18 -10 -27t-20.5 -12.5t-10.5 -9.5q0 -12 26.5 -24t63.5 -12q46 0 68 25.5t22 66.5q0 94 -79 94
q-9 0 -23 -1.5t-19 -1.5q-20 0 -20 14q0 12 5.5 17t19.5 5q4 0 15 -1.5t16 -1.5q42 0 60 20.5t18 61.5q0 74 -75 74q-24 0 -42.5 -6t-26 -13t-7.5 -12q0 -4 15 -15t15 -25q0 -16 -10 -26.5t-28 -10.5q-19 0 -30.5 12.5t-11.5 30.5z" />
    <glyph glyph-name="questiondown" unicode="&#xbf;" horiz-adv-x="444" 
d="M225 324v13h40v-35q0 -93 -54 -166l-36 -49q-44 -60 -44 -119q0 -128 119 -128q38 0 63.5 16.5t25.5 31.5q0 11 -22 32.5t-22 46.5q0 23 16.5 38.5t39.5 15.5q25 0 44.5 -22t19.5 -55q0 -70 -58 -109.5t-138 -39.5q-81 0 -135.5 48.5t-54.5 128.5q0 48 25.5 89t84.5 90
q53 44 69.5 76.5t16.5 96.5zM183 485q0 25 18.5 43.5t43.5 18.5t43.5 -18.5t18.5 -43.5t-18.5 -43.5t-43.5 -18.5t-43.5 18.5t-18.5 43.5z" />
    <glyph glyph-name="Agrave" unicode="&#xc0;" horiz-adv-x="722" 
d="M-8 0v45q74 1 104 78l242 614h40l264 -649q11 -27 28 -35t60 -8v-45h-306v45h25q78 0 78 26q0 13 -14 49l-47 118h-270l-27 -79q-15 -42 -15 -57q0 -33 25.5 -44.5t76.5 -12.5v-45h-264zM215 288h232l-118 292zM437 766h-40l-145 91q-40 24 -40 46q0 14 9 24t24 10
q22 0 54 -32z" />
    <glyph glyph-name="Aacute" unicode="&#xc1;" horiz-adv-x="722" 
d="M-8 0v45q74 1 104 78l242 614h40l264 -649q11 -27 28 -35t60 -8v-45h-306v45h25q78 0 78 26q0 13 -14 49l-47 118h-270l-27 -79q-15 -42 -15 -57q0 -33 25.5 -44.5t76.5 -12.5v-45h-264zM215 288h232l-118 292zM286 766l138 139q32 32 54 32q15 0 24 -10t9 -24
q0 -22 -40 -46l-145 -91h-40z" />
    <glyph glyph-name="Acircumflex" unicode="&#xc2;" horiz-adv-x="722" 
d="M-8 0v45q74 1 104 78l242 614h40l264 -649q11 -27 28 -35t60 -8v-45h-306v45h25q78 0 78 26q0 13 -14 49l-47 118h-270l-27 -79q-15 -42 -15 -57q0 -33 25.5 -44.5t76.5 -12.5v-45h-264zM215 288h232l-118 292zM362 867l-122 -101h-35l124 167h66l123 -167h-35z" />
    <glyph glyph-name="Atilde" unicode="&#xc3;" horiz-adv-x="722" 
d="M-8 0v45q74 1 104 78l242 614h40l264 -649q11 -27 28 -35t60 -8v-45h-306v45h25q78 0 78 26q0 13 -14 49l-47 118h-270l-27 -79q-15 -42 -15 -57q0 -33 25.5 -44.5t76.5 -12.5v-45h-264zM215 288h232l-118 292zM497 893h30q-7 -45 -35.5 -73.5t-69.5 -28.5q-38 0 -77 23
q-42 24 -63 24q-40 0 -56 -47h-30q8 43 37 72.5t71 29.5q31 0 73 -24q41 -23 67 -23q20 0 34.5 14.5t18.5 32.5z" />
    <glyph glyph-name="Adieresis" unicode="&#xc4;" horiz-adv-x="722" 
d="M-8 0v45q74 1 104 78l242 614h40l264 -649q11 -27 28 -35t60 -8v-45h-306v45h25q78 0 78 26q0 13 -14 49l-47 118h-270l-27 -79q-15 -42 -15 -57q0 -33 25.5 -44.5t76.5 -12.5v-45h-264zM215 288h232l-118 292zM211 832q0 21 15 36t36 15t36 -15t15 -36t-15 -36t-36 -15
t-36 15t-15 36zM410 832q0 21 15 36t36 15t36 -15t15 -36t-15 -36t-36 -15t-36 15t-15 36z" />
    <glyph glyph-name="Aring" unicode="&#xc5;" horiz-adv-x="722" 
d="M-8 0v45q74 1 104 78l242 614h40l264 -649q11 -27 28 -35t60 -8v-45h-306v45h25q78 0 78 26q0 13 -14 49l-47 118h-270l-27 -79q-15 -42 -15 -57q0 -33 25.5 -44.5t76.5 -12.5v-45h-264zM215 288h232l-118 292zM261 865q0 41 29.5 70.5t70.5 29.5t70.5 -29.5t29.5 -70.5
t-29.5 -70.5t-70.5 -29.5t-70.5 29.5t-29.5 70.5zM296 865q0 -27 19 -46t46 -19t46 19t19 46t-19 46t-46 19t-46 -19t-19 -46z" />
    <glyph glyph-name="AE" unicode="&#xc6;" horiz-adv-x="1000" 
d="M359 0v45h55q30 0 43 11t13 40v177h-243l-57 -108q-25 -46 -25 -72t18.5 -36.5t67.5 -11.5v-45h-231v45q28 6 46 23.5t39 55.5l247 442q19 33 19 56q0 31 -25.5 43t-85.5 12v45h692l14 -258h-40q-12 74 -25 112.5t-41 63t-66.5 31t-109.5 6.5q-55 0 -70 -10.5t-15 -41.5
v-226h37q55 0 82 32.5t36 103.5h45v-328h-45q-7 83 -31 115t-89 32h-35v-270q0 -26 14 -32.5t60 -6.5q54 0 86.5 2t61.5 12.5t43.5 22t30 41t24 59t23.5 85.5h40l-19 -267h-584zM470 323v321q0 33 -12 33q-8 0 -22 -26l-181 -328h215z" />
    <glyph glyph-name="Ccedilla" unicode="&#xc7;" horiz-adv-x="722" 
d="M269 -198l14 30q32 -12 61 -12q57 0 57 46q0 18 -11 27.5t-25 9.5q-27 0 -44 -5l-7 3l36 84q-127 12 -217 110q-88 97 -88 248q0 90 30 166t79.5 125t110.5 76t124 27q103 0 172 -69l43 62h35l14 -290h-40q-63 252 -227 252q-107 0 -160 -92t-53 -241q0 -142 38 -219
q25 -51 73 -80.5t105 -29.5q103 0 160 60.5t73 163.5l46 -8q-18 -122 -89.5 -190.5t-193.5 -70.5l-20 -52q11 5 29 5q36 0 59.5 -17.5t23.5 -51.5q0 -38 -33 -61t-95 -23q-41 0 -80 17z" />
    <glyph glyph-name="Egrave" unicode="&#xc8;" horiz-adv-x="722" 
d="M29 677v45h604l14 -258h-40q-8 45 -17.5 76t-20 55t-28.5 38.5t-34.5 24t-48 13.5t-59 5t-76.5 1q-46 0 -60 -6.5t-14 -32.5v-239h36q66 0 97.5 31.5t35.5 105.5h45v-328h-45q0 69 -28.5 107.5t-85.5 38.5h-55v-270q0 -26 14 -32.5t60 -6.5q63 0 99.5 1.5t69.5 12
t48.5 21.5t32.5 41t26 59t24 87h40l-19 -267h-615v45h55q30 0 43 11t13 40v530q0 29 -13 40t-43 11h-55zM437 766h-40l-145 91q-40 24 -40 46q0 14 9 24t24 10q22 0 54 -32z" />
    <glyph glyph-name="Eacute" unicode="&#xc9;" horiz-adv-x="722" 
d="M29 677v45h604l14 -258h-40q-8 45 -17.5 76t-20 55t-28.5 38.5t-34.5 24t-48 13.5t-59 5t-76.5 1q-46 0 -60 -6.5t-14 -32.5v-239h36q66 0 97.5 31.5t35.5 105.5h45v-328h-45q0 69 -28.5 107.5t-85.5 38.5h-55v-270q0 -26 14 -32.5t60 -6.5q63 0 99.5 1.5t69.5 12
t48.5 21.5t32.5 41t26 59t24 87h40l-19 -267h-615v45h55q30 0 43 11t13 40v530q0 29 -13 40t-43 11h-55zM286 766l138 139q32 32 54 32q15 0 24 -10t9 -24q0 -22 -40 -46l-145 -91h-40z" />
    <glyph glyph-name="Ecircumflex" unicode="&#xca;" horiz-adv-x="722" 
d="M29 677v45h604l14 -258h-40q-8 45 -17.5 76t-20 55t-28.5 38.5t-34.5 24t-48 13.5t-59 5t-76.5 1q-46 0 -60 -6.5t-14 -32.5v-239h36q66 0 97.5 31.5t35.5 105.5h45v-328h-45q0 69 -28.5 107.5t-85.5 38.5h-55v-270q0 -26 14 -32.5t60 -6.5q63 0 99.5 1.5t69.5 12
t48.5 21.5t32.5 41t26 59t24 87h40l-19 -267h-615v45h55q30 0 43 11t13 40v530q0 29 -13 40t-43 11h-55zM362 867l-122 -101h-35l124 167h66l123 -167h-35z" />
    <glyph glyph-name="Edieresis" unicode="&#xcb;" horiz-adv-x="722" 
d="M29 677v45h604l14 -258h-40q-8 45 -17.5 76t-20 55t-28.5 38.5t-34.5 24t-48 13.5t-59 5t-76.5 1q-46 0 -60 -6.5t-14 -32.5v-239h36q66 0 97.5 31.5t35.5 105.5h45v-328h-45q0 69 -28.5 107.5t-85.5 38.5h-55v-270q0 -26 14 -32.5t60 -6.5q63 0 99.5 1.5t69.5 12
t48.5 21.5t32.5 41t26 59t24 87h40l-19 -267h-615v45h55q30 0 43 11t13 40v530q0 29 -13 40t-43 11h-55zM211 832q0 21 15 36t36 15t36 -15t15 -36t-15 -36t-36 -15t-36 15t-15 36zM410 832q0 21 15 36t36 15t36 -15t15 -36t-15 -36t-36 -15t-36 15t-15 36z" />
    <glyph glyph-name="Igrave" unicode="&#xcc;" horiz-adv-x="407" 
d="M38 0v45h55q30 0 43 11t13 40v530q0 29 -13 40t-43 11h-55v45h331v-45h-55q-30 0 -43 -11t-13 -40v-530q0 -29 13 -40t43 -11h55v-45h-331zM279 766h-40l-145 91q-40 24 -40 46q0 14 9 24t24 10q22 0 54 -32z" />
    <glyph glyph-name="Iacute" unicode="&#xcd;" horiz-adv-x="407" 
d="M38 0v45h55q30 0 43 11t13 40v530q0 29 -13 40t-43 11h-55v45h331v-45h-55q-30 0 -43 -11t-13 -40v-530q0 -29 13 -40t43 -11h55v-45h-331zM128 766l138 139q32 32 54 32q15 0 24 -10t9 -24q0 -22 -40 -46l-145 -91h-40z" />
    <glyph glyph-name="Icircumflex" unicode="&#xce;" horiz-adv-x="407" 
d="M38 0v45h55q30 0 43 11t13 40v530q0 29 -13 40t-43 11h-55v45h331v-45h-55q-30 0 -43 -11t-13 -40v-530q0 -29 13 -40t43 -11h55v-45h-331zM204 867l-122 -101h-35l124 167h66l123 -167h-35z" />
    <glyph glyph-name="Idieresis" unicode="&#xcf;" horiz-adv-x="407" 
d="M38 0v45h55q30 0 43 11t13 40v530q0 29 -13 40t-43 11h-55v45h331v-45h-55q-30 0 -43 -11t-13 -40v-530q0 -29 13 -40t43 -11h55v-45h-331zM53 832q0 21 15 36t36 15t36 -15t15 -36t-15 -36t-36 -15t-36 15t-15 36zM252 832q0 21 15 36t36 15t36 -15t15 -36t-15 -36
t-36 -15t-36 15t-15 36z" />
    <glyph glyph-name="Eth" unicode="&#xd0;" horiz-adv-x="778" 
d="M140 399v227q0 29 -13 40t-43 11h-55v45h333q200 0 281 -95q90 -107 90 -275q0 -75 -25.5 -146t-70.5 -116q-52 -51 -114.5 -70.5t-168.5 -19.5h-325v45h55q30 0 43 11t13 40v248h-111v55h111zM249 399h176v-55h-176v-260q0 -26 14 -32.5t60 -6.5q102 0 148 14t76 53
q33 43 45.5 101.5t12.5 147.5q0 181 -60 248.5t-209 67.5q-57 0 -72 -8.5t-15 -36.5v-233z" />
    <glyph glyph-name="Ntilde" unicode="&#xd1;" horiz-adv-x="815" 
d="M509 677v45h282v-45q-81 -7 -97 -40q-19 -39 -19 -114v-538h-40l-443 613h-2v-434q0 -66 20.5 -91t96.5 -28v-45h-283v45q65 2 90.5 29t25.5 89v481q-16 21 -37 27t-64 6h-15v45h206l393 -539h2v353q0 77 -21 108t-95 33zM543 893h30q-7 -45 -35.5 -73.5t-69.5 -28.5
q-38 0 -77 23q-42 24 -63 24q-40 0 -56 -47h-30q8 43 37 72.5t71 29.5q31 0 73 -24q41 -23 67 -23q20 0 34.5 14.5t18.5 32.5z" />
    <glyph glyph-name="Ograve" unicode="&#xd2;" horiz-adv-x="778" 
d="M605 361q0 331 -217 331q-64 0 -109 -30t-67 -82t-30.5 -104.5t-8.5 -114.5q0 -331 217 -331q64 0 109 30t67 82t30.5 104.5t8.5 114.5zM733 361q0 -46 -13 -96.5t-41 -100.5t-67.5 -89.5t-97 -64.5t-124.5 -25q-100 0 -180.5 54t-122.5 139.5t-42 182.5q0 46 13 96.5
t41 100.5t67.5 89.5t97 64.5t124.5 25q100 0 180.5 -54t122.5 -139.5t42 -182.5zM465 766h-40l-145 91q-40 24 -40 46q0 14 9 24t24 10q22 0 54 -32z" />
    <glyph glyph-name="Oacute" unicode="&#xd3;" horiz-adv-x="778" 
d="M605 361q0 331 -217 331q-64 0 -109 -30t-67 -82t-30.5 -104.5t-8.5 -114.5q0 -331 217 -331q64 0 109 30t67 82t30.5 104.5t8.5 114.5zM733 361q0 -46 -13 -96.5t-41 -100.5t-67.5 -89.5t-97 -64.5t-124.5 -25q-100 0 -180.5 54t-122.5 139.5t-42 182.5q0 46 13 96.5
t41 100.5t67.5 89.5t97 64.5t124.5 25q100 0 180.5 -54t122.5 -139.5t42 -182.5zM314 766l138 139q32 32 54 32q15 0 24 -10t9 -24q0 -22 -40 -46l-145 -91h-40z" />
    <glyph glyph-name="Ocircumflex" unicode="&#xd4;" horiz-adv-x="778" 
d="M605 361q0 331 -217 331q-64 0 -109 -30t-67 -82t-30.5 -104.5t-8.5 -114.5q0 -331 217 -331q64 0 109 30t67 82t30.5 104.5t8.5 114.5zM733 361q0 -46 -13 -96.5t-41 -100.5t-67.5 -89.5t-97 -64.5t-124.5 -25q-100 0 -180.5 54t-122.5 139.5t-42 182.5q0 46 13 96.5
t41 100.5t67.5 89.5t97 64.5t124.5 25q100 0 180.5 -54t122.5 -139.5t42 -182.5zM390 867l-122 -101h-35l124 167h66l123 -167h-35z" />
    <glyph glyph-name="Otilde" unicode="&#xd5;" horiz-adv-x="778" 
d="M605 361q0 331 -217 331q-64 0 -109 -30t-67 -82t-30.5 -104.5t-8.5 -114.5q0 -331 217 -331q64 0 109 30t67 82t30.5 104.5t8.5 114.5zM733 361q0 -46 -13 -96.5t-41 -100.5t-67.5 -89.5t-97 -64.5t-124.5 -25q-100 0 -180.5 54t-122.5 139.5t-42 182.5q0 46 13 96.5
t41 100.5t67.5 89.5t97 64.5t124.5 25q100 0 180.5 -54t122.5 -139.5t42 -182.5zM525 893h30q-7 -45 -35.5 -73.5t-69.5 -28.5q-38 0 -77 23q-42 24 -63 24q-40 0 -56 -47h-30q8 43 37 72.5t71 29.5q31 0 73 -24q41 -23 67 -23q20 0 34.5 14.5t18.5 32.5z" />
    <glyph glyph-name="Odieresis" unicode="&#xd6;" horiz-adv-x="778" 
d="M605 361q0 331 -217 331q-64 0 -109 -30t-67 -82t-30.5 -104.5t-8.5 -114.5q0 -331 217 -331q64 0 109 30t67 82t30.5 104.5t8.5 114.5zM733 361q0 -46 -13 -96.5t-41 -100.5t-67.5 -89.5t-97 -64.5t-124.5 -25q-100 0 -180.5 54t-122.5 139.5t-42 182.5q0 46 13 96.5
t41 100.5t67.5 89.5t97 64.5t124.5 25q100 0 180.5 -54t122.5 -139.5t42 -182.5zM239 832q0 21 15 36t36 15t36 -15t15 -36t-15 -36t-36 -15t-36 15t-15 36zM438 832q0 21 15 36t36 15t36 -15t15 -36t-15 -36t-36 -15t-36 15t-15 36z" />
    <glyph glyph-name="multiply" unicode="&#xd7;" horiz-adv-x="606" 
d="M251 253l-177 178l51 51l177 -178l179 178l51 -51l-179 -178l179 -178l-51 -51l-179 179l-177 -179l-51 51z" />
    <glyph glyph-name="Oslash" unicode="&#xd8;" horiz-adv-x="778" 
d="M572 568l-340 -462q56 -76 158 -76q64 0 109 30t67 82t30.5 104.5t8.5 114.5q0 129 -33 207zM206 153l340 463q-54 76 -158 76q-64 0 -109 -30t-67 -82t-30.5 -104.5t-8.5 -114.5q0 -129 33 -208zM586 671l79 107h60l-102 -140q52 -53 81 -126t29 -151q0 -46 -13 -96.5
t-41 -100.5t-67.5 -89.5t-97 -64.5t-124.5 -25q-112 0 -198 67l-79 -108h-60l102 140q-52 52 -81 125t-29 152q0 46 13 96.5t41 100.5t67.5 89.5t97 64.5t124.5 25q111 0 198 -66z" />
    <glyph glyph-name="Ugrave" unicode="&#xd9;" horiz-adv-x="815" 
d="M520 677v45h279v-45q-72 -2 -92.5 -33t-20.5 -108v-268q0 -283 -275 -283q-122 0 -202 53t-80 157v431q0 29 -13 40t-43 11h-57v45h333v-45h-55q-30 0 -43 -11t-13 -40v-376q0 -65 10 -101.5t41 -63.5q55 -50 151 -50q83 0 139.5 54.5t56.5 142.5v304q0 77 -21 108
t-95 33zM483 766h-40l-145 91q-40 24 -40 46q0 14 9 24t24 10q22 0 54 -32z" />
    <glyph glyph-name="Uacute" unicode="&#xda;" horiz-adv-x="815" 
d="M520 677v45h279v-45q-72 -2 -92.5 -33t-20.5 -108v-268q0 -283 -275 -283q-122 0 -202 53t-80 157v431q0 29 -13 40t-43 11h-57v45h333v-45h-55q-30 0 -43 -11t-13 -40v-376q0 -65 10 -101.5t41 -63.5q55 -50 151 -50q83 0 139.5 54.5t56.5 142.5v304q0 77 -21 108
t-95 33zM332 766l138 139q32 32 54 32q15 0 24 -10t9 -24q0 -22 -40 -46l-145 -91h-40z" />
    <glyph glyph-name="Ucircumflex" unicode="&#xdb;" horiz-adv-x="815" 
d="M520 677v45h279v-45q-72 -2 -92.5 -33t-20.5 -108v-268q0 -283 -275 -283q-122 0 -202 53t-80 157v431q0 29 -13 40t-43 11h-57v45h333v-45h-55q-30 0 -43 -11t-13 -40v-376q0 -65 10 -101.5t41 -63.5q55 -50 151 -50q83 0 139.5 54.5t56.5 142.5v304q0 77 -21 108
t-95 33zM408 867l-122 -101h-35l124 167h66l123 -167h-35z" />
    <glyph glyph-name="Udieresis" unicode="&#xdc;" horiz-adv-x="815" 
d="M520 677v45h279v-45q-72 -2 -92.5 -33t-20.5 -108v-268q0 -283 -275 -283q-122 0 -202 53t-80 157v431q0 29 -13 40t-43 11h-57v45h333v-45h-55q-30 0 -43 -11t-13 -40v-376q0 -65 10 -101.5t41 -63.5q55 -50 151 -50q83 0 139.5 54.5t56.5 142.5v304q0 77 -21 108
t-95 33zM257 832q0 21 15 36t36 15t36 -15t15 -36t-15 -36t-36 -15t-36 15t-15 36zM456 832q0 21 15 36t36 15t36 -15t15 -36t-15 -36t-36 -15t-36 15t-15 36z" />
    <glyph glyph-name="Yacute" unicode="&#xdd;" horiz-adv-x="704" 
d="M433 677v45h282v-45q-54 -2 -81.5 -23t-56.5 -73l-159 -284v-190q0 -41 9 -51.5t51 -10.5h56v-45h-341v45h56q42 0 51 10.5t9 51.5v181l-205 325q-25 40 -41.5 52t-49.5 12h-24v45h320v-45h-63q-36 0 -36 -18q0 -16 16 -41l166 -265l115 203q28 50 28 79q0 24 -22 33
t-80 9zM307 766l138 139q32 32 54 32q15 0 24 -10t9 -24q0 -22 -40 -46l-145 -91h-40z" />
    <glyph glyph-name="Thorn" unicode="&#xde;" horiz-adv-x="667" 
d="M29 677v45h331v-45h-55q-30 0 -43 -11t-13 -40v-49h141q126 0 193 -52.5t67 -146.5q0 -53 -24.5 -95.5t-60.5 -65.5q-66 -41 -206 -41q-19 0 -55 1t-55 1v-82q0 -29 13 -40t43 -11h60v-45h-336v45h55q30 0 43 11t13 40v530q0 29 -13 40t-43 11h-55zM249 466v-243
q64 -2 125 -2q70 0 99 22q57 42 57 136q0 47 -17 87.5t-53 52.5q-40 13 -101 13q-79 0 -94.5 -10t-15.5 -56z" />
    <glyph glyph-name="germandbls" unicode="&#xdf;" horiz-adv-x="574" 
d="M204 0h-174v40h28q30 0 42 10t12 36v433q0 111 53.5 164.5t142.5 53.5q82 0 137 -44t55 -124q0 -113 -113 -156v-2q71 -11 110.5 -75t39.5 -140q0 -85 -42 -148t-123 -63q-46 0 -79.5 25t-33.5 70q0 24 14.5 40.5t32.5 16.5q55 0 55 -53q0 -15 -6.5 -25.5t-6.5 -18.5
q0 -15 22 -15q28 0 46.5 40t18.5 128q0 114 -33.5 157t-102.5 46q-16 1 -21 5.5t-5 15.5q0 19 39 19q34 0 49.5 7.5t27.5 29.5q19 33 19 81q0 143 -97 143q-107 0 -107 -146v-551z" />
    <glyph glyph-name="agrave" unicode="&#xe0;" horiz-adv-x="556" 
d="M359 287v54q0 49 -24.5 71t-83.5 22q-31 0 -53.5 -6t-31 -13t-8.5 -15q0 -4 11 -24t11 -33q0 -49 -56 -49q-26 0 -39.5 18t-13.5 45q0 49 54 85.5t141 36.5q97 0 141 -36.5t44 -116.5q0 -26 -1.5 -119t-1.5 -111q0 -15 10.5 -30.5t26.5 -15.5t28.5 6t15.5 6q13 0 13 -17
q0 -14 -27 -34.5t-62 -20.5q-69 0 -89 75q-66 -80 -180 -80q-61 0 -100.5 29.5t-39.5 89.5q0 69 83 116t232 67zM359 167v80q-126 -18 -172 -47.5t-46 -86.5q0 -35 24.5 -56.5t59.5 -21.5q50 0 92 37t42 95zM354 528h-40l-145 91q-40 24 -40 46q0 14 9 24t24 10q22 0 54 -32
z" />
    <glyph glyph-name="aacute" unicode="&#xe1;" horiz-adv-x="556" 
d="M359 287v54q0 49 -24.5 71t-83.5 22q-31 0 -53.5 -6t-31 -13t-8.5 -15q0 -4 11 -24t11 -33q0 -49 -56 -49q-26 0 -39.5 18t-13.5 45q0 49 54 85.5t141 36.5q97 0 141 -36.5t44 -116.5q0 -26 -1.5 -119t-1.5 -111q0 -15 10.5 -30.5t26.5 -15.5t28.5 6t15.5 6q13 0 13 -17
q0 -14 -27 -34.5t-62 -20.5q-69 0 -89 75q-66 -80 -180 -80q-61 0 -100.5 29.5t-39.5 89.5q0 69 83 116t232 67zM359 167v80q-126 -18 -172 -47.5t-46 -86.5q0 -35 24.5 -56.5t59.5 -21.5q50 0 92 37t42 95zM203 528l138 139q32 32 54 32q15 0 24 -10t9 -24q0 -22 -40 -46
l-145 -91h-40z" />
    <glyph glyph-name="acircumflex" unicode="&#xe2;" horiz-adv-x="556" 
d="M359 287v54q0 49 -24.5 71t-83.5 22q-31 0 -53.5 -6t-31 -13t-8.5 -15q0 -4 11 -24t11 -33q0 -49 -56 -49q-26 0 -39.5 18t-13.5 45q0 49 54 85.5t141 36.5q97 0 141 -36.5t44 -116.5q0 -26 -1.5 -119t-1.5 -111q0 -15 10.5 -30.5t26.5 -15.5t28.5 6t15.5 6q13 0 13 -17
q0 -14 -27 -34.5t-62 -20.5q-69 0 -89 75q-66 -80 -180 -80q-61 0 -100.5 29.5t-39.5 89.5q0 69 83 116t232 67zM359 167v80q-126 -18 -172 -47.5t-46 -86.5q0 -35 24.5 -56.5t59.5 -21.5q50 0 92 37t42 95zM279 629l-122 -101h-35l124 167h66l123 -167h-35z" />
    <glyph glyph-name="atilde" unicode="&#xe3;" horiz-adv-x="556" 
d="M359 287v54q0 49 -24.5 71t-83.5 22q-31 0 -53.5 -6t-31 -13t-8.5 -15q0 -4 11 -24t11 -33q0 -49 -56 -49q-26 0 -39.5 18t-13.5 45q0 49 54 85.5t141 36.5q97 0 141 -36.5t44 -116.5q0 -26 -1.5 -119t-1.5 -111q0 -15 10.5 -30.5t26.5 -15.5t28.5 6t15.5 6q13 0 13 -17
q0 -14 -27 -34.5t-62 -20.5q-69 0 -89 75q-66 -80 -180 -80q-61 0 -100.5 29.5t-39.5 89.5q0 69 83 116t232 67zM359 167v80q-126 -18 -172 -47.5t-46 -86.5q0 -35 24.5 -56.5t59.5 -21.5q50 0 92 37t42 95zM414 655h30q-7 -45 -35.5 -73.5t-69.5 -28.5q-38 0 -77 23
q-42 24 -63 24q-40 0 -56 -47h-30q8 43 37 72.5t71 29.5q31 0 73 -24q41 -23 67 -23q20 0 34.5 14.5t18.5 32.5z" />
    <glyph glyph-name="adieresis" unicode="&#xe4;" horiz-adv-x="556" 
d="M359 287v54q0 49 -24.5 71t-83.5 22q-31 0 -53.5 -6t-31 -13t-8.5 -15q0 -4 11 -24t11 -33q0 -49 -56 -49q-26 0 -39.5 18t-13.5 45q0 49 54 85.5t141 36.5q97 0 141 -36.5t44 -116.5q0 -26 -1.5 -119t-1.5 -111q0 -15 10.5 -30.5t26.5 -15.5t28.5 6t15.5 6q13 0 13 -17
q0 -14 -27 -34.5t-62 -20.5q-69 0 -89 75q-66 -80 -180 -80q-61 0 -100.5 29.5t-39.5 89.5q0 69 83 116t232 67zM359 167v80q-126 -18 -172 -47.5t-46 -86.5q0 -35 24.5 -56.5t59.5 -21.5q50 0 92 37t42 95zM128 594q0 21 15 36t36 15t36 -15t15 -36t-15 -36t-36 -15t-36 15
t-15 36zM327 594q0 21 15 36t36 15t36 -15t15 -36t-15 -36t-36 -15t-36 15t-15 36z" />
    <glyph glyph-name="aring" unicode="&#xe5;" horiz-adv-x="556" 
d="M359 287v54q0 49 -24.5 71t-83.5 22q-31 0 -53.5 -6t-31 -13t-8.5 -15q0 -4 11 -24t11 -33q0 -49 -56 -49q-26 0 -39.5 18t-13.5 45q0 49 54 85.5t141 36.5q97 0 141 -36.5t44 -116.5q0 -26 -1.5 -119t-1.5 -111q0 -15 10.5 -30.5t26.5 -15.5t28.5 6t15.5 6q13 0 13 -17
q0 -14 -27 -34.5t-62 -20.5q-69 0 -89 75q-66 -80 -180 -80q-61 0 -100.5 29.5t-39.5 89.5q0 69 83 116t232 67zM359 167v80q-126 -18 -172 -47.5t-46 -86.5q0 -35 24.5 -56.5t59.5 -21.5q50 0 92 37t42 95zM178 632q0 41 29.5 70.5t70.5 29.5t70.5 -29.5t29.5 -70.5
t-29.5 -70.5t-70.5 -29.5t-70.5 29.5t-29.5 70.5zM213 632q0 -27 19 -46t46 -19t46 19t19 46t-19 46t-46 19t-46 -19t-19 -46z" />
    <glyph glyph-name="ae" unicode="&#xe6;" horiz-adv-x="796" 
d="M340 287v54q0 52 -21.5 75t-82.5 23q-31 0 -57 -10t-26 -22q0 -4 8.5 -21t8.5 -35q0 -24 -16 -40.5t-40 -16.5q-26 0 -39.5 18t-13.5 45q0 49 54 85.5t141 36.5q100 0 142 -58q64 58 166 58q86 0 139.5 -70.5t58.5 -183.5h-330v-14q0 -84 41 -130t103 -46q100 0 152 108
l34 -19q-63 -139 -203 -139q-59 0 -111.5 23t-84.5 67q-70 -90 -189 -90q-61 0 -100.5 29.5t-39.5 89.5q0 74 74 117t232 66zM340 164v83q-122 -14 -165.5 -45.5t-43.5 -85.5q0 -36 22 -58.5t58 -22.5q58 0 93.5 33.5t35.5 95.5zM432 265h177q31 0 41 7t10 31
q0 63 -28.5 99.5t-76.5 36.5q-109 0 -123 -174z" />
    <glyph glyph-name="ccedilla" unicode="&#xe7;" horiz-adv-x="444" 
d="M390 145l36 -15q-47 -142 -181 -145l-20 -52q11 5 29 5q36 0 59.5 -17.5t23.5 -51.5q0 -38 -33 -61t-95 -23q-41 0 -80 17l14 30q32 -12 61 -12q57 0 57 46q0 18 -11 27.5t-25 9.5q-27 0 -44 -5l-7 3l37 84q-81 13 -129 79.5t-48 151.5q0 124 62.5 193.5t168.5 69.5
q66 0 107.5 -36t41.5 -76q0 -31 -14.5 -51.5t-44.5 -20.5q-26 0 -43.5 15t-17.5 40q0 17 14 36t14 21q0 12 -17.5 22t-40.5 10q-59 0 -93.5 -55t-34.5 -144q0 -38 6 -69.5t20.5 -61.5t42.5 -47t68 -17q79 0 117 100z" />
    <glyph glyph-name="egrave" unicode="&#xe8;" horiz-adv-x="500" 
d="M466 225h-330v-14q0 -84 41 -130t103 -46q100 0 152 108l34 -19q-63 -139 -203 -139q-103 0 -166 64t-63 167q0 125 63 194t171 69q86 0 139.5 -70.5t58.5 -183.5zM136 265h177q31 0 41 7t10 31q0 63 -28.5 99.5t-76.5 36.5q-109 0 -123 -174zM326 528h-40l-145 91
q-40 24 -40 46q0 14 9 24t24 10q22 0 54 -32z" />
    <glyph glyph-name="eacute" unicode="&#xe9;" horiz-adv-x="500" 
d="M466 225h-330v-14q0 -84 41 -130t103 -46q100 0 152 108l34 -19q-63 -139 -203 -139q-103 0 -166 64t-63 167q0 125 63 194t171 69q86 0 139.5 -70.5t58.5 -183.5zM136 265h177q31 0 41 7t10 31q0 63 -28.5 99.5t-76.5 36.5q-109 0 -123 -174zM175 528l138 139
q32 32 54 32q15 0 24 -10t9 -24q0 -22 -40 -46l-145 -91h-40z" />
    <glyph glyph-name="ecircumflex" unicode="&#xea;" horiz-adv-x="500" 
d="M466 225h-330v-14q0 -84 41 -130t103 -46q100 0 152 108l34 -19q-63 -139 -203 -139q-103 0 -166 64t-63 167q0 125 63 194t171 69q86 0 139.5 -70.5t58.5 -183.5zM136 265h177q31 0 41 7t10 31q0 63 -28.5 99.5t-76.5 36.5q-109 0 -123 -174zM251 629l-122 -101h-35
l124 167h66l123 -167h-35z" />
    <glyph glyph-name="edieresis" unicode="&#xeb;" horiz-adv-x="500" 
d="M466 225h-330v-14q0 -84 41 -130t103 -46q100 0 152 108l34 -19q-63 -139 -203 -139q-103 0 -166 64t-63 167q0 125 63 194t171 69q86 0 139.5 -70.5t58.5 -183.5zM136 265h177q31 0 41 7t10 31q0 63 -28.5 99.5t-76.5 36.5q-109 0 -123 -174zM100 594q0 21 15 36t36 15
t36 -15t15 -36t-15 -36t-36 -15t-36 15t-15 36zM299 594q0 21 15 36t36 15t36 -15t15 -36t-15 -36t-36 -15t-36 15t-15 36z" />
    <glyph glyph-name="igrave" unicode="&#xec;" horiz-adv-x="315" 
d="M18 414v40l186 10v-378q0 -26 12 -36t42 -10h28v-40h-260v40h33q29 0 41 10.5t12 38.5v297q0 17 -10.5 22.5t-37.5 5.5h-46zM233 528h-40l-145 91q-40 24 -40 46q0 14 9 24t24 10q22 0 54 -32z" />
    <glyph glyph-name="iacute" unicode="&#xed;" horiz-adv-x="315" 
d="M18 414v40l186 10v-378q0 -26 12 -36t42 -10h28v-40h-260v40h33q29 0 41 10.5t12 38.5v297q0 17 -10.5 22.5t-37.5 5.5h-46zM82 528l138 139q32 32 54 32q15 0 24 -10t9 -24q0 -22 -40 -46l-145 -91h-40z" />
    <glyph glyph-name="icircumflex" unicode="&#xee;" horiz-adv-x="315" 
d="M18 414v40l186 10v-378q0 -26 12 -36t42 -10h28v-40h-260v40h33q29 0 41 10.5t12 38.5v297q0 17 -10.5 22.5t-37.5 5.5h-46zM158 629l-122 -101h-35l124 167h66l123 -167h-35z" />
    <glyph glyph-name="idieresis" unicode="&#xef;" horiz-adv-x="315" 
d="M18 414v40l186 10v-378q0 -26 12 -36t42 -10h28v-40h-260v40h33q29 0 41 10.5t12 38.5v297q0 17 -10.5 22.5t-37.5 5.5h-46zM7 594q0 21 15 36t36 15t36 -15t15 -36t-15 -36t-36 -15t-36 15t-15 36zM206 594q0 21 15 36t36 15t36 -15t15 -36t-15 -36t-36 -15t-36 15
t-15 36z" />
    <glyph glyph-name="eth" unicode="&#xf0;" horiz-adv-x="500" 
d="M364 232q0 207 -114 207t-114 -207t114 -207t114 207zM114 576l108 66q-38 38 -89 72l38 23q49 -25 98 -66l101 62l31 -29l-101 -62q78 -78 122 -179t44 -209q0 -125 -54 -197t-162 -72q-100 0 -158 70t-58 177q0 108 58 177.5t152 69.5q62 0 102 -47q-15 92 -95 180
l-106 -65z" />
    <glyph glyph-name="ntilde" unicode="&#xf1;" horiz-adv-x="611" 
d="M22 414v40l174 10v-85h2q54 100 150 100q73 0 116 -51t43 -128v-214q0 -26 12 -36t42 -10h28v-40h-256v40h28q30 0 42 10t12 36v230q0 48 -26 75.5t-69 27.5q-53 0 -88.5 -43.5t-35.5 -118.5v-171q0 -26 12 -36t42 -10h28v-40h-256v40h28q30 0 42 10t12 36v300
q0 17 -10.5 22.5t-37.5 5.5h-34zM441 655h30q-7 -45 -35.5 -73.5t-69.5 -28.5q-38 0 -77 23q-42 24 -63 24q-40 0 -56 -47h-30q8 43 37 72.5t71 29.5q31 0 73 -24q41 -23 67 -23q20 0 34.5 14.5t18.5 32.5z" />
    <glyph glyph-name="ograve" unicode="&#xf2;" horiz-adv-x="500" 
d="M136 232q0 -207 114 -207t114 207t-114 207t-114 -207zM34 232q0 107 58 177t158 70t158 -70t58 -177t-58 -177t-158 -70t-158 70t-58 177zM326 528h-40l-145 91q-40 24 -40 46q0 14 9 24t24 10q22 0 54 -32z" />
    <glyph glyph-name="oacute" unicode="&#xf3;" horiz-adv-x="500" 
d="M136 232q0 -207 114 -207t114 207t-114 207t-114 -207zM34 232q0 107 58 177t158 70t158 -70t58 -177t-58 -177t-158 -70t-158 70t-58 177zM175 528l138 139q32 32 54 32q15 0 24 -10t9 -24q0 -22 -40 -46l-145 -91h-40z" />
    <glyph glyph-name="ocircumflex" unicode="&#xf4;" horiz-adv-x="500" 
d="M136 232q0 -207 114 -207t114 207t-114 207t-114 -207zM34 232q0 107 58 177t158 70t158 -70t58 -177t-58 -177t-158 -70t-158 70t-58 177zM251 629l-122 -101h-35l124 167h66l123 -167h-35z" />
    <glyph glyph-name="otilde" unicode="&#xf5;" horiz-adv-x="500" 
d="M136 232q0 -207 114 -207t114 207t-114 207t-114 -207zM34 232q0 107 58 177t158 70t158 -70t58 -177t-58 -177t-158 -70t-158 70t-58 177zM386 655h30q-7 -45 -35.5 -73.5t-69.5 -28.5q-38 0 -77 23q-42 24 -63 24q-40 0 -56 -47h-30q8 43 37 72.5t71 29.5q31 0 73 -24
q41 -23 67 -23q20 0 34.5 14.5t18.5 32.5z" />
    <glyph glyph-name="odieresis" unicode="&#xf6;" horiz-adv-x="500" 
d="M136 232q0 -207 114 -207t114 207t-114 207t-114 -207zM34 232q0 107 58 177t158 70t158 -70t58 -177t-58 -177t-158 -70t-158 70t-58 177zM100 594q0 21 15 36t36 15t36 -15t15 -36t-15 -36t-36 -15t-36 15t-15 36zM299 594q0 21 15 36t36 15t36 -15t15 -36t-15 -36
t-36 -15t-36 15t-15 36z" />
    <glyph glyph-name="divide" unicode="&#xf7;" horiz-adv-x="606" 
d="M50 217v72h506v-72h-506zM235 460q0 28 19.5 48t48.5 20t48.5 -20t19.5 -48t-19.5 -48t-48.5 -20t-48.5 20t-19.5 48zM235 46q0 28 19.5 48t48.5 20t48.5 -20t19.5 -48t-19.5 -48t-48.5 -20t-48.5 20t-19.5 48z" />
    <glyph glyph-name="oslash" unicode="&#xf8;" horiz-adv-x="500" 
d="M60 -97l63 123q-89 69 -89 206q0 107 58 177t158 70q50 0 93 -20l52 102h45l-63 -123q89 -66 89 -206q0 -107 -58 -177t-158 -70q-51 0 -93 20l-52 -102h-45zM158 94l160 316q-25 29 -68 29q-114 0 -114 -207q0 -91 22 -138zM342 369l-160 -315q28 -29 68 -29
q114 0 114 207q0 91 -22 137z" />
    <glyph glyph-name="ugrave" unicode="&#xf9;" horiz-adv-x="611" 
d="M318 414v40l189 10v-386q0 -17 10.5 -22.5t37.5 -5.5h34v-40l-174 -10v85h-2q-47 -100 -150 -100q-76 0 -117.5 39.5t-41.5 116.5v245q0 17 -10.5 22.5t-37.5 5.5h-34v40l174 10v-316q0 -53 21 -78t68 -25q65 0 97.5 46t32.5 122v173q0 17 -10.5 22.5t-37.5 5.5h-49z
M381 528h-40l-145 91q-40 24 -40 46q0 14 9 24t24 10q22 0 54 -32z" />
    <glyph glyph-name="uacute" unicode="&#xfa;" horiz-adv-x="611" 
d="M318 414v40l189 10v-386q0 -17 10.5 -22.5t37.5 -5.5h34v-40l-174 -10v85h-2q-47 -100 -150 -100q-76 0 -117.5 39.5t-41.5 116.5v245q0 17 -10.5 22.5t-37.5 5.5h-34v40l174 10v-316q0 -53 21 -78t68 -25q65 0 97.5 46t32.5 122v173q0 17 -10.5 22.5t-37.5 5.5h-49z
M230 528l138 139q32 32 54 32q15 0 24 -10t9 -24q0 -22 -40 -46l-145 -91h-40z" />
    <glyph glyph-name="ucircumflex" unicode="&#xfb;" horiz-adv-x="611" 
d="M318 414v40l189 10v-386q0 -17 10.5 -22.5t37.5 -5.5h34v-40l-174 -10v85h-2q-47 -100 -150 -100q-76 0 -117.5 39.5t-41.5 116.5v245q0 17 -10.5 22.5t-37.5 5.5h-34v40l174 10v-316q0 -53 21 -78t68 -25q65 0 97.5 46t32.5 122v173q0 17 -10.5 22.5t-37.5 5.5h-49z
M306 629l-122 -101h-35l124 167h66l123 -167h-35z" />
    <glyph glyph-name="udieresis" unicode="&#xfc;" horiz-adv-x="611" 
d="M318 414v40l189 10v-386q0 -17 10.5 -22.5t37.5 -5.5h34v-40l-174 -10v85h-2q-47 -100 -150 -100q-76 0 -117.5 39.5t-41.5 116.5v245q0 17 -10.5 22.5t-37.5 5.5h-34v40l174 10v-316q0 -53 21 -78t68 -25q65 0 97.5 46t32.5 122v173q0 17 -10.5 22.5t-37.5 5.5h-49z
M155 594q0 21 15 36t36 15t36 -15t15 -36t-15 -36t-36 -15t-36 15t-15 36zM354 594q0 21 15 36t36 15t36 -15t15 -36t-15 -36t-36 -15t-36 15t-15 36z" />
    <glyph glyph-name="yacute" unicode="&#xfd;" horiz-adv-x="537" 
d="M334 424v40h199v-40q-35 -1 -52 -15.5t-32 -51.5l-130 -315q-55 -133 -107 -190t-116 -57q-39 0 -65.5 20t-26.5 58q0 25 18 41t43 16q20 0 34 -13t14 -29q0 -10 -3.5 -21t-3.5 -13q0 -14 12 -14q60 0 138 168l-157 356q-17 38 -29.5 49t-41.5 11h-12v40h236v-40h-14
q-30 0 -42.5 -4t-12.5 -17q0 -11 9 -31l110 -252l78 193q26 63 26 80q0 15 -13.5 23t-28.5 8h-30zM193 528l138 139q32 32 54 32q15 0 24 -10t9 -24q0 -22 -40 -46l-145 -91h-40z" />
    <glyph glyph-name="thorn" unicode="&#xfe;" horiz-adv-x="574" 
d="M22 -205v40h28q30 0 42 10t12 36v778q0 17 -10.5 22.5t-37.5 5.5h-28v40l168 10v-341h2q18 39 55 61t82 22q86 0 145.5 -69t59.5 -184q0 -104 -55 -172.5t-149 -68.5q-105 0 -138 93h-2v-197q0 -26 12 -36t42 -10h28v-40h-256zM317 35q56 0 88.5 48.5t32.5 148.5
t-32.5 148.5t-88.5 48.5t-88.5 -48.5t-32.5 -148.5t32.5 -148.5t88.5 -48.5z" />
    <glyph glyph-name="ydieresis" unicode="&#xff;" horiz-adv-x="537" 
d="M334 424v40h199v-40q-35 -1 -52 -15.5t-32 -51.5l-130 -315q-55 -133 -107 -190t-116 -57q-39 0 -65.5 20t-26.5 58q0 25 18 41t43 16q20 0 34 -13t14 -29q0 -10 -3.5 -21t-3.5 -13q0 -14 12 -14q60 0 138 168l-157 356q-17 38 -29.5 49t-41.5 11h-12v40h236v-40h-14
q-30 0 -42.5 -4t-12.5 -17q0 -11 9 -31l110 -252l78 193q26 63 26 80q0 15 -13.5 23t-28.5 8h-30zM118 594q0 21 15 36t36 15t36 -15t15 -36t-15 -36t-36 -15t-36 15t-15 36zM317 594q0 21 15 36t36 15t36 -15t15 -36t-15 -36t-36 -15t-36 15t-15 36z" />
    <glyph glyph-name="dotlessi" unicode="&#x131;" horiz-adv-x="315" 
d="M18 414v40l186 10v-378q0 -26 12 -36t42 -10h28v-40h-260v40h33q29 0 41 10.5t12 38.5v297q0 17 -10.5 22.5t-37.5 5.5h-46z" />
    <glyph glyph-name="Lslash" unicode="&#x141;" horiz-adv-x="667" 
d="M140 299v327q0 29 -13 40t-43 11h-55v45h331v-45h-55q-30 0 -43 -11t-13 -40v-270l157 158v-73l-157 -158v-199q0 -26 14 -32.5t60 -6.5q55 0 84 1.5t62 9t49.5 20.5t34.5 38.5t29 61.5t22 91h40l-19 -267h-596v45h55q16 0 29 2.5t20 4.5l7 2v172l-111 -112v73z" />
    <glyph glyph-name="lslash" unicode="&#x142;" horiz-adv-x="315" 
d="M204 737v-273l90 90v-73l-90 -90v-305q0 -26 12 -36t42 -10h28v-40h-256v40h28q30 0 42 10t12 36v263l-90 -90v73l90 90v237q0 17 -10.5 22.5t-37.5 5.5h-46v40z" />
    <glyph glyph-name="OE" unicode="&#x152;" horiz-adv-x="1000" 
d="M596 399h37q55 0 82 32.5t36 103.5h45v-328h-45q-7 83 -31 115t-89 32h-35v-270q0 -26 14 -32.5t60 -6.5q54 0 86.5 2t61.5 12.5t43.5 22t30 41t24 59t23.5 85.5h40l-19 -267h-548q-109 0 -170 19t-113 73q-42 43 -75 116.5t-33 153.5q0 95 37.5 176t114 132.5
t177.5 51.5h599l14 -258h-40q-12 74 -25 112.5t-41 63t-66.5 31t-109.5 6.5q-55 0 -70 -10.5t-15 -41.5v-226zM487 195v348q0 66 -35 100t-102 34q-108 0 -154.5 -81.5t-46.5 -249.5q0 -149 52.5 -225t150.5 -76q135 0 135 150z" />
    <glyph glyph-name="oe" unicode="&#x153;" horiz-adv-x="833" 
d="M34 232q0 107 58.5 177t161.5 70q112 0 171 -80q63 80 176 80q86 0 139.5 -70.5t58.5 -183.5h-330v-14q0 -84 41 -130t103 -46q100 0 152 108l34 -19q-63 -139 -203 -139q-52 0 -100 20t-75 61q-60 -81 -167 -81q-103 0 -161.5 70t-58.5 177zM469 265h177q31 0 41 7
t10 31q0 63 -28.5 99.5t-76.5 36.5q-109 0 -123 -174zM136 232q0 -207 114 -207q61 0 94 47.5t33 159.5t-33 159.5t-94 47.5q-114 0 -114 -207z" />
    <glyph glyph-name="Scaron" unicode="&#x160;" horiz-adv-x="630" 
d="M462 667l41 63h35l12 -259h-40q-25 94 -82.5 157.5t-146.5 63.5q-69 0 -105.5 -35t-36.5 -84q0 -87 120 -120l156 -43q168 -46 168 -211q0 -93 -65.5 -153.5t-179.5 -60.5q-121 0 -209 77l-45 -72h-33l-4 283l38 4q21 -118 89 -182.5t164 -64.5q76 0 120.5 38.5
t44.5 107.5q0 90 -96 115l-162 42q-92 24 -139 69.5t-47 126.5q0 98 60 153t159 55q107 0 184 -70zM282 766l-123 167h35l121 -101l122 101h35l-124 -167h-66z" />
    <glyph glyph-name="scaron" unicode="&#x161;" horiz-adv-x="463" 
d="M322 439l28 35h35v-166h-35q-37 131 -149 131q-37 0 -64.5 -19t-27.5 -54q0 -27 21 -44t69 -27l98 -21q57 -12 88.5 -47t31.5 -89q0 -71 -46 -112t-117 -41q-84 0 -142 49l-31 -44h-35v190h35q44 -155 176 -155q37 0 68.5 20.5t31.5 56.5q0 35 -25 53t-86 32l-77 18
q-64 15 -89.5 47.5t-25.5 87.5q0 64 40.5 101.5t105.5 37.5q72 0 122 -40zM198 528l-123 167h35l121 -101l122 101h35l-124 -167h-66z" />
    <glyph glyph-name="Ydieresis" unicode="&#x178;" horiz-adv-x="704" 
d="M433 677v45h282v-45q-54 -2 -81.5 -23t-56.5 -73l-159 -284v-190q0 -41 9 -51.5t51 -10.5h56v-45h-341v45h56q42 0 51 10.5t9 51.5v181l-205 325q-25 40 -41.5 52t-49.5 12h-24v45h320v-45h-63q-36 0 -36 -18q0 -16 16 -41l166 -265l115 203q28 50 28 79q0 24 -22 33
t-80 9zM202 832q0 21 15 36t36 15t36 -15t15 -36t-15 -36t-36 -15t-36 15t-15 36zM401 832q0 21 15 36t36 15t36 -15t15 -36t-15 -36t-36 -15t-36 15t-15 36z" />
    <glyph glyph-name="Zcaron" unicode="&#x17d;" horiz-adv-x="611" 
d="M53 468l18 254h496v-40l-413 -637h161q89 0 128 26.5t63 95.5q19 53 25 110l45 -4l-19 -273h-533v40l411 637h-137q-57 0 -92 -10t-57 -43.5t-30 -58t-24 -90.5q-1 -5 -2 -7h-40zM272 766l-123 167h35l121 -101l122 101h35l-124 -167h-66z" />
    <glyph glyph-name="zcaron" unicode="&#x17e;" horiz-adv-x="481" 
d="M101 297h-40l10 167h361v-35l-279 -384h121q36 0 60.5 11.5t37 33t18 41t9.5 47.5h40l-10 -178h-387v35l277 384h-89q-124 0 -129 -122zM207 528l-123 167h35l121 -101l122 101h35l-124 -167h-66z" />
    <glyph glyph-name="florin" unicode="&#x192;" horiz-adv-x="556" 
d="M115 393v40h121q10 157 64 230.5t139 73.5q47 0 73 -24t26 -55q0 -29 -15.5 -44t-39.5 -15q-54 0 -54 47q0 10 8.5 22.5t8.5 18.5q0 10 -15 10q-43 0 -69 -58.5t-34 -205.5h134v-40h-137l-10 -118q-9 -100 -14.5 -154t-18 -120.5t-28.5 -95.5q-60 -110 -152 -110
q-48 0 -75 22.5t-27 55.5q0 25 15.5 42.5t40.5 17.5q23 0 38 -14t15 -33q0 -11 -4.5 -20t-8.5 -13.5t-4 -6.5q0 -11 11 -11q39 0 66 44.5t34 133.5l30 380h-118z" />
    <glyph glyph-name="circumflex" unicode="&#x2c6;" 
d="M167 629l-122 -101h-35l124 167h66l123 -167h-35z" />
    <glyph glyph-name="caron" unicode="&#x2c7;" 
d="M133 528l-123 167h35l121 -101l122 101h35l-124 -167h-66z" />
    <glyph glyph-name="uni02C9" unicode="&#x2c9;" 
d="M10 568v55h313v-55h-313z" />
    <glyph glyph-name="breve" unicode="&#x2d8;" 
d="M25 685h30q8 -50 38.5 -73.5t72.5 -23.5q44 0 74.5 23t37.5 74h30q-3 -82 -43 -119.5t-99 -37.5q-58 0 -98 37.5t-43 119.5z" />
    <glyph glyph-name="dotaccent" unicode="&#x2d9;" 
d="M116 653q0 21 15 36t36 15t36 -15t15 -36t-15 -36t-36 -15t-36 15t-15 36z" />
    <glyph glyph-name="ring" unicode="&#x2da;" 
d="M66 622q0 41 29.5 70.5t70.5 29.5t70.5 -29.5t29.5 -70.5t-29.5 -70.5t-70.5 -29.5t-70.5 29.5t-29.5 70.5zM101 622q0 -27 19 -46t46 -19t46 19t19 46t-19 46t-46 19t-46 -19t-19 -46z" />
    <glyph glyph-name="ogonek" unicode="&#x2db;" 
d="M283 -128l34 -19q-20 -34 -51.5 -53.5t-64.5 -19.5h-2q-27 1 -51 6.5t-45.5 24.5t-21.5 49q0 40 35 83t74 61h67q-43 -24 -63 -57.5t-20 -66.5q0 -48 41 -48q30 0 68 40z" />
    <glyph glyph-name="tilde" unicode="&#x2dc;" 
d="M302 655h30q-7 -45 -35.5 -73.5t-69.5 -28.5q-38 0 -77 23q-42 24 -63 24q-40 0 -56 -47h-30q8 43 37 72.5t71 29.5q31 0 73 -24q41 -23 67 -23q20 0 34.5 14.5t18.5 32.5z" />
    <glyph glyph-name="hungarumlaut" unicode="&#x2dd;" 
d="M-9 528l138 139q32 32 54 32q15 0 24 -10t9 -24q0 -22 -40 -46l-145 -91h-40zM191 528l138 139q32 32 54 32q15 0 24 -10t9 -24q0 -22 -40 -46l-145 -91h-40z" />
    <glyph glyph-name="uni03A9" unicode="&#x3a9;" horiz-adv-x="727" 
d="M693 149l-25 -149h-239l-7 19q1 1 35 69t46 97.5t27.5 88.5t15.5 109q-1 149 -53 219t-131 70q-83 0 -132.5 -69.5t-49.5 -223.5q0 -20 2.5 -41.5t5 -38.5t10 -40.5t10.5 -36.5t14.5 -38.5t14.5 -34t17 -36t16 -31t18 -32.5l15 -30l-8 -20h-238l-24 149l27 1
q15 -47 30.5 -61t46.5 -14h102q-32 28 -54.5 51t-52.5 63t-46 90.5t-16 106.5q0 143 84 230.5t211 87.5q128 0 209 -84t81 -226q0 -67 -30 -132t-62 -102.5t-81 -84.5h109q32 0 45.5 13t28.5 62z" />
    <glyph glyph-name="uni03BC" unicode="&#x3bc;" horiz-adv-x="611" 
d="M599 39q-6 -16 -32.5 -33.5t-63.5 -17.5q-38 0 -60.5 26t-27.5 71h-2q-34 -95 -120 -95q-31 0 -57 22t-40 54v-185q0 -26 12 -36t42 -10h28v-40h-256v40h28q30 0 42 10t12 36v505q0 17 -10.5 22.5t-37.5 5.5h-34v40l174 10v-280q0 -54 26.5 -88.5t72.5 -34.5
q120 0 120 168v157q0 17 -10.5 22.5t-37.5 5.5h-49v40l189 10v-347q0 -38 6.5 -52.5t31.5 -14.5q8 0 17.5 3.5t15.5 7.5l5 4z" />
    <glyph glyph-name="pi" unicode="&#x3c0;" horiz-adv-x="569" 
d="M516 477l25 -8q-11 -61 -36 -96q-20 -5 -67 -5q-6 -76 -4 -227q0 -91 43 -91q22 0 48 29l13 -22q-18 -33 -47 -51t-59 -18q-44 0 -68 29t-24 101q0 95 10 253q-30 0 -81 1t-69 1v-17q0 -105 -14 -188.5t-27 -116t-24 -46.5q-37 -15 -63 -17l-6 18q50 64 71.5 168
t21.5 200q-31 0 -55 -6t-36.5 -13.5t-36.5 -24.5l-15 24q1 1 10 12t12 14.5t12.5 13.5t15.5 14t17 12t21.5 11.5t23.5 8t28.5 6t32.5 1.5q34 0 125 -1.5t142 -1.5q24 0 36 6.5t24 26.5z" />
    <glyph glyph-name="uni2010" unicode="&#x2010;" 
d="M42 199v78h249v-78h-249z" />
    <glyph glyph-name="endash" unicode="&#x2013;" horiz-adv-x="556" 
d="M0 208v60h556v-60h-556z" />
    <glyph glyph-name="emdash" unicode="&#x2014;" horiz-adv-x="1000" 
d="M0 208v60h1000v-60h-1000z" />
    <glyph glyph-name="quoteleft" unicode="&#x2018;" horiz-adv-x="204" 
d="M157 737l22 -29q-46 -35 -75 -73.5t-29 -63.5q0 -12 7 -12q2 0 12 2t15 2q28 0 46 -16.5t18 -45.5q0 -23 -19 -40.5t-44 -17.5q-39 0 -62 27.5t-23 75.5q0 49 30 93.5t102 97.5z" />
    <glyph glyph-name="quoteright" unicode="&#x2019;" horiz-adv-x="204" 
d="M47 443l-22 29q46 35 75 73.5t29 63.5q0 12 -7 12q-2 0 -12 -2t-15 -2q-28 0 -46 16.5t-18 45.5q0 23 19 40.5t44 17.5q39 0 62 -27.5t23 -75.5q0 -49 -30 -93.5t-102 -97.5z" />
    <glyph glyph-name="quotesinglbase" unicode="&#x201a;" horiz-adv-x="204" 
d="M47 -185l-22 29q46 35 75 73.5t29 63.5q0 12 -7 12q-2 0 -12 -2t-15 -2q-28 0 -46 16.5t-18 45.5q0 23 19 40.5t44 17.5q39 0 62 -27.5t23 -75.5q0 -49 -30 -93.5t-102 -97.5z" />
    <glyph glyph-name="quotedblleft" unicode="&#x201c;" horiz-adv-x="389" 
d="M342 737l22 -29q-46 -35 -75 -73.5t-29 -63.5q0 -12 7 -12q2 0 12 2t15 2q28 0 46 -16.5t18 -45.5q0 -23 -19 -40.5t-44 -17.5q-39 0 -62 27.5t-23 75.5q0 49 30 93.5t102 97.5zM157 737l22 -29q-46 -35 -75 -73.5t-29 -63.5q0 -12 7 -12q2 0 12 2t15 2q28 0 46 -16.5
t18 -45.5q0 -23 -19 -40.5t-44 -17.5q-39 0 -62 27.5t-23 75.5q0 49 30 93.5t102 97.5z" />
    <glyph glyph-name="quotedblright" unicode="&#x201d;" horiz-adv-x="389" 
d="M47 443l-22 29q46 35 75 73.5t29 63.5q0 12 -7 12q-2 0 -12 -2t-15 -2q-28 0 -46 16.5t-18 45.5q0 23 19 40.5t44 17.5q39 0 62 -27.5t23 -75.5q0 -49 -30 -93.5t-102 -97.5zM232 443l-22 29q46 35 75 73.5t29 63.5q0 12 -7 12q-2 0 -12 -2t-15 -2q-28 0 -46 16.5
t-18 45.5q0 23 19 40.5t44 17.5q39 0 62 -27.5t23 -75.5q0 -49 -30 -93.5t-102 -97.5z" />
    <glyph glyph-name="quotedblbase" unicode="&#x201e;" horiz-adv-x="389" 
d="M232 -185l-22 29q46 35 75 73.5t29 63.5q0 12 -7 12q-2 0 -12 -2t-15 -2q-28 0 -46 16.5t-18 45.5q0 23 19 40.5t44 17.5q39 0 62 -27.5t23 -75.5q0 -49 -30 -93.5t-102 -97.5zM47 -185l-22 29q46 35 75 73.5t29 63.5q0 12 -7 12q-2 0 -12 -2t-15 -2q-28 0 -46 16.5
t-18 45.5q0 23 19 40.5t44 17.5q39 0 62 -27.5t23 -75.5q0 -49 -30 -93.5t-102 -97.5z" />
    <glyph glyph-name="dagger" unicode="&#x2020;" horiz-adv-x="500" 
d="M260 -147h-20q0 323 -46 429q27 34 35.5 77t10.5 119q-48 -1 -89.5 -19t-56.5 -18q-22 0 -37 13.5t-15 37.5t13 37.5t36 13.5q14 0 56.5 -18.5t92.5 -20.5v26q0 38 -19.5 91t-19.5 68q0 22 13.5 35t35.5 13t35.5 -13t13.5 -35q0 -15 -19.5 -68t-19.5 -91v-26
q50 2 92.5 20.5t56.5 18.5q23 0 36 -13.5t13 -37.5t-15 -37.5t-37 -13.5q-15 0 -56.5 18t-89.5 19q2 -76 10.5 -119t35.5 -77q-46 -106 -46 -429z" />
    <glyph glyph-name="daggerdbl" unicode="&#x2021;" horiz-adv-x="500" 
d="M240 58v26q-50 -2 -92.5 -20.5t-56.5 -18.5q-23 0 -36 13.5t-13 37.5t15 37.5t37 13.5q15 0 56.5 -18t89.5 -19q0 66 -9.5 106.5t-35.5 77.5q26 37 35.5 77.5t9.5 106.5q-48 -1 -89.5 -19t-56.5 -18q-22 0 -37 13.5t-15 37.5t13 37.5t36 13.5q14 0 56.5 -18.5t92.5 -20.5
v26q0 38 -19.5 91t-19.5 68q0 22 13.5 35t35.5 13t35.5 -13t13.5 -35q0 -15 -19.5 -68t-19.5 -91v-26q50 2 92.5 20.5t56.5 18.5q23 0 36 -13.5t13 -37.5t-15 -37.5t-37 -13.5q-15 0 -56.5 18t-89.5 19q0 -65 9.5 -106t34.5 -78q-25 -37 -34.5 -78t-9.5 -106q48 1 89.5 19
t56.5 18q22 0 37 -13.5t15 -37.5t-13 -37.5t-36 -13.5q-14 0 -56.5 18.5t-92.5 20.5v-26q0 -38 19.5 -91t19.5 -68q0 -22 -13.5 -35t-35.5 -13t-35.5 13t-13.5 35q0 15 19.5 68t19.5 91z" />
    <glyph glyph-name="bullet" unicode="&#x2022;" horiz-adv-x="606" 
d="M122 361q0 75 53 128t128 53t128 -53t53 -128t-53 -128t-128 -53t-128 53t-53 128z" />
    <glyph glyph-name="ellipsis" unicode="&#x2026;" horiz-adv-x="1000" 
d="M105 47q0 25 18.5 43.5t43.5 18.5t43.5 -18.5t18.5 -43.5t-18.5 -43.5t-43.5 -18.5t-43.5 18.5t-18.5 43.5zM438 47q0 25 18 43.5t44 18.5t44 -18.5t18 -43.5t-18 -43.5t-44 -18.5t-44 18.5t-18 43.5zM771 47q0 25 18.5 43.5t43.5 18.5t43.5 -18.5t18.5 -43.5
t-18.5 -43.5t-43.5 -18.5t-43.5 18.5t-18.5 43.5z" />
    <glyph glyph-name="perthousand" unicode="&#x2030;" horiz-adv-x="1000" 
d="M404 92q0 -29 16 -45.5t46 -16.5q50 0 99 70.5t49 138.5q0 35 -18.5 56t-44.5 21q-27 0 -63 -45.5t-60 -99t-24 -79.5zM332 110q0 84 64.5 160t144.5 76q50 0 76.5 -31.5t26.5 -80.5q0 -79 -57.5 -156.5t-136.5 -77.5q-52 0 -85 29t-33 81zM100 -15l368 642l-2 2
q-46 -30 -95 -30q-33 0 -60 13q7 -25 7 -44q0 -79 -60 -153.5t-137 -74.5q-51 0 -83 35.5t-32 87.5q0 75 68.5 151t142.5 76q23 0 45.5 -11.5t35.5 -29.5q5 -7 28.5 -13.5t45.5 -6.5q78 0 150 76h40l-412 -720h-50zM78 430q0 -28 15 -44t44 -16q55 0 103 71t48 131
q0 36 -8 51q-34 14 -55 37q-31 -1 -66.5 -46.5t-58 -99.5t-22.5 -84zM682 110q0 84 64.5 160t144.5 76q50 0 76.5 -31.5t26.5 -80.5q0 -79 -57.5 -156.5t-136.5 -77.5q-52 0 -85 29t-33 81zM754 92q0 -29 16 -45.5t46 -16.5q50 0 99 70.5t49 138.5q0 35 -18.5 56t-44.5 21
q-27 0 -63 -45.5t-60 -99t-24 -79.5z" />
    <glyph glyph-name="guilsinglleft" unicode="&#x2039;" horiz-adv-x="259" 
d="M39 235v6q37 29 76.5 69.5t62 64t30.5 23.5q12 0 12 -10q0 -8 -31 -57t-64 -93q33 -44 64 -93t31 -57q0 -10 -12 -10q-8 0 -30.5 23.5t-62 64t-76.5 69.5z" />
    <glyph glyph-name="guilsinglright" unicode="&#x203a;" horiz-adv-x="259" 
d="M220 241v-6q-37 -29 -76.5 -69.5t-62 -64t-30.5 -23.5q-12 0 -12 10q0 8 31 57t64 93q-33 44 -64 93t-31 57q0 10 12 10q8 0 30.5 -23.5t62 -64t76.5 -69.5z" />
    <glyph glyph-name="fraction" unicode="&#x2044;" horiz-adv-x="167" 
d="M-140 -15h-55l502 720h55z" />
    <glyph glyph-name="Euro" unicode="&#x20ac;" horiz-adv-x="556" 
d="M535 183l-7 -191h-33l-35 54q-16 -23 -54.5 -42t-87.5 -19q-77 0 -145 65.5t-88 209.5h-72l23 58h44q0 4 -0.5 13t-0.5 14t0.5 14.5t0.5 14.5h-67l23 58h48q21 141 90 207t151 66q42 0 81 -19.5t54 -41.5l35 54h33l7 -191h-35q-24 66 -70 109.5t-104 43.5q-70 0 -99 -56
t-35 -172h284l-23 -58h-262q0 -5 -0.5 -14.5t-0.5 -14.5t0.5 -14t0.5 -13h239l-23 -58h-215q8 -125 35.5 -177.5t95.5 -52.5q33 0 63 14.5t49 34t34.5 43t22 38.5t8.5 23h35z" />
    <glyph glyph-name="afii61289" unicode="&#x2113;" horiz-adv-x="418" 
d="M380 121l21 -18q-63 -116 -171 -116q-71 0 -104 39q-19 24 -27 55.5t-8 91.5v80l-59 -43l-12 26l71 56v132q0 120 10.5 173t42.5 91q39 51 93 51q45 0 69 -38.5t24 -96.5q0 -83 -37.5 -152.5t-109.5 -141.5v-90q0 -96 21 -134t67 -38q60 0 109 73zM183 482v-123
q41 49 66.5 113.5t25.5 130.5q0 47 -11.5 75.5t-33.5 28.5q-27 0 -37 -49t-10 -176z" />
    <glyph glyph-name="trademark" unicode="&#x2122;" horiz-adv-x="1000" 
d="M168 385v312h-47q-50 0 -64 -63h-25v88h352v-88h-25q-14 63 -64 63h-47v-312q0 -25 7.5 -31.5t40.5 -10.5v-25h-176v25q33 4 40.5 10.5t7.5 31.5zM702 420l157 302h109v-25q-31 -1 -42.5 -12.5t-11.5 -37.5v-262q0 -25 7.5 -31.5t40.5 -10.5v-25h-176v25q33 4 40.5 10.5
t7.5 31.5v235h-2l-151 -302h-10l-147 302h-2v-214q0 -36 9.5 -48.5t42.5 -14.5v-25h-131v25q31 2 40 14.5t9 48.5v242q-7 22 -25.5 35t-41.5 14v25h128z" />
    <glyph glyph-name="Omega" unicode="&#x2126;" horiz-adv-x="727" 
d="M693 149l-25 -149h-239l-7 19q1 1 35 69t46 97.5t27.5 88.5t15.5 109q-1 149 -53 219t-131 70q-83 0 -132.5 -69.5t-49.5 -223.5q0 -20 2.5 -41.5t5 -38.5t10 -40.5t10.5 -36.5t14.5 -38.5t14.5 -34t17 -36t16 -31t18 -32.5l15 -30l-8 -20h-238l-24 149l27 1
q15 -47 30.5 -61t46.5 -14h102q-32 28 -54.5 51t-52.5 63t-46 90.5t-16 106.5q0 143 84 230.5t211 87.5q128 0 209 -84t81 -226q0 -67 -30 -132t-62 -102.5t-81 -84.5h109q32 0 45.5 13t28.5 62z" />
    <glyph glyph-name="estimated" unicode="&#x212e;" horiz-adv-x="867" 
d="M832 334h-646q-6 0 -6 -4v-196q0 -12 9 -22q103 -106 244 -106q154 0 258 119h57q-54 -64 -137.5 -101.5t-178.5 -37.5q-165 0 -281.5 105t-116.5 253q0 149 116.5 254t281.5 105q166 0 283 -105t117 -254v-10zM685 360v197q0 14 -9 23q-104 102 -243 102
q-140 0 -243 -105q-10 -10 -10 -25v-192q0 -6 6 -6h495q4 0 4 6z" />
    <glyph glyph-name="partialdiff" unicode="&#x2202;" horiz-adv-x="535" 
d="M264 432h1q36 0 72 -17.5t59 -50.5q8 65 9 108q3 89 -25 158q-16 37 -50.5 63.5t-77.5 26.5q-68 0 -139 -59q-13 -1 -26 25t-6 43q67 42 142 42q136 0 210 -144q50 -96 50 -235q0 -152 -48 -251q-71 -154 -208 -154q-83 0 -133.5 54t-50.5 147q0 97 59 169q29 33 72 54
t90 21zM287 390h-1q-63 0 -104 -58q-45 -74 -45 -192q0 -53 24.5 -87t66.5 -34q63 0 111 106q32 72 49 195q-11 25 -39 47.5t-62 22.5z" />
    <glyph glyph-name="Delta" unicode="&#x2206;" horiz-adv-x="638" 
d="M602 0h-568v27l259 665l42 12l267 -677v-27zM483 50l-198 514l-193 -514h391z" />
    <glyph glyph-name="product" unicode="&#x220f;" horiz-adv-x="692" 
d="M664 697v-28q-64 -5 -77.5 -17t-13.5 -59v-567q0 -52 14 -66t75 -19v-27h-266v27q57 5 69 17.5t12 67.5v602q0 22 -6.5 27.5t-29.5 5.5h-193q-22 0 -28 -5t-6 -25v-605q0 -53 10.5 -66.5t63.5 -18.5v-27h-259v27q61 5 75 18.5t14 66.5v567q0 47 -14 59t-78 17v28h638z
" />
    <glyph glyph-name="summation" unicode="&#x2211;" horiz-adv-x="556" 
d="M532 104l-44 -195h-460v26l223 341l-218 394v27h455q0 -6 5 -66.5t7 -98.5l-28 -6q-13 66 -34 102q-11 20 -31 27t-74 7h-181l182 -321l-224 -349h252q67 0 89 18t52 102z" />
    <glyph glyph-name="minus" unicode="&#x2212;" horiz-adv-x="606" 
d="M50 217v72h506v-72h-506z" />
    <glyph glyph-name="uni2215" unicode="&#x2215;" horiz-adv-x="167" 
d="M-140 -15h-55l502 720h55z" />
    <glyph glyph-name="uni2219" unicode="&#x2219;" horiz-adv-x="278" 
d="M71 306q0 28 19.5 48t48.5 20t48.5 -20t19.5 -48t-19.5 -48t-48.5 -20t-48.5 20t-19.5 48z" />
    <glyph glyph-name="radical" unicode="&#x221a;" horiz-adv-x="553" 
d="M537 886l-168 -1039l-23 -11l-215 550l-87 -41l-12 35l162 74l163 -430h2l137 872z" />
    <glyph glyph-name="infinity" unicode="&#x221e;" horiz-adv-x="755" 
d="M707 288v-1q0 -73 -45.5 -118t-107.5 -45q-44 0 -85 26t-91 87q-45 -54 -86.5 -83.5t-94.5 -29.5q-61 0 -105.5 45.5t-44.5 113.5q0 70 44.5 115.5t112.5 45.5q50 0 92 -29t86 -82q26 30 36 40.5t35.5 32t51 30t55.5 8.5q64 0 105.5 -43.5t41.5 -112.5zM204 182h2
q25 0 51.5 15.5t41 30t39.5 43.5l3 3t2.5 3t2.5 3q-21 28 -32 41t-30.5 31.5t-39.5 26.5t-44 8q-42 0 -67.5 -30.5t-24.5 -75.5q0 -41 27.5 -70t68.5 -29zM554 387h-1q-18 0 -34.5 -6t-33.5 -20.5t-26 -23t-27 -29t-20 -22.5q49 -59 79 -81.5t66 -22.5q40 0 64.5 31t24.5 69
q0 48 -25.5 76.5t-66.5 28.5z" />
    <glyph glyph-name="integral" unicode="&#x222b;" horiz-adv-x="382" 
d="M161 8l-20 410q-21 426 159 426q23 0 43 -13t21 -36q0 -22 -14.5 -34.5t-33.5 -12.5q-11 0 -19.5 8t-12 17t-9 17t-12.5 8q-46 0 -39 -163l19 -381q6 -129 -4.5 -221.5t-35 -141.5t-54.5 -70.5t-67 -21.5q-27 0 -45.5 14.5t-18.5 35.5q-1 22 16 36.5t39 14.5q15 0 28 -27
t23 -27q21 0 31 43.5t6 118.5z" />
    <glyph glyph-name="approxequal" unicode="&#x2248;" horiz-adv-x="537" 
d="M457 437l39 -35q-49 -97 -129 -97q-45 0 -110 39q-54 33 -86 33q-29 0 -50 -18.5t-43 -52.5l-40 34q22 44 59 70.5t80 26.5q11 0 22.5 -2t19.5 -4t19 -7.5t15.5 -8t15.5 -9t13 -7.5t9.5 -5.5t9.5 -5.5t8.5 -5t8.5 -5t7.5 -3.5t8.5 -3.5t8 -2.5t8.5 -2t8 -1t9.5 -0.5
q46 0 89 72zM457 263l39 -35q-50 -97 -129 -97q-43 0 -110 39q-53 33 -85 33q-30 0 -50.5 -18t-43.5 -53l-40 34q22 44 59 70.5t80 26.5q14 0 26.5 -2t24.5 -7t19 -8.5t19.5 -10.5t15.5 -9q5 -3 16.5 -10t17.5 -10t15.5 -7.5t18.5 -6t18 -1.5q27 0 46.5 17.5t42.5 54.5z" />
    <glyph glyph-name="notequal" unicode="&#x2260;" horiz-adv-x="537" 
d="M389 500l-40 -90h140v-61h-164l-60 -135h224v-61h-248l-50 -112l-48 20l41 92h-137v61h161l60 135h-221v61h244l49 110z" />
    <glyph glyph-name="lessequal" unicode="&#x2264;" horiz-adv-x="537" 
d="M486 101l-433 219v65l433 218v-72l-370 -177v-2l370 -179v-72zM490 0h-441v63h441v-63z" />
    <glyph glyph-name="greaterequal" unicode="&#x2265;" horiz-adv-x="537" 
d="M54 603l434 -218v-66l-434 -218v72l370 178v2l-370 178v72zM488 0h-439v63h439v-63z" />
    <glyph glyph-name="lozenge" unicode="&#x25ca;" horiz-adv-x="560" 
d="M512 335l-196 -405h-73l-195 405l197 408h72zM442 335l-160 342h-3l-161 -341l161 -342h3z" />
    <glyph glyph-name="fi" unicode="&#xfb01;" horiz-adv-x="611" 
d="M112 419h-94v45h94v28q0 108 61.5 176.5t174.5 68.5q66 0 106.5 -28t40.5 -68q0 -30 -15.5 -48.5t-45.5 -18.5q-22 0 -38 14.5t-16 36.5q0 18 8.5 30t8.5 20t-16.5 15t-39.5 7q-59 0 -98 -53.5t-39 -164.5v-15h121q97 0 175 15v-393q0 -26 12 -36t42 -10h28v-40h-256v40
h29q29 0 41 10.5t12 38.5v302q0 17 -10.5 22.5t-37.5 5.5h-156v-333q0 -26 12 -36t42 -10h22v-40h-250v40h28q30 0 42 10t12 36v333z" />
    <glyph glyph-name="fl" unicode="&#xfb02;" horiz-adv-x="611" 
d="M204 464h204v112q-14 3 -26.5 17.5t-12.5 31.5q0 18 8.5 30t8.5 20q0 9 -14.5 15.5t-36.5 6.5q-55 0 -93 -54t-38 -164v-15zM112 86v333h-94v45h94v28q0 108 60.5 176.5t170.5 68.5q37 0 74 -15l83 15v-651q0 -26 12 -36t42 -10h28v-40h-256v40h28q30 0 42 10t12 36v333
h-204v-333q0 -26 12 -36t42 -10h22v-40h-250v40h28q30 0 42 10t12 36z" />
    <glyph glyph-name="a.superior" horiz-adv-x="334" 
d="M207 590v30q0 29 -16 42t-54 13q-20 0 -34.5 -3.5t-20 -7t-5.5 -6.5t8.5 -14.5t8.5 -19.5q0 -30 -39 -30q-41 0 -41 38q0 30 37 51.5t102 21.5q67 0 96.5 -21.5t29.5 -69.5q0 -16 -1 -72t-1 -67q0 -9 7 -18.5t17 -9.5t18.5 3.5t10.5 3.5q8 0 8 -10q0 -12 -18.5 -24.5
t-45.5 -12.5q-51 0 -63 46q-44 -46 -117 -46q-98 0 -98 73q0 87 211 110zM207 526v40q-78 -10 -108.5 -28.5t-30.5 -51.5q0 -16 16 -27.5t36 -11.5q33 0 60 22t27 57z" />
    <glyph glyph-name="o.superior" horiz-adv-x="300" 
d="M80 556q0 -63 20 -91t51 -28q30 0 49.5 28t19.5 91t-19.5 91t-49.5 28q-31 0 -51 -28t-20 -91zM4 556q0 65 38.5 107t108.5 42q68 0 106.5 -42t38.5 -107t-38.5 -107t-106.5 -42q-70 0 -108.5 42t-38.5 107z" />
    <glyph glyph-name="one.superior" 
d="M46 282v25h47q25 0 34.5 9.5t9.5 33.5v251q0 22 -7 28t-32 6h-59v25q89 2 144 45h20v-355q0 -24 9.5 -33.5t34.5 -9.5h47v-25h-248z" />
    <glyph glyph-name="two.superior" 
d="M279 363l15 46h25l-10 -127h-295v15q33 45 78 88q95 91 124 131t29 83q0 36 -24.5 56t-65.5 20q-39 0 -64 -19t-25 -40q0 -6 13 -10.5t26 -14t13 -28.5q0 -15 -13 -24.5t-32 -9.5q-21 0 -34 18.5t-13 46.5q0 43 39.5 77t107.5 34q57 0 100.5 -31.5t43.5 -82.5
q0 -45 -28 -78t-101 -89q-100 -76 -107 -80v-2h153q23 0 32 4.5t13 16.5z" />
    <glyph glyph-name="three.superior" 
d="M35 610q0 35 35.5 65t98.5 30q56 0 94.5 -27t38.5 -77q0 -38 -25.5 -63.5t-65.5 -34.5v-2q47 -6 75.5 -34.5t28.5 -73.5q0 -56 -44.5 -88t-108.5 -32q-60 0 -102 25t-42 77q0 19 12 33t32 14q17 0 29.5 -9.5t12.5 -24.5q0 -18 -10 -27t-20.5 -12.5t-10.5 -9.5
q0 -12 26.5 -24t63.5 -12q46 0 68 25.5t22 66.5q0 94 -79 94q-9 0 -23 -1.5t-19 -1.5q-20 0 -20 14q0 12 5.5 17t19.5 5q4 0 15 -1.5t16 -1.5q42 0 60 20.5t18 61.5q0 74 -75 74q-24 0 -42.5 -6t-26 -13t-7.5 -12q0 -4 15 -15t15 -25q0 -16 -10 -26.5t-28 -10.5
q-19 0 -30.5 12.5t-11.5 30.5z" />
    </font>
</defs>
</svg>
