<?xml version="1.0" standalone="no"?>
<!DOCTYPE svg PUBLIC "-//W3C//DTD SVG 1.1//EN" "http://www.w3.org/Graphics/SVG/1.1/DTD/svg11.dtd" >
<svg xmlns="http://www.w3.org/2000/svg" xmlns:xlink="http://www.w3.org/1999/xlink" version="1.1">
<metadata>
Created by FontForge 20170731 at Thu May 30 13:11:51 2013
 By Aleksey,,,
Copyright 1991, Klas &#38; Svein
</metadata>
<defs>
<font id="DowPBold" horiz-adv-x="344" >
  <font-face 
    font-family="Dow"
    font-weight="700"
    font-stretch="normal"
    units-per-em="1000"
    panose-1="2 0 8 3 0 0 0 0 0 0"
    ascent="800"
    descent="-200"
    x-height="488"
    cap-height="710"
    bbox="-165 -259 1443 984"
    underline-thickness="50"
    underline-position="-200"
    unicode-range="U+0020-FFFD"
  />
<missing-glyph horiz-adv-x="500" 
 />
    <glyph glyph-name=".notdef" unicode="&#xfffd;" horiz-adv-x="500" 
 />
    <glyph glyph-name=".null" horiz-adv-x="0" 
 />
    <glyph glyph-name="nonmarkingreturn" horiz-adv-x="333" 
 />
    <glyph glyph-name="space" unicode=" " horiz-adv-x="265" 
 />
    <glyph glyph-name="exclam" unicode="!" horiz-adv-x="352" 
d="M267 625q0 -27 -33 -116q-40 -108 -42 -191h-43q-2 82 -41 191q-33 89 -33 116q0 47 30 76.5t66 29.5q35 0 65.5 -29.5t30.5 -76.5zM272 86q0 -41 -29 -70.5t-69 -29.5q-41 0 -70 29.5t-29 70.5t29 69.5t70 28.5q40 0 69 -29t29 -69z" />
    <glyph glyph-name="quotedbl" unicode="&#x22;" horiz-adv-x="435" 
d="M371 661q0 -21 -3 -36l-24 -193h-63l-23 193q-4 36 -4 40q0 35 18.5 50.5t43.5 15.5q23 0 36.5 -15t16 -28.5t2.5 -26.5zM180 661q0 -21 -3 -36l-23 -193h-64l-23 193q-3 27 -3 40q0 35 18 50.5t43 15.5q23 0 36.5 -15t16 -28.5t2.5 -26.5z" />
    <glyph glyph-name="numbersign" unicode="#" horiz-adv-x="647" 
d="M604 430h-116l-16 -108h99v-109h-115l-31 -213h-96l30 213h-100l-31 -213h-97l31 213h-98v109h114l16 108h-98v110h113l29 202h97l-30 -202h101l30 202h96l-30 -202h102v-110zM391 430h-101l-15 -108h100z" />
    <glyph glyph-name="dollar" unicode="$" horiz-adv-x="530" 
d="M505 190q0 -51 -32.5 -98t-77.5 -73q-44 -26 -104 -41v-110h-53v109q-89 8 -151 49t-62 106q0 37 23.5 61.5t57.5 24.5q33 0 54 -23t21 -52t-21 -50q-18 -18 -18 -24q0 -14 24.5 -27.5t71.5 -15.5v243l-99 54q-96 54 -96 151q0 66 52 128t143 75v113h53v-113
q78 -10 132 -46.5t54 -84.5q0 -28 -18.5 -49t-49.5 -21q-30 0 -48 19.5t-18 45.5q0 24 17 44q7 7 7 10t-8 8.5t-26 12t-42 10.5v-207l69 -31q71 -32 108 -88t37 -110zM238 448v177q-32 -5 -53.5 -16.5t-29 -26t-9.5 -22t-2 -15.5q0 -47 94 -97zM404 122q0 12 -5 26
t-32.5 41.5t-75.5 50.5v-208q52 5 82.5 34t30.5 56z" />
    <glyph glyph-name="percent" unicode="%" horiz-adv-x="1061" 
d="M844 721l-569 -965h-82l524 873l-3 2q-125 -64 -204 -64q-35 0 -81 11q6 -39 6 -49q0 -89 -70.5 -166t-170.5 -77q-64 0 -102 51.5t-38 114.5q0 93 75.5 167.5t167.5 74.5q40 0 96 -28q82 -46 139 -46q50 0 122.5 27t128.5 84h61v-10zM1008 131q0 -100 -78.5 -176.5
t-158.5 -76.5q-49 0 -85 30t-51 67.5t-15 73.5q0 81 71 162.5t164 81.5q17 0 35 -3.5t40 -14t38.5 -27.5t28 -47t11.5 -70zM347 600q0 28 -19.5 40t-32.5 12q-26 0 -41 -13.5t-35 -51.5q-18 -33 -42.5 -92.5t-24.5 -92.5q0 -30 13.5 -46t34.5 -16q32 0 55 28t45 78
q47 112 47 154zM911 188q0 20 -12.5 32t-22.5 15t-17 3q-26 0 -41 -13t-36 -50q-67 -140 -67 -187q0 -29 14 -45t35 -16q32 0 54.5 27.5t45.5 79.5q47 106 47 154z" />
    <glyph glyph-name="ampersand" unicode="&#x26;" horiz-adv-x="828" 
d="M764 244q0 -102 -41 -169q-28 -47 -80 -71.5t-102 -24.5q-69 0 -123 63q-73 -63 -181 -63q-80 0 -131.5 50.5t-51.5 139.5q0 96 86 168l82 69l-20 55q-17 49 -17 82q0 64 53.5 115.5t143.5 51.5q74 0 111.5 -35t37.5 -72q0 -33 -44 -77l-76 -77l116 -226q39 43 58 95
t19 79q0 24 -18.5 45t-54.5 24v43h233v-42q-37 -5 -61.5 -32.5t-59.5 -97.5l-80 -164l20 -36q26 -47 56 -47q16 0 29.5 9.5t27.5 46t16 98.5h52zM452 596q0 29 -18 44t-41 15q-25 0 -37 -17t-12 -33q0 -15 11 -41l28 -66l45 44q24 22 24 54zM385 84l-135 275
q-17 -7 -27.5 -14t-21.5 -24t-11 -40q0 -59 50 -146q23 -45 40 -63.5t39 -18.5q32 0 66 31z" />
    <glyph glyph-name="quotesingle" unicode="'" horiz-adv-x="244" 
d="M180 661q0 -21 -3 -36l-23 -193h-64l-23 193q-3 27 -3 40q0 35 18 50.5t43 15.5q23 0 36.5 -15t16 -28.5t2.5 -26.5z" />
    <glyph glyph-name="parenleft" unicode="(" horiz-adv-x="530" 
d="M419 -196h-30q-156 129 -210.5 223t-54.5 235q0 137 54.5 231t210.5 222h30v-34q-48 -48 -100 -137q-64 -117 -64 -284q0 -171 64 -283q53 -94 100 -138v-35z" />
    <glyph glyph-name="parenright" unicode=")" horiz-adv-x="531" 
d="M405 258q0 -137 -54.5 -231t-210.5 -223h-30v35q57 58 99 137q64 114 64 284q0 167 -63 283q-51 92 -100 138v34h30q156 -128 210.5 -222.5t54.5 -234.5z" />
    <glyph glyph-name="asterisk" unicode="*" horiz-adv-x="531" 
d="M473 407q0 -20 -13 -38.5t-37 -18.5q-32 0 -57 32l-90 92q1 -35 26 -98q15 -34 15 -52q0 -21 -17 -41t-37 -20t-37 20t-17 40q0 16 23 77q15 40 18 74l-91 -92q-28 -32 -57 -32q-23 0 -36.5 18t-13.5 40q0 17 9.5 31.5t26.5 19.5l130 37v2l-130 37q-36 12 -36 52
q0 20 13.5 38.5t37.5 18.5q29 0 56 -31l91 -93q-2 38 -27 98q-14 35 -14 52q0 22 16.5 41.5t37.5 19.5q20 0 37 -20t17 -40q0 -16 -24 -76q-16 -40 -17 -75l90 93q30 31 57 31q24 0 37 -17.5t13 -40.5q0 -38 -35 -51l-131 -37v-2l131 -37q35 -10 35 -52z" />
    <glyph glyph-name="plus" unicode="+" horiz-adv-x="647" 
d="M594 217h-218v-217h-106v217h-217v106h217v218h106v-218h218v-106z" />
    <glyph glyph-name="comma" unicode="," horiz-adv-x="265" 
d="M227 78q0 -22 -9 -53.5t-28 -70t-59.5 -67.5t-93.5 -35v42q32 11 53 36.5t21 46.5q0 8 -4 11.5t-28 19.5q-43 34 -43 80q0 42 29.5 70.5t66.5 28.5t66 -28t29 -81z" />
    <glyph glyph-name="hyphen" unicode="-" horiz-adv-x="350" 
d="M276 180h-212v127h212v-127z" />
    <glyph glyph-name="period" unicode="." horiz-adv-x="265" 
d="M231 86q0 -41 -29 -70.5t-70 -29.5q-40 0 -69 29.5t-29 70.5q0 40 29 69t69 29q41 0 70 -28.5t29 -69.5z" />
    <glyph glyph-name="slash" unicode="/" horiz-adv-x="531" 
d="M493 685l-394 -852l-78 38l396 860z" />
    <glyph glyph-name="zero" unicode="0" horiz-adv-x="530" 
d="M500 334q0 -166 -69 -259q-72 -96 -166 -96q-96 0 -166 96q-69 92 -69 259t69 259q70 96 166 96t166 -96q69 -93 69 -259zM333 336q0 214 -15 262q-18 48 -55 48q-19 0 -33.5 -14.5t-20.5 -33.5q-15 -47 -15 -262q0 -216 15 -262q6 -21 20.5 -33.5t33.5 -12.5
q20 0 34.5 13.5t20.5 32.5q15 49 15 262z" />
    <glyph glyph-name="one" unicode="1" horiz-adv-x="530" 
d="M477 0h-424v42q86 -2 112 16.5t26 82.5v337q0 21 -1.5 33t-7 26t-19 22t-34.5 12q-3 1 -76 1v43q98 0 142 13q69 16 81 61h74v-548q0 -23 1 -34t7.5 -27t19 -22.5t37.5 -11.5t62 -4v-42z" />
    <glyph glyph-name="two" unicode="2" horiz-adv-x="530" 
d="M491 237q-3 -27 -10 -57t-24.5 -82t-52.5 -85.5t-81 -33.5q-36 0 -58.5 17t-46.5 55q-16 24 -24 35t-18 19t-21 8q-24 0 -43.5 -37.5t-17.5 -96.5h-54q-1 55 20 110.5t50 97t88 115.5q28 34 44.5 57.5t36 69t19.5 85.5q0 54 -25 91.5t-74 37.5q-31 0 -52 -20t-21 -40
q0 -12 3.5 -15.5t13.5 -6.5q22 -7 35 -27t13 -47q0 -41 -23 -60t-47 -19q-33 0 -57.5 30t-24.5 74q0 22 10 49t32 57.5t67 50.5t105 20q108 0 162.5 -52t54.5 -122q0 -56 -32.5 -104t-72.5 -72q-128 -73 -172 -116q-26 -27 -26 -40q0 -12 7 -15t37 -7q17 -2 65 -19
q31 -13 57 -13q28 0 48.5 10t32.5 29.5t17 32.5t12 36h48z" />
    <glyph glyph-name="three" unicode="3" horiz-adv-x="530" 
d="M483 196q0 -93 -79.5 -155t-179.5 -62q-71 0 -129.5 48t-58.5 103q0 38 24.5 66t59.5 28q34 0 55.5 -25t21.5 -52q0 -34 -35 -63q-11 -10 -11 -15q0 -11 18.5 -28.5t46.5 -17.5q7 0 17 1.5t28.5 10t32.5 23t25 44.5t11 70q0 84 -33 121.5t-105 37.5q-18 0 -54 -2v53
q60 -1 78 1t38 12q65 33 65 121q0 42 -11.5 71t-29 40.5t-29.5 15t-23 3.5q-23 0 -39.5 -12.5t-16.5 -27.5q0 -7 9 -17q34 -31 34 -64q0 -27 -23 -48t-52 -21q-35 0 -54.5 26.5t-19.5 61.5q0 62 59 103.5t131 41.5q77 0 142.5 -45t65.5 -118q0 -24 -8.5 -48.5t-38.5 -55.5
t-78 -53q30 -15 46 -24.5t44 -31t42 -51t14 -66.5z" />
    <glyph glyph-name="four" unicode="4" horiz-adv-x="530" 
d="M498 0h-392v42q34 -2 57 3.5t34.5 13t17.5 24t7 27.5t1 32v70h-202v76l234 401h127v-424h116v-53h-116v-70q0 -27 2 -40.5t12 -30.5t35 -23.5t67 -5.5v-42zM223 265v273h-3l-155 -273h158z" />
    <glyph glyph-name="five" unicode="5" horiz-adv-x="530" 
d="M488 223q0 -65 -26.5 -115t-67.5 -76.5t-83.5 -39.5t-82.5 -13q-53 0 -94.5 17t-64.5 43.5t-34.5 54.5t-11.5 53q0 38 24.5 68t62.5 30q32 0 51 -22t19 -54q0 -58 -56 -81q-17 -7 -17 -17q0 -13 26 -31t63 -18q33 0 58 11t39 31t23 39t12 44.5t4 37t1 26.5q0 30 -1 49
t-6.5 46.5t-16 43.5t-31 28t-50.5 12q-38 0 -70 -23t-47 -60h-48l39 382q114 -35 151 -44t68 -9q74 0 127 53l28 -29q-32 -61 -60 -90q-28 -28 -72.5 -44.5t-82.5 -16.5q-44 0 -129 27l-16 -139q76 49 145 49q32 0 68 -12t73 -36.5t61.5 -70t24.5 -104.5z" />
    <glyph glyph-name="six" unicode="6" horiz-adv-x="530" 
d="M498 227q0 -102 -63.5 -175t-159.5 -73q-78 0 -135 52t-83 129t-26 166q0 172 81.5 267.5t195.5 95.5q69 0 119 -41t50 -89q0 -36 -26 -58.5t-54 -22.5q-26 0 -47 20t-21 51q0 35 24 57q7 8 7 12q0 7 -16.5 17.5t-35.5 10.5q-52 0 -80 -46q-19 -32 -19 -122q0 -48 3 -102
q55 53 116 53q69 0 119.5 -56t50.5 -146zM343 204q0 155 -65 155q-19 0 -32 -12t-19.5 -27t-10 -41t-4 -41t-0.5 -40q0 -40 1.5 -62t7 -52.5t20 -45t37.5 -14.5q22 0 36 14t20 43t7.5 54.5t1.5 68.5z" />
    <glyph glyph-name="seven" unicode="7" horiz-adv-x="530" 
d="M462 649q0 -55 -38 -166q-49 -133 -49 -201q0 -18 12 -90q5 -28 5 -57q0 -66 -27.5 -111t-74.5 -45q-35 0 -65 32t-30 94q0 65 24.5 115.5t113.5 183.5q42 63 52.5 91t10.5 60q-75 -75 -118 -75q-17 0 -29 6.5t-44 30.5q-28 20 -41 20q-42 0 -42 -125h-52v277h36
q9 -39 30 -39q9 0 37 18q37 21 59 21q39 0 89 -51q25 -25 31.5 -30t15.5 -5q6 0 12 3t14.5 15t11.5 32q2 14 3.5 20t6.5 11t14 5q32 0 32 -40z" />
    <glyph glyph-name="eight" unicode="8" horiz-adv-x="530" 
d="M498 195q0 -84 -67 -150t-184 -66q-98 0 -159.5 58t-61.5 119q0 32 18 62t32 42.5t44 36.5l54 42l-62 55q-55 47 -55 115q0 69 56 124.5t162 55.5q78 0 135 -35.5t57 -103.5q0 -23 -9.5 -43.5t-19 -32t-28.5 -29.5l-53 -53l64 -48q7 -4 17 -14.5t25 -29t25 -46.5t10 -59z
M344 542q0 42 -26 67.5t-66 25.5q-32 0 -60 -17.5t-28 -55.5q0 -40 42 -69l88 -64q50 53 50 113zM365 143q0 37 -19.5 72t-55.5 55l-55 33q-80 -90 -80 -166q0 -45 28.5 -78t74.5 -33q37 0 72 27t35 90z" />
    <glyph glyph-name="nine" unicode="9" horiz-adv-x="530" 
d="M498 351q0 -155 -85.5 -263.5t-200.5 -108.5q-70 0 -117 45.5t-47 98.5q0 37 24 62.5t56 25.5q28 0 51 -20.5t23 -50.5q0 -37 -30 -67q-13 -14 -13 -20q0 -10 12 -20.5t33 -10.5q121 0 121 246q0 13 -2 39q-74 -40 -118 -40q-62 0 -117.5 51t-55.5 139q0 93 62.5 162.5
t154.5 69.5q67 0 118.5 -35t78.5 -89.5t39.5 -109t12.5 -104.5zM322 478q0 95 -14 120q-9 17 -24.5 25.5t-26.5 8.5q-12 0 -27.5 -8.5t-24.5 -25.5q-14 -27 -14 -120q0 -96 14 -121q17 -33 52 -33q11 0 26.5 8t24.5 25q14 27 14 121z" />
    <glyph glyph-name="colon" unicode=":" horiz-adv-x="265" 
d="M246 425q0 -41 -29 -70.5t-70 -29.5q-40 0 -69 29.5t-29 70.5t29 70t69 29q41 0 70 -29t29 -70zM246 86q0 -41 -29 -70.5t-70 -29.5q-40 0 -69 29.5t-29 70.5q0 40 28.5 69t69.5 29t70 -28.5t29 -69.5z" />
    <glyph glyph-name="semicolon" unicode=";" horiz-adv-x="265" 
d="M231 425q0 -41 -29 -70.5t-70 -29.5q-40 0 -69 29.5t-29 70.5t29 70t69 29q41 0 70 -29t29 -70zM227 78q0 -22 -9 -53.5t-28 -70t-59.5 -67.5t-93.5 -35v42q32 11 53 36.5t21 46.5q0 8 -4 11.5t-28 19.5q-43 34 -43 80q0 42 29.5 70.5t66.5 28.5t66 -28t29 -81z" />
    <glyph glyph-name="less" unicode="&#x3c;" horiz-adv-x="647" 
d="M594 -15l-541 248v73l541 248v-106l-389 -178l389 -179v-106z" />
    <glyph glyph-name="equal" unicode="=" horiz-adv-x="647" 
d="M594 305h-541v106h541v-106zM594 124h-541v106h541v-106z" />
    <glyph glyph-name="greater" unicode="&#x3e;" horiz-adv-x="647" 
d="M594 233l-541 -248v106l389 179l-389 178v106l541 -248v-73z" />
    <glyph glyph-name="question" unicode="?" horiz-adv-x="648" 
d="M543 568q0 -89 -76 -130q-36 -19 -53 -28.5t-35.5 -24t-24 -23t-11.5 -27t-7 -35t-1 -48.5h-42q-4 84 22 150q21 57 27 81t6 61q0 72 -31 103q-29 26 -63 26q-37 0 -55 -24.5t-18 -42.5q0 -7 4.5 -10.5t28.5 -15.5q57 -31 57 -84q0 -34 -22.5 -59.5t-59.5 -25.5
q-42 0 -65 35t-23 87q0 96 62 147t165 51q89 0 152 -42t63 -121zM421 86q0 -41 -29.5 -70.5t-70.5 -29.5q-40 0 -69 29.5t-29 70.5q0 40 28.5 69t69.5 29t70.5 -29t29.5 -69z" />
    <glyph glyph-name="at" unicode="@" horiz-adv-x="1041" 
d="M1000 388q0 -75 -27.5 -150.5t-76.5 -128.5q-48 -51 -110 -78.5t-111 -27.5q-28 0 -47 7t-26 19t-9 20.5t-2 19.5q0 18 4 44l-2 3q-73 -116 -170 -116q-56 0 -90.5 44.5t-34.5 110.5q0 61 30.5 131t91 124t132.5 54q30 0 58 -9t41 -21q11 -11 17 -34h2l9 42l149 1
l-79 -321q-4 -15 5.5 -24t25.5 -9q41 0 75 40q93 103 93 248q0 140 -87 203q-90 63 -224 63q-142 0 -260.5 -74.5t-182.5 -189.5t-64 -239q0 -75 30.5 -145.5t98.5 -116.5q79 -52 206 -52q142 0 280 50l14 -48q-168 -58 -319 -58q-83 0 -149.5 18t-128.5 66
q-68 52 -103.5 126t-35.5 157q0 63 23 136.5t73 149.5t119.5 138t172 101t220.5 39q171 0 270 -83.5t99 -229.5zM644 373q0 49 -39 49q-31 0 -67 -55t-59.5 -119.5t-32.5 -112.5q-2 -7 -2 -21q0 -27 12.5 -41t31.5 -14q46 0 81 66q27 53 51 126.5t24 121.5z" />
    <glyph glyph-name="A" unicode="A" horiz-adv-x="840" 
d="M808 0h-413v53h40q78 0 78 52q0 21 -19 73l-27 67h-220l-29 -80q-8 -20 -8 -42q0 -34 18 -52t42 -18h19v-53h-254v53h15q20 0 34 6t25 20.5t16.5 27t15.5 36.5l225 567h161l218 -601q12 -33 24.5 -43.5t38.5 -12.5v-53zM443 306l-80 235l-93 -235h173z" />
    <glyph glyph-name="B" unicode="B" horiz-adv-x="817" 
d="M791 207q0 -90 -77 -148.5t-194 -58.5h-483v53q30 -4 59 19q12 9 18 24t7 25.5t1 31.5v405q0 18 -0.5 27t-4 22t-11.5 22.5t-22 17.5q-21 12 -47 10v53h445q33 0 70.5 -7t80.5 -23t70.5 -50t27.5 -80q0 -39 -17 -64t-53 -47q-14 -10 -112 -52v-2q63 -12 95 -21.5
t66 -30.5q81 -50 81 -126zM513 533q0 124 -114 124q-40 0 -52.5 -18.5t-12.5 -54.5v-181h37q142 0 142 130zM568 201q0 94 -63 124q-51 25 -98 25h-73v-230q0 -18 1.5 -26.5t8 -20t23.5 -16.5t45 -5q80 0 115 37q41 44 41 112z" />
    <glyph glyph-name="C" unicode="C" horiz-adv-x="776" 
d="M726 314q0 -61 -21.5 -119.5t-61 -107t-103 -78.5t-140.5 -30q-83 0 -153.5 32t-116.5 85t-72 119t-26 135q0 75 33 156.5t86 129.5q47 44 118.5 69.5t137.5 25.5q97 0 191 -53q11 -6 20 -6q14 0 29 15t18 44h52q-4 -100 9 -303h-57q-16 61 -22.5 82.5t-20.5 49t-37 51.5
q-54 59 -134 59q-118 0 -166 -128q-30 -77 -30 -175q0 -31 4 -69t21.5 -96.5t46.5 -95.5q45 -54 122 -54q56 0 100.5 26.5t69 67.5t37.5 84t14 84h52z" />
    <glyph glyph-name="D" unicode="D" horiz-adv-x="889" 
d="M847 358q0 -82 -41.5 -164.5t-105.5 -130.5q-82 -63 -217 -63h-430v53q27 -3 46 4.5t28.5 17.5t14.5 28t5.5 27t0.5 23v405q0 11 -0.5 18t-3 21.5t-8.5 24.5t-16 20t-27 13.5t-40 1.5v53h430q75 0 159.5 -37.5t130.5 -92.5q31 -39 52.5 -101.5t21.5 -120.5zM633 363
q0 90 -20.5 157.5t-80.5 108.5q-46 29 -100 29q-41 0 -56.5 -16t-15.5 -58v-464q0 -18 1.5 -26.5t8.5 -20t25 -16.5t47 -5q102 0 146.5 74t44.5 237z" />
    <glyph glyph-name="E" unicode="E" horiz-adv-x="855" 
d="M807 297l-17 -297h-748v53h22q27 0 46 7t28.5 15.5t14.5 24.5t5.5 25.5t0.5 27.5v405q0 17 -0.5 27t-5.5 25.5t-14.5 24t-28.5 15.5t-46 7h-22v53h742v-265h-52q-17 73 -46 115t-92 70q-69 28 -154 28q-44 0 -56.5 -16t-12.5 -59v-159q26 0 46.5 5t44.5 20t39 49t19 85
h52v-360h-52q-15 91 -47 118t-102 30v-245q0 -48 15 -60.5t56 -12.5h59q64 0 117 35.5t78 70.5q32 44 58 138h53z" />
    <glyph glyph-name="F" unicode="F" horiz-adv-x="838" 
d="M796 456h-53q-19 74 -75.5 137.5t-135.5 63.5h-131q-51 0 -51 -62v-182h42q129 0 140 159h51v-360h-51q-3 23 -5.5 37t-12 38t-23 38t-39.5 25t-60 11h-42v-208q0 -18 0.5 -27.5t5.5 -25.5t14.5 -24.5t28.5 -15.5t46 -7h43v-53h-446v53q27 -3 46.5 4.5t29 17.5t14.5 28
t5.5 27t0.5 23v405q0 13 -0.5 22.5t-5.5 27t-14.5 28t-29 17.5t-46.5 4v53h737z" />
    <glyph glyph-name="G" unicode="G" horiz-adv-x="848" 
d="M811 318h-20q-33 0 -49 -18t-16 -65v-246h-42q-16 71 -62 117h-5q-34 -37 -57 -58.5t-74 -45t-109 -23.5q-45 0 -93 15t-99.5 53t-83.5 94q-59 104 -59 209q0 62 22 126t64.5 122.5t115.5 95.5t163 37q40 0 65.5 -8t73.5 -31q25 -10 37 -10q32 0 48 60h46l17 -265h-46
q-92 201 -214 201q-36 0 -65 -16.5t-47 -41.5t-31.5 -60.5t-20.5 -66.5t-11 -67.5t-4.5 -56t-0.5 -38.5q0 -92 11.5 -152.5t33.5 -88.5t45.5 -38t57.5 -10q68 0 101.5 41.5t33.5 139.5q0 95 -78 95h-30v53h382v-53z" />
    <glyph glyph-name="H" unicode="H" horiz-adv-x="890" 
d="M853 0h-371v53q26 2 42.5 12.5t22.5 28t7.5 29t1.5 30.5v186h-222v-186q0 -18 1.5 -29t7.5 -29t22.5 -29t42.5 -13v-53h-371v53q24 0 41.5 7.5t25.5 17.5t12.5 26.5t5 25.5t0.5 23v405q0 14 -0.5 22.5t-5 25t-12.5 26.5t-25.5 17.5t-41.5 7.5v53h371v-53q-21 -2 -36 -10
t-22 -17t-11 -24t-4.5 -24t-0.5 -24v-166h222v166q0 17 -1.5 28.5t-7.5 29t-22.5 28.5t-42.5 13v53h371v-53q-24 0 -41.5 -7.5t-25.5 -17.5t-12.5 -26.5t-5 -25t-0.5 -22.5v-405q0 -14 0.5 -23t5 -25.5t12.5 -26.5t25.5 -17.5t41.5 -7.5v-53z" />
    <glyph glyph-name="I" unicode="I" horiz-adv-x="488" 
d="M445 0h-403v53q27 -3 46.5 4.5t29 17.5t14.5 28t5.5 27t0.5 23v405q0 13 -0.5 22.5t-5.5 27t-14.5 28t-29 17.5t-46.5 4v53h403v-53q-23 2 -40 -1.5t-27 -13.5t-16 -20t-8.5 -24.5t-3 -21.5t-0.5 -18v-405q0 -14 0.5 -23t5.5 -27t14.5 -28t28.5 -17.5t46 -4.5v-53z" />
    <glyph glyph-name="J" unicode="J" horiz-adv-x="637" 
d="M589 657q-23 2 -40 -1.5t-27 -13.5t-16 -20t-8.5 -24.5t-3 -21.5t-0.5 -18v-347q0 -70 -38 -129t-79 -83q-24 -15 -68.5 -28t-79.5 -13q-89 0 -151 69t-62 150q0 57 31.5 98.5t76.5 41.5q38 0 61.5 -28.5t23.5 -61.5q0 -24 -11 -41t-22 -23.5t-31 -15.5q-22 -10 -32 -20
t-10 -31q0 -30 24 -51t53 -21q102 0 102 134v400q0 17 -0.5 27t-5.5 25.5t-14.5 24t-28.5 15.5t-46 7h-32v53h434v-53z" />
    <glyph glyph-name="K" unicode="K" horiz-adv-x="890" 
d="M869 0h-371v53q74 0 74 40q0 9 -13 34l-130 234l-69 -66v-142q0 -18 1.5 -29t7.5 -29t23 -29t43 -13v-53h-393v53q38 0 46.5 1.5t21.5 8.5q25 15 31.5 35.5t6.5 54.5v405q0 18 -1.5 29t-6.5 28t-20 27.5t-38 14.5h-40v53h393v-53q-26 -3 -43 -13.5t-23 -28t-7.5 -28.5
t-1.5 -29v-187l205 208q18 18 18 30q0 16 -17.5 31t-46.5 17v53h287v-53q-48 -3 -81.5 -16t-67.5 -45l-92 -87l203 -365q16 -28 23.5 -40t20.5 -27t26 -20t31 -4v-53z" />
    <glyph glyph-name="L" unicode="L" horiz-adv-x="785" 
d="M753 307l-11 -307h-694v53q27 -3 46 4.5t28.5 17.5t14.5 28t5.5 27t0.5 23v405q0 11 -0.5 18t-3 21.5t-8.5 24.5t-16 20t-27 13.5t-40 1.5v53h402v-53q-23 2 -40 -1.5t-27 -13.5t-16 -20t-8.5 -24.5t-3 -21.5t-0.5 -18v-405q0 -31 1.5 -44.5t8.5 -29t24.5 -21t47.5 -5.5
q86 0 162 63t107 191h47z" />
    <glyph glyph-name="M" unicode="M" horiz-adv-x="1071" 
d="M1028 0h-413v53q27 -3 46 4.5t28.5 17.5t14.5 28t5.5 27t0.5 23v430h-2l-217 -583h-45q-68 206 -115 322.5t-117 249.5h-2v-419q0 -17 0.5 -27t5.5 -26t14.5 -24.5t28.5 -15.5t46 -7h32v-53h-297v53q63 0 84.5 22.5t21.5 77.5v405q0 60 -24 79.5t-82 19.5v53h345
l157 -382l147 382h337v-53q-57 0 -81.5 -18t-24.5 -81v-405q0 -29 6 -48.5t14 -29.5t24.5 -15t28 -6t33.5 -1v-53z" />
    <glyph glyph-name="N" unicode="N" horiz-adv-x="880" 
d="M837 657q-64 0 -85 -22.5t-21 -76.5v-558h-82l-424 541h-2v-388q0 -17 0.5 -27t5.5 -26t14.5 -24.5t28.5 -15.5t46 -7h16v-53h-292v53h22q27 0 46 7t28.5 15.5t14.5 24.5t5.5 26t0.5 27v405q0 17 -0.5 26.5t-5.5 25.5t-14.5 24.5t-28.5 15.5t-46 7h-22v53h301l323 -413h2
v261q0 51 -19.5 75t-82.5 24h-25v53h296v-53z" />
    <glyph glyph-name="O" unicode="O" horiz-adv-x="828" 
d="M785 355q0 -88 -37 -167t-97 -128q-48 -38 -113.5 -59.5t-123.5 -21.5q-59 0 -123.5 21.5t-113.5 59.5q-60 49 -97 128.5t-37 166.5t36 165.5t98 129.5q42 34 99 54t86.5 23.5t51.5 3.5t51 -3.5t86 -23.5t100 -54q61 -50 97.5 -129t36.5 -166zM563 364q0 167 -28 226
q-32 72 -122 72q-89 0 -122 -73q-26 -57 -26 -223q0 -188 28 -249q15 -34 51.5 -51t68.5 -17q16 0 32.5 3.5t38.5 13t39.5 33t24.5 57.5q15 79 15 208z" />
    <glyph glyph-name="P" unicode="P" horiz-adv-x="807" 
d="M775 519q0 -87 -77 -138.5t-179 -51.5h-137v-176q0 -17 0.5 -27t5.5 -26t14.5 -24.5t28.5 -15.5t46 -7h64v-53h-499v53h32q34 0 55 8.5t29 26.5t10 30.5t2 34.5v405q0 22 -2 34t-10 30t-29 26.5t-55 8.5h-32v53h477q127 0 191.5 -59t64.5 -132zM575 527q0 17 -1 28.5
t-8 33t-19.5 35t-39.5 24.5t-64 11q-38 0 -49.5 -14t-11.5 -48v-215h63q74 0 102 34t28 111z" />
    <glyph glyph-name="Q" unicode="Q" horiz-adv-x="818" 
d="M791 64q-1 -28 -1.5 -44.5t-4 -48t-9.5 -52t-18 -46.5t-28 -41t-41.5 -25.5t-57.5 -10.5q-122 0 -148 191q-20 -4 -31 -5q-18 -3 -42 -3q-154 0 -263 107t-109 269q0 164 109 270t261 106q153 0 262.5 -105.5t109.5 -268.5q0 -144 -90 -253q-28 -33 -77 -67
q8 -59 23.5 -80t38.5 -21q18 0 30.5 8.5t18.5 19t9.5 31t4.5 33t1 36.5h52zM562 369q0 101 -9.5 163.5t-38.5 91.5q-15 15 -43 26.5t-58 11.5q-35 0 -71.5 -18.5t-52.5 -62.5q-24 -71 -24 -232q0 -102 12 -176q65 72 139 72q72 0 136 -69q10 85 10 193zM483 65
q4 126 -78 126q-34 0 -59.5 -28t-25.5 -57q0 -32 27 -41q33 -17 71 -17q27 0 65 17z" />
    <glyph glyph-name="R" unicode="R" horiz-adv-x="890" 
d="M864 265q-1 -137 -51 -211.5t-136 -74.5q-40 0 -71 19t-46.5 47.5t-23 49.5t-9.5 37q-12 117 -18.5 145t-29.5 44q-24 19 -76 19h-37v-187q0 -23 2 -35.5t10 -30t28.5 -25.5t54.5 -9v-53h-413v53q64 0 85 23t21 77v405q0 54 -21 76.5t-85 22.5v53h494q87 0 154.5 -42
t67.5 -122q0 -92 -95 -139q-21 -10 -96 -32q34 -16 57.5 -29.5t41.5 -30.5t28 -29.5t19.5 -37t14.5 -41.5t14 -55q9 -36 20 -36q18 0 31 44t12 105h53zM556 533q0 68 -38.5 96.5t-87.5 28.5q-30 0 -45 -10.5t-17 -20.5t-2 -29v-206h46q18 0 40 6.5t47 21t41 44t16 69.5z" />
    <glyph glyph-name="S" unicode="S" horiz-adv-x="638" 
d="M596 227q0 -108 -77 -178t-168 -70q-74 0 -166 51q-43 27 -53 27q-15 0 -20 -78h-53v314h53q2 -66 30.5 -118.5t67.5 -80.5t75 -42.5t61 -14.5q48 0 90.5 27.5t42.5 74.5q0 61 -83 93l-153 61q-96 37 -144 101q-46 65 -46 137q0 80 54 140t141 60q35 0 61 -8t93 -37
q27 -13 35 -13q26 0 36 58h53v-259h-53q-8 47 -31.5 84.5t-50 57.5t-56.5 32.5t-50 16.5t-32 4q-41 0 -64.5 -20.5t-23.5 -48.5q0 -26 18 -43t65 -37l179 -73q59 -24 99 -66t55 -80t15 -72z" />
    <glyph glyph-name="T" unicode="T" horiz-adv-x="784" 
d="M737 408h-48q-22 98 -63.5 171t-80.5 73q-47 0 -47 -75v-424q0 -22 2 -34.5t10 -30.5t29 -26.5t55 -8.5h53v-53h-509v53h53q27 0 46 7t28.5 15.5t14.5 24.5t5.5 26t0.5 27v424q0 75 -46 75q-40 0 -81.5 -72.5t-63.5 -171.5h-47v302h689v-302z" />
    <glyph glyph-name="U" unicode="U" horiz-adv-x="890" 
d="M848 657q-52 -2 -68.5 -27.5t-16.5 -71.5v-304q0 -134 -84 -216q-73 -71 -222 -71q-85 0 -147 25t-93 66.5t-44.5 84.5t-13.5 90v325q0 17 -0.5 26.5t-5.5 25.5t-14.5 24.5t-28.5 15.5t-46 7h-22v53h435v-53q-64 0 -85 -22.5t-21 -76.5v-374q0 -80 44 -118t99 -38
q87 0 136.5 60t49.5 155v315q0 22 -2 34t-10 30t-29 26.5t-55 8.5h-21v53h265v-53z" />
    <glyph glyph-name="V" unicode="V" horiz-adv-x="816" 
d="M784 657q-35 -2 -62 -26.5t-55 -99.5l-201 -531h-115l-239 594q-14 37 -30.5 50t-49.5 13v53h381v-53q-35 5 -49.5 -13.5t-14.5 -37.5q0 -17 10 -43l137 -337l121 320q14 35 14 53q0 31 -18 44.5t-38 13.5h-24v53h233v-53z" />
    <glyph glyph-name="W" unicode="W" horiz-adv-x="1060" 
d="M1033 657q-31 -4 -47 -22.5t-34 -74.5l-185 -560h-98l-119 427h-2l-140 -427h-106l-185 560q-18 51 -37.5 72.5t-53.5 24.5v53h340v-53q-19 -1 -30 -11t-12 -16t-1 -11q0 -18 10 -44l106 -311h2l82 259l-18 63q-12 42 -26 56t-39 15v53h318v-53q-22 -1 -37 -13t-15 -30
q0 -16 12 -54l82 -296h2l94 290q10 34 10 49q0 22 -18 37t-45 17v53h190v-53z" />
    <glyph glyph-name="X" unicode="X" horiz-adv-x="880" 
d="M859 0h-435v53q18 1 27.5 2t25 4.5t23.5 13t8 23.5q0 24 -39 71l-112 138l-125 -138q-3 -3 -9 -11.5t-13.5 -24.5t-7.5 -29q0 -49 67 -49h28v-53h-276v53q33 1 62 32l239 268l-196 238q-50 62 -105 66v53h403v-53q-16 -3 -25 -11.5t-10.5 -14t-1.5 -10.5q0 -17 10 -30
l94 -125l76 94q27 32 27 52q0 14 -13 30t-40 15v53h275v-53q-81 0 -127 -51l-164 -182l263 -328q34 -43 71 -43v-53z" />
    <glyph glyph-name="Y" unicode="Y" horiz-adv-x="880" 
d="M848 657q-58 -6 -87 -33t-72 -101l-148 -255v-115q0 -20 1.5 -32t9 -30.5t27 -28t50.5 -9.5h60v-53h-509v53h47q63 0 82.5 24.5t19.5 75.5v99l-149 284q-33 64 -57.5 86.5t-90.5 34.5v53h456v-53q-84 0 -84 -54q0 -24 17 -58l98 -186l120 203q15 25 15 41q0 26 -21 39
t-50 15v53h265v-53z" />
    <glyph glyph-name="Z" unicode="Z" horiz-adv-x="700" 
d="M668 0h-636v14l333 583q11 20 11 33q0 28 -47 28q-37 0 -81.5 -17.5t-78.5 -57.5q-29 -34 -41.5 -74.5t-21.5 -105.5h-53v307h604l-346 -604q-12 -17 -12 -30q0 -23 42 -23q31 0 64 5.5t81 31.5t78 69q46 68 57 170h47v-329z" />
    <glyph glyph-name="bracketleft" unicode="[" horiz-adv-x="371" 
d="M323 -233h-270v943h270v-53h-159v-837h159v-53z" />
    <glyph glyph-name="backslash" unicode="\" horiz-adv-x="531" 
d="M493 -129l-77 -38l-395 852l78 46z" />
    <glyph glyph-name="bracketright" unicode="]" horiz-adv-x="371" 
d="M323 -233h-275v53h164v837h-164v53h275v-943z" />
    <glyph glyph-name="asciicircum" unicode="^" horiz-adv-x="647" 
d="M572 329h-106l-143 274l-143 -274h-106l202 392h95z" />
    <glyph glyph-name="underscore" unicode="_" horiz-adv-x="530" 
d="M530 -159h-530v53h530v-53z" />
    <glyph glyph-name="grave" unicode="`" horiz-adv-x="240" 
d="M240 579l-32 -41l-159 103q-16 10 -24 16.5t-16.5 20t-8.5 28.5q0 23 16 40t40 17t51 -31z" />
    <glyph glyph-name="a" unicode="a" horiz-adv-x="655" 
d="M629 140q0 -43 -13 -75.5t-30 -48t-39.5 -25t-34.5 -11t-21 -1.5q-58 0 -126 59q-114 -59 -187 -59q-29 0 -58.5 8t-56 33.5t-26.5 64.5q0 104 143 160l185 73v54q0 94 -105 94q-22 0 -38.5 -4.5t-25 -10.5t-13.5 -13t-6 -11.5t-1 -7.5q0 -7 5 -10q26 -28 26 -45
q0 -25 -20 -43.5t-49 -18.5q-31 0 -52.5 21.5t-21.5 51.5q0 13 3.5 26.5t17.5 34t37 36t67.5 26.5t103.5 11q37 0 64.5 -3t58.5 -13.5t50.5 -29t32.5 -52.5t13 -81v-200q0 -32 8 -50.5t14.5 -22t12.5 -3.5q39 0 39 71v87h43v-72zM365 175v95l-66 -24q-83 -31 -83 -128
q0 -76 59 -76q33 0 61.5 33t28.5 100z" />
    <glyph glyph-name="b" unicode="b" horiz-adv-x="647" 
d="M620 257q0 -61 -29.5 -122t-74.5 -98q-31 -25 -73.5 -41.5t-76.5 -16.5q-87 0 -167 85q-27 -50 -63 -85h-25v617q0 42 -13 57.5t-61 14.5v32q39 1 146 10h87v-255q21 16 34.5 25t42 19t58.5 10q84 0 149.5 -79t65.5 -173zM456 237q0 114 -16.5 163.5t-71.5 49.5
q-5 0 -10.5 -0.5t-19 -5.5t-24.5 -13.5t-22.5 -27t-18.5 -43.5q-9 -40 -9 -140q0 -38 0.5 -57t6 -48.5t15 -44.5t29.5 -26.5t49 -11.5q31 0 50 13t28 43t11.5 62t2.5 87z" />
    <glyph glyph-name="c" unicode="c" horiz-adv-x="595" 
d="M556 180q-11 -56 -38.5 -97.5t-55 -60.5t-62.5 -30t-49.5 -12t-28.5 -1q-111 0 -192 80t-81 186q0 45 17 90t49 84.5t86.5 64.5t122.5 25q99 0 158 -50.5t59 -106.5q0 -30 -22 -56t-56 -26q-30 0 -51 22t-21 51q0 28 21 51q17 17 17 25q0 14 -23 29.5t-52 15.5
q-36 0 -62 -20t-38 -44.5t-18.5 -61t-7.5 -54t-1 -39.5q0 -41 3.5 -71.5t15.5 -66t39.5 -55t69.5 -19.5q56 0 99 41t60 106h42z" />
    <glyph glyph-name="d" unicode="d" horiz-adv-x="647" 
d="M609 0q-56 4 -100 0t-62 -8t-46 -13h-25v63q-81 -63 -147 -63q-84 0 -143.5 78.5t-59.5 190.5q0 104 56.5 182.5t134.5 78.5q38 0 72.5 -17.5t86.5 -62.5v147q0 51 -19.5 62t-86.5 9v42q114 -2 150.5 1.5t91.5 19.5h23v-597q0 -20 2 -31.5t9 -22.5t22.5 -15t40.5 -2v-42z
M377 246q0 107 -43 154q-36 39 -75 39q-38 0 -48 -47q-11 -53 -11 -162q0 -32 0.5 -48t2.5 -42.5t7 -40.5t13 -29t22 -21.5t33 -6.5q50 0 74.5 58.5t24.5 145.5z" />
    <glyph glyph-name="e" unicode="e" horiz-adv-x="584" 
d="M546 244h-326v-48.5t1.5 -41.5t4.5 -37.5t8 -29t13.5 -25t20 -16t27.5 -11.5t37 -3q65 0 113.5 41t53.5 98h42q-3 -69 -61 -130.5t-168 -61.5q-114 0 -191 77q-73 73 -73 186q0 60 19.5 108.5t48 77t64 48t65 26.5t53.5 7q49 0 103 -24.5t88 -68.5q49 -62 57 -172z
M371 286q0 33 -1.5 53t-7.5 51t-23 47t-43 16q-24 0 -40 -14.5t-23 -41t-9.5 -50.5t-3.5 -55v-6h151z" />
    <glyph glyph-name="f" unicode="f" horiz-adv-x="404" 
d="M383 603q0 -24 -17 -38t-38 -14q-22 0 -37.5 14.5t-15.5 37.5q0 15 10 28q9 9 9 12q0 8 -10.5 16.5t-23.5 8.5q-17 0 -27 -12.5t-10 -30.5q0 -20 20 -58q18 -38 22 -79h95v-43h-95v-335q0 -40 14 -54t55 -14h16v-42h-329v42h19q39 0 52.5 14t13.5 54v335h-85v43h85v46
q0 74 46 125t99 51q51 0 91.5 -33.5t40.5 -73.5z" />
    <glyph glyph-name="g" unicode="g" horiz-adv-x="648" 
d="M617 455q0 -21 -14.5 -37t-33.5 -16q-22 0 -40 30q-3 8 -11 8q-14 0 -29 -31q17 -48 17 -67q0 -73 -70 -120.5t-146 -47.5q-21 0 -39 5q-30 6 -36 6q-15 0 -24 -11.5t-9 -26.5q0 -42 80 -42h112q7 0 17 -1t34.5 -4.5t46 -13t43.5 -24.5t35 -41.5t13 -61.5q0 -20 -3 -35.5
t-15 -40.5t-43.5 -47t-79.5 -38q-62 -23 -157 -23q-50 0 -89 6.5t-62 17.5t-38.5 23t-22 26t-9 23t-2.5 17q0 57 90 90q4 1 5 2q-67 32 -67 95q0 34 21.5 63.5t74.5 67.5q-97 47 -97 135q0 76 66.5 122t153.5 46q106 0 170 -65q24 22 37.5 33.5t33 21.5t35.5 10
q24 0 38 -17.5t14 -36.5zM343 355q0 25 -1 39t-6 33.5t-17.5 28.5t-32.5 9q-19 0 -31.5 -8.5t-17.5 -26.5t-6.5 -33t-1.5 -40q0 -50 2.5 -75t15.5 -42.5t39 -17.5q38 0 47.5 29t9.5 104zM457 -108q0 35 -35 54q-42 21 -123 21q-159 0 -159 -84q0 -74 135 -74q44 0 85.5 10
t60.5 21q36 15 36 52z" />
    <glyph glyph-name="h" unicode="h" horiz-adv-x="647" 
d="M615 0h-255v42q20 5 30 16.5t11.5 22t1.5 32.5v222q0 21 -1.5 35t-6.5 31t-17 26t-31 9q-20 0 -39.5 -13t-31.5 -32q-22 -34 -22 -100v-178q0 -14 0.5 -21t3 -18t8 -16.5t16 -10t25.5 -5.5v-42h-275v42q23 -1 36.5 4t19 17.5t6.5 21.5t1 28v473q0 18 -1 27.5t-6.5 22
t-19.5 17.5t-36 4v43q60 3 135 10h87v-265q77 64 151 64q36 0 70 -15t54 -42q33 -48 33 -128v-211q0 -15 1 -24t5.5 -22t16 -19t30.5 -6v-42z" />
    <glyph glyph-name="i" unicode="i" horiz-adv-x="350" 
d="M249 631q0 -31 -21.5 -55.5t-73.5 -24.5q-54 0 -75.5 24.5t-21.5 55.5q0 30 22 54.5t75 24.5q52 0 73.5 -24.5t21.5 -54.5zM318 0h-286v42q22 -1 36 4t19.5 17.5t6.5 22t1 27.5v261q0 18 -1 27.5t-6.5 22t-19.5 17.5t-36 4v43q60 3 135 10h87v-385q0 -18 1 -27.5
t6.5 -22.5t19.5 -18t37 -3v-42z" />
    <glyph glyph-name="j" unicode="j" horiz-adv-x="436" 
d="M293 636q0 -8 -2.5 -17t-10.5 -23.5t-30.5 -24t-55.5 -9.5t-55 9.5t-30.5 24t-11 23.5t-2.5 17t2.5 17.5t11 24t30.5 23.5t55 9t55 -9.5t30.5 -24t11 -23.5t2.5 -17zM298 20q0 -25 -2.5 -48.5t-13.5 -59t-30.5 -61t-57.5 -44.5t-89 -19q-38 0 -67 12t-43.5 28.5
t-23.5 36.5t-11 31.5t-2 18.5q0 30 20 58t56 28q29 0 49 -19.5t20 -45.5q0 -25 -29 -58q-8 -9 -8 -20q0 -25 28 -25q24 0 44 20t20 44q0 13 -13 61q-6 25 -6 67v360q0 40 -13 56t-61 15v42q58 1 146 11h87v-489z" />
    <glyph glyph-name="k" unicode="k" horiz-adv-x="647" 
d="M620 0h-265v42q20 14 20 30q0 14 -8 27l-64 92h-8l-35 -34v-44q0 -22 1.5 -33.5t14 -24.5t37.5 -13v-42h-276v42q23 -1 37 4t19.5 18t6.5 22t1 27v473q0 18 -1 27t-6.5 21.5t-19.5 17.5t-37 5v43q62 3 136 10h87v-482h2l105 139q21 25 21 45q0 33 -44 33v43h244v-43
q-89 -3 -124 -49l-61 -80l167 -242q21 -30 50 -32v-42z" />
    <glyph glyph-name="l" unicode="l" horiz-adv-x="382" 
d="M339 0h-297v42q27 -2 43.5 3t22.5 18t7.5 22.5t1.5 27.5v473q0 17 -1 26t-6 21.5t-18.5 18t-34.5 5.5h-15v43q58 2 147 10h87v-597q0 -18 1 -27.5t6.5 -22t19.5 -17.5t36 -4v-42z" />
    <glyph glyph-name="m" unicode="m" horiz-adv-x="1065" 
d="M1023 0h-292v42q23 -1 37 4t19.5 17.5t6.5 22t1 27.5v238q0 19 -1 30t-6 26.5t-18 23.5t-34 8q-40 0 -78 -49t-38 -124v-153q0 -17 1 -26t6 -21.5t17.5 -18.5t33.5 -5v-42h-275v42q17 -1 28.5 4t17 11t8.5 17.5t3.5 18.5t0.5 20v233q0 49 -13 67q-19 27 -53 27
q-38 0 -73.5 -44t-35.5 -119v-164q0 -19 1 -28t6.5 -21.5t19.5 -17.5t37 -4v-42h-308v42q52 0 68.5 11t16.5 60v261q0 47 -16 59.5t-69 11.5v43q40 0 157 10h77v-86q28 30 47 47t53 33.5t69 16.5q95 0 161 -107q86 107 186 107q82 0 125 -54q25 -32 31 -58t6 -69v-215
q0 -19 1.5 -28.5t7 -22t20.5 -17t40 -3.5v-42z" />
    <glyph glyph-name="n" unicode="n" horiz-adv-x="668" 
d="M631 0h-271v42q23 3 34 15t12.5 23t1.5 34v242q0 18 -1 28.5t-6 26t-17.5 23t-32.5 7.5q-10 0 -23 -5.5t-29.5 -18t-27.5 -41t-11 -68.5v-194q0 -17 1 -26t5 -20.5t14 -17.5t27 -8v-42h-270v42q23 -1 37 4t19.5 18t6.5 22.5t1 27.5v260q0 18 -1 27.5t-6.5 22t-19.5 17.5
t-37 4v43q62 3 136 10h87v-58q74 69 151 69q35 0 68.5 -14t50.5 -36q37 -47 37 -135v-210q0 -18 1 -27.5t6.5 -22.5t19.5 -18t37 -4v-42z" />
    <glyph glyph-name="o" unicode="o" horiz-adv-x="583" 
d="M541 244q0 -73 -28 -128t-70 -83t-81 -41t-71 -13t-70.5 13t-80 41t-69.5 83t-28 128q0 61 17 105t58 85q40 40 87 57.5t86 17.5q98 0 174 -75q41 -41 58.5 -85.5t17.5 -104.5zM368 236q0 130 -14 167q-19 50 -63 50q-26 0 -42.5 -16t-23.5 -51t-8.5 -63.5t-1.5 -78.5
q0 -33 0.5 -52t2.5 -47.5t7 -45t13 -33.5t21.5 -24.5t31.5 -7.5q45 0 63 50q14 35 14 152z" />
    <glyph glyph-name="p" unicode="p" horiz-adv-x="665" 
d="M621 247q0 -112 -69 -190t-171 -78q-58 0 -100 37v-135q0 -47 16 -60t69 -12v-42h-329v42q53 -1 69 12t16 60v483q0 46 -16 59.5t-69 11.5v42q46 0 157 11h87v-33q63 54 128 54t115 -41.5t73.5 -100t23.5 -120.5zM437 236q0 133 -14 167q-19 50 -62 50q-18 0 -31.5 -7.5
t-21.5 -23.5t-13 -33t-7.5 -43.5t-3 -46.5t-0.5 -51v-40.5t1 -37.5t3 -37t5.5 -31.5t9 -28.5t13.5 -20t19 -14.5t25 -4.5q45 0 64 50q13 35 13 152z" />
    <glyph glyph-name="q" unicode="q" horiz-adv-x="648" 
d="M626 -223h-318v43q56 -3 70.5 13.5t14.5 57.5v157q-40 -37 -70.5 -53t-76.5 -16q-57 0 -99.5 29.5t-63.5 74.5t-30.5 86t-9.5 76q0 44 14 89t40.5 85t72 65t101.5 25q76 0 134 -45q25 -19 35 -19q20 0 51 43h61v-597q0 -19 1.5 -28.5t7.5 -22t22.5 -17t42.5 -3.5v-43z
M378 236q0 132 -12 167q-19 50 -63 50q-18 0 -31.5 -7.5t-21.5 -24t-13 -32.5t-7 -44.5t-2.5 -47.5t-0.5 -53v-39t1 -36.5t3 -36.5t5.5 -31t9 -28t13.5 -20t19 -14.5t25 -4.5q44 0 63 50q12 33 12 152z" />
    <glyph glyph-name="r" unicode="r" horiz-adv-x="531" 
d="M499 406q0 -32 -22.5 -60t-54.5 -28q-26 0 -44.5 18t-18.5 42q0 15 10 29q7 11 7 13q0 9 -9 9q-32 0 -61.5 -45.5t-29.5 -93.5v-177q0 -45 15 -58.5t69 -12.5v-42h-328v42q53 -1 69 12t16 59v261q0 46 -16.5 59.5t-68.5 11.5v43q45 0 157 10h87v-69q37 41 65 60.5
t62 19.5q42 0 69 -35t27 -68z" />
    <glyph glyph-name="s" unicode="s" horiz-adv-x="532" 
d="M489 160q0 -74 -62 -127.5t-136 -53.5q-37 0 -120 31q-31 10 -37 10q-13 0 -22 -9t-11 -23h-43v196h43q7 -75 75 -121q55 -41 107 -41q36 0 60 20t24 46q0 51 -83 77l-95 31q-53 17 -86 47t-44 59t-11 61q0 44 20 75t51 45t56 20t45 6q68 0 156 -44q8 17 17 44h42v-160
h-42q-16 56 -63 86t-94 30q-36 0 -54 -15.5t-18 -37.5q0 -44 87 -69l103 -28q64 -17 94 -51q41 -45 41 -104z" />
    <glyph glyph-name="t" unicode="t" horiz-adv-x="414" 
d="M382 147q0 -72 -28 -112q-17 -25 -47.5 -40.5t-61.5 -15.5q-7 0 -14.5 1t-26 5t-33.5 14.5t-31 27.5t-25 46.5t-9 68.5v293h-74v52q39 8 69 29.5t48 51t27.5 56t14.5 54.5h74v-201h117v-42h-117v-322q0 -60 31 -60q14 0 23.5 12.5t13.5 31t5 30t1 20.5v54h43v-54z" />
    <glyph glyph-name="u" unicode="u" horiz-adv-x="657" 
d="M625 11q-82 -6 -135 -11h-87v53q-34 -30 -50.5 -42.5t-42 -22t-58.5 -9.5q-77 0 -122 47t-45 139v209q0 22 -1.5 33.5t-14 24t-37.5 13.5v43q20 2 68.5 5.5t56.5 4.5h87v-333q0 -114 62 -114q46 0 71.5 47.5t25.5 108.5v167q0 18 -1 27.5t-6.5 22t-19.5 17.5t-37 4v43
q61 3 136 10h87v-374q0 -18 1 -27.5t6.5 -22t19.5 -17.5t36 -4v-42z" />
    <glyph glyph-name="v" unicode="v" horiz-adv-x="647" 
d="M615 445q-24 1 -43 -7t-32 -25.5t-19 -28t-15 -32.5l-152 -363h-89l-166 387q-17 39 -28 52t-39 17v43h286v-43q-53 0 -53 -37q0 -14 10 -37l95 -230l89 224q10 26 10 37q0 33 -56 43v43h202v-43z" />
    <glyph glyph-name="w" unicode="w" horiz-adv-x="880" 
d="M853 445q-20 1 -35.5 -6.5t-26 -24.5t-15.5 -29t-13 -35l-120 -361h-85l-117 302l-113 -302h-90l-136 380q-14 39 -30 57t-46 19v43h271v-43q-38 -6 -38 -39q0 -14 12 -48l72 -199h3v8l73 191l-9 25q-12 34 -26.5 48t-37.5 14v43h269v-43q-37 -6 -37 -42q0 -16 6 -34
l71 -189l74 203q6 24 6 25q0 15 -16 27.5t-46 9.5v43h180v-43z" />
    <glyph glyph-name="x" unicode="x" horiz-adv-x="657" 
d="M620 0h-307v41q42 14 42 32q0 10 -8 22l-51 86l-76 -74q-19 -22 -19 -33q0 -27 37 -33v-41h-201v41q32 3 55.5 14t52.5 40l121 121l-131 186q-30 43 -77 43v43h297v-43q-37 -3 -37 -26q0 -9 8 -23l42 -67l56 54q16 15 16 30q0 32 -41 32v43h200v-43q-28 0 -44 -8.5
t-42 -34.5l-114 -112l114 -168q52 -75 107 -81v-41z" />
    <glyph glyph-name="y" unicode="y" horiz-adv-x="637" 
d="M605 445q-33 0 -56 -17t-33 -36.5t-25 -59.5l-151 -393q-14 -36 -21 -51.5t-25.5 -40.5t-42.5 -40q-45 -30 -97 -30q-49 0 -88.5 29t-39.5 81q0 36 23.5 59t56.5 23q31 0 51 -20.5t20 -48.5q0 -23 -16 -39q-13 -12 -13 -18q0 -7 8 -12.5t19 -5.5q27 0 60 24.5t51 74.5
l22 56l-188 393q-18 36 -35.5 51.5t-51.5 20.5v43h297v-43q-44 -3 -44 -41q0 -18 13 -41l86 -183l65 175q9 24 9 40q0 6 -1.5 12t-7 16t-20 16t-37.5 6v43h212v-43z" />
    <glyph glyph-name="z" unicode="z" horiz-adv-x="542" 
d="M499 0h-457v8l237 414q8 14 8 18q0 7 -16 7q-52 0 -102 -42t-63 -119h-41v202h434v-8l-228 -385q-12 -19 -12 -32q0 -20 29 -20q31 0 63 19t53 44q31 42 53 117h42v-223z" />
    <glyph glyph-name="braceleft" unicode="{" horiz-adv-x="339" 
d="M307 -212q-83 0 -136 34q-29 17 -39.5 48.5t-10.5 94.5v178q0 53 -12 76t-56 45v23q32 15 47.5 34.5t18 36.5t2.5 50v179q0 100 38 136t148 40v-39q-45 -12 -57.5 -38.5t-12.5 -82.5v-183q0 -51 -9.5 -83t-19.5 -42t-27 -19q29 -20 42.5 -50t13.5 -95v-183
q0 -67 15.5 -90t54.5 -31v-39z" />
    <glyph glyph-name="bar" unicode="|" horiz-adv-x="297" 
d="M201 0h-106v742h106v-742z" />
    <glyph glyph-name="braceright" unicode="}" horiz-adv-x="339" 
d="M286 264q-32 -15 -47.5 -34.5t-18 -36.5t-2.5 -50v-178q0 -101 -38 -137t-148 -40v39q32 8 48 26t19 37.5t3 57.5v183q0 52 9.5 84t19.5 41.5t27 19.5q-29 19 -42.5 48.5t-13.5 95.5v183q0 68 -15.5 90.5t-54.5 30.5v39q83 0 137 -34q28 -17 38.5 -48.5t10.5 -94.5v-178
q0 -53 12 -76t56 -45v-23z" />
    <glyph glyph-name="asciitilde" unicode="~" horiz-adv-x="647" 
d="M588 310q-22 -36 -31 -50.5t-26.5 -32.5t-34.5 -26q-32 -14 -72 -14q-27 0 -55 12l-103 48q-19 8 -41 8q-31 0 -49 -17.5t-42 -60.5l-76 51q18 31 28 47t28.5 35.5t38.5 28.5q37 17 78 17q23 0 47 -10l109 -48q31 -11 49 -11q17 0 30.5 9.5t21.5 20.5t27 41z" />
    <glyph glyph-name="nbspace" unicode="&#xa0;" horiz-adv-x="530" 
 />
    <glyph glyph-name="exclamdown" unicode="&#xa1;" horiz-adv-x="266" 
d="M224 422q0 -40 -29 -69.5t-70 -29.5t-70 29t-29 70t29 70.5t70 29.5t70 -29.5t29 -70.5zM224 -118q0 -46 -30.5 -76t-66.5 -30q-35 0 -65 30t-30 76q0 28 33 117q38 106 42 191h41q6 -88 43 -191q23 -63 28 -81t5 -36z" />
    <glyph glyph-name="cent" unicode="&#xa2;" horiz-adv-x="530" 
d="M519 180q-11 -54 -34.5 -93.5t-54.5 -61t-61.5 -32t-63.5 -13.5v-150h-53v151q-68 12 -118.5 44.5t-75 74t-35.5 77.5t-11 68q0 21 4.5 47t20.5 62t40.5 66t70 54.5t104.5 32.5v127h53v-125q98 -8 148 -58t50 -99q0 -30 -21.5 -56t-55.5 -26q-30 0 -51 22t-21 51
q0 28 21 51q17 18 17 25q0 5 -5.5 14t-27 19.5t-54.5 10.5v-429q37 -2 68 11.5t51 37t33 47.5t20 50h42zM252 52v390q-18 -15 -28 -28.5t-22 -58t-12 -110.5q0 -89 16 -131t46 -62z" />
    <glyph glyph-name="sterling" unicode="&#xa3;" horiz-adv-x="743" 
d="M695 202q-14 -102 -70 -162.5t-123 -60.5q-53 0 -171 64q-30 -24 -47 -35t-47.5 -20t-69.5 -9q-35 0 -60.5 11t-36.5 27t-16 29t-5 22q0 41 50 74t101 33q32 0 86 -20q4 32 4 56q0 42 -9 87h-127v53h117q-12 60 -12 119q0 64 22.5 114.5t57.5 79.5t73.5 44t75.5 15
q78 0 132 -46.5t54 -118.5q0 -53 -24.5 -77t-50.5 -24q-21 0 -42.5 17t-21.5 50q0 40 31 59q3 3 22 12.5t21 11.5q-3 39 -35 55t-61 16q-47 0 -76 -37t-29 -81q0 -8 3 -31.5t7.5 -49.5t4.5 -29q7 -58 7 -99h137v-53h-138q0 -39 -4.5 -62.5t-27.5 -112.5q27 -6 84 -27
q38 -9 55 -9q27 0 51 15t35 37q10 18 20 63h53zM261 75q0 5 -11 12.5t-33 13.5t-47 6q-68 0 -68 -46q0 -20 14 -30t35 -10q38 0 74 20.5t36 33.5z" />
    <glyph glyph-name="currency" unicode="&#xa4;" horiz-adv-x="647" 
d="M602 156l-74 -74l-62 60q-69 -47 -145 -47q-73 0 -143 45l-59 -58l-74 74l58 59q-45 70 -45 142q0 77 47 146l-60 62l74 74l61 -60q71 46 145 46q73 0 144 -44l59 58l74 -74l-58 -59q44 -71 44 -142q0 -72 -46 -147zM482 360q0 66 -46.5 112.5t-112.5 46.5t-112 -46.5
t-46 -112.5t46 -112t112 -46t112.5 46t46.5 112z" />
    <glyph glyph-name="yen" unicode="&#xa5;" horiz-adv-x="880" 
d="M843 657q-58 -6 -87 -33t-72 -101l-43 -73h148v-53h-178l-76 -129v-16h254v-53h-254v-46q0 -20 1.5 -32t9 -30.5t27 -28t50.5 -9.5h61v-53h-509v53h47q63 0 82 24t19 76v46h-242v53h242l-76 145h-166v53h138l-44 86q-23 45 -36 63.5t-39.5 34t-73.5 23.5v53h456v-53
q-83 0 -83 -54q0 -24 17 -58l50 -95h102l66 112q15 25 15 41q0 26 -21 39t-50 15v53h265v-53zM536 397h-42l20 -38z" />
    <glyph glyph-name="brokenbar" unicode="&#xa6;" horiz-adv-x="297" 
d="M201 445h-106v297h106v-297zM201 0h-106v297h106v-297z" />
    <glyph glyph-name="section" unicode="&#xa7;" horiz-adv-x="584" 
d="M551 237q0 -53 -28.5 -91t-93.5 -78v-7q65 -53 65 -135q0 -52 -25.5 -88.5t-64 -53t-69.5 -23t-57 -6.5q-43 0 -87.5 12t-78.5 40.5t-34 65.5q0 28 19.5 48.5t46.5 20.5q17 0 29.5 -6t22 -20t14 -24t12.5 -29q14 -38 62 -38q8 0 20.5 2t30 7.5t29.5 19.5t12 33
q0 49 -78 97l-164 100q-106 63 -106 161q0 121 120 176v6q-24 25 -35 37.5t-22.5 38t-11.5 53.5q0 75 56.5 125t139.5 50q20 0 49.5 -6t63.5 -17.5t57.5 -34.5t23.5 -52q0 -28 -20 -49.5t-49 -21.5q-18 0 -31.5 9.5t-18.5 18t-13 26.5q-7 15 -10.5 21t-12 17t-20 15.5
t-26.5 4.5q-27 0 -48 -20.5t-21 -46.5q0 -38 63 -76l160 -88q51 -28 82 -68.5t39 -69.5t8 -56zM452 196q0 18 -13.5 36.5t-25 28t-21.5 15.5l-145 84q-18 12 -33 12q-28 0 -55 -24t-27 -58q0 -20 18 -41t42 -35l172 -103q38 14 63 38t25 47z" />
    <glyph glyph-name="dieresis" unicode="&#xa8;" horiz-adv-x="350" 
d="M350 604q0 -26 -19 -45t-46 -19q-26 0 -44.5 19t-18.5 45t18.5 45.5t44.5 19.5q27 0 46 -19.5t19 -45.5zM128 604q0 -26 -18.5 -45t-44.5 -19q-27 0 -46 19t-19 45t19 45.5t46 19.5q26 0 44.5 -19.5t18.5 -45.5z" />
    <glyph glyph-name="copyright" unicode="&#xa9;" horiz-adv-x="913" 
d="M856 392q0 -164 -116 -279.5t-280 -115.5t-279.5 115.5t-115.5 279.5q0 165 115.5 281t279.5 116t280 -116t116 -281zM777 392q0 131 -92.5 223.5t-223.5 92.5t-223.5 -92.5t-92.5 -223.5q0 -130 92.5 -222.5t223.5 -92.5t223.5 92.5t92.5 222.5zM636 298l-3 -66
q-44 -35 -81 -53t-90 -18q-99 0 -161.5 62t-62.5 156q0 58 23 105t58.5 74.5t72 42t67.5 14.5q35 0 92 -19l14 -5q16 -4 18 -4q10 0 14 6t11 25h28l-2 -156h-27q-6 20 -11 32.5t-18 32.5t-35.5 30.5t-53.5 10.5q-55 0 -87.5 -44.5t-32.5 -129.5q0 -31 5 -61t17 -60.5t37 -49
t60 -18.5q40 0 65.5 17.5t82.5 75.5z" />
    <glyph glyph-name="ordfeminine" unicode="&#xaa;" horiz-adv-x="426" 
d="M408 510q0 -32 -12 -54t-29.5 -30t-28.5 -10.5t-19 -2.5q-35 0 -82 36q-79 -36 -121 -36q-32 0 -62 15.5t-30 48.5q0 63 93 96l120 44v32q0 57 -68 57q-14 0 -25 -2.5t-16.5 -6t-8.5 -8t-4 -7.5t-1 -5t4 -6q17 -15 17 -27q0 -15 -13 -26t-32 -11q-20 0 -34.5 13.5
t-14.5 31.5q0 10 5 21t18.5 25.5t46 23.5t79.5 9q31 0 53 -3.5t44.5 -13.5t34 -33t11.5 -58v-118q0 -46 23 -46q25 0 25 42v52h27v-43zM237 531v57l-43 -15q-54 -17 -54 -76q0 -45 38 -45q21 0 40 19.5t19 59.5z" />
    <glyph glyph-name="guillemotleft" unicode="&#xab;" horiz-adv-x="588" 
d="M523 63h-92l-162 223l162 223h92l-140 -223zM319 63h-91l-161 223l161 223h91l-140 -223z" />
    <glyph glyph-name="logicalnot" unicode="&#xac;" horiz-adv-x="647" 
d="M594 99h-106v206h-435v106h541v-312z" />
    <glyph glyph-name="registered" unicode="&#xae;" horiz-adv-x="913" 
d="M856 393q0 -164 -116 -280t-280 -116t-280 116t-116 280t116 280.5t280 116.5t280 -116.5t116 -280.5zM777 393q0 130 -92.5 222.5t-223.5 92.5t-223.5 -92.5t-92.5 -222.5q0 -131 92.5 -223.5t223.5 -92.5t223.5 92.5t92.5 223.5zM665 198h-131q-16 31 -92 176h-6v-113
q0 -16 7 -23.5t14.5 -8.5t26.5 -2v-29h-212v29q34 0 42.5 9.5t8.5 56.5v233q0 19 -3 29.5t-11 15t-14.5 5.5t-22.5 1v27h172q85 0 126 -19q31 -16 46 -43.5t15 -53.5q0 -75 -76 -103l60 -108q17 -33 24 -40t26 -10v-29zM517 485q0 27 -9 45t-24.5 25t-25 9t-22.5 3v-153
q81 -4 81 71z" />
    <glyph glyph-name="macron" unicode="&#xaf;" horiz-adv-x="341" 
d="M310 584h-278v75h278v-75z" />
    <glyph glyph-name="degree" unicode="&#xb0;" horiz-adv-x="305" 
d="M269 615q0 -49 -34 -83.5t-82 -34.5t-82.5 35t-34.5 83t34 82t83 34q48 0 82 -34.5t34 -81.5zM207 615q0 23 -16 38t-38 15t-38 -15.5t-16 -37.5q0 -23 15.5 -38.5t38.5 -15.5q22 0 38 15.5t16 38.5z" />
    <glyph glyph-name="plusminus" unicode="&#xb1;" horiz-adv-x="647" 
d="M594 382h-218v-218h-106v218h-217v106h217v217h106v-217h218v-106zM594 0h-541v106h541v-106z" />
    <glyph glyph-name="twosuperior" unicode="&#xb2;" 
d="M319 460q-2 -17 -6.5 -35t-16 -49.5t-34 -51t-51.5 -19.5q-40 0 -69 44q-23 32 -33 35q-4 2 -8 2q-16 0 -28.5 -23t-11.5 -58h-35q-1 34 13.5 70t64.5 95q39 48 53 66t25.5 42.5t11.5 49.5q0 27 -15 51.5t-50 24.5q-20 0 -33.5 -12t-13.5 -24q0 -11 10 -13q32 -9 32 -46
q0 -24 -15 -35t-31 -11q-21 0 -37 18t-16 44q0 13 6.5 29t21 34.5t43.5 30.5t68 12q70 0 105.5 -31t35.5 -72q0 -25 -9.5 -45.5t-28 -36t-30 -22.5t-29.5 -17q-99 -57 -99 -79q0 -7 4.5 -9t24.5 -5q11 -1 41 -11q21 -8 37 -8q55 0 71 65h32z" />
    <glyph glyph-name="threesuperior" unicode="&#xb3;" 
d="M315 436q0 -56 -52 -93.5t-118 -37.5q-45 0 -83.5 29t-38.5 62q0 22 16 39.5t39 17.5q22 0 36 -15.5t14 -31.5q0 -20 -22 -37q-8 -5 -8 -10q0 -7 12.5 -17t30.5 -10q7 0 16 2.5t23.5 10t24 27.5t9.5 49q0 35 -10.5 56.5t-27.5 28.5t-39.5 9.5t-46.5 -0.5v32h13q30 0 40 1
t22 7q43 21 43 73q0 33 -13.5 51.5t-25 22t-23.5 3.5q-14 0 -25 -7t-11 -15q0 -4 13 -17q16 -17 16 -33t-15 -29t-35 -13q-22 0 -35 16t-13 37q0 37 38.5 62t85.5 25q50 0 92.5 -27t42.5 -70q0 -60 -81 -94q21 -10 30 -15t28.5 -18.5t28.5 -31t9 -39.5z" />
    <glyph glyph-name="acute" unicode="&#xb4;" horiz-adv-x="240" 
d="M240 705q0 -15 -9.5 -28.5t-16 -18.5t-23.5 -17l-159 -103l-32 41l132 153q27 31 51 31q23 0 40 -17t17 -41z" />
    <glyph glyph-name="paragraph" unicode="&#xb6;" horiz-adv-x="700" 
d="M657 -201h-194v847h-86v-847h-196v64h29q37 0 47.5 19t10.5 61v319q-55 4 -91 15t-68 36q-77 62 -77 193q0 68 21.5 113t61.5 66t80 28.5t93 7.5h369v-65h-14q-44 0 -57.5 -21.5t-13.5 -64.5v-633q0 -40 11 -57t46 -17h28v-64zM268 342v302q-34 -1 -51.5 -8.5
t-30.5 -40.5t-13 -98q0 -41 7 -70t15.5 -44t24.5 -24.5t24 -11.5t24 -5z" />
    <glyph glyph-name="periodcentered" unicode="&#xb7;" horiz-adv-x="266" 
d="M232 244q0 -41 -29 -70t-69 -29q-42 0 -70.5 29t-28.5 70t28.5 69.5t70.5 28.5q40 0 69 -29t29 -69z" />
    <glyph glyph-name="cedilla" unicode="&#xb8;" horiz-adv-x="249" 
d="M249 -102q0 -35 -42.5 -62.5t-100.5 -27.5q-106 0 -106 67q0 23 13.5 37.5t32.5 14.5q17 0 33.5 -12t16.5 -37q0 -13 -10 -37q63 0 63 51q0 27 -12 40t-41 15v34h81q72 -34 72 -83z" />
    <glyph glyph-name="onesuperior" unicode="&#xb9;" 
d="M311 318h-276v25q55 -1 72 10.5t17 49.5v202q0 17 -1.5 26.5t-13.5 20t-36 10.5l-38 -1v26q131 0 144 44h49v-328q0 -17 1.5 -25.5t8.5 -18.5t25 -13.5t48 -2.5v-25z" />
    <glyph glyph-name="ordmasculine" unicode="&#xba;" horiz-adv-x="379" 
d="M351 572q0 -44 -18 -77t-45.5 -49.5t-52.5 -24.5t-45 -8q-21 0 -46 8t-52.5 24.5t-45.5 49.5t-18 77t18 77t45.5 49.5t52.5 24.5t46 8t46 -8t52 -24.5t45 -49.5t18 -77zM238 568q0 34 -1 50.5t-5 38t-14.5 31t-27.5 9.5q-12 0 -21 -4t-14.5 -14.5t-8.5 -19.5t-4 -26.5
t-1.5 -28t-0.5 -32.5t0.5 -32.5t1.5 -28.5t4 -27t8.5 -19t14.5 -14.5t21 -4.5q17 0 27.5 9t14.5 29.5t5 36.5t1 47z" />
    <glyph glyph-name="guillemotright" unicode="&#xbb;" horiz-adv-x="588" 
d="M523 286l-163 -223h-91l140 223l-140 223h91zM319 286l-162 -223h-90l139 223l-139 223h90z" />
    <glyph glyph-name="onequarter" unicode="&#xbc;" horiz-adv-x="927" 
d="M311 318h-276v25q55 -1 72 10.5t17 49.5v202q0 17 -1.5 26.5t-13.5 20t-36 10.5l-38 -1v26q131 0 144 44h49v-328q0 -17 1.5 -25.5t8.5 -18.5t25 -13.5t48 -2.5v-25zM683 721l-425 -721h-79l443 731h61v-10zM907 0h-255v25q27 -1 43.5 3t23 14.5t8 18.5t1.5 24v42h-131
v46l152 240h82v-254h76v-32h-76v-42q0 -17 1.5 -25t8 -18t23 -14t43.5 -3v-25zM728 159v164h-2l-101 -164h103z" />
    <glyph glyph-name="onehalf" unicode="&#xbd;" horiz-adv-x="927" 
d="M311 318h-276v25q55 -1 72 10.5t17 49.5v202q0 17 -1.5 26.5t-13.5 20t-36 10.5l-38 -1v26q131 0 144 44h49v-328q0 -17 1.5 -25.5t8.5 -18.5t25 -13.5t48 -2.5v-25zM683 721l-425 -721h-79l443 731h61v-10zM902 142q-2 -17 -6.5 -35t-16 -49.5t-34 -51t-51.5 -19.5
q-40 0 -69 44q-23 32 -33 35q-4 2 -8 2q-16 0 -28.5 -23t-11.5 -58h-35q-1 34 13.5 70t64.5 95q39 48 53 66t25.5 42.5t11.5 49.5q0 27 -15 51.5t-50 24.5q-20 0 -33.5 -12t-13.5 -24q0 -11 10 -13q32 -9 32 -46q0 -24 -15 -35t-31 -11q-21 0 -37 18t-16 44q0 13 6.5 29
t21 34.5t43.5 30.5t68 12q70 0 105.5 -31t35.5 -72q0 -25 -9.5 -45.5t-28 -36t-30 -22.5t-29.5 -17q-99 -57 -99 -79q0 -7 4.5 -9t24.5 -5q11 -1 41 -11q21 -8 37 -8q55 0 71 65h32z" />
    <glyph glyph-name="threequarters" unicode="&#xbe;" horiz-adv-x="927" 
d="M315 436q0 -56 -52 -93.5t-118 -37.5q-45 0 -83.5 29t-38.5 62q0 22 16 39.5t39 17.5q22 0 36 -15.5t14 -31.5q0 -20 -22 -37q-8 -5 -8 -10q0 -7 12.5 -17t30.5 -10q7 0 16 2.5t23.5 10t24 27.5t9.5 49q0 35 -10.5 56.5t-27.5 28.5t-39.5 9.5t-46.5 -0.5v32h13q30 0 40 1
t22 7q43 21 43 73q0 33 -13.5 51.5t-25 22t-23.5 3.5q-14 0 -25 -7t-11 -15q0 -4 13 -17q16 -17 16 -33t-15 -29t-35 -13q-22 0 -35 16t-13 37q0 37 38.5 62t85.5 25q50 0 92.5 -27t42.5 -70q0 -60 -81 -94q21 -10 30 -15t28.5 -18.5t28.5 -31t9 -39.5zM683 721l-425 -721
h-79l443 731h61v-10zM907 0h-255v25q27 -1 43.5 3t23 14.5t8 18.5t1.5 24v42h-131v46l152 240h82v-254h76v-32h-76v-42q0 -17 1.5 -25t8 -18t23 -14t43.5 -3v-25zM728 159v164h-2l-101 -164h103z" />
    <glyph glyph-name="questiondown" unicode="&#xbf;" horiz-adv-x="531" 
d="M367 422q0 -41 -29 -70t-70 -29q-40 0 -69 29t-29 70t29 70.5t69 29.5q41 0 70 -29.5t29 -70.5zM490 -25q0 -95 -62 -147t-165 -52q-89 0 -152 42.5t-63 121.5q0 89 75 130q53 28 73.5 40.5t37 34.5t19 43t2.5 67h43q0 -89 -22 -149q-21 -56 -27.5 -80t-6.5 -58
q0 -74 27 -103q30 -30 67 -30q36 0 54.5 25t18.5 42q0 10 -22 21q-27 11 -48 33.5t-21 55.5q0 35 24 59.5t58 24.5t62 -29t28 -92z" />
    <glyph glyph-name="Agrave" unicode="&#xc0;" horiz-adv-x="840" 
d="M555 781l-39 -28l-143 77q-41 23 -41 60q0 24 16 42t40 18q21 0 49 -31zM808 0h-413v53h40q78 0 78 52q0 23 -19 73l-27 67h-220l-29 -80q-8 -20 -8 -42q0 -34 18 -52t42 -18h19v-53h-254v53h15q20 0 34 6t25 20.5t16.5 27t15.5 36.5l225 567h161l218 -601
q13 -35 25 -44.5t38 -11.5v-53zM443 306l-80 235l-93 -235h173z" />
    <glyph glyph-name="Aacute" unicode="&#xc1;" horiz-adv-x="840" 
d="M565 890q0 -37 -41 -60l-143 -77l-40 28l119 138q9 10 12 13t10.5 8.5t13.5 7.5t14 2q22 0 38.5 -17t16.5 -43zM808 0h-413v53h40q78 0 78 52q0 23 -19 73l-27 67h-220l-29 -80q-8 -20 -8 -42q0 -34 18 -52t42 -18h19v-53h-254v53h15q20 0 34 6t25 20.5t16.5 27
t15.5 36.5l225 567h161l218 -601q13 -35 25 -44.5t38 -11.5v-53zM443 306l-80 235l-93 -235h173z" />
    <glyph glyph-name="Acircumflex" unicode="&#xc2;" horiz-adv-x="840" 
d="M608 781q0 -12 -10.5 -20.5t-25.5 -8.5q-6 0 -38 12l-81 39h-13l-82 -39q-26 -12 -39 -12q-14 0 -24.5 9t-10.5 19q0 14 10 23l89 87h127l89 -87q9 -9 9 -22zM808 0h-413v53h40q78 0 78 52q0 23 -19 73l-27 67h-220l-29 -80q-8 -20 -8 -42q0 -34 18 -52t42 -18h19v-53
h-254v53h15q20 0 34 6t25 20.5t16.5 27t15.5 36.5l225 567h161l218 -601q13 -35 25 -44.5t38 -11.5v-53zM443 306l-80 235l-93 -235h173z" />
    <glyph glyph-name="Atilde" unicode="&#xc3;" horiz-adv-x="840" 
d="M619 880q-1 -45 -31.5 -85.5t-74.5 -40.5q-15 0 -42 8l-95 33q-15 5 -24 5q-17 0 -26 -37h-53q4 55 31.5 90.5t63.5 35.5q19 0 43 -8l84 -28q21 -7 32 -7q31 0 39 34h53zM808 0h-413v53h40q78 0 78 52q0 23 -19 73l-27 67h-220l-29 -80q-8 -20 -8 -42q0 -34 18 -52
t42 -18h19v-53h-254v53h15q20 0 34 6t25 20.5t16.5 27t15.5 36.5l225 567h161l218 -601q13 -35 25 -44.5t38 -11.5v-53zM443 306l-80 235l-93 -235h173z" />
    <glyph glyph-name="Adieresis" unicode="&#xc4;" horiz-adv-x="840" 
d="M637 832q0 -32 -23.5 -55.5t-57.5 -23.5q-32 0 -55.5 23.5t-23.5 55.5q0 34 23.5 57.5t55.5 23.5q34 0 57.5 -23.5t23.5 -57.5zM416 832q0 -32 -24 -55.5t-56 -23.5q-34 0 -57.5 23.5t-23.5 55.5q0 34 23.5 57.5t57.5 23.5q32 0 56 -23.5t24 -57.5zM808 0h-413v53h40
q78 0 78 52q0 23 -19 73l-27 67h-220l-29 -80q-8 -20 -8 -42q0 -34 18 -52t42 -18h19v-53h-254v53h15q20 0 34 6t25 20.5t16.5 27t15.5 36.5l225 567h161l218 -601q13 -35 25 -44.5t38 -11.5v-53zM443 306l-80 235l-93 -235h173z" />
    <glyph glyph-name="Aring" unicode="&#xc5;" horiz-adv-x="840" 
d="M531 860q0 -37 -26.5 -64.5t-64.5 -27.5q-37 0 -64.5 27t-27.5 65t27.5 64.5t64.5 26.5t64 -27t27 -64zM808 0h-413v53h40q78 0 78 52q0 23 -19 73l-27 67h-220l-29 -80q-8 -20 -8 -42q0 -34 18 -52t42 -18h19v-53h-254v53h15q20 0 34 6t25 20.5t16.5 27t15.5 36.5
l225 567h161l218 -601q13 -35 25 -44.5t38 -11.5v-53zM485 860q0 17 -13 30.5t-32 13.5q-18 0 -32 -12.5t-14 -31.5q0 -20 14 -33t32 -13q19 0 32 13.5t13 32.5zM443 306l-80 235l-93 -235h173z" />
    <glyph glyph-name="AE" unicode="&#xc6;" horiz-adv-x="1266" 
d="M1217 297l-17 -297h-747v53h21q27 0 46 7t28.5 15.5t14.5 24.5t5.5 25.5t0.5 27.5v70h-259l-25 -44q-17 -32 -17 -58q0 -29 18.5 -48.5t45.5 -19.5h27v-53h-324v53h16q24 0 40.5 5t31 19t22.5 25.5t25 37.5l352 570h673v-265h-53q-18 72 -46.5 114.5t-92.5 70.5
q-68 28 -154 28q-40 0 -54 -14.5t-14 -54.5v-165q26 0 46.5 5t44.5 20t39 49t19 85h53v-360h-53q-15 87 -46.5 116.5t-102.5 31.5v-245q0 -48 15.5 -60.5t55.5 -12.5h59q64 0 116 35t80 71q36 51 56 138h54zM569 285v363h-2l-223 -363h225z" />
    <glyph glyph-name="Ccedilla" unicode="&#xc7;" horiz-adv-x="781" 
d="M731 319q5 -110 -67.5 -212t-170.5 -111v-16q33 -3 49 -29.5t16 -52.5q0 -28 -13.5 -48.5t-30.5 -30t-41.5 -15t-36 -6t-24.5 -0.5q-69 0 -103 24.5t-34 57.5q0 22 16.5 35.5t42.5 13.5t40.5 -14t14.5 -33q0 -14 -7 -25l-7 -10q0 -5 7 -5q13 0 35 14.5t22 40.5
q0 18 -13 37.5t-44 24.5v22q-143 -1 -246.5 108t-103.5 261q0 90 36 167t92.5 125.5t122 75.5t126.5 27q86 0 166 -42q40 -20 45 -20t11.5 1.5t18 16.5t12.5 42h59l10 -307h-53q-10 45 -26 84t-42.5 77.5t-69 61t-95.5 22.5q-60 0 -101.5 -42t-60 -110.5t-18.5 -158.5
q0 -174 53 -246q30 -40 67.5 -60.5t71.5 -20.5q17 0 40.5 6t55 25t57.5 48t45.5 80.5t22.5 116.5h53z" />
    <glyph glyph-name="Egrave" unicode="&#xc8;" horiz-adv-x="855" 
d="M534 781l-40 -28l-142 77q-41 21 -41 60q0 24 16 42t39 18q22 0 48 -31zM807 297l-17 -297h-748v53h22q27 0 46 7t28.5 15.5t14.5 24.5t5.5 25.5t0.5 27.5v405q0 17 -0.5 27t-5.5 25.5t-14.5 24t-28.5 15.5t-46 7h-22v53h742v-265h-52q-17 73 -46 115t-92 70
q-69 28 -154 28q-44 0 -56.5 -16t-12.5 -59v-159q26 0 46.5 5t44.5 20t39 49t19 85h52v-360h-52q-15 91 -47 118t-102 30v-245q0 -48 15 -60.5t56 -12.5h59q64 0 117 35.5t78 70.5q32 44 58 138h53z" />
    <glyph glyph-name="Eacute" unicode="&#xc9;" horiz-adv-x="855" 
d="M536 890q0 -38 -41 -60l-142 -77l-40 28l119 138q11 12 15.5 17t14 9.5t19.5 4.5q22 0 38.5 -17t16.5 -43zM807 297l-17 -297h-748v53h22q27 0 46 7t28.5 15.5t14.5 24.5t5.5 25.5t0.5 27.5v405q0 17 -0.5 27t-5.5 25.5t-14.5 24t-28.5 15.5t-46 7h-22v53h742v-265h-52
q-17 73 -46 115t-92 70q-69 28 -154 28q-44 0 -56.5 -16t-12.5 -59v-159q26 0 46.5 5t44.5 20t39 49t19 85h52v-360h-52q-15 91 -47 118t-102 30v-245q0 -48 15 -60.5t56 -12.5h59q64 0 117 35.5t78 70.5q32 44 58 138h53z" />
    <glyph glyph-name="Ecircumflex" unicode="&#xca;" horiz-adv-x="855" 
d="M586 781q0 -12 -10 -20.5t-25 -8.5q-14 0 -38 12l-82 39h-13l-82 -39q-25 -12 -38 -12q-15 0 -25 9t-10 19q0 15 8 23l90 87h127l90 -87q8 -10 8 -22zM807 297l-17 -297h-748v53h22q27 0 46 7t28.5 15.5t14.5 24.5t5.5 25.5t0.5 27.5v405q0 17 -0.5 27t-5.5 25.5
t-14.5 24t-28.5 15.5t-46 7h-22v53h742v-265h-52q-17 73 -46 115t-92 70q-69 28 -154 28q-44 0 -56.5 -16t-12.5 -59v-159q26 0 46.5 5t44.5 20t39 49t19 85h52v-360h-52q-15 91 -47 118t-102 30v-245q0 -48 15 -60.5t56 -12.5h59q64 0 117 35.5t78 70.5q32 44 58 138h53z
" />
    <glyph glyph-name="Edieresis" unicode="&#xcb;" horiz-adv-x="855" 
d="M616 832q0 -32 -23.5 -55.5t-57.5 -23.5q-33 0 -56.5 23.5t-23.5 55.5q0 34 23.5 57.5t56.5 23.5q34 0 57.5 -23.5t23.5 -57.5zM394 832q0 -32 -23.5 -55.5t-56.5 -23.5q-34 0 -57.5 23.5t-23.5 55.5q0 34 23.5 57.5t57.5 23.5q33 0 56.5 -23.5t23.5 -57.5zM807 297
l-17 -297h-748v53h22q27 0 46 7t28.5 15.5t14.5 24.5t5.5 25.5t0.5 27.5v405q0 17 -0.5 27t-5.5 25.5t-14.5 24t-28.5 15.5t-46 7h-22v53h742v-265h-52q-17 73 -46 115t-92 70q-69 28 -154 28q-44 0 -56.5 -16t-12.5 -59v-159q26 0 46.5 5t44.5 20t39 49t19 85h52v-360h-52
q-15 91 -47 118t-102 30v-245q0 -48 15 -60.5t56 -12.5h59q64 0 117 35.5t78 70.5q32 44 58 138h53z" />
    <glyph glyph-name="Igrave" unicode="&#xcc;" horiz-adv-x="488" 
d="M353 781l-39 -28l-143 77q-42 23 -42 60q0 24 16.5 42t39.5 18q15 0 24.5 -7t24.5 -24zM445 0h-403v53q27 -3 46.5 4.5t29 17.5t14.5 28t5.5 27t0.5 23v405q0 13 -0.5 22.5t-5.5 27t-14.5 28t-29 17.5t-46.5 4v53h403v-53q-23 2 -40 -1.5t-27 -13.5t-16 -20t-8.5 -24.5
t-3 -21.5t-0.5 -18v-405q0 -14 0.5 -23t5.5 -27t14.5 -28t28.5 -17.5t46 -4.5v-53z" />
    <glyph glyph-name="Iacute" unicode="&#xcd;" horiz-adv-x="488" 
d="M356 890q0 -37 -41 -60l-143 -77l-40 28l119 138q9 10 12 13t10.5 8.5t13.5 7.5t14 2q22 0 38.5 -17t16.5 -43zM445 0h-403v53q27 -3 46.5 4.5t29 17.5t14.5 28t5.5 27t0.5 23v405q0 13 -0.5 22.5t-5.5 27t-14.5 28t-29 17.5t-46.5 4v53h403v-53q-23 2 -40 -1.5
t-27 -13.5t-16 -20t-8.5 -24.5t-3 -21.5t-0.5 -18v-405q0 -14 0.5 -23t5.5 -27t14.5 -28t28.5 -17.5t46 -4.5v-53z" />
    <glyph glyph-name="Icircumflex" unicode="&#xce;" horiz-adv-x="488" 
d="M406 781q0 -11 -10.5 -20t-25.5 -9q-10 0 -38 12l-82 39h-13l-81 -39q-27 -12 -39 -12q-15 0 -25 9t-10 19q0 14 9 23l89 87h127l89 -87q10 -9 10 -22zM445 0h-403v53q27 -3 46.5 4.5t29 17.5t14.5 28t5.5 27t0.5 23v405q0 13 -0.5 22.5t-5.5 27t-14.5 28t-29 17.5
t-46.5 4v53h403v-53q-23 2 -40 -1.5t-27 -13.5t-16 -20t-8.5 -24.5t-3 -21.5t-0.5 -18v-405q0 -14 0.5 -23t5.5 -27t14.5 -28t28.5 -17.5t46 -4.5v-53z" />
    <glyph glyph-name="Idieresis" unicode="&#xcf;" horiz-adv-x="488" 
d="M435 832q0 -32 -23.5 -55.5t-57.5 -23.5q-32 0 -55.5 23.5t-23.5 55.5q0 34 23.5 57.5t55.5 23.5q34 0 57.5 -23.5t23.5 -57.5zM213 832q0 -32 -23.5 -55.5t-55.5 -23.5q-34 0 -57.5 23.5t-23.5 55.5q0 34 23.5 57.5t57.5 23.5q32 0 55.5 -23.5t23.5 -57.5zM445 0h-403
v53q27 -3 46.5 4.5t29 17.5t14.5 28t5.5 27t0.5 23v405q0 13 -0.5 22.5t-5.5 27t-14.5 28t-29 17.5t-46.5 4v53h403v-53q-23 2 -40 -1.5t-27 -13.5t-16 -20t-8.5 -24.5t-3 -21.5t-0.5 -18v-405q0 -14 0.5 -23t5.5 -27t14.5 -28t28.5 -17.5t46 -4.5v-53z" />
    <glyph glyph-name="Eth" unicode="&#xd0;" horiz-adv-x="889" 
d="M847 358q0 -82 -41.5 -164.5t-105.5 -130.5q-82 -63 -217 -63h-430v53q27 -3 46 4.5t28.5 17.5t14.5 28t5.5 27t0.5 23v169h-95v66h95v170q0 18 -2 30.5t-9.5 32.5t-29 29.5t-54.5 6.5v53h430q75 0 159.5 -37.5t130.5 -92.5q31 -39 52.5 -101.5t21.5 -120.5zM633 363
q0 90 -20.5 157.5t-80.5 108.5q-46 29 -100 29q-41 0 -56.5 -16t-15.5 -58v-196h111v-66h-111v-202q0 -18 1.5 -26.5t8.5 -20t25 -16.5t47 -5q102 0 146.5 74.5t44.5 236.5z" />
    <glyph glyph-name="Ntilde" unicode="&#xd1;" horiz-adv-x="880" 
d="M613 880q-1 -44 -31.5 -85t-74.5 -41q-14 0 -43 8l-94 33q-16 5 -24 5q-22 0 -25 -37h-54q3 54 31 90t63 36q20 0 44 -8l84 -28q20 -7 31 -7q30 0 40 34h53zM837 657q-64 0 -85 -22.5t-21 -76.5v-558h-82l-424 541h-2v-388q0 -17 0.5 -27t5.5 -26t14.5 -24.5t28.5 -15.5
t46 -7h16v-53h-292v53h22q27 0 46 7t28.5 15.5t14.5 24.5t5.5 26t0.5 27v405q0 17 -0.5 26.5t-5.5 25.5t-14.5 24.5t-28.5 15.5t-46 7h-22v53h301l323 -413h2v261q0 51 -19.5 75t-82.5 24h-25v53h296v-53z" />
    <glyph glyph-name="Ograve" unicode="&#xd2;" horiz-adv-x="828" 
d="M524 781l-40 -28l-143 77q-41 23 -41 60q0 24 16 42t40 18q22 0 48 -31zM785 355q0 -88 -37 -167t-97 -128q-48 -38 -113.5 -59.5t-123.5 -21.5q-59 0 -123.5 21.5t-113.5 59.5q-60 49 -97 128.5t-37 166.5t36 165.5t98 129.5q42 34 99 54t86.5 23.5t51.5 3.5t51 -3.5
t86 -23.5t100 -54q61 -50 97.5 -129t36.5 -166zM563 364q0 167 -28 226q-32 72 -122 72q-89 0 -122 -73q-26 -57 -26 -223q0 -188 28 -249q15 -34 51.5 -51t68.5 -17q16 0 32.5 3.5t38.5 13t39.5 33t24.5 57.5q15 79 15 208z" />
    <glyph glyph-name="Oacute" unicode="&#xd3;" horiz-adv-x="828" 
d="M629 924q0 -39 -42 -60l-143 -77l-39 28l120 138q26 31 47 31q24 0 40.5 -18t16.5 -42zM785 355q0 -88 -37 -167t-97 -128q-48 -38 -113.5 -59.5t-123.5 -21.5q-59 0 -123.5 21.5t-113.5 59.5q-60 49 -97 128.5t-37 166.5t36 165.5t98 129.5q42 34 99 54t86.5 23.5
t51.5 3.5t51 -3.5t86 -23.5t100 -54q61 -50 97.5 -129t36.5 -166zM563 364q0 167 -28 226q-32 72 -122 72q-89 0 -122 -73q-26 -57 -26 -223q0 -188 28 -249q15 -34 51.5 -51t68.5 -17q16 0 32.5 3.5t38.5 13t39.5 33t24.5 57.5q15 79 15 208z" />
    <glyph glyph-name="Ocircumflex" unicode="&#xd4;" horiz-adv-x="828" 
d="M577 781q0 -11 -10.5 -20t-25.5 -9q-11 0 -39 12l-81 39h-14l-81 -39q-26 -12 -39 -12q-15 0 -25 9t-10 19q0 15 9 23l90 87h126l90 -87q10 -10 10 -22zM785 355q0 -88 -37 -167t-97 -128q-48 -38 -113.5 -59.5t-123.5 -21.5q-59 0 -123.5 21.5t-113.5 59.5
q-60 49 -97 128.5t-37 166.5t36 165.5t98 129.5q42 34 99 54t86.5 23.5t51.5 3.5t51 -3.5t86 -23.5t100 -54q61 -50 97.5 -129t36.5 -166zM563 364q0 167 -28 226q-32 72 -122 72q-89 0 -122 -73q-26 -57 -26 -223q0 -188 28 -249q15 -34 51.5 -51t68.5 -17q16 0 32.5 3.5
t38.5 13t39.5 33t24.5 57.5q15 79 15 208z" />
    <glyph glyph-name="Otilde" unicode="&#xd5;" horiz-adv-x="828" 
d="M587 880q-1 -44 -31.5 -85t-74.5 -41q-15 0 -42 8l-95 33q-15 5 -24 5q-19 0 -25 -37h-54q3 54 31 90t64 36q19 0 43 -8l83 -28q22 -7 33 -7q31 0 39 34h53zM785 355q0 -88 -37 -167t-97 -128q-48 -38 -113.5 -59.5t-123.5 -21.5q-59 0 -123.5 21.5t-113.5 59.5
q-60 49 -97 128.5t-37 166.5t36 165.5t98 129.5q42 34 99 54t86.5 23.5t51.5 3.5t51 -3.5t86 -23.5t100 -54q61 -50 97.5 -129t36.5 -166zM563 364q0 167 -28 226q-32 72 -122 72q-89 0 -122 -73q-26 -57 -26 -223q0 -188 28 -249q15 -34 51.5 -51t68.5 -17q16 0 32.5 3.5
t38.5 13t39.5 33t24.5 57.5q15 79 15 208z" />
    <glyph glyph-name="Odieresis" unicode="&#xd6;" horiz-adv-x="828" 
d="M605 832q0 -32 -23.5 -55.5t-56.5 -23.5q-34 0 -57.5 23.5t-23.5 55.5q0 34 23.5 57.5t57.5 23.5q33 0 56.5 -23.5t23.5 -57.5zM384 832q0 -32 -23.5 -55.5t-57.5 -23.5q-32 0 -55.5 23.5t-23.5 55.5q0 34 23.5 57.5t55.5 23.5q34 0 57.5 -23.5t23.5 -57.5zM785 355
q0 -88 -37 -167t-97 -128q-48 -38 -113.5 -59.5t-123.5 -21.5q-59 0 -123.5 21.5t-113.5 59.5q-60 49 -97 128.5t-37 166.5t36 165.5t98 129.5q42 34 99 54t86.5 23.5t51.5 3.5t51 -3.5t86 -23.5t100 -54q61 -50 97.5 -129t36.5 -166zM563 364q0 167 -28 226q-32 72 -122 72
q-89 0 -122 -73q-26 -57 -26 -223q0 -188 28 -249q15 -34 51.5 -51t68.5 -17q16 0 32.5 3.5t38.5 13t39.5 33t24.5 57.5q15 79 15 208z" />
    <glyph glyph-name="multiply" unicode="&#xd7;" horiz-adv-x="647" 
d="M562 104l-74 -74l-165 163l-164 -163l-74 74l163 164l-163 163l74 76l164 -164l165 164l74 -76l-163 -163z" />
    <glyph glyph-name="Oslash" unicode="&#xd8;" horiz-adv-x="808" 
d="M763 354q0 -87 -37 -166t-97 -128q-48 -38 -113 -59.5t-124 -21.5q-109 0 -210 62l-56 -67h-95l95 114q-105 110 -105 268q0 87 37 166t98 128q49 39 114 60t121 21q117 0 215 -64l54 64h94l-93 -111q102 -113 102 -266zM523 566q-32 96 -131 96q-18 0 -37.5 -4
t-45.5 -21.5t-39 -46.5q-27 -59 -27 -224q0 -40 4 -132zM541 355q0 77 -4 116l-274 -333q10 -32 22 -45q17 -19 46.5 -31.5t60.5 -12.5q34 0 70 17t51 52q28 60 28 237z" />
    <glyph glyph-name="Ugrave" unicode="&#xd9;" horiz-adv-x="890" 
d="M582 781l-40 -28l-143 77q-42 22 -42 60q0 24 16.5 42t39.5 18q15 0 24.5 -7t24.5 -24zM848 657q-52 -2 -68.5 -27.5t-16.5 -71.5v-304q0 -134 -84 -216q-73 -71 -222 -71q-85 0 -147 25t-93 66.5t-44.5 84.5t-13.5 90v325q0 17 -0.5 26.5t-5.5 25.5t-14.5 24.5
t-28.5 15.5t-46 7h-22v53h435v-53q-64 0 -85 -22.5t-21 -76.5v-374q0 -80 44 -118t99 -38q87 0 136.5 60t49.5 155v315q0 22 -2 34t-10 30t-29 26.5t-55 8.5h-21v53h265v-53z" />
    <glyph glyph-name="Uacute" unicode="&#xda;" horiz-adv-x="890" 
d="M597 890q0 -38 -42 -60l-142 -77l-40 28l120 138q11 13 15.5 17t13.5 9t20 5q22 0 38.5 -17t16.5 -43zM848 657q-52 -2 -68.5 -27.5t-16.5 -71.5v-304q0 -134 -84 -216q-73 -71 -222 -71q-85 0 -147 25t-93 66.5t-44.5 84.5t-13.5 90v325q0 17 -0.5 26.5t-5.5 25.5
t-14.5 24.5t-28.5 15.5t-46 7h-22v53h435v-53q-64 0 -85 -22.5t-21 -76.5v-374q0 -80 44 -118t99 -38q87 0 136.5 60t49.5 155v315q0 22 -2 34t-10 30t-29 26.5t-55 8.5h-21v53h265v-53z" />
    <glyph glyph-name="Ucircumflex" unicode="&#xdb;" horiz-adv-x="890" 
d="M660 781q0 -11 -10.5 -20t-25.5 -9q-6 0 -38 12l-81 39h-13l-82 -39q-26 -12 -39 -12q-14 0 -24.5 9t-10.5 19q0 14 10 23l89 87h127l89 -87q9 -9 9 -22zM848 657q-52 -2 -68.5 -27.5t-16.5 -71.5v-304q0 -134 -84 -216q-73 -71 -222 -71q-85 0 -147 25t-93 66.5
t-44.5 84.5t-13.5 90v325q0 17 -0.5 26.5t-5.5 25.5t-14.5 24.5t-28.5 15.5t-46 7h-22v53h435v-53q-64 0 -85 -22.5t-21 -76.5v-374q0 -80 44 -118t99 -38q87 0 136.5 60t49.5 155v315q0 22 -2 34t-10 30t-29 26.5t-55 8.5h-21v53h265v-53z" />
    <glyph glyph-name="Udieresis" unicode="&#xdc;" horiz-adv-x="890" 
d="M656 832q0 -32 -23.5 -55.5t-56.5 -23.5q-34 0 -57 23.5t-23 55.5q0 34 23 57.5t57 23.5q33 0 56.5 -23.5t23.5 -57.5zM435 832q0 -32 -23.5 -55.5t-57.5 -23.5q-32 0 -55.5 23.5t-23.5 55.5q0 34 23.5 57.5t55.5 23.5q34 0 57.5 -23.5t23.5 -57.5zM848 657
q-52 -2 -68.5 -27.5t-16.5 -71.5v-304q0 -134 -84 -216q-73 -71 -222 -71q-85 0 -147 25t-93 66.5t-44.5 84.5t-13.5 90v325q0 17 -0.5 26.5t-5.5 25.5t-14.5 24.5t-28.5 15.5t-46 7h-22v53h435v-53q-64 0 -85 -22.5t-21 -76.5v-374q0 -80 44 -118t99 -38q87 0 136.5 60
t49.5 155v315q0 22 -2 34t-10 30t-29 26.5t-55 8.5h-21v53h265v-53z" />
    <glyph glyph-name="Yacute" unicode="&#xdd;" horiz-adv-x="880" 
d="M605 890q0 -38 -41 -60l-143 -77l-39 28l118 138q9 10 12 13t10.5 8.5t13.5 7.5t14 2q22 0 38.5 -17t16.5 -43zM848 657q-58 -6 -87 -33t-72 -101l-148 -255v-115q0 -20 1.5 -32t9 -30.5t27 -28t50.5 -9.5h60v-53h-509v53h47q63 0 82.5 24.5t19.5 75.5v99l-149 284
q-33 64 -57.5 86.5t-90.5 34.5v53h456v-53q-84 0 -84 -54q0 -24 17 -58l98 -186l120 203q15 25 15 41q0 26 -21 39t-50 15v53h265v-53z" />
    <glyph glyph-name="Thorn" unicode="&#xde;" horiz-adv-x="775" 
d="M743 357q0 -87 -76.5 -139t-178.5 -52h-138v-13q0 -14 0.5 -23t5.5 -27t14.5 -28t28.5 -17.5t46 -4.5v-53h-403v53q27 -3 46.5 4.5t29 17.5t14.5 28t5.5 27t0.5 23v405q0 13 -0.5 22.5t-5.5 27t-14.5 28t-29 17.5t-46.5 4v53h403v-53q-42 4 -69 -18q-18 -15 -22 -33.5
t-4 -57.5h138q126 0 190.5 -59t64.5 -132zM543 365q0 17 -1 29t-8 33.5t-20 35t-39.5 24t-63.5 10.5q-38 0 -49.5 -14t-11.5 -47v-217h63q74 0 102 34.5t28 111.5z" />
    <glyph glyph-name="germandbls" unicode="&#xdf;" horiz-adv-x="703" 
d="M660 183q0 -92 -68.5 -148t-138.5 -56q-60 0 -102.5 37t-42.5 84q0 37 25.5 60t56.5 23q23 0 38.5 -14.5t15.5 -40.5q0 -41 -41 -62q-18 -10 -18 -18q0 -11 12.5 -17t28.5 -6q84 0 84 138q0 51 -11.5 88.5t-26.5 56.5t-40 31t-40.5 14.5t-40.5 5.5v32q68 8 90.5 39.5
t22.5 94.5q0 17 -2 34t-8.5 43.5t-24.5 43t-45 16.5q-100 0 -100 -159v-503h-242v42q29 -3 47.5 2.5t25.5 19.5t8.5 23t1.5 25v312q0 136 72 210q73 76 194 76q87 0 151 -44.5t64 -120.5q0 -10 -1 -19t-7.5 -30.5t-18.5 -39t-38 -38t-62 -34.5v-2q181 -42 181 -199z" />
    <glyph glyph-name="agrave" unicode="&#xe0;" horiz-adv-x="655" 
d="M441 579l-32 -41l-159 103q-16 11 -23.5 17t-16.5 19.5t-9 28.5q0 22 16.5 39.5t40.5 17.5q25 0 50 -31zM629 140q0 -43 -13 -75.5t-30 -48t-39.5 -25t-34.5 -11t-21 -1.5q-58 0 -126 59q-114 -59 -187 -59q-29 0 -58.5 8t-56 33.5t-26.5 64.5q0 104 143 160l185 73v54
q0 94 -105 94q-22 0 -38.5 -4.5t-25 -10.5t-13.5 -13t-6 -11.5t-1 -7.5q0 -7 5 -10q26 -28 26 -45q0 -25 -20 -43.5t-49 -18.5q-31 0 -52.5 21.5t-21.5 51.5q0 13 3.5 26.5t17.5 34t37 36t67.5 26.5t103.5 11q37 0 64.5 -3t58.5 -13.5t50.5 -29t32.5 -52.5t13 -81v-200
q0 -32 8 -50.5t14.5 -22t12.5 -3.5q39 0 39 71v87h43v-72zM365 175v95l-66 -24q-83 -31 -83 -128q0 -76 59 -76q33 0 61.5 33t28.5 100z" />
    <glyph glyph-name="aacute" unicode="&#xe1;" horiz-adv-x="655" 
d="M447 705q0 -32 -48 -64l-158 -103l-33 41l132 153q28 31 52 31q23 0 39 -17t16 -41zM629 140q0 -43 -13 -75.5t-30 -48t-39.5 -25t-34.5 -11t-21 -1.5q-58 0 -126 59q-114 -59 -187 -59q-29 0 -58.5 8t-56 33.5t-26.5 64.5q0 104 143 160l185 73v54q0 94 -105 94
q-22 0 -38.5 -4.5t-25 -10.5t-13.5 -13t-6 -11.5t-1 -7.5q0 -7 5 -10q26 -28 26 -45q0 -25 -20 -43.5t-49 -18.5q-31 0 -52.5 21.5t-21.5 51.5q0 13 3.5 26.5t17.5 34t37 36t67.5 26.5t103.5 11q37 0 64.5 -3t58.5 -13.5t50.5 -29t32.5 -52.5t13 -81v-200q0 -32 8 -50.5
t14.5 -22t12.5 -3.5q39 0 39 71v87h43v-72zM365 175v95l-66 -24q-83 -31 -83 -128q0 -76 59 -76q33 0 61.5 33t28.5 100z" />
    <glyph glyph-name="acircumflex" unicode="&#xe2;" horiz-adv-x="655" 
d="M465 570q0 -12 -11 -20.5t-20 -8.5q-10 0 -23 9l-96 75h-16l-93 -74q-12 -10 -23 -10q-13 0 -23.5 9t-10.5 20q0 2 7 16l105 156h94l104 -155q6 -9 6 -17zM629 140q0 -43 -13 -75.5t-30 -48t-39.5 -25t-34.5 -11t-21 -1.5q-58 0 -126 59q-114 -59 -187 -59q-29 0 -58.5 8
t-56 33.5t-26.5 64.5q0 104 143 160l185 73v54q0 94 -105 94q-22 0 -38.5 -4.5t-25 -10.5t-13.5 -13t-6 -11.5t-1 -7.5q0 -7 5 -10q26 -28 26 -45q0 -25 -20 -43.5t-49 -18.5q-31 0 -52.5 21.5t-21.5 51.5q0 13 3.5 26.5t17.5 34t37 36t67.5 26.5t103.5 11q37 0 64.5 -3
t58.5 -13.5t50.5 -29t32.5 -52.5t13 -81v-200q0 -32 8 -50.5t14.5 -22t12.5 -3.5q39 0 39 71v87h43v-72zM365 175v95l-66 -24q-83 -31 -83 -128q0 -76 59 -76q33 0 61.5 33t28.5 100z" />
    <glyph glyph-name="atilde" unicode="&#xe3;" horiz-adv-x="655" 
d="M495 668q1 -37 -10.5 -64t-29.5 -40t-34 -18.5t-30 -5.5q-32 0 -66 14l-52 21q-15 7 -24 7q-5 0 -11 -2t-14 -12t-10 -27h-54q-1 64 29.5 95.5t64.5 31.5q26 0 46 -8l64 -23q26 -9 38 -9q6 0 13 2.5t16 12t11 25.5h53zM629 140q0 -43 -13 -75.5t-30 -48t-39.5 -25
t-34.5 -11t-21 -1.5q-58 0 -126 59q-114 -59 -187 -59q-29 0 -58.5 8t-56 33.5t-26.5 64.5q0 104 143 160l185 73v54q0 94 -105 94q-22 0 -38.5 -4.5t-25 -10.5t-13.5 -13t-6 -11.5t-1 -7.5q0 -7 5 -10q26 -28 26 -45q0 -25 -20 -43.5t-49 -18.5q-31 0 -52.5 21.5
t-21.5 51.5q0 13 3.5 26.5t17.5 34t37 36t67.5 26.5t103.5 11q37 0 64.5 -3t58.5 -13.5t50.5 -29t32.5 -52.5t13 -81v-200q0 -32 8 -50.5t14.5 -22t12.5 -3.5q39 0 39 71v87h43v-72zM365 175v95l-66 -24q-83 -31 -83 -128q0 -76 59 -76q33 0 61.5 33t28.5 100z" />
    <glyph glyph-name="adieresis" unicode="&#xe4;" horiz-adv-x="655" 
d="M502 604q0 -26 -18.5 -45t-44.5 -19q-27 0 -46 19t-19 45t19 45.5t46 19.5q26 0 44.5 -19.5t18.5 -45.5zM281 604q0 -26 -19 -45t-45 -19q-27 0 -45.5 19t-18.5 45q0 27 18.5 46t45.5 19q26 0 45 -19.5t19 -45.5zM629 140q0 -43 -13 -75.5t-30 -48t-39.5 -25t-34.5 -11
t-21 -1.5q-58 0 -126 59q-114 -59 -187 -59q-29 0 -58.5 8t-56 33.5t-26.5 64.5q0 104 143 160l185 73v54q0 94 -105 94q-22 0 -38.5 -4.5t-25 -10.5t-13.5 -13t-6 -11.5t-1 -7.5q0 -7 5 -10q26 -28 26 -45q0 -25 -20 -43.5t-49 -18.5q-31 0 -52.5 21.5t-21.5 51.5
q0 13 3.5 26.5t17.5 34t37 36t67.5 26.5t103.5 11q37 0 64.5 -3t58.5 -13.5t50.5 -29t32.5 -52.5t13 -81v-200q0 -32 8 -50.5t14.5 -22t12.5 -3.5q39 0 39 71v87h43v-72zM365 175v95l-66 -24q-83 -31 -83 -128q0 -76 59 -76q33 0 61.5 33t28.5 100z" />
    <glyph glyph-name="aring" unicode="&#xe5;" horiz-adv-x="655" 
d="M406 681q0 -38 -27 -65t-65 -27q-37 0 -64 27t-27 65q0 37 26.5 64t64.5 27t65 -27t27 -64zM629 140q0 -43 -13 -75.5t-30 -48t-39.5 -25t-34.5 -11t-21 -1.5q-58 0 -126 59q-114 -59 -187 -59q-29 0 -58.5 8t-56 33.5t-26.5 64.5q0 104 143 160l185 73v54q0 94 -105 94
q-22 0 -38.5 -4.5t-25 -10.5t-13.5 -13t-6 -11.5t-1 -7.5q0 -7 5 -10q26 -28 26 -45q0 -25 -20 -43.5t-49 -18.5q-31 0 -52.5 21.5t-21.5 51.5q0 13 3.5 26.5t17.5 34t37 36t67.5 26.5t103.5 11q37 0 64.5 -3t58.5 -13.5t50.5 -29t32.5 -52.5t13 -81v-200q0 -32 8 -50.5
t14.5 -22t12.5 -3.5q39 0 39 71v87h43v-72zM360 681q0 18 -13.5 31t-31.5 13q-19 0 -32.5 -12.5t-13.5 -31.5t13.5 -32t32.5 -13q18 0 31.5 13t13.5 32zM365 175v95l-66 -24q-83 -31 -83 -128q0 -76 59 -76q33 0 61.5 33t28.5 100z" />
    <glyph glyph-name="ae" unicode="&#xe6;" horiz-adv-x="901" 
d="M863 244h-326v-48.5t1.5 -41.5t4.5 -37.5t8 -29t13.5 -25t20 -16t27.5 -11.5t37 -3q65 0 113.5 41t53.5 98h42q-2 -69 -60 -130.5t-168 -61.5q-123 0 -208 95q-46 -29 -74.5 -44.5t-77 -33t-89.5 -17.5q-55 0 -99.5 26.5t-44.5 79.5q0 104 143 160l185 73v54
q0 94 -105 94q-21 0 -37.5 -4t-25 -10t-13.5 -13t-6.5 -11.5t-1.5 -8.5q0 -6 4 -10q27 -27 27 -45q0 -25 -20 -43.5t-49 -18.5q-31 0 -52.5 21.5t-21.5 51.5q0 13 4 27.5t18 34.5t37 35t66.5 26t100.5 11q55 0 95 -10t54 -18.5t31 -22.5q71 51 147 51q50 0 102.5 -24.5
t87.5 -68.5q51 -66 56 -172zM689 286q-1 37 -2.5 57.5t-8 50.5t-22.5 44.5t-42 14.5q-17 0 -29.5 -6t-20 -20.5t-12.5 -26t-8 -36t-4 -37t-2 -41.5h151zM365 175v95l-66 -24q-83 -32 -83 -128q0 -76 59 -76q33 0 61.5 33t28.5 100z" />
    <glyph glyph-name="ccedilla" unicode="&#xe7;" horiz-adv-x="583" 
d="M549 180q-32 -173 -200 -198v-2q72 -34 72 -82q0 -35 -43 -62.5t-101 -27.5q-106 0 -106 67q0 23 14 37.5t32 14.5q17 0 33.5 -12t16.5 -37q0 -12 -9 -37q63 0 63 51t-53 55v36q-53 12 -94.5 37.5t-65.5 54t-39.5 61.5t-21 59.5t-5.5 49.5q0 44 16.5 89t48.5 85t87 65
t124 25q99 0 157.5 -50.5t58.5 -105.5q0 -30 -21.5 -56t-56.5 -26q-31 0 -51 22t-20 51q0 31 21 50q17 18 17 25q0 14 -23 29.5t-53 15.5q-33 0 -58.5 -18t-37.5 -39q-31 -55 -31 -159q0 -35 2 -62t10 -57t21.5 -50t37.5 -33t57 -13q56 0 99 41.5t60 105.5h42z" />
    <glyph glyph-name="egrave" unicode="&#xe8;" horiz-adv-x="584" 
d="M411 579l-32 -41l-159 103q-16 11 -23.5 17t-16 19.5t-8.5 28.5q0 22 16.5 39.5t39.5 17.5t52 -31zM546 244h-326v-48.5t1.5 -41.5t4.5 -37.5t8 -29t13.5 -25t20 -16t27.5 -11.5t37 -3q65 0 113.5 41t53.5 98h42q-3 -69 -61 -130.5t-168 -61.5q-114 0 -191 77
q-73 73 -73 186q0 60 19.5 108.5t48 77t64 48t65 26.5t53.5 7q49 0 103 -24.5t88 -68.5q49 -62 57 -172zM371 286q0 33 -1.5 53t-7.5 51t-23 47t-43 16q-24 0 -40 -14.5t-23 -41t-9.5 -50.5t-3.5 -55v-6h151z" />
    <glyph glyph-name="eacute" unicode="&#xe9;" horiz-adv-x="584" 
d="M425 705q0 -15 -9.5 -28.5t-16 -18.5t-23.5 -17l-159 -103l-32 41l132 153q27 31 52 31q23 0 39.5 -17t16.5 -41zM546 244h-326v-48.5t1.5 -41.5t4.5 -37.5t8 -29t13.5 -25t20 -16t27.5 -11.5t37 -3q65 0 113.5 41t53.5 98h42q-3 -69 -61 -130.5t-168 -61.5
q-114 0 -191 77q-73 73 -73 186q0 60 19.5 108.5t48 77t64 48t65 26.5t53.5 7q49 0 103 -24.5t88 -68.5q49 -62 57 -172zM371 286q0 33 -1.5 53t-7.5 51t-23 47t-43 16q-24 0 -40 -14.5t-23 -41t-9.5 -50.5t-3.5 -55v-6h151z" />
    <glyph glyph-name="ecircumflex" unicode="&#xea;" horiz-adv-x="584" 
d="M449 570q0 -12 -11 -20.5t-20 -8.5q-10 0 -23 9l-96 75h-16l-93 -74q-14 -10 -23 -10q-13 0 -23 9t-10 20q0 8 6 16l105 156h94l104 -155q6 -9 6 -17zM546 244h-326v-48.5t1.5 -41.5t4.5 -37.5t8 -29t13.5 -25t20 -16t27.5 -11.5t37 -3q65 0 113.5 41t53.5 98h42
q-3 -69 -61 -130.5t-168 -61.5q-114 0 -191 77q-73 73 -73 186q0 60 19.5 108.5t48 77t64 48t65 26.5t53.5 7q49 0 103 -24.5t88 -68.5q49 -62 57 -172zM371 286q0 33 -1.5 53t-7.5 51t-23 47t-43 16q-24 0 -40 -14.5t-23 -41t-9.5 -50.5t-3.5 -55v-6h151z" />
    <glyph glyph-name="edieresis" unicode="&#xeb;" horiz-adv-x="584" 
d="M466 604q0 -26 -18.5 -45t-44.5 -19q-27 0 -46 19t-19 45t19 45.5t46 19.5q26 0 44.5 -19.5t18.5 -45.5zM245 604q0 -26 -19 -45t-45 -19q-27 0 -45.5 19t-18.5 45q0 27 18.5 46t45.5 19q26 0 45 -19.5t19 -45.5zM546 244h-326q0 -43 0.5 -63t3.5 -50.5t10 -44t19 -28.5
t31.5 -20.5t47.5 -5.5q64 0 113 41t54 98h42q-3 -69 -61 -130.5t-168 -61.5q-114 0 -191 77q-73 73 -73 186q0 60 19.5 108.5t48 77t64 48t65 26.5t53.5 7q49 0 103 -24.5t88 -68.5q49 -62 57 -172zM371 286q0 33 -1.5 53t-7.5 51t-23 47t-43 16q-24 0 -40 -14.5t-23 -41
t-9.5 -50.5t-3.5 -55v-6h151z" />
    <glyph glyph-name="igrave" unicode="&#xec;" horiz-adv-x="350" 
d="M295 579l-32 -41l-159 103q-16 11 -23.5 17t-16.5 19.5t-9 28.5q0 23 16 40t40 17t51 -31zM318 0h-286v42q22 -1 36 4t19.5 17.5t6.5 22t1 27.5v261q0 18 -1 27.5t-6.5 22t-19.5 17.5t-36 4v43q11 1 71 5.5t64 4.5h87v-385q0 -29 4 -41.5t21 -22.5q12 -9 39 -7v-42z" />
    <glyph glyph-name="iacute" unicode="&#xed;" horiz-adv-x="350" 
d="M295 705q0 -15 -9.5 -28.5t-16 -18.5t-23.5 -17l-159 -103l-32 41l133 153q26 31 52 31q22 0 38.5 -17t16.5 -41zM318 0h-286v42q22 -1 36 4t19.5 17.5t6.5 22t1 27.5v261q0 18 -1 27.5t-6.5 22t-19.5 17.5t-36 4v43q11 1 71 5.5t64 4.5h87v-385q0 -29 4 -41.5t21 -22.5
q12 -9 39 -7v-42z" />
    <glyph glyph-name="icircumflex" unicode="&#xee;" horiz-adv-x="350" 
d="M313 570q0 -12 -11.5 -20.5t-20.5 -8.5q-11 0 -22 9l-97 75h-16l-93 -74q-14 -10 -22 -10q-13 0 -23.5 9t-10.5 20q0 8 6 16l105 156h94l104 -155q7 -8 7 -17zM318 0h-286v42q22 -1 36 4t19.5 17.5t6.5 22t1 27.5v261q0 18 -1 27.5t-6.5 22t-19.5 17.5t-36 4v43
q11 1 71 5.5t64 4.5h87v-385q0 -29 4 -41.5t21 -22.5q12 -9 39 -7v-42z" />
    <glyph glyph-name="idieresis" unicode="&#xef;" horiz-adv-x="350" 
d="M336 604q0 -26 -19 -45t-45 -19q-27 0 -45.5 19t-18.5 45q0 27 18.5 46t45.5 19q26 0 45 -19.5t19 -45.5zM128 604q0 -26 -18.5 -45t-44.5 -19q-27 0 -46 19t-19 45t19 45.5t46 19.5q26 0 44.5 -19.5t18.5 -45.5zM318 0h-286v42q22 -1 36 4t19.5 17.5t6.5 22t1 27.5v261
q0 18 -1 27.5t-6.5 22t-19.5 17.5t-36 4v43q11 1 71 5.5t64 4.5h87v-385q0 -29 4 -41.5t21 -22.5q12 -9 39 -7v-42z" />
    <glyph glyph-name="eth" unicode="&#xf0;" horiz-adv-x="598" 
d="M554 328q0 -68 -18 -139t-57 -121q-30 -39 -82 -64t-106 -25q-27 0 -57.5 7.5t-65 27t-62 48.5t-45.5 76.5t-18 105.5q0 59 19 107t47.5 76.5t63.5 48t64.5 26.5t53.5 7q20 0 85 -13q-9 65 -32 118l-111 -64l-23 39l114 67q-20 33 -41 50.5t-58 23.5l8 44q53 -6 90 -21.5
t77 -52.5l97 56l23 -41l-88 -50q122 -150 122 -337zM368 236q0 130 -14 167q-19 50 -63 50q-26 0 -42.5 -16t-23.5 -51t-8.5 -63.5t-1.5 -78.5q0 -33 0.5 -52t2.5 -47.5t7 -45t13 -33.5t21.5 -24.5t31.5 -7.5q45 0 63 50q14 35 14 152z" />
    <glyph glyph-name="ntilde" unicode="&#xf1;" horiz-adv-x="668" 
d="M501 668q1 -37 -10.5 -64t-29.5 -40t-34 -18.5t-30 -5.5q-32 0 -66 14l-51 21q-18 7 -25 7q-28 0 -35 -41h-54q-1 64 30 95.5t64 31.5q26 0 46 -8l64 -23q26 -9 37 -9q35 0 41 40h53zM631 0h-271v42q23 3 34 15t12.5 23t1.5 34v242q0 18 -1 28.5t-6 26t-17.5 23
t-32.5 7.5q-10 0 -23 -5.5t-29.5 -18t-27.5 -41t-11 -68.5v-194q0 -17 1 -26t5 -20.5t14 -17.5t27 -8v-42h-270v42q23 -1 37 4t19.5 18t6.5 22.5t1 27.5v260q0 18 -1 27.5t-6.5 22t-19.5 17.5t-37 4v43q62 3 136 10h87v-58q74 69 151 69q35 0 68.5 -14t50.5 -36
q37 -47 37 -135v-210q0 -18 1 -27.5t6.5 -22.5t19.5 -18t37 -4v-42z" />
    <glyph glyph-name="ograve" unicode="&#xf2;" horiz-adv-x="583" 
d="M411 579l-32 -41l-159 103q-16 11 -23.5 17t-16 19.5t-8.5 28.5q0 23 16 40t40 17q23 0 52 -31zM541 244q0 -73 -28 -128t-70 -83t-81 -41t-71 -13t-70.5 13t-80 41t-69.5 83t-28 128q0 61 17 105t58 85q40 40 87 57.5t86 17.5q98 0 174 -75q41 -41 58.5 -85.5
t17.5 -104.5zM368 236q0 130 -14 167q-19 50 -63 50q-26 0 -42.5 -16t-23.5 -51t-8.5 -63.5t-1.5 -78.5q0 -33 0.5 -52t2.5 -47.5t7 -45t13 -33.5t21.5 -24.5t31.5 -7.5q45 0 63 50q14 35 14 152z" />
    <glyph glyph-name="oacute" unicode="&#xf3;" horiz-adv-x="583" 
d="M411 705q0 -32 -48 -64l-159 -103l-32 41l132 153q28 31 52 31q23 0 39 -17t16 -41zM541 244q0 -73 -28 -128t-70 -83t-81 -41t-71 -13t-70.5 13t-80 41t-69.5 83t-28 128q0 61 17 105t58 85q40 40 87 57.5t86 17.5q98 0 174 -75q41 -41 58.5 -85.5t17.5 -104.5zM368 236
q0 130 -14 167q-19 50 -63 50q-26 0 -42.5 -16t-23.5 -51t-8.5 -63.5t-1.5 -78.5q0 -33 0.5 -52t2.5 -47.5t7 -45t13 -33.5t21.5 -24.5t31.5 -7.5q45 0 63 50q14 35 14 152z" />
    <glyph glyph-name="ocircumflex" unicode="&#xf4;" horiz-adv-x="583" 
d="M449 570q0 -12 -11.5 -20.5t-20.5 -8.5t-22 9l-97 75h-16l-92 -74q-14 -10 -23 -10q-14 0 -23.5 9t-9.5 20q0 8 6 16l105 156h94l104 -155q6 -9 6 -17zM541 244q0 -73 -28 -128t-70 -83t-81 -41t-71 -13t-70.5 13t-80 41t-69.5 83t-28 128q0 61 17 105t58 85
q40 40 87 57.5t86 17.5q98 0 174 -75q41 -41 58.5 -85.5t17.5 -104.5zM368 236q0 130 -14 167q-19 50 -63 50q-26 0 -42.5 -16t-23.5 -51t-8.5 -63.5t-1.5 -78.5q0 -33 0.5 -52t2.5 -47.5t7 -45t13 -33.5t21.5 -24.5t31.5 -7.5q45 0 63 50q14 35 14 152z" />
    <glyph glyph-name="otilde" unicode="&#xf5;" horiz-adv-x="583" 
d="M459 668q1 -37 -10.5 -64t-29.5 -40t-34 -18.5t-30 -5.5q-32 0 -66 14l-52 21q-15 7 -24 7q-5 0 -11 -2t-14 -12t-10 -27h-54q-1 64 29.5 95.5t64.5 31.5q26 0 46 -8l64 -23q26 -9 38 -9q6 0 13 2.5t16 12t11 25.5h53zM541 244q0 -73 -28 -128t-70 -83t-81 -41t-71 -13
t-70.5 13t-80 41t-69.5 83t-28 128q0 61 17 105t58 85q40 40 87 57.5t86 17.5q98 0 174 -75q41 -41 58.5 -85.5t17.5 -104.5zM368 236q0 130 -14 167q-19 50 -63 50q-26 0 -42.5 -16t-23.5 -51t-8.5 -63.5t-1.5 -78.5q0 -33 0.5 -52t2.5 -47.5t7 -45t13 -33.5t21.5 -24.5
t31.5 -7.5q45 0 63 50q14 35 14 152z" />
    <glyph glyph-name="odieresis" unicode="&#xf6;" horiz-adv-x="583" 
d="M466 604q0 -26 -18.5 -45t-44.5 -19q-27 0 -46 19t-19 45t19 45.5t46 19.5q26 0 44.5 -19.5t18.5 -45.5zM245 604q0 -26 -19 -45t-45 -19q-27 0 -45.5 19t-18.5 45q0 27 18.5 46t45.5 19q26 0 45 -19.5t19 -45.5zM541 244q0 -73 -28 -128t-70 -83t-81 -41t-71 -13
t-70.5 13t-80 41t-69.5 83t-28 128q0 61 17 105t58 85q40 40 87 57.5t86 17.5q98 0 174 -75q41 -41 58.5 -85.5t17.5 -104.5zM368 236q0 130 -14 167q-19 50 -63 50q-26 0 -42.5 -16t-23.5 -51t-8.5 -63.5t-1.5 -78.5q0 -33 0.5 -52t2.5 -47.5t7 -45t13 -33.5t21.5 -24.5
t31.5 -7.5q45 0 63 50q14 35 14 152z" />
    <glyph glyph-name="divide" unicode="&#xf7;" horiz-adv-x="647" 
d="M408 459q0 -35 -25 -60t-60 -25t-60 25t-25 60t25 60t60 25t60 -25t25 -60zM594 218h-541v106h541v-106zM408 84q0 -35 -25 -60t-60 -25t-60 25t-25 60q0 34 25 59.5t60 25.5t60 -25t25 -60z" />
    <glyph glyph-name="oslash" unicode="&#xf8;" horiz-adv-x="575" 
d="M536 500l-65 -79q19 -22 28.5 -36.5t21.5 -53.5t12 -87q0 -73 -28 -128t-69.5 -83t-80.5 -41t-71 -13q-76 0 -143 50l-41 -50h-68v8l66 80q-62 67 -62 177q0 59 19 107t47 76.5t63 48t64.5 26.5t53.5 7q71 0 139 -45l36 44h78v-8zM353 379q-7 33 -24 51.5t-26.5 20.5
t-18.5 2q-28 0 -44.5 -19.5t-23 -53t-8 -79.5t0.5 -99zM359 289l-145 -173q3 -23 11 -40t16 -24.5t18.5 -12t15 -5t9.5 -0.5q63 0 72 97q5 49 3 158z" />
    <glyph glyph-name="ugrave" unicode="&#xf9;" horiz-adv-x="657" 
d="M448 579l-31 -41l-159 103q-16 10 -24 16.5t-16.5 20t-8.5 28.5q0 23 16 40t40 17t51 -31zM625 11q-82 -6 -135 -11h-87v53q-34 -30 -50.5 -42.5t-42 -22t-58.5 -9.5q-77 0 -122 47t-45 139v209q0 22 -1.5 33.5t-14 24t-37.5 13.5v43q20 2 68.5 5.5t56.5 4.5h87v-333
q0 -114 62 -114q46 0 71.5 47.5t25.5 108.5v167q0 18 -1 27.5t-6.5 22t-19.5 17.5t-37 4v43q61 3 136 10h87v-374q0 -18 1 -27.5t6.5 -22t19.5 -17.5t36 -4v-42z" />
    <glyph glyph-name="uacute" unicode="&#xfa;" horiz-adv-x="657" 
d="M448 705q0 -15 -9 -28.5t-16 -19t-23 -16.5l-159 -103l-32 41l132 153q27 31 52 31q23 0 39 -17t16 -41zM625 11q-82 -6 -135 -11h-87v53q-34 -30 -50.5 -42.5t-42 -22t-58.5 -9.5q-77 0 -122 47t-45 139v209q0 22 -1.5 33.5t-14 24t-37.5 13.5v43q20 2 68.5 5.5
t56.5 4.5h87v-333q0 -114 62 -114q46 0 71.5 47.5t25.5 108.5v167q0 18 -1 27.5t-6.5 22t-19.5 17.5t-37 4v43q61 3 136 10h87v-374q0 -18 1 -27.5t6.5 -22t19.5 -17.5t36 -4v-42z" />
    <glyph glyph-name="ucircumflex" unicode="&#xfb;" horiz-adv-x="657" 
d="M487 570q0 -12 -12 -20.5t-21 -8.5q-8 0 -22 9l-97 75h-16l-92 -74q-14 -10 -22 -10q-14 0 -24 9t-10 20q0 6 5 16l106 156h94l104 -155q7 -11 7 -17zM625 11q-82 -6 -135 -11h-87v53q-34 -30 -50.5 -42.5t-42 -22t-58.5 -9.5q-77 0 -122 47t-45 139v209q0 22 -1.5 33.5
t-14 24t-37.5 13.5v43q20 2 68.5 5.5t56.5 4.5h87v-333q0 -114 62 -114q46 0 71.5 47.5t25.5 108.5v167q0 18 -1 27.5t-6.5 22t-19.5 17.5t-37 4v43q61 3 136 10h87v-374q0 -18 1 -27.5t6.5 -22t19.5 -17.5t36 -4v-42z" />
    <glyph glyph-name="udieresis" unicode="&#xfc;" horiz-adv-x="657" 
d="M503 604q0 -26 -18.5 -45t-45.5 -19q-26 0 -45 19t-19 45t19 45.5t45 19.5q27 0 45.5 -19t18.5 -46zM282 604q0 -26 -19 -45t-45 -19q-27 0 -45.5 19t-18.5 45q0 27 18.5 46t45.5 19q26 0 45 -19.5t19 -45.5zM625 11q-82 -6 -135 -11h-87v53q-34 -30 -50.5 -42.5t-42 -22
t-58.5 -9.5q-77 0 -122 47t-45 139v209q0 22 -1.5 33.5t-14 24t-37.5 13.5v43q20 2 68.5 5.5t56.5 4.5h87v-333q0 -114 62 -114q46 0 71.5 47.5t25.5 108.5v167q0 18 -1 27.5t-6.5 22t-19.5 17.5t-37 4v43q61 3 136 10h87v-374q0 -18 1 -27.5t6.5 -22t19.5 -17.5t36 -4v-42z
" />
    <glyph glyph-name="yacute" unicode="&#xfd;" horiz-adv-x="637" 
d="M478 705q0 -15 -9.5 -28.5t-16 -18.5t-23.5 -17l-159 -103l-32 41l133 153q26 31 52 31q23 0 39 -17t16 -41zM605 445q-33 0 -56 -17t-33 -36.5t-25 -59.5l-151 -393q-14 -36 -21 -51.5t-25.5 -40.5t-42.5 -40q-45 -30 -97 -30q-49 0 -88.5 29t-39.5 81q0 36 23.5 59
t56.5 23q31 0 51 -20.5t20 -48.5q0 -23 -16 -39q-13 -12 -13 -18q0 -7 8 -12.5t19 -5.5q27 0 60 24.5t51 74.5l22 56l-188 393q-18 36 -35.5 51.5t-51.5 20.5v43h297v-43q-44 -3 -44 -41q0 -18 13 -41l86 -183l65 175q9 24 9 40q0 6 -1.5 12t-7 16t-20 16t-37.5 6v43h212
v-43z" />
    <glyph glyph-name="thorn" unicode="&#xfe;" horiz-adv-x="665" 
d="M621 247q0 -112 -69 -190t-171 -78q-58 0 -100 37v-135q0 -47 16 -60t69 -12v-42h-329v42q53 -1 69 12t16 60v705q0 46 -16 59.5t-69 11.5v43q46 0 157 10h87v-255q63 54 128 54t115 -41.5t73.5 -100t23.5 -120.5zM437 236q0 133 -14 167q-19 50 -62 50q-18 0 -31.5 -7.5
t-21.5 -23.5t-13 -33t-7.5 -43.5t-3 -46.5t-0.5 -51v-40.5t1 -37.5t3 -37t5.5 -31.5t9 -28.5t13.5 -20t19 -14.5t25 -4.5q45 0 64 50q13 35 13 152z" />
    <glyph glyph-name="ydieresis" unicode="&#xff;" horiz-adv-x="637" 
d="M493 604q0 -26 -19 -45t-45 -19q-27 0 -45.5 19t-18.5 45q0 27 18.5 46t45.5 19q26 0 45 -19.5t19 -45.5zM272 604q0 -26 -18.5 -45t-45.5 -19q-26 0 -45 19t-19 45t19 45.5t45 19.5q27 0 45.5 -19t18.5 -46zM605 445q-33 0 -56 -17t-33 -36.5t-25 -59.5l-151 -393
q-14 -36 -21 -51.5t-25.5 -40.5t-42.5 -40q-45 -30 -97 -30q-49 0 -88.5 29t-39.5 81q0 36 23.5 59t56.5 23q31 0 51 -20.5t20 -48.5q0 -23 -16 -39q-13 -12 -13 -18q0 -7 8 -12.5t19 -5.5q27 0 60 24.5t51 74.5l22 56l-188 393q-18 36 -35.5 51.5t-51.5 20.5v43h297v-43
q-44 -3 -44 -41q0 -18 13 -41l86 -183l65 175q9 24 9 40q0 6 -1.5 12t-7 16t-20 16t-37.5 6v43h212v-43z" />
    <glyph glyph-name="dotlessi" unicode="&#x131;" horiz-adv-x="350" 
d="M318 0h-286v42q22 -1 36 4t19.5 17.5t6.5 22t1 27.5v261q0 18 -1 27.5t-6.5 22t-19.5 17.5t-36 4v43q11 1 71 5.5t64 4.5h87v-385q0 -29 4 -41.5t21 -22.5q12 -9 39 -7v-42z" />
    <glyph glyph-name="Lslash" unicode="&#x141;" horiz-adv-x="797" 
d="M764 307l-10 -307h-695v53q27 -3 46.5 4.5t29 17.5t14.5 28t5.5 27t0.5 23v92l-74 -43l-33 58l107 61v237q0 13 -0.5 22.5t-5.5 27t-14.5 28t-29 17.5t-46.5 4v53h403v-53q-23 2 -40 -1.5t-27 -13.5t-16 -20t-8.5 -24.5t-3 -21.5t-0.5 -18v-114l111 64l33 -58l-144 -82
v-215q0 -31 1.5 -44.5t8.5 -29t24 -21t47 -5.5q87 0 163 63t107 191h46z" />
    <glyph glyph-name="lslash" unicode="&#x142;" horiz-adv-x="423" 
d="M423 490l-126 -107v-270q0 -18 1 -27.5t6.5 -22t19.5 -17.5t36 -4v-42h-296v42q26 -2 42.5 3t22.5 18t7.5 22.5t1.5 27.5v137l-96 -80l-42 50l138 116v250q0 17 -1 26t-6.5 21.5t-18.5 18t-35 5.5h-13v43q60 3 70 4q8 0 36 3t40 3h87v-240l84 71z" />
    <glyph glyph-name="OE" unicode="&#x152;" horiz-adv-x="1262" 
d="M1214 297l-17 -297h-621q-31 0 -105 -14q-43 -7 -68 -7q-48 0 -113.5 22t-112.5 59q-60 49 -97 128.5t-37 166.5q0 88 37 167.5t97 127.5q47 37 112.5 59t110.5 22q14 0 90 -10q70 -11 88 -11h613v-265h-52q-18 74 -46.5 116t-91.5 69q-68 28 -156 28q-43 0 -55 -16
t-12 -59v-159q26 0 46.5 4.5t44 19.5t39 49t19.5 86h52v-360h-52q-15 86 -46.5 116t-102.5 32v-245q0 -48 15 -60.5t56 -12.5h58q65 0 118 35.5t78 70.5q33 46 58 138h53zM563 365q0 162 -28 225q-32 72 -122 72q-89 0 -122 -73q-26 -56 -26 -222q0 -185 26 -248
q17 -36 52 -53.5t69 -17.5t70.5 17t52.5 54q28 58 28 246z" />
    <glyph glyph-name="oe" unicode="&#x153;" horiz-adv-x="903" 
d="M865 244h-324q-2 -51 0 -90.5t11 -66.5t33 -41t66 -14q65 0 113.5 41t53.5 98h42q0 -30 -13.5 -62t-39 -62t-71.5 -49t-104 -19q-105 0 -177 64q-76 -64 -164 -64q-32 0 -70.5 13t-80 41t-69.5 83t-28 128q0 59 19 106.5t47 76t63 48t64.5 27t54.5 7.5q86 0 164 -65
q79 65 163 65q49 0 102.5 -24.5t88.5 -68.5q51 -65 56 -172zM691 286q-2 97 -18 130q-19 37 -57 37q-18 0 -37 -13t-27 -41q-8 -33 -11 -113h150zM368 236q0 130 -14 167q-19 50 -63 50q-26 0 -42.5 -16t-23.5 -51t-8.5 -63.5t-1.5 -78.5q0 -33 0.5 -52t2.5 -47.5t7 -45
t13 -33.5t21.5 -24.5t31.5 -7.5q45 0 63 50q14 35 14 152z" />
    <glyph glyph-name="Scaron" unicode="&#x160;" horiz-adv-x="638" 
d="M481 862q0 -14 -8 -22l-90 -88h-128l-89 88q-8 5 -8 20q0 13 10 21.5t24 8.5q15 0 39 -12l82 -38h13l82 38q26 12 39 12q15 0 24.5 -8.5t9.5 -19.5zM596 227q0 -108 -77 -178t-168 -70q-74 0 -166 51q-43 27 -53 27q-15 0 -20 -78h-53v314h53q2 -66 30.5 -118.5
t67.5 -80.5t75 -42.5t61 -14.5q48 0 90.5 27.5t42.5 74.5q0 61 -83 93l-153 61q-96 37 -144 101q-46 65 -46 137q0 80 54 140t141 60q35 0 61 -8t93 -37q27 -13 35 -13q26 0 36 58h53v-259h-53q-8 47 -31.5 84.5t-50 57.5t-56.5 32.5t-50 16.5t-32 4q-41 0 -64.5 -20.5
t-23.5 -48.5q0 -26 18 -43t65 -37l179 -73q59 -24 99 -66t55 -80t15 -72z" />
    <glyph glyph-name="scaron" unicode="&#x161;" horiz-adv-x="532" 
d="M424 712q0 -6 -6 -16l-105 -155h-95l-104 154q-6 10 -6 17q0 11 11.5 20.5t21.5 9.5q11 0 21 -10l98 -75h16l92 74q12 11 22 11q14 0 24 -9.5t10 -20.5zM489 160q0 -74 -62 -127.5t-136 -53.5q-37 0 -120 31q-31 10 -37 10q-13 0 -22 -9t-11 -23h-43v196h43
q7 -75 75 -121q55 -41 107 -41q36 0 60 20t24 46q0 51 -83 77l-95 31q-53 17 -86 47t-44 59t-11 61q0 44 20 75t51 45t56 20t45 6q68 0 156 -44q8 17 17 44h42v-160h-42q-16 56 -63 86t-94 30q-36 0 -54 -15.5t-18 -37.5q0 -44 87 -69l103 -28q64 -17 94 -51q41 -45 41 -104
z" />
    <glyph glyph-name="Ydieresis" unicode="&#x178;" horiz-adv-x="880" 
d="M657 832q0 -32 -23.5 -55.5t-56.5 -23.5t-56.5 23.5t-23.5 55.5q0 34 23.5 57.5t56.5 23.5t56.5 -23.5t23.5 -57.5zM436 832q0 -32 -23.5 -55.5t-56.5 -23.5t-56.5 23.5t-23.5 55.5q0 34 23.5 57.5t56.5 23.5t56.5 -23.5t23.5 -57.5zM848 657q-58 -6 -87 -33t-72 -101
l-148 -255v-115q0 -20 1.5 -32t9 -30.5t27 -28t50.5 -9.5h60v-53h-509v53h47q63 0 82.5 24.5t19.5 75.5v99l-149 284q-33 64 -57.5 86.5t-90.5 34.5v53h456v-53q-84 0 -84 -54q0 -24 17 -58l98 -186l120 203q15 25 15 41q0 26 -21 39t-50 15v53h265v-53z" />
    <glyph glyph-name="Zcaron" unicode="&#x17d;" horiz-adv-x="700" 
d="M512 862q0 -14 -9 -22l-90 -88h-127l-89 88q-8 5 -8 20q0 13 9.5 21.5t24.5 8.5t39 -12l81 -38h14l82 38q25 12 39 12t24 -8.5t10 -19.5zM668 0h-636v14l333 583q11 20 11 33q0 28 -47 28q-37 0 -81.5 -17.5t-78.5 -57.5q-29 -34 -41.5 -74.5t-21.5 -105.5h-53v307h604
l-346 -604q-12 -17 -12 -30q0 -23 42 -23q31 0 64 5.5t81 31.5t78 69q46 68 57 170h47v-329z" />
    <glyph glyph-name="zcaron" unicode="&#x17e;" horiz-adv-x="542" 
d="M428 712q0 -4 -5 -16l-105 -155h-95l-104 154q-7 11 -7 17q0 11 12 20.5t21 9.5q12 0 22 -10l97 -75h16l92 74q13 11 23 11q13 0 23 -9.5t10 -20.5zM499 0h-457v8l237 414q8 14 8 18q0 7 -16 7q-52 0 -102 -42t-63 -119h-41v202h434v-8l-228 -385q-12 -19 -12 -32
q0 -20 29 -20q31 0 63 19t53 44q31 42 53 117h42v-223z" />
    <glyph glyph-name="florin" unicode="&#x192;" horiz-adv-x="509" 
d="M472 646q0 -23 -11.5 -35.5t-29.5 -12.5q-17 0 -27.5 10.5t-10.5 22.5q0 4 7.5 21.5t7.5 20.5q0 11 -11 16.5t-22 5.5q-9 0 -17.5 -7t-8.5 -21q0 -6 11 -39l-18 -104h103l-5 -37h-105l-63 -320q-11 -59 -21.5 -86.5t-37.5 -50.5q-35 -30 -78 -30t-73 26.5t-30 62.5
q0 16 10 30.5t31 14.5q20 0 29 -11.5t9 -23.5q0 -11 -11 -28q-4 -6 -4 -10q0 -9 10 -17t22 -8q15 0 23.5 10t8.5 20q0 2 -3.5 10.5t-8 18.5t-5.5 13l74 379h-74l5 37h74l16 77q15 63 46 93q38 37 90 37q39 0 68.5 -22.5t29.5 -62.5z" />
    <glyph glyph-name="circumflex" unicode="&#x2c6;" horiz-adv-x="316" 
d="M316 570q0 -12 -11.5 -20.5t-21.5 -8.5q-12 0 -21 9l-98 75h-16l-92 -74q-12 -10 -23 -10q-13 0 -23 9t-10 20q0 6 5 16l106 156h95l104 -155q6 -9 6 -17z" />
    <glyph glyph-name="caron" unicode="&#x2c7;" horiz-adv-x="316" 
d="M316 712q0 -4 -5 -16l-106 -155h-95l-104 154q-6 10 -6 17q0 11 11.5 20.5t21.5 9.5q11 0 21 -10l98 -75h15l93 74q12 11 22 11q14 0 24 -9.5t10 -20.5z" />
    <glyph glyph-name="breve" unicode="&#x2d8;" horiz-adv-x="342" 
d="M311 691q-4 -19 -6.5 -31t-12.5 -33.5t-23 -34t-38 -23t-57 -10.5q-41 0 -70 14t-43.5 39t-19.5 40.5t-9 38.5h63q30 -50 83 -50q50 0 75 50h58z" />
    <glyph glyph-name="dotaccent" unicode="&#x2d9;" horiz-adv-x="259" 
d="M225 631q0 -31 -21.5 -55.5t-74.5 -24.5q-52 0 -74 24.5t-22 55.5q0 30 22 54.5t74 24.5q53 0 74.5 -24.5t21.5 -54.5z" />
    <glyph glyph-name="ring" unicode="&#x2da;" horiz-adv-x="166" 
d="M175 681q0 -38 -27 -65t-65 -27t-64.5 27t-26.5 65q0 37 27 64t64 27t64.5 -27t27.5 -64zM128 681q0 18 -13 31t-32 13q-18 0 -31.5 -12.5t-13.5 -31.5t13.5 -32t31.5 -13q19 0 32 13t13 32z" />
    <glyph glyph-name="ogonek" unicode="&#x2db;" horiz-adv-x="318" 
d="M276 -119q-77 -73 -145 -73q-40 0 -64.5 24.5t-24.5 57.5q0 56 74 110h106q-18 -19 -41.5 -52t-23.5 -50q0 -12 10 -12q25 0 74 44z" />
    <glyph glyph-name="tilde" unicode="&#x2dc;" horiz-adv-x="335" 
d="M335 668q1 -37 -10.5 -64t-29.5 -40t-34 -18.5t-30 -5.5q-31 0 -67 14l-51 21q-16 7 -24 7q-5 0 -11 -2t-14 -12t-10 -27h-54q-1 64 29.5 95.5t63.5 31.5q27 0 47 -8l62 -23q28 -9 39 -9q6 0 13.5 2.5t16.5 12t11 25.5h53z" />
    <glyph glyph-name="hungarumlaut" unicode="&#x2dd;" horiz-adv-x="479" 
d="M479 705q0 -15 -9.5 -28.5t-16 -18.5t-23.5 -17l-159 -103l-31 41l131 153q27 31 52 31q23 0 39.5 -17t16.5 -41zM240 705q0 -15 -9.5 -28.5t-16 -18.5t-23.5 -17l-159 -103l-32 41l132 153q27 31 51 31q23 0 40 -17t17 -41z" />
    <glyph glyph-name="Delta" unicode="&#x394;" 
d="M311 318h-276v25q55 -1 72 10.5t17 49.5v202q0 17 -1.5 26.5t-13.5 20t-36 10.5l-38 -1v26q131 0 144 44h49v-328q0 -17 1.5 -25.5t8.5 -18.5t25 -13.5t48 -2.5v-25z" />
    <glyph glyph-name="Omega" unicode="&#x3a9;" 
d="M324 435q0 -51 -43.5 -90.5t-120.5 -39.5q-63 0 -103 35t-40 71q0 19 11.5 37.5t20.5 26t28 21.5l36 26l-40 32q-36 28 -36 69q0 42 37 75t104 33q50 0 88 -21.5t38 -61.5q0 -28 -37 -63l-35 -32l41 -28q8 -5 17.5 -13.5t21.5 -30.5t12 -46zM224 642q0 26 -17 41.5
t-43 15.5q-21 0 -39 -10.5t-18 -33.5q0 -26 27 -41l57 -38q33 31 33 66zM237 404q0 49 -48 76l-36 20q-52 -57 -52 -99q0 -27 18 -47t48 -20q25 0 47.5 16t22.5 54z" />
    <glyph glyph-name="mu" unicode="&#x3bc;" horiz-adv-x="657" 
d="M625 11q-82 -6 -135 -11h-87v53q-49 -44 -77 -59t-78 -15q-26 0 -55 9q0 -29 18 -66l32 -70q16 -42 16 -47q0 -31 -37 -40l-110 -24q-10 25 -15 38.5t-8.5 38.5t-3.5 60v496q0 22 -1.5 33.5t-14 24t-37.5 13.5v43l125 10h87v-333q0 -114 62 -114q46 0 71.5 47.5
t25.5 108.5v167q0 18 -1 27.5t-6.5 22t-19.5 17.5t-37 4v43q61 3 136 10h87v-374q0 -18 1 -27.5t6.5 -22t19.5 -17.5t36 -4v-42z" />
    <glyph glyph-name="pi" unicode="&#x3c0;" 
d="M324 455q0 -61 -41.5 -105.5t-104.5 -44.5q-74 0 -116 62t-42 147q0 104 53.5 160.5t125.5 56.5q47 0 79.5 -25t32.5 -53q0 -22 -17 -35.5t-35 -13.5t-32 12.5t-14 31.5q0 9 4 17.5t7.5 12t5.5 4.5q4 6 4 7q0 2 -4.5 6t-12.5 7.5t-17 3.5q-22 0 -36.5 -10t-20 -29
t-6.5 -31t-1 -32q0 -18 2 -60q1 1 6 5t7.5 5.5t7.5 5t8.5 5t9.5 4.5t11 4t11.5 2t13.5 1q44 0 77.5 -34t33.5 -87zM224 438q0 95 -44 95q-42 0 -42 -94q0 -24 1 -37.5t4.5 -32.5t12.5 -28t24 -9q16 0 25.5 9.5t13 28.5t4.5 32t1 36z" />
    <glyph glyph-name="endash" unicode="&#x2013;" horiz-adv-x="530" 
d="M498 191h-466v106h466v-106z" />
    <glyph glyph-name="emdash" unicode="&#x2014;" horiz-adv-x="1060" 
d="M1028 191h-996v106h996v-106z" />
    <glyph glyph-name="quoteleft" unicode="&#x2018;" horiz-adv-x="265" 
d="M228 495q0 -41 -29 -70t-68 -29q-36 0 -65 28t-29 79q0 22 9 54t28 71t59.5 68t93.5 35v-42q-32 -11 -53 -36.5t-21 -46.5q0 -8 4 -12.5t27 -20.5q15 -9 29.5 -30t14.5 -48z" />
    <glyph glyph-name="quoteright" unicode="&#x2019;" horiz-adv-x="265" 
d="M228 624q0 -17 -5 -40.5t-18.5 -55t-33.5 -59t-55 -48t-78 -25.5v43q32 11 53 36.5t21 46.5q0 9 -4 12.5t-27 19.5q-44 29 -44 79q0 42 29.5 70t67.5 28q37 0 65.5 -27t28.5 -80z" />
    <glyph glyph-name="quotesinglbase" unicode="&#x201a;" horiz-adv-x="265" 
d="M228 94q0 -17 -5 -40.5t-18.5 -55t-33.5 -59t-55 -48t-78 -25.5v43q32 11 53 36.5t21 46.5q0 9 -4 12.5t-27 19.5q-44 29 -44 79q0 42 29.5 70t67.5 28q37 0 65.5 -27t28.5 -80z" />
    <glyph glyph-name="quotedblleft" unicode="&#x201c;" horiz-adv-x="532" 
d="M495 495q0 -41 -29 -70t-67 -29t-66.5 27.5t-28.5 79.5q0 22 9 54t28 71t59.5 68t93.5 35v-42q-32 -11 -53 -36.5t-21 -46.5q0 -8 4 -12.5t26 -20.5q16 -9 30.5 -30t14.5 -48zM228 495q0 -41 -28.5 -70t-67.5 -29q-37 0 -65.5 28t-28.5 79q0 23 9 55t28 70.5t59.5 67.5
t93.5 35v-42q-32 -11 -53 -36.5t-21 -46.5q0 -8 4 -12.5t26 -20.5q16 -9 30 -30t14 -48z" />
    <glyph glyph-name="quotedblright" unicode="&#x201d;" horiz-adv-x="532" 
d="M495 624q0 -22 -9 -54t-28.5 -71t-60 -68t-93.5 -35v43q32 11 53 36.5t21 46.5q0 9 -3.5 12.5t-26.5 19.5q-44 29 -44 79q0 41 28.5 69.5t68.5 28.5q37 0 65.5 -27.5t28.5 -79.5zM228 624q0 -17 -5 -40.5t-18.5 -55t-33.5 -59t-55 -48t-78 -25.5v43q32 11 53 36.5
t21 46.5q0 9 -3.5 12.5t-26.5 19.5q-44 28 -44 79q0 41 28.5 69.5t67.5 28.5q37 0 65.5 -27.5t28.5 -79.5z" />
    <glyph glyph-name="quotedblbase" unicode="&#x201e;" horiz-adv-x="532" 
d="M495 94q0 -22 -9 -54t-28.5 -71t-60 -68t-93.5 -35v43q32 11 53 36.5t21 46.5q0 9 -3.5 12.5t-26.5 19.5q-44 29 -44 79q0 41 28.5 69.5t68.5 28.5q37 0 65.5 -27.5t28.5 -79.5zM228 94q0 -17 -5 -40.5t-18.5 -55t-33.5 -59t-55 -48t-78 -25.5v43q32 11 53 36.5t21 46.5
q0 9 -3.5 12.5t-26.5 19.5q-44 28 -44 79q0 41 28.5 69.5t67.5 28.5q37 0 65.5 -27.5t28.5 -79.5z" />
    <glyph glyph-name="dagger" unicode="&#x2020;" horiz-adv-x="531" 
d="M492 426q0 -22 -25 -48.5t-54 -26.5q-16 0 -29.5 9t-36.5 32q-13 13 -37 13h-26v-36q0 -30 13 -59t23 -41t28 -31q-24 -43 -44 -128.5t-20 -137.5v-224h-39v224q0 53 -19.5 137t-44.5 129q64 67 64 131v36h-26q-18 0 -25 -4t-28 -24q-26 -26 -52 -26q-28 0 -52.5 26.5
t-24.5 48.5t24 48t57 26q16 0 25.5 -6t32.5 -29q8 -8 11.5 -10.5t11.5 -5t20 -2.5h26v33q0 14 -5 29.5t-9 24t-20 39.5t-16 60q0 41 24 69.5t45 28.5q24 0 47 -29.5t23 -68.5q0 -29 -16 -60q-34 -68 -34 -93v-33h26q23 0 43 18q23 23 32.5 29t25.5 6q33 0 57 -26t24 -48z
" />
    <glyph glyph-name="daggerdbl" unicode="&#x2021;" horiz-adv-x="531" 
d="M492 53q0 -22 -24 -48t-57 -26q-16 0 -25.5 6t-32.5 29q-8 8 -11.5 10.5t-11.5 5t-20 2.5h-26v-33q0 -20 7 -37.5t27 -55.5q16 -29 16 -61q0 -39 -24 -68t-45 -29q-24 0 -47 29t-23 69q0 31 16 60q34 66 34 93v33h-26q-23 0 -43 -18q-23 -23 -32.5 -29t-25.5 -6
q-33 0 -57 26t-24 48q0 23 24.5 49t52.5 26q17 0 31 -9.5t37 -32.5q12 -12 37 -12h26v36q0 27 -7.5 45.5t-42.5 84.5q35 66 42.5 85t7.5 44v36h-26q-18 0 -25 -4t-28 -24q-23 -26 -52 -26q-28 0 -52.5 27t-24.5 48q0 22 24 48t57 26q16 0 25.5 -6t32.5 -29q8 -8 11.5 -10.5
t11.5 -5t20 -2.5h26v33q0 14 -5 29.5t-9 24t-20 39.5t-16 60q0 41 24 69.5t45 28.5q24 0 47 -29.5t23 -68.5q0 -29 -16 -60q-34 -68 -34 -93v-33h26q23 0 43 18q23 23 32.5 29t25.5 6q33 0 57 -26t24 -48t-25 -48.5t-54 -26.5q-16 0 -29.5 9t-36.5 32q-13 13 -37 13h-26v-36
q0 -38 22 -79q13 -22 29 -50q-32 -58 -41.5 -81t-9.5 -49v-36h26q18 0 25.5 4t27.5 24q26 26 50 26q29 0 54 -26.5t25 -48.5z" />
    <glyph glyph-name="bullet" unicode="&#x2022;" horiz-adv-x="477" 
d="M403 360q0 -68 -48 -116t-117 -48q-68 0 -116 48t-48 116q0 69 48 117t116 48q69 0 117 -48t48 -117z" />
    <glyph glyph-name="ellipsis" unicode="&#x2026;" horiz-adv-x="1060" 
d="M943 86q0 -41 -29 -70.5t-69 -29.5q-41 0 -70.5 29.5t-29.5 70.5q0 40 29.5 69t70.5 29t69.5 -29t28.5 -69zM629 86q0 -41 -29 -70.5t-70 -29.5t-70 29.5t-29 70.5q0 40 29 69t70 29t70 -29t29 -69zM315 86q0 -41 -29.5 -70.5t-70.5 -29.5q-40 0 -69 29.5t-29 70.5
q0 40 28.5 69t69.5 29t70.5 -29t29.5 -69z" />
    <glyph glyph-name="perthousand" unicode="&#x2030;" horiz-adv-x="1496" 
d="M843 721l-570 -965h-81l523 873l-2 2q-124 -64 -204 -64q-33 0 -81 11q7 -30 7 -49q0 -89 -70.5 -166t-170.5 -77q-65 0 -103 51.5t-38 114.5q0 93 75.5 167.5t168.5 74.5q41 0 95 -28q84 -46 139 -46q50 0 122.5 27t128.5 84h61v-10zM1443 131q0 -100 -79 -176.5
t-159 -76.5q-71 0 -110.5 55.5t-39.5 115.5q0 51 30.5 107t86 96.5t117.5 40.5q23 0 46 -6.5t49.5 -22t42.5 -50t16 -83.5zM1008 131q0 -100 -79 -176.5t-158 -76.5q-49 0 -85 30t-51 67.5t-15 73.5q0 81 70.5 162.5t163.5 81.5q23 0 46 -6.5t49.5 -22t42.5 -50t16 -83.5z
M346 600q0 28 -19 40t-33 12q-25 0 -40.5 -13.5t-35.5 -51.5q-67 -134 -67 -185q0 -30 14 -46t34 -16q31 0 54 27t47 79q46 125 46 154zM1344 188q0 20 -12 32t-22 15t-18 3q-25 0 -40.5 -13t-34.5 -50q-68 -130 -68 -187q0 -29 14 -45t35 -16q55 0 100 107q46 103 46 154z
M909 188q0 20 -12 32t-22 15t-17 3q-25 0 -40.5 -13t-35.5 -50q-68 -130 -68 -187q0 -29 14.5 -45t34.5 -16q32 0 54.5 27.5t46.5 79.5q45 116 45 154z" />
    <glyph glyph-name="guilsinglleft" unicode="&#x2039;" horiz-adv-x="385" 
d="M319 63h-91l-161 223l161 223h91l-140 -223z" />
    <glyph glyph-name="guilsinglright" unicode="&#x203a;" horiz-adv-x="385" 
d="M319 286l-162 -223h-90l139 223l-139 223h90z" />
    <glyph glyph-name="fraction" unicode="&#x2044;" horiz-adv-x="238" 
d="M338 721l-425 -721h-78l443 731h60v-10z" />
    <glyph glyph-name="trademark" unicode="&#x2122;" horiz-adv-x="1143" 
d="M436 634h-31q-1 16 -3.5 26.5t-10 27.5t-26 26.5t-46.5 9.5h-17v-320q0 -33 9.5 -42t45.5 -8v-31h-228v31q18 0 25 1.5t16 6t12 16t3 30.5v316h-24q-39 0 -57.5 -19t-30.5 -71h-26l-1 128h390v-128zM1083 323h-228v31q33 -1 45.5 8.5t12.5 39.5v289h-2l-167 -379
l-173 373h-2v-283q0 -33 18 -45q12 -4 42 -3v-31h-145v31q33 -3 42 9t9 44v272q-3 37 -7 42q-6 5 -44 11v30h175l125 -272l122 272h177v-30q-20 2 -32 -1.5t-16.5 -14t-5.5 -18t-1 -25.5v-266q0 -34 14 -44t41 -9v-31z" />
    <glyph glyph-name="partialdiff" unicode="&#x2202;" horiz-adv-x="548" 
d="M514 526q0 -98 -70 -165.5t-168 -67.5q-99 0 -170.5 68.5t-71.5 167.5q0 98 71.5 165.5t169.5 67.5t168.5 -69t70.5 -167zM466 527q0 79 -55 134.5t-134 55.5t-134.5 -55.5t-55.5 -134.5t55.5 -134.5t134.5 -55.5t134 55.5t55 134.5zM399 410h-78l-53 105h-7v-68
q0 -14 5 -16.5t29 -3.5v-17h-132v17q21 0 26 5.5t5 33.5v140q0 19 -5.5 24.5t-25.5 5.5v16h106q20 0 33 -1.5t33.5 -7t31.5 -21t11 -39.5q0 -45 -45 -61l36 -65q11 -21 15.5 -25.5t14.5 -4.5v-17zM311 582q0 22 -13 37t-37 10v-89q50 -6 50 42z" />
    <glyph glyph-name="product" unicode="&#x220f;" horiz-adv-x="776" 
d="M581 862q0 -14 -9 -22l-90 -88h-127l-90 88q-8 8 -8 20q0 13 9.5 21.5t24.5 8.5t40 -12l81 -38h13l83 38q25 12 38 12q15 0 25 -8.5t10 -19.5zM726 314q0 -61 -21.5 -119.5t-61 -107t-103 -78.5t-140.5 -30q-83 0 -153.5 32t-116.5 85t-72 119t-26 135q0 75 33 156.5
t86 129.5q47 44 118.5 69.5t137.5 25.5q97 0 191 -53q11 -6 20 -6q14 0 29 15t18 44h52q-4 -100 9 -303h-57q-16 61 -22.5 82.5t-20.5 49t-37 51.5q-54 59 -134 59q-118 0 -166 -128q-30 -77 -30 -175q0 -31 4 -69t21.5 -96.5t46.5 -95.5q45 -54 122 -54q56 0 100.5 26.5
t69 67.5t37.5 84t14 84h52z" />
    <glyph glyph-name="summation" unicode="&#x2211;" horiz-adv-x="548" 
d="M514 526q0 -98 -70 -165.5t-168 -67.5q-99 0 -170.5 68.5t-71.5 167.5q0 98 71 165.5t170 67.5q98 0 168.5 -69t70.5 -167zM466 527q0 79 -55 134.5t-134 55.5t-134.5 -55.5t-55.5 -134.5t55.5 -134.5t134.5 -55.5t134 55.5t55 134.5zM382 470l-3 -40q-48 -42 -102 -42
q-59 0 -96.5 37t-37.5 93q0 65 43.5 103t92.5 38q17 0 52 -11l17 -5q5 0 8 2.5t4 5t4 10.5h18l-1 -93h-16q-5 14 -8 21t-10.5 19.5t-21 18t-31.5 5.5q-33 0 -52.5 -26.5t-19.5 -77.5q0 -28 5.5 -52t22 -43.5t43.5 -19.5q23 0 37.5 10t51.5 47z" />
    <glyph glyph-name="minus" unicode="&#x2212;" horiz-adv-x="647" 
d="M594 217h-541v106h541v-106z" />
    <glyph glyph-name="radical" unicode="&#x221a;" horiz-adv-x="532" 
d="M489 160q0 -31 -14 -63.5t-51 -65.5t-91 -47q71 -33 71 -83q0 -35 -42 -62.5t-103 -27.5q-104 0 -104 67q0 24 14 37.5t33 13.5q20 0 34.5 -12.5t14.5 -34.5q0 -14 -10 -37q64 -3 64 50q0 18 -5.5 30t-15.5 17t-16 6.5t-17 2.5v32q-7 2 -35.5 11.5t-53.5 17.5t-28 8
q-13 0 -22 -9t-11 -23h-43v196h43q2 -20 4.5 -32t14.5 -32t32 -38q26 -24 62 -42t69 -18q36 0 60 20t24 46q0 51 -83 77l-95 31q-53 17 -86 47t-44 59t-11 61q0 44 20 75t51 45t56 20t45 6q68 0 156 -44q8 17 17 44h42v-160h-42q-16 56 -63 86t-94 30q-36 0 -54 -15.5
t-18 -37.5q0 -44 87 -69l103 -28q64 -17 94 -51q41 -45 41 -104z" />
    <glyph glyph-name="infinity" unicode="&#x221e;" 
d="M328 431q0 -36 -30 -71t-108 -55v-67h-35v66q-57 6 -97.5 30t-40.5 63q0 23 14.5 37.5t37.5 14.5q22 0 35.5 -14t13.5 -31q0 -20 -14 -30q-12 -10 -12 -15t5.5 -10t21 -10t36.5 -5v146l-65 32q-62 32 -62 90q0 40 34 77.5t93 45.5v67h35v-67q49 -6 85 -28t36 -51
q0 -17 -12.5 -30t-32.5 -13t-31 11.5t-11 27.5q0 14 10 27q4 5 4 6q0 2 -5 5t-16.5 7t-26.5 6v-124l44 -19q47 -19 70.5 -52.5t23.5 -66.5zM155 587v106q-61 -10 -61 -49q0 -19 22 -35t39 -22zM263 391q0 38 -73 71v-125q33 3 53 21t20 33z" />
    <glyph glyph-name="integral" unicode="&#x222b;" horiz-adv-x="447" 
d="M447 890q0 -38 -41 -60l-142 -77l-40 28l119 138q11 12 15.5 17t14 9.5t19.5 4.5q22 0 38.5 -17t16.5 -43zM224 890q0 -38 -42 -60l-142 -77l-40 28l120 138q11 13 15.5 17t13.5 9t20 5q22 0 38.5 -17t16.5 -43z" />
    <glyph glyph-name="approxequal" unicode="&#x2248;" horiz-adv-x="282" 
d="M282 -102q0 -28 -13.5 -48.5t-30.5 -30t-41 -15t-35.5 -6t-24.5 -0.5q-69 0 -103 24.5t-34 57.5q0 22 16.5 35.5t42.5 13.5t40.5 -14t14.5 -33q0 -14 -7 -25l-6 -10q0 -5 5 -5q14 0 36 14.5t22 40.5q0 11 -3.5 22t-17.5 24t-36 16v37h111v-16q33 -3 48.5 -29.5
t15.5 -52.5z" />
    <glyph glyph-name="notequal" unicode="&#x2260;" horiz-adv-x="927" 
d="M300 707q0 -30 -24 -99q-32 -81 -32 -121q0 -7 5 -44.5t5 -42.5q0 -41 -17.5 -68t-47.5 -27q-23 0 -42.5 19.5t-19.5 56.5q0 40 16 70.5t73 109.5q27 38 34.5 55t7.5 36q-51 -46 -78 -46q-14 0 -48 23q-16 11 -25 11q-28 0 -28 -74h-33v165h23q7 -23 19 -23q6 0 24 11
q22 12 39 12q25 0 58 -30q23 -22 31 -22q2 0 6 1.5t10 9t8 19.5q1 9 2 12.5t4.5 6.5t9.5 3q20 0 20 -24zM683 721l-425 -721h-79l443 731h61v-10zM907 117q0 -51 -43.5 -90.5t-120.5 -39.5q-63 0 -103 35t-40 71q0 19 11.5 37.5t20.5 26t28 21.5l36 26l-40 32q-36 28 -36 69
q0 42 37 75t104 33q50 0 88 -21.5t38 -61.5q0 -28 -37 -63l-35 -32l41 -28q8 -5 17.5 -13.5t21.5 -30.5t12 -46zM807 324q0 26 -17 41.5t-43 15.5q-21 0 -39 -10.5t-18 -33.5q0 -26 27 -41l57 -38q33 31 33 66zM820 86q0 49 -48 76l-36 20q-52 -57 -52 -99q0 -27 18 -47
t48 -20q25 0 47.5 16t22.5 54z" />
    <glyph glyph-name="lessequal" unicode="&#x2264;" horiz-adv-x="774" 
d="M753 360q0 -151 -107.5 -258t-258.5 -107t-258.5 107t-107.5 258q0 152 107.5 259t258.5 107t258.5 -107.5t107.5 -258.5z" />
    <glyph glyph-name="greaterequal" unicode="&#x2265;" 
d="M325 518q0 -60 -16.5 -104.5t-42 -66.5t-49 -32t-45.5 -10t-45.5 10t-49 32t-42 66.5t-16.5 104.5t16.5 104.5t42 66.5t49 32t45.5 10t45.5 -10t49 -31.5t42 -66t16.5 -105.5zM216 519q0 131 -9 158q-12 28 -35 28q-27 0 -36 -28q-10 -28 -10 -158q0 -129 10 -156
q9 -29 36 -29q24 0 35 29q9 27 9 156z" />
    <glyph glyph-name="lozenge" unicode="&#x25ca;" horiz-adv-x="595" 
d="M462 705q0 -15 -9 -28.5t-17 -19.5t-23 -16l-159 -103l-31 41l131 153q28 31 52 31q23 0 39.5 -17t16.5 -41zM556 180q-11 -56 -38.5 -97.5t-55 -60.5t-62.5 -30t-49.5 -12t-28.5 -1q-111 0 -192 80t-81 186q0 45 17 90t49 84.5t86.5 64.5t122.5 25q99 0 158 -50.5
t59 -106.5q0 -30 -22 -56t-56 -26q-30 0 -51 22t-21 51q0 28 21 51q17 17 17 25q0 14 -23 29.5t-52 15.5q-36 0 -62 -20t-38 -44.5t-18.5 -61t-7.5 -54t-1 -39.5q0 -41 3.5 -71.5t15.5 -66t39.5 -55t69.5 -19.5q56 0 99 41t60 106h42z" />
    <glyph glyph-name="fi" unicode="&#xfb01;" horiz-adv-x="713" 
d="M682 0h-287v42q23 -1 37 4t19.5 17.5t6.5 22t1 27.5v261q0 39 -11 55t-53 16h-130v-335q0 -40 14 -54t55 -14h16v-42h-329v42h19q40 0 53 14.5t13 53.5v335h-85v43h85v35q0 41 20.5 87t67.5 72q53 28 169 28q129 0 185 -51q34 -30 34 -68q0 -23 -17.5 -37t-37.5 -14
q-22 0 -38 15t-16 36q0 15 10 28q10 10 10 13q0 20 -43 28t-89 8q-138 0 -138 -53q0 -21 21 -59q19 -38 21 -68h130q4 0 137 10h86v-385q0 -18 1 -27.5t6.5 -22.5t19.5 -18t37 -3v-42z" />
    <glyph glyph-name="fl" unicode="&#xfb02;" horiz-adv-x="719" 
d="M676 0h-297v42q27 -2 43.5 3t22.5 18t7.5 22.5t1.5 27.5v454q-23 -16 -41 -16q-20 0 -36.5 14t-16.5 37q0 14 11 29q8 8 8 12q0 12 -19.5 21t-53.5 9q-83 0 -83 -45q0 -21 20 -61q18 -38 22 -79h95v-43h-95v-335q0 -40 14 -54t55 -14h16v-42h-329v42h19q39 0 52.5 14
t13.5 54v335h-85v43h85v43q0 16 3 35t14.5 46t30.5 47.5t54.5 35.5t81.5 15q58 0 100 -14q37 6 136 14h87v-597q0 -18 1 -27.5t6.5 -22t19.5 -17.5t36 -4v-42z" />
    <glyph glyph-name="apple" horiz-adv-x="647" 
d="M635 529h-100v-416q0 -19 1.5 -29t7.5 -23t22.5 -17t42.5 -2v-42q-56 4 -100 0t-62 -8t-46 -13h-25v63q-81 -63 -147 -63q-84 0 -143.5 78.5t-59.5 190.5q0 104 56.5 182.5t134.5 78.5q38 0 72.5 -17.5t86.5 -62.5v100h-165v39h165q0 56 -18 68.5t-88 10.5v42
q114 -2 150.5 1.5t91.5 19.5h23v-142h100v-39zM377 246q0 107 -43 154q-36 39 -75 39q-38 0 -48 -47q-11 -53 -11 -162q0 -32 0.5 -48t2.5 -42.5t7 -40.5t13 -29t22 -21.5t33 -6.5q50 0 74.5 58.5t24.5 145.5z" />
    <glyph glyph-name="c256" horiz-adv-x="530" 
d="M476 69q0 -34 -23 -57t-56 -23t-56 23.5t-23 56.5q0 32 23.5 55t55.5 23q33 0 56 -23t23 -55zM211 69q0 -34 -23 -57t-56 -23q-32 0 -55.5 23.5t-23.5 56.5q0 32 23.5 55t55.5 23q33 0 56 -23t23 -55z" />
    <glyph glyph-name="c257" 
d="M323 529q0 -93 -55.5 -158.5t-129.5 -65.5q-46 0 -76.5 27.5t-30.5 59.5q0 23 15.5 37.5t37.5 14.5q18 0 32.5 -12t14.5 -30q0 -17 -19 -41q-8 -7 -8 -11q0 -6 7.5 -12t20.5 -6q31 0 50.5 24t23 54t5.5 57t-1 35q-51 -24 -76 -24q-41 0 -77 30.5t-36 84.5q0 55 40.5 96.5
t100.5 41.5q44 0 77 -20.5t50 -53t25.5 -65t8.5 -63.5zM210 605q0 21 -1 32.5t-4.5 27.5t-13 23.5t-25.5 7.5q-15 0 -24 -7.5t-12.5 -23.5t-4.5 -27.5t-1 -32.5t1 -33t4.5 -28t12.5 -23.5t24 -7.5q16 0 25.5 7.5t13 23.5t4.5 28t1 33z" />
    <glyph glyph-name="c258" 
d="M315 436q0 -56 -52 -93.5t-118 -37.5q-45 0 -83.5 29t-38.5 62q0 22 16 39.5t39 17.5q22 0 36 -15.5t14 -31.5q0 -20 -22 -37q-8 -5 -8 -10q0 -7 12.5 -17t30.5 -10q7 0 16 2.5t23.5 10t24 27.5t9.5 49q0 35 -10.5 56.5t-27.5 28.5t-39.5 9.5t-46.5 -0.5v32h13q30 0 40 1
t22 7q43 21 43 73q0 33 -13.5 51.5t-25 22t-23.5 3.5q-14 0 -25 -7t-11 -15q0 -4 13 -17q16 -17 16 -33t-15 -29t-35 -13q-22 0 -35 16t-13 37q0 37 38.5 62t85.5 25q50 0 92.5 -27t42.5 -70q0 -60 -81 -94q21 -10 30 -15t28.5 -18.5t28.5 -31t9 -39.5z" />
    <glyph glyph-name="c259" horiz-adv-x="1062" 
d="M1030 0h-286v42q23 -1 37 4t19.5 17.5t6.5 22t1 27.5v261q0 39 -11 55t-53 16h-130v-335q0 -40 13.5 -54t55.5 -14h16v-42h-329v42h18q40 0 53.5 14t13.5 54v335h-190v-335q0 -40 14 -54t55 -14h16v-42h-329v42h19q40 0 53 14.5t13 53.5v335h-85v43h85v35q0 15 2 31
t14 46.5t33 52.5t64.5 39.5t102.5 17.5q118 0 177 -62q18 17 32 27t62 22.5t116 12.5q132 0 187 -51q34 -30 34 -68q0 -23 -17 -37t-37 -14q-23 0 -39 15t-16 35q0 18 11 29q9 9 9 13q0 36 -131 36q-140 0 -140 -52q0 -14 21 -60q21 -38 23 -68h130q11 0 40.5 2t61.5 5t34 3
h87v-385q0 -18 1 -27.5t6.5 -22.5t19.5 -18t36 -3v-42zM455 488v54q-42 10 -42 48q0 16 11 29q8 12 8 13q0 14 -28 24t-70 10q-111 0 -111 -52q0 -20 21 -58q20 -40 21 -68h190z" />
    <glyph glyph-name="c260" horiz-adv-x="595" 
d="M460 712q0 -4 -5 -16l-105 -155h-96l-103 154q-7 11 -7 17q0 11 11.5 20.5t21.5 9.5q12 0 22 -10l97 -75h16l92 74q12 11 23 11q13 0 23 -9.5t10 -20.5zM556 180q-11 -56 -38.5 -97.5t-55 -60.5t-62.5 -30t-49.5 -12t-28.5 -1q-111 0 -192 80t-81 186q0 45 17 90t49 84.5
t86.5 64.5t122.5 25q99 0 158 -50.5t59 -106.5q0 -30 -22 -56t-56 -26q-30 0 -51 22t-21 51q0 28 21 51q17 17 17 25q0 14 -23 29.5t-52 15.5q-36 0 -62 -20t-38 -44.5t-18.5 -61t-7.5 -54t-1 -39.5q0 -41 3.5 -71.5t15.5 -66t39.5 -55t69.5 -19.5q56 0 99 41t60 106h42z
" />
    <glyph glyph-name="c261" horiz-adv-x="318" 
d="M276 -119q-77 -73 -145 -73q-40 0 -64.5 24.5t-24.5 57.5q0 56 74 110h106q-18 -19 -41.5 -52t-23.5 -50q0 -12 10 -12q25 0 74 44z" />
    <glyph glyph-name="c262" horiz-adv-x="776" 
d="M558 890q0 -38 -42 -60l-143 -77l-39 28l119 138q1 2 4 5q28 24 45 26q22 0 39 -17t17 -43zM726 314q0 -61 -21.5 -119.5t-61 -107t-103 -78.5t-140.5 -30q-83 0 -153.5 32t-116.5 85t-72 119t-26 135q0 75 33 156.5t86 129.5q47 44 118.5 69.5t137.5 25.5q97 0 191 -53
q11 -6 20 -6q14 0 29 15t18 44h52q-4 -100 9 -303h-57q-16 61 -22.5 82.5t-20.5 49t-37 51.5q-54 59 -134 59q-118 0 -166 -128q-30 -77 -30 -175q0 -31 4 -69t21.5 -96.5t46.5 -95.5q45 -54 122 -54q56 0 100.5 26.5t69 67.5t37.5 84t14 84h52z" />
    <glyph glyph-name="c263" horiz-adv-x="224" 
d="M224 890q0 -38 -42 -60l-142 -77l-40 28l120 138q11 13 15.5 17t13.5 9t20 5q22 0 38.5 -17t16.5 -43z" />
    <glyph glyph-name="c264" 
d="M317 452q0 -32 -11.5 -58t-29.5 -42t-41.5 -27t-45 -15.5t-41.5 -4.5q-64 0 -98.5 32.5t-34.5 68.5q0 23 15.5 40.5t40.5 17.5q22 0 34.5 -12.5t12.5 -31.5q0 -37 -37 -49q-11 -4 -11 -11q0 -8 16.5 -18.5t40.5 -10.5q89 0 89 113q0 18 -0.5 30t-4.5 28.5t-11 26
t-20.5 16.5t-32.5 7q-52 0 -75 -50h-32l26 229q115 -31 143 -31q50 0 82 31l19 -17q-10 -17 -17 -26.5t-24.5 -28t-42.5 -27.5t-56 -9q-23 0 -84 16l-11 -83q51 29 95 29q20 0 43.5 -7t47.5 -21.5t40 -41.5t16 -63z" />
    <glyph glyph-name="c265" horiz-adv-x="927" 
d="M315 436q0 -56 -52 -93.5t-118 -37.5q-45 0 -83.5 29t-38.5 62q0 22 16 39.5t39 17.5q22 0 36 -15.5t14 -31.5q0 -20 -22 -37q-8 -5 -8 -10q0 -7 12.5 -17t30.5 -10q7 0 16 2.5t23.5 10t24 27.5t9.5 49q0 35 -10.5 56.5t-27.5 28.5t-39.5 9.5t-46.5 -0.5v32h13q30 0 40 1
t22 7q43 21 43 73q0 33 -13.5 51.5t-25 22t-23.5 3.5q-14 0 -25 -7t-11 -15q0 -4 13 -17q16 -17 16 -33t-15 -29t-35 -13q-22 0 -35 16t-13 37q0 37 38.5 62t85.5 25q50 0 92.5 -27t42.5 -70q0 -60 -81 -94q21 -10 30 -15t28.5 -18.5t28.5 -31t9 -39.5zM683 721l-425 -721
h-79l443 731h61v-10zM907 117q0 -51 -43.5 -90.5t-120.5 -39.5q-63 0 -103 35t-40 71q0 19 11.5 37.5t20.5 26t28 21.5l36 26l-40 32q-36 28 -36 69q0 42 37 75t104 33q50 0 88 -21.5t38 -61.5q0 -28 -37 -63l-35 -32l41 -28q8 -5 17.5 -13.5t21.5 -30.5t12 -46zM807 324
q0 26 -17 41.5t-43 15.5q-21 0 -39 -10.5t-18 -33.5q0 -26 27 -41l57 -38q33 31 33 66zM820 86q0 49 -48 76l-36 20q-52 -57 -52 -99q0 -27 18 -47t48 -20q25 0 47.5 16t22.5 54z" />
    <glyph glyph-name="c266" horiz-adv-x="346" 
d="M346 880q-2 -45 -32 -85.5t-74 -40.5q-14 0 -43 8l-94 33q-16 5 -25 5q-18 0 -24 -37h-54q3 54 31 90t63 36q19 0 45 -8l83 -28q20 -7 31 -7q30 0 40 34h53z" />
    <glyph glyph-name="c267" 
d="M319 460q-2 -17 -6.5 -35t-16 -49.5t-34 -51t-51.5 -19.5q-40 0 -69 44q-23 32 -33 35q-4 2 -8 2q-16 0 -28.5 -23t-11.5 -58h-35q-1 34 13.5 70t64.5 95q39 48 53 66t25.5 42.5t11.5 49.5q0 27 -15 51.5t-50 24.5q-20 0 -33.5 -12t-13.5 -24q0 -11 10 -13q32 -9 32 -46
q0 -24 -15 -35t-31 -11q-21 0 -37 18t-16 44q0 13 6.5 29t21 34.5t43.5 30.5t68 12q70 0 105.5 -31t35.5 -72q0 -25 -9.5 -45.5t-28 -36t-30 -22.5t-29.5 -17q-99 -57 -99 -79q0 -7 4.5 -9t24.5 -5q11 -1 41 -11q21 -8 37 -8q55 0 71 65h32z" />
    <glyph glyph-name="c268" 
d="M324 318h-255v25q27 -1 43.5 3t23 14.5t8 18.5t1.5 24v42h-131v46l152 240h82v-254h76v-32h-76v-42q0 -17 1.5 -25t8 -18t23 -14t43.5 -3v-25zM145 477v164h-2l-101 -164h103z" />
    <glyph glyph-name="c269" horiz-adv-x="324" 
d="M324 862q0 -14 -8 -22l-90 -88h-127l-91 88q-8 8 -8 20q0 13 10 21.5t25 8.5q13 0 39 -12l82 -38h13l82 38q26 12 38 12q16 0 25.5 -8.5t9.5 -19.5z" />
    <glyph glyph-name="c270" horiz-adv-x="358" 
d="M326 782h-294v73h294v-73z" />
    <glyph glyph-name="c271" horiz-adv-x="166" 
d="M175 860q0 -37 -26.5 -64.5t-64.5 -27.5t-65 26.5t-27 65.5q0 38 27.5 64.5t64.5 26.5t64 -27t27 -64zM128 860q0 17 -12.5 30.5t-31.5 13.5t-32.5 -12.5t-13.5 -31.5q0 -20 13.5 -33t32.5 -13t31.5 13.5t12.5 32.5z" />
    <glyph glyph-name="c272" 
d="M300 707q0 -30 -24 -99q-32 -81 -32 -121q0 -7 5 -44.5t5 -42.5q0 -41 -17.5 -68t-47.5 -27q-23 0 -42.5 19.5t-19.5 56.5q0 40 16 70.5t73 109.5q27 38 34.5 55t7.5 36q-51 -46 -78 -46q-14 0 -48 23q-16 11 -25 11q-28 0 -28 -74h-33v165h23q7 -23 19 -23q6 0 24 11
q22 12 39 12q25 0 58 -30q23 -22 31 -22q2 0 6 1.5t10 9t8 19.5q1 9 2 12.5t4.5 6.5t9.5 3q20 0 20 -24z" />
    <glyph glyph-name="c273" 
d="M328 431q0 -36 -30 -71t-108 -55v-67h-35v66q-57 6 -97.5 30t-40.5 63q0 23 14.5 37.5t37.5 14.5q22 0 35.5 -14t13.5 -31q0 -20 -14 -30q-12 -10 -12 -15t5.5 -10t21 -10t36.5 -5v146l-65 32q-62 32 -62 90q0 40 34 77.5t93 45.5v67h35v-67q49 -6 85 -28t36 -51
q0 -17 -12.5 -30t-32.5 -13t-31 11.5t-11 27.5t10 27q2 2 3 4l1 1q0 2 -5 5.5t-16.5 7.5t-26.5 6v-124l44 -19q47 -19 70.5 -52.5t23.5 -66.5zM155 587v106q-61 -10 -61 -49q0 -19 22 -35t39 -22zM263 391q0 38 -73 71v-125q33 3 53 21t20 33z" />
    <glyph glyph-name="c274" 
d="M323 529q0 -93 -55.5 -158.5t-129.5 -65.5q-46 0 -76.5 27.5t-30.5 59.5q0 23 15.5 37.5t37.5 14.5q18 0 32.5 -12t14.5 -30q0 -17 -19 -41q-8 -7 -8 -11q0 -6 7.5 -12t20.5 -6q31 0 50.5 24t23 54t5.5 57t-1 35q-51 -24 -76 -24q-41 0 -77 30.5t-36 84.5q0 55 40.5 96.5
t100.5 41.5q44 0 77 -20.5t50 -53t25.5 -65t8.5 -63.5zM210 605q0 21 -1 32.5t-4.5 27.5t-13 23.5t-25.5 7.5q-15 0 -24 -7.5t-12.5 -23.5t-4.5 -27.5t-1 -32.5t1 -33t4.5 -28t12.5 -23.5t24 -7.5q16 0 25.5 7.5t13 23.5t4.5 28t1 33z" />
    <glyph glyph-name="c275" horiz-adv-x="753" 
d="M731 603q0 -24 -17 -38t-38 -14q-22 0 -37.5 14.5t-15.5 37.5q0 16 11 28q0 1 4 6t4 6q0 7 -10.5 16t-23.5 9q-16 0 -26.5 -12.5t-10.5 -30.5q0 -14 19 -58q21 -40 24 -79h95v-43h-95v-335q0 -40 13.5 -54t55.5 -14h16v-42h-329v42h18q40 0 53.5 14t13.5 54v335h-190
v-335q0 -40 14 -54t55 -14h16v-42h-329v42h19q40 0 53 14.5t13 53.5v335h-85v43h85v35q0 18 3 37t16.5 47.5t35 50t63.5 37t97 15.5q114 0 174 -57q50 57 106 57q49 0 89.5 -33t40.5 -74zM455 488v54q-42 11 -42 47q0 13 10 30q1 0 5 6t4 7q0 14 -28 24t-69 10
q-49 0 -83 -13q-30 -11 -30 -38q0 -13 14 -46q18 -34 23 -47t6 -34h190z" />
    <glyph glyph-name="c276" 
d="M324 318h-255v25q27 -1 43.5 3t23 14.5t8 18.5t1.5 24v42h-131v46l152 240h82v-254h76v-32h-76v-42q0 -17 1.5 -25t8 -18t23 -14t43.5 -3v-25zM145 477v164h-2l-101 -164h103z" />
    <glyph glyph-name="c277" horiz-adv-x="265" 
d="M211 69q0 -34 -23 -57t-56 -23q-32 0 -55.5 23.5t-23.5 56.5q0 32 23.5 55t55.5 23q33 0 56 -23t23 -55z" />
    <glyph glyph-name="c278" 
d="M325 518q0 -60 -16.5 -104.5t-42 -66.5t-49 -32t-45.5 -10t-45.5 10t-49 32t-42 66.5t-16.5 104.5t16.5 104.5t42 66.5t49 32t45.5 10t45.5 -10t49 -31.5t42 -66t16.5 -105.5zM216 519q0 131 -9 158q-12 28 -35 28q-27 0 -36 -28q-10 -28 -10 -158q0 -129 10 -156
q9 -29 36 -29q24 0 35 29q9 27 9 156z" />
    <glyph glyph-name="c279" horiz-adv-x="647" 
d="M403 270q0 -32 -23.5 -55.5t-56.5 -23.5q-32 0 -55.5 23.5t-23.5 55.5q0 33 23.5 56.5t55.5 23.5q33 0 56.5 -23.5t23.5 -56.5z" />
    <glyph glyph-name="c280" 
d="M300 707q0 -30 -24 -99q-32 -81 -32 -121q0 -7 5 -44.5t5 -42.5q0 -41 -17.5 -68t-47.5 -27q-23 0 -42.5 19.5t-19.5 56.5q0 40 16 70.5t73 109.5q27 38 34.5 55t7.5 36q-51 -46 -78 -46q-14 0 -48 23q-16 11 -25 11q-28 0 -28 -74h-33v165h23q7 -23 19 -23q6 0 24 11
q22 12 39 12q25 0 58 -30q23 -22 31 -22q2 0 6 1.5t10 9t8 19.5q1 9 2 12.5t4.5 6.5t9.5 3q20 0 20 -24z" />
    <glyph glyph-name="c281" horiz-adv-x="324" 
d="M324 781q0 -11 -10.5 -20t-25.5 -9q-10 0 -38 12l-81 39h-13l-82 -39q-26 -12 -39 -12q-14 0 -24.5 9t-10.5 19q0 13 8 23l91 87h127l89 -87q9 -9 9 -22z" />
    <glyph glyph-name="c282" horiz-adv-x="1067" 
d="M1025 0h-297v42q26 -2 42.5 3t22.5 18t7.5 22.5t1.5 27.5v454q-21 -16 -40 -16q-20 0 -36.5 14t-16.5 37q0 16 11 29q8 8 8 12q0 12 -19.5 21t-53.5 9q-84 0 -84 -45q0 -16 20 -61q19 -41 23 -79h95v-43h-95v-335q0 -40 13.5 -54t55.5 -14h16v-42h-329v42h18
q40 0 53.5 14t13.5 54v335h-190v-335q0 -40 14 -54t55 -14h16v-42h-329v42h19q40 0 53 14.5t13 53.5v335h-85v43h85v35q0 15 2.5 32.5t15 47t33.5 51.5t64 39t100 17q116 0 175 -59q28 31 59.5 45t85.5 14q48 0 98 -14q33 5 135 14h87v-597q0 -18 1 -27.5t6.5 -22
t19.5 -17.5t37 -4v-42zM455 488v54q-42 10 -42 47q0 13 11 30q8 12 8 13q0 14 -28 24t-69 10q-112 0 -112 -52q0 -20 21 -58q20 -40 21 -68h190z" />
    <glyph glyph-name="c283" horiz-adv-x="838" 
d="M796 456h-53q-19 74 -75.5 137.5t-135.5 63.5h-131q-51 0 -51 -62v-149h49q126 0 139 153h51v-347h-52q-3 20 -5.5 33.5t-11.5 36.5t-22.5 36.5t-39 24.5t-59.5 11h-49v-142h138v-53h-138v-46q0 -18 0.5 -27.5t5.5 -25.5t14.5 -24.5t28.5 -15.5t46 -7h43v-53h-446v53
q27 -3 46.5 4.5t29 17.5t14.5 28t5.5 27t0.5 23v46h-96v53h96v306q0 13 -0.5 22.5t-5.5 27t-14.5 28t-29 17.5t-46.5 4v53h737z" />
    <glyph glyph-name="c284" horiz-adv-x="382" 
d="M382 832q0 -32 -23.5 -55.5t-57.5 -23.5q-32 0 -55.5 23.5t-23.5 55.5q0 34 23.5 57.5t55.5 23.5q34 0 57.5 -23.5t23.5 -57.5zM160 832q0 -32 -23.5 -55.5t-55.5 -23.5q-34 0 -57.5 23.5t-23.5 55.5q0 34 23.5 57.5t57.5 23.5q32 0 55.5 -23.5t23.5 -57.5z" />
    <glyph glyph-name="c285" horiz-adv-x="927" 
d="M311 318h-276v25q55 -1 72 10.5t17 49.5v202q0 17 -1.5 26.5t-13.5 20t-36 10.5l-38 -1v26q131 0 144 44h49v-328q0 -17 1.5 -25.5t8.5 -18.5t25 -13.5t48 -2.5v-25zM683 721l-425 -721h-79l443 731h61v-10zM898 118q0 -56 -52 -93.5t-118 -37.5q-45 0 -83.5 29t-38.5 62
q0 22 16 39.5t39 17.5q22 0 36 -15.5t14 -31.5q0 -20 -22 -37q-8 -5 -8 -10q0 -7 12.5 -17t30.5 -10q7 0 16 2.5t23.5 10t24 27.5t9.5 49q0 35 -10.5 56.5t-27.5 28.5t-39.5 9.5t-46.5 -0.5v32h13q30 0 40 1t22 7q43 21 43 73q0 33 -13.5 51.5t-25 22t-23.5 3.5
q-14 0 -25 -7t-11 -15q0 -4 13 -17q16 -17 16 -33t-15 -29t-35 -13q-22 0 -35 16t-13 37q0 37 38.5 62t85.5 25q50 0 92.5 -27t42.5 -70q0 -60 -81 -94q21 -10 30 -15t28.5 -18.5t28.5 -31t9 -39.5z" />
    <glyph glyph-name="c286" 
d="M324 455q0 -61 -41.5 -105.5t-104.5 -44.5q-74 0 -116 62t-42 147q0 104 53.5 160.5t125.5 56.5q47 0 79.5 -25t32.5 -53q0 -22 -17 -35.5t-35 -13.5t-32 12.5t-14 31.5q0 9 4 17.5t7.5 12t5.5 4.5q4 6 4 7q0 2 -4.5 6t-12.5 7.5t-17 3.5q-22 0 -36.5 -10t-20 -29
t-6.5 -31t-1 -32q0 -18 2 -60q1 1 6 5t7.5 5.5t7.5 5t8.5 5t9.5 4.5t11 4t11.5 2t13.5 1q44 0 77.5 -34t33.5 -87zM224 438q0 95 -44 95q-42 0 -42 -94q0 -24 1 -37.5t4.5 -32.5t12.5 -28t24 -9q16 0 25.5 9.5t13 28.5t4.5 32t1 36z" />
    <glyph glyph-name="c287" 
d="M317 452q0 -32 -11.5 -58t-29.5 -42t-41.5 -27t-45 -15.5t-41.5 -4.5q-64 0 -98.5 32.5t-34.5 68.5q0 23 15.5 40.5t40.5 17.5q22 0 34.5 -12.5t12.5 -31.5q0 -37 -37 -49q-11 -4 -11 -11q0 -8 16.5 -18.5t40.5 -10.5q89 0 89 113q0 18 -0.5 30t-4.5 28.5t-11 26
t-20.5 16.5t-32.5 7q-52 0 -75 -50h-32l26 229q115 -31 143 -31q50 0 82 31l19 -17q-10 -17 -17 -26.5t-24.5 -28t-42.5 -27.5t-56 -9q-23 0 -84 16l-11 -83q51 29 95 29q20 0 43.5 -7t47.5 -21.5t40 -41.5t16 -63z" />
    <glyph glyph-name="c288" horiz-adv-x="795" 
d="M763 191h-731v106h731v-106z" />
    <glyph glyph-name="c289" 
d="M324 435q0 -51 -43.5 -90.5t-120.5 -39.5q-63 0 -103 35t-40 71q0 19 11.5 37.5t20.5 26t28 21.5l36 26l-40 32q-36 28 -36 69q0 42 37 75t104 33q50 0 88 -21.5t38 -61.5q0 -28 -37 -63l-35 -32l41 -28q8 -5 17.5 -13.5t21.5 -30.5t12 -46zM224 642q0 26 -17 41.5
t-43 15.5q-21 0 -39 -10.5t-18 -33.5q0 -26 27 -41l57 -38q33 31 33 66zM237 404q0 49 -48 76l-36 20q-52 -57 -52 -99q0 -27 18 -47t48 -20q25 0 47.5 16t22.5 54z" />
    <glyph glyph-name="c290" 
d="M337 526q-23 -111 -139 -121v-89h-34v90q-58 9 -95.5 40t-49.5 60.5t-12 57.5q0 18 6.5 39.5t22 47.5t49 45.5t79.5 25.5v75h34v-74q65 -5 97.5 -35t32.5 -59q0 -18 -14.5 -33.5t-36.5 -15.5q-20 0 -33.5 12.5t-13.5 30.5q0 19 14 31q10 11 10 15q0 3 -3.5 8.5t-17 11.5
t-35.5 6v-257q46 -3 73.5 24.5t38.5 63.5h27zM164 448v235q-12 -10 -18.5 -18t-14.5 -34.5t-8 -66.5q0 -42 8 -68.5t15 -33.5t18 -14z" />
    <glyph glyph-name="c291" horiz-adv-x="365" 
d="M333 882q-29 -132 -151 -132q-10 0 -19.5 1t-32 8t-39.5 19.5t-34 39.5t-25 64h63q8 -14 14 -22.5t24.5 -17.5t44.5 -9q25 0 44 8.5t27 16.5t22 24h62z" />
    <glyph glyph-name="c292" horiz-adv-x="648" 
d="M442 691q-4 -24 -9 -40t-18.5 -40.5t-41.5 -38t-68 -13.5q-41 0 -69.5 14t-42.5 39t-19.5 41t-9.5 38h64q27 -50 82 -50q22 0 39 10t22.5 18t13.5 22h57zM617 455q0 -21 -14.5 -37t-33.5 -16q-22 0 -40 30q-3 8 -11 8q-14 0 -29 -31q17 -48 17 -67q0 -73 -70 -120.5
t-146 -47.5q-21 0 -39 5q-30 6 -36 6q-15 0 -24 -11.5t-9 -26.5q0 -42 80 -42h112q7 0 17 -1t34.5 -4.5t46 -13t43.5 -24.5t35 -41.5t13 -61.5q0 -20 -3 -35.5t-15 -40.5t-43.5 -47t-79.5 -38q-62 -23 -157 -23q-59 0 -103.5 10t-66.5 23t-35 30.5t-15.5 28.5t-2.5 21
q0 59 95 92q-67 32 -67 95q0 34 21 63t75 68q-97 47 -97 135q0 76 66.5 122t153.5 46q106 0 170 -65q24 22 37.5 33.5t33 21.5t35.5 10q24 0 38 -17.5t14 -36.5zM343 355q0 25 -1 39t-6 33.5t-17.5 28.5t-32.5 9q-19 0 -31.5 -8.5t-17.5 -26.5t-6.5 -33t-1.5 -40
q0 -50 2.5 -75t15.5 -42.5t39 -17.5q38 0 47.5 29t9.5 104zM457 -108q0 35 -35 54q-42 21 -123 21q-159 0 -159 -84q0 -74 135 -74q44 0 85.5 10t60.5 21q36 15 36 52z" />
    <glyph glyph-name="c293" horiz-adv-x="727" 
d="M280 689l-1 -77h-18q-2 31 -15.5 42.5t-46.5 11.5v-192q0 -11 1 -17t6 -8.5t9.5 -3.5t16.5 -1v-18h-137v18q20 -1 27 5.5t7 26.5v190h-15q-25 0 -35.5 -12t-17.5 -42h-14l-1 77h234zM668 426h-137v18q21 -1 28 6.5t7 22.5v174h-2l-100 -228l-103 223h-2v-168q0 -14 6 -21
t12 -8t18 -1v-18h-87v18q23 5 27 9t4 23v163q0 21 -5 25.5t-26 6.5v18h105l76 -163l73 163h106v-18q-22 1 -27.5 -6t-5.5 -29v-160q0 -21 8 -26.5t25 -5.5v-18z" />
    <glyph glyph-name="c294" horiz-adv-x="742" 
d="M742 0h-742v106h742v-106z" />
    <glyph glyph-name="c295" horiz-adv-x="228" 
d="M224 781l-41 -28l-142 77q-41 23 -41 60q0 24 16 42t39 18q15 0 24.5 -7t24.5 -24z" />
    <glyph glyph-name="c296" horiz-adv-x="927" 
d="M319 460q-2 -17 -6.5 -35t-16 -49.5t-34 -51t-51.5 -19.5q-40 0 -69 44q-23 32 -33 35q-4 2 -8 2q-16 0 -28.5 -23t-11.5 -58h-35q-1 34 13.5 70t64.5 95q39 48 53 66t25.5 42.5t11.5 49.5q0 27 -15 51.5t-50 24.5q-20 0 -33.5 -12t-13.5 -24q0 -11 10 -13q32 -9 32 -46
q0 -24 -15 -35t-31 -11q-21 0 -37 18t-16 44q0 13 6.5 29t21 34.5t43.5 30.5t68 12q70 0 105.5 -31t35.5 -72q0 -25 -9.5 -45.5t-28 -36t-30 -22.5t-29.5 -17q-99 -57 -99 -79q0 -7 4.5 -9t24.5 -5q11 -1 41 -11q21 -8 37 -8q55 0 71 65h32zM683 721l-425 -721h-79l443 731
h61v-10zM898 118q0 -56 -52 -93.5t-118 -37.5q-45 0 -83.5 29t-38.5 62q0 22 16 39.5t39 17.5q22 0 36 -15.5t14 -31.5q0 -20 -22 -37q-8 -5 -8 -10q0 -7 12.5 -17t30.5 -10q7 0 16 2.5t23.5 10t24 27.5t9.5 49q0 35 -10.5 56.5t-27.5 28.5t-39.5 9.5t-46.5 -0.5v32h13
q30 0 40 1t22 7q43 21 43 73q0 33 -13.5 51.5t-25 22t-23.5 3.5q-14 0 -25 -7t-11 -15q0 -4 13 -17q16 -17 16 -33t-15 -29t-35 -13q-22 0 -35 16t-13 37q0 37 38.5 62t85.5 25q50 0 92.5 -27t42.5 -70q0 -60 -81 -94q21 -10 30 -15t28.5 -18.5t28.5 -31t9 -39.5z" />
    <glyph glyph-name="c297" horiz-adv-x="638" 
d="M596 227q0 -16 -2.5 -35t-14 -51.5t-31 -60t-57.5 -54.5t-89 -41v-5q63 -16 63 -82q0 -31 -15 -52.5t-39.5 -31t-45.5 -13t-44 -3.5q-70 0 -104 24.5t-34 56.5q0 23 17.5 36.5t42.5 13.5q26 0 40.5 -14t14.5 -33q0 -14 -8 -25l-6 -10q0 -5 5 -5q14 0 36.5 14.5t22.5 40.5
q0 18 -13.5 37.5t-44.5 24.5v28q-59 17 -136 61q-16 9 -22 9q-15 0 -20 -78h-53v314h53q2 -53 21 -98t46.5 -73t60 -48t60 -28.5t47.5 -8.5q47 0 89.5 28t42.5 74q0 61 -83 93l-153 61q-96 37 -144 101q-46 65 -46 137q0 80 54 140t141 60q35 0 61 -8t93 -37q27 -13 35 -13
q24 0 36 58h53v-259h-53q-8 47 -31.5 84.5t-50 57.5t-56.5 32.5t-50 16.5t-32 4q-41 0 -64.5 -20.5t-23.5 -48.5q0 -26 18 -43t65 -37l179 -73q59 -24 99 -66t55 -80t15 -72z" />
    <glyph glyph-name="c298" horiz-adv-x="106" 
d="M106 0h-106v742h106v-742z" />
    <glyph glyph-name="c299" horiz-adv-x="927" 
d="M311 318h-276v25q55 -1 72 10.5t17 49.5v202q0 17 -1.5 26.5t-13.5 20t-36 10.5l-38 -1v26q131 0 144 44h49v-328q0 -17 1.5 -25.5t8.5 -18.5t25 -13.5t48 -2.5v-25zM683 721l-425 -721h-79l443 731h61v-10zM907 117q0 -51 -43.5 -90.5t-120.5 -39.5q-63 0 -103 35
t-40 71q0 19 11.5 37.5t20.5 26t28 21.5l36 26l-40 32q-36 28 -36 69q0 42 37 75t104 33q50 0 88 -21.5t38 -61.5q0 -28 -37 -63l-35 -32l41 -28q8 -5 17.5 -13.5t21.5 -30.5t12 -46zM807 324q0 26 -17 41.5t-43 15.5q-21 0 -39 -10.5t-18 -33.5q0 -26 27 -41l57 -38
q33 31 33 66zM820 86q0 49 -48 76l-36 20q-52 -57 -52 -99q0 -27 18 -47t48 -20q25 0 47.5 16t22.5 54z" />
    <glyph glyph-name="c300" horiz-adv-x="927" 
d="M317 452q0 -32 -11.5 -58t-29.5 -42t-41.5 -27t-45 -15.5t-41.5 -4.5q-64 0 -98.5 32.5t-34.5 68.5q0 23 15.5 40.5t40.5 17.5q22 0 34.5 -12.5t12.5 -31.5q0 -37 -37 -49q-11 -4 -11 -11q0 -8 16.5 -18.5t40.5 -10.5q89 0 89 113q0 18 -0.5 30t-4.5 28.5t-11 26
t-20.5 16.5t-32.5 7q-52 0 -75 -50h-32l26 229q115 -31 143 -31q50 0 82 31l19 -17q-10 -17 -17 -26.5t-24.5 -28t-42.5 -27.5t-56 -9q-23 0 -84 16l-11 -83q51 29 95 29q20 0 43.5 -7t47.5 -21.5t40 -41.5t16 -63zM683 721l-425 -721h-79l443 731h61v-10zM907 117
q0 -51 -43.5 -90.5t-120.5 -39.5q-63 0 -103 35t-40 71q0 19 11.5 37.5t20.5 26t28 21.5l36 26l-40 32q-36 28 -36 69q0 42 37 75t104 33q50 0 88 -21.5t38 -61.5q0 -28 -37 -63l-35 -32l41 -28q8 -5 17.5 -13.5t21.5 -30.5t12 -46zM807 324q0 26 -17 41.5t-43 15.5
q-21 0 -39 -10.5t-18 -33.5q0 -26 27 -41l57 -38q33 31 33 66zM820 86q0 49 -48 76l-36 20q-52 -57 -52 -99q0 -27 18 -47t48 -20q25 0 47.5 16t22.5 54z" />
    <glyph glyph-name="c301" horiz-adv-x="848" 
d="M577 882q-13 -61 -50.5 -96.5t-100.5 -35.5q-10 0 -19.5 1t-31.5 8t-39 19.5t-34 39.5t-25 64h62q9 -15 14.5 -22.5t24 -17t44.5 -9.5q25 0 44.5 8.5t27.5 16.5t22 24h61zM811 318h-20q-33 0 -49 -18t-16 -65v-246h-42q-16 71 -62 117h-5q-34 -37 -57 -58.5t-74 -45
t-109 -23.5q-45 0 -93 15t-99.5 53t-83.5 94q-59 104 -59 209q0 62 22 126t64.5 122.5t115.5 95.5t163 37q40 0 65.5 -8t73.5 -31q25 -10 37 -10q32 0 48 60h46l17 -265h-46q-92 201 -214 201q-36 0 -65 -16.5t-47 -41.5t-31.5 -60.5t-20.5 -66.5t-11 -67.5t-4.5 -56
t-0.5 -38.5q0 -92 11.5 -152.5t33.5 -88.5t45.5 -38t57.5 -10q68 0 101.5 41.5t33.5 139.5q0 95 -78 95h-30v53h382v-53z" />
  </font>
</defs>
</svg>
